solid Default
  facet normal 9.983119e-01 5.807913e-02 0.000000e+00
    outer loop
      vertex 1.100000e+00 6.200000e+00 8.999999e-01
      vertex 1.100000e+00 6.200000e+00 0.000000e+00
      vertex 1.084808e+00 6.373649e+00 0.000000e+00
    endloop
  endfacet
  facet normal 9.932307e-01 1.161583e-01 0.000000e+00
    outer loop
      vertex 1.100000e+00 6.200000e+00 8.999999e-01
      vertex 1.084808e+00 6.373649e+00 0.000000e+00
      vertex 1.084808e+00 6.373649e+00 8.999999e-01
    endloop
  endfacet
  facet normal 9.730600e-01 2.305519e-01 0.000000e+00
    outer loop
      vertex 1.084808e+00 6.373649e+00 8.999999e-01
      vertex 1.084808e+00 6.373649e+00 0.000000e+00
      vertex 1.039693e+00 6.542021e+00 0.000000e+00
    endloop
  endfacet
  facet normal 9.579706e-01 2.868663e-01 0.000000e+00
    outer loop
      vertex 1.084808e+00 6.373649e+00 8.999999e-01
      vertex 1.039693e+00 6.542021e+00 0.000000e+00
      vertex 1.039693e+00 6.542021e+00 8.999999e-01
    endloop
  endfacet
  facet normal 9.182422e-01 3.960194e-01 0.000000e+00
    outer loop
      vertex 1.039693e+00 6.542021e+00 8.999999e-01
      vertex 1.039693e+00 6.542021e+00 0.000000e+00
      vertex 9.660257e-01 6.700001e+00 0.000000e+00
    endloop
  endfacet
  facet normal 8.936031e-01 4.488580e-01 0.000000e+00
    outer loop
      vertex 1.039693e+00 6.542021e+00 8.999999e-01
      vertex 9.660257e-01 6.700001e+00 0.000000e+00
      vertex 9.660257e-01 6.700001e+00 8.999999e-01
    endloop
  endfacet
  facet normal 8.355240e-01 5.494540e-01 0.000000e+00
    outer loop
      vertex 9.660257e-01 6.700001e+00 8.999999e-01
      vertex 9.660257e-01 6.700001e+00 0.000000e+00
      vertex 8.660443e-01 6.842788e+00 0.000000e+00
    endloop
  endfacet
  facet normal 8.020840e-01 5.972114e-01 0.000000e+00
    outer loop
      vertex 9.660257e-01 6.700001e+00 8.999999e-01
      vertex 8.660443e-01 6.842788e+00 0.000000e+00
      vertex 8.660443e-01 6.842788e+00 8.999999e-01
    endloop
  endfacet
  facet normal 7.274188e-01 6.861938e-01 0.000000e+00
    outer loop
      vertex 8.660443e-01 6.842788e+00 8.999999e-01
      vertex 8.660443e-01 6.842788e+00 0.000000e+00
      vertex 7.427877e-01 6.966044e+00 0.000000e+00
    endloop
  endfacet
  facet normal 6.861938e-01 7.274188e-01 0.000000e+00
    outer loop
      vertex 8.660443e-01 6.842788e+00 8.999999e-01
      vertex 7.427877e-01 6.966044e+00 0.000000e+00
      vertex 7.427877e-01 6.966044e+00 8.999999e-01
    endloop
  endfacet
  facet normal 5.972114e-01 8.020840e-01 0.000000e+00
    outer loop
      vertex 7.427877e-01 6.966044e+00 8.999999e-01
      vertex 7.427877e-01 6.966044e+00 0.000000e+00
      vertex 6.000000e-01 7.066026e+00 0.000000e+00
    endloop
  endfacet
  facet normal 5.494540e-01 8.355240e-01 0.000000e+00
    outer loop
      vertex 7.427877e-01 6.966044e+00 8.999999e-01
      vertex 6.000000e-01 7.066026e+00 0.000000e+00
      vertex 6.000000e-01 7.066026e+00 8.999999e-01
    endloop
  endfacet
  facet normal 4.488580e-01 8.936031e-01 0.000000e+00
    outer loop
      vertex 6.000000e-01 7.066026e+00 8.999999e-01
      vertex 6.000000e-01 7.066026e+00 0.000000e+00
      vertex 4.420202e-01 7.139693e+00 0.000000e+00
    endloop
  endfacet
  facet normal 3.960194e-01 9.182422e-01 0.000000e+00
    outer loop
      vertex 6.000000e-01 7.066026e+00 8.999999e-01
      vertex 4.420202e-01 7.139693e+00 0.000000e+00
      vertex 4.420202e-01 7.139693e+00 8.999999e-01
    endloop
  endfacet
  facet normal 2.868663e-01 9.579706e-01 0.000000e+00
    outer loop
      vertex 4.420202e-01 7.139693e+00 8.999999e-01
      vertex 4.420202e-01 7.139693e+00 0.000000e+00
      vertex 2.736483e-01 7.184808e+00 0.000000e+00
    endloop
  endfacet
  facet normal 2.305519e-01 9.730600e-01 0.000000e+00
    outer loop
      vertex 4.420202e-01 7.139693e+00 8.999999e-01
      vertex 2.736483e-01 7.184808e+00 0.000000e+00
      vertex 2.736483e-01 7.184808e+00 8.999999e-01
    endloop
  endfacet
  facet normal 1.161583e-01 9.932307e-01 0.000000e+00
    outer loop
      vertex 2.736483e-01 7.184808e+00 8.999999e-01
      vertex 2.736483e-01 7.184808e+00 0.000000e+00
      vertex 1.000002e-01 7.200000e+00 0.000000e+00
    endloop
  endfacet
  facet normal 5.807913e-02 9.983119e-01 0.000000e+00
    outer loop
      vertex 2.736483e-01 7.184808e+00 8.999999e-01
      vertex 1.000002e-01 7.200000e+00 0.000000e+00
      vertex 1.000002e-01 7.200000e+00 8.999999e-01
    endloop
  endfacet
  facet normal -9.983119e-01 5.807913e-02 0.000000e+00
    outer loop
      vertex -1.100000e+00 6.200000e+00 0.000000e+00
      vertex -1.100000e+00 6.200000e+00 8.999999e-01
      vertex -1.084808e+00 6.373649e+00 8.999999e-01
    endloop
  endfacet
  facet normal -9.932307e-01 1.161583e-01 0.000000e+00
    outer loop
      vertex -1.100000e+00 6.200000e+00 0.000000e+00
      vertex -1.084808e+00 6.373649e+00 8.999999e-01
      vertex -1.084808e+00 6.373649e+00 0.000000e+00
    endloop
  endfacet
  facet normal -9.730600e-01 2.305519e-01 0.000000e+00
    outer loop
      vertex -1.084808e+00 6.373649e+00 0.000000e+00
      vertex -1.084808e+00 6.373649e+00 8.999999e-01
      vertex -1.039693e+00 6.542021e+00 8.999999e-01
    endloop
  endfacet
  facet normal -9.579706e-01 2.868663e-01 0.000000e+00
    outer loop
      vertex -1.084808e+00 6.373649e+00 0.000000e+00
      vertex -1.039693e+00 6.542021e+00 8.999999e-01
      vertex -1.039693e+00 6.542021e+00 0.000000e+00
    endloop
  endfacet
  facet normal -9.182422e-01 3.960194e-01 0.000000e+00
    outer loop
      vertex -1.039693e+00 6.542021e+00 0.000000e+00
      vertex -1.039693e+00 6.542021e+00 8.999999e-01
      vertex -9.660253e-01 6.700001e+00 8.999999e-01
    endloop
  endfacet
  facet normal -8.936031e-01 4.488580e-01 0.000000e+00
    outer loop
      vertex -1.039693e+00 6.542021e+00 0.000000e+00
      vertex -9.660253e-01 6.700001e+00 8.999999e-01
      vertex -9.660253e-01 6.700001e+00 0.000000e+00
    endloop
  endfacet
  facet normal -8.355240e-01 5.494540e-01 0.000000e+00
    outer loop
      vertex -9.660253e-01 6.700001e+00 0.000000e+00
      vertex -9.660253e-01 6.700001e+00 8.999999e-01
      vertex -8.660443e-01 6.842788e+00 8.999999e-01
    endloop
  endfacet
  facet normal -8.020840e-01 5.972114e-01 0.000000e+00
    outer loop
      vertex -9.660253e-01 6.700001e+00 0.000000e+00
      vertex -8.660443e-01 6.842788e+00 8.999999e-01
      vertex -8.660443e-01 6.842788e+00 0.000000e+00
    endloop
  endfacet
  facet normal -7.274188e-01 6.861938e-01 0.000000e+00
    outer loop
      vertex -8.660443e-01 6.842788e+00 0.000000e+00
      vertex -8.660443e-01 6.842788e+00 8.999999e-01
      vertex -7.427875e-01 6.966044e+00 8.999999e-01
    endloop
  endfacet
  facet normal -6.861938e-01 7.274188e-01 0.000000e+00
    outer loop
      vertex -8.660443e-01 6.842788e+00 0.000000e+00
      vertex -7.427875e-01 6.966044e+00 8.999999e-01
      vertex -7.427875e-01 6.966044e+00 0.000000e+00
    endloop
  endfacet
  facet normal -5.972114e-01 8.020840e-01 0.000000e+00
    outer loop
      vertex -7.427875e-01 6.966044e+00 0.000000e+00
      vertex -7.427875e-01 6.966044e+00 8.999999e-01
      vertex -6.000000e-01 7.066026e+00 8.999999e-01
    endloop
  endfacet
  facet normal -5.494540e-01 8.355240e-01 0.000000e+00
    outer loop
      vertex -7.427875e-01 6.966044e+00 0.000000e+00
      vertex -6.000000e-01 7.066026e+00 8.999999e-01
      vertex -6.000000e-01 7.066026e+00 0.000000e+00
    endloop
  endfacet
  facet normal -4.488580e-01 8.936031e-01 0.000000e+00
    outer loop
      vertex -6.000000e-01 7.066026e+00 0.000000e+00
      vertex -6.000000e-01 7.066026e+00 8.999999e-01
      vertex -4.420201e-01 7.139693e+00 8.999999e-01
    endloop
  endfacet
  facet normal -3.960194e-01 9.182422e-01 0.000000e+00
    outer loop
      vertex -6.000000e-01 7.066026e+00 0.000000e+00
      vertex -4.420201e-01 7.139693e+00 8.999999e-01
      vertex -4.420201e-01 7.139693e+00 0.000000e+00
    endloop
  endfacet
  facet normal -2.868663e-01 9.579706e-01 0.000000e+00
    outer loop
      vertex -4.420201e-01 7.139693e+00 0.000000e+00
      vertex -4.420201e-01 7.139693e+00 8.999999e-01
      vertex -2.736480e-01 7.184808e+00 8.999999e-01
    endloop
  endfacet
  facet normal -2.305519e-01 9.730600e-01 0.000000e+00
    outer loop
      vertex -4.420201e-01 7.139693e+00 0.000000e+00
      vertex -2.736480e-01 7.184808e+00 8.999999e-01
      vertex -2.736480e-01 7.184808e+00 0.000000e+00
    endloop
  endfacet
  facet normal -1.161583e-01 9.932307e-01 0.000000e+00
    outer loop
      vertex -2.736480e-01 7.184808e+00 0.000000e+00
      vertex -2.736480e-01 7.184808e+00 8.999999e-01
      vertex -9.999984e-02 7.200000e+00 8.999999e-01
    endloop
  endfacet
  facet normal -5.807913e-02 9.983119e-01 0.000000e+00
    outer loop
      vertex -2.736480e-01 7.184808e+00 0.000000e+00
      vertex -9.999984e-02 7.200000e+00 8.999999e-01
      vertex -9.999984e-02 7.200000e+00 0.000000e+00
    endloop
  endfacet
  facet normal 0.000000e+00 -1.000000e+00 0.000000e+00
    outer loop
      vertex 7.000001e-01 -4.200000e+00 5.800000e+00
      vertex -6.999999e-01 -4.200000e+00 5.800000e+00
      vertex 7.000001e-01 -4.200000e+00 0.000000e+00
    endloop
  endfacet
  facet normal 0.000000e+00 -1.000000e+00 0.000000e+00
    outer loop
      vertex 7.000001e-01 -4.200000e+00 0.000000e+00
      vertex -6.999999e-01 -4.200000e+00 5.800000e+00
      vertex -6.999999e-01 -4.200000e+00 0.000000e+00
    endloop
  endfacet
  facet normal 0.000000e+00 -1.000000e+00 0.000000e+00
    outer loop
      vertex 1.800000e+00 -4.200000e+00 0.000000e+00
      vertex 2.500000e+00 -4.200000e+00 0.000000e+00
      vertex 1.800000e+00 -4.200000e+00 5.800000e+00
    endloop
  endfacet
  facet normal 0.000000e+00 -1.000000e+00 0.000000e+00
    outer loop
      vertex 1.800000e+00 -4.200000e+00 5.800000e+00
      vertex 2.500000e+00 -4.200000e+00 0.000000e+00
      vertex 2.500000e+00 -4.200000e+00 5.800000e+00
    endloop
  endfacet
  facet normal 1.000000e+00 0.000000e+00 -1.495451e-16
    outer loop
      vertex 2.500000e+00 -8.999996e-01 0.000000e+00
      vertex 2.500000e+00 -8.999996e-01 5.800000e+00
      vertex 2.500000e+00 -4.200000e+00 0.000000e+00
    endloop
  endfacet
  facet normal 1.000000e+00 0.000000e+00 -1.495451e-16
    outer loop
      vertex 2.500000e+00 -4.200000e+00 0.000000e+00
      vertex 2.500000e+00 -8.999996e-01 5.800000e+00
      vertex 2.500000e+00 -4.200000e+00 5.800000e+00
    endloop
  endfacet
  facet normal 0.000000e+00 0.000000e+00 -1.000000e+00
    outer loop
      vertex -1.800000e+00 -4.200000e+00 0.000000e+00
      vertex -2.500000e+00 -4.200000e+00 0.000000e+00
      vertex -1.800000e+00 -3.200000e+00 0.000000e+00
    endloop
  endfacet
  facet normal 0.000000e+00 0.000000e+00 -1.000000e+00
    outer loop
      vertex -1.800000e+00 -3.200000e+00 0.000000e+00
      vertex -2.500000e+00 -4.200000e+00 0.000000e+00
      vertex -2.500000e+00 -8.999996e-01 0.000000e+00
    endloop
  endfacet
  facet normal 0.000000e+00 0.000000e+00 -1.000000e+00
    outer loop
      vertex -1.800000e+00 -3.200000e+00 0.000000e+00
      vertex -2.500000e+00 -8.999996e-01 0.000000e+00
      vertex -1.100000e+00 -8.999996e-01 0.000000e+00
    endloop
  endfacet
  facet normal 0.000000e+00 0.000000e+00 -1.000000e+00
    outer loop
      vertex -6.999999e-01 -3.200000e+00 0.000000e+00
      vertex -1.800000e+00 -3.200000e+00 0.000000e+00
      vertex 1.100000e+00 -8.999996e-01 0.000000e+00
    endloop
  endfacet
  facet normal 0.000000e+00 0.000000e+00 -1.000000e+00
    outer loop
      vertex 1.100000e+00 -8.999996e-01 0.000000e+00
      vertex -1.800000e+00 -3.200000e+00 0.000000e+00
      vertex -1.100000e+00 -8.999996e-01 0.000000e+00
    endloop
  endfacet
  facet normal 0.000000e+00 0.000000e+00 -1.000000e+00
    outer loop
      vertex 1.100000e+00 -8.999996e-01 0.000000e+00
      vertex -1.100000e+00 -8.999996e-01 0.000000e+00
      vertex 1.100000e+00 6.200000e+00 0.000000e+00
    endloop
  endfacet
  facet normal 0.000000e+00 0.000000e+00 -1.000000e+00
    outer loop
      vertex 1.100000e+00 6.200000e+00 0.000000e+00
      vertex -1.100000e+00 -8.999996e-01 0.000000e+00
      vertex -1.100000e+00 6.200000e+00 0.000000e+00
    endloop
  endfacet
  facet normal 0.000000e+00 0.000000e+00 -1.000000e+00
    outer loop
      vertex 7.000001e-01 -4.200000e+00 0.000000e+00
      vertex -6.999999e-01 -4.200000e+00 0.000000e+00
      vertex 7.000001e-01 -3.200000e+00 0.000000e+00
    endloop
  endfacet
  facet normal 0.000000e+00 0.000000e+00 -1.000000e+00
    outer loop
      vertex 7.000001e-01 -3.200000e+00 0.000000e+00
      vertex -6.999999e-01 -4.200000e+00 0.000000e+00
      vertex -6.999999e-01 -3.200000e+00 0.000000e+00
    endloop
  endfacet
  facet normal 0.000000e+00 0.000000e+00 -1.000000e+00
    outer loop
      vertex -6.000000e-01 7.066026e+00 0.000000e+00
      vertex -4.420201e-01 7.139693e+00 0.000000e+00
      vertex -1.100000e+00 6.200000e+00 0.000000e+00
    endloop
  endfacet
  facet normal 0.000000e+00 0.000000e+00 -1.000000e+00
    outer loop
      vertex -6.999999e-01 -3.200000e+00 0.000000e+00
      vertex 1.100000e+00 -8.999996e-01 0.000000e+00
      vertex 7.000001e-01 -3.200000e+00 0.000000e+00
    endloop
  endfacet
  facet normal 0.000000e+00 0.000000e+00 -1.000000e+00
    outer loop
      vertex 7.000001e-01 -3.200000e+00 0.000000e+00
      vertex 1.100000e+00 -8.999996e-01 0.000000e+00
      vertex 2.500000e+00 -8.999996e-01 0.000000e+00
    endloop
  endfacet
  facet normal 0.000000e+00 0.000000e+00 -1.000000e+00
    outer loop
      vertex 7.000001e-01 -3.200000e+00 0.000000e+00
      vertex 2.500000e+00 -8.999996e-01 0.000000e+00
      vertex 1.800000e+00 -3.200000e+00 0.000000e+00
    endloop
  endfacet
  facet normal 0.000000e+00 0.000000e+00 -1.000000e+00
    outer loop
      vertex 1.800000e+00 -3.200000e+00 0.000000e+00
      vertex 2.500000e+00 -8.999996e-01 0.000000e+00
      vertex 2.500000e+00 -4.200000e+00 0.000000e+00
    endloop
  endfacet
  facet normal 0.000000e+00 0.000000e+00 -1.000000e+00
    outer loop
      vertex 1.800000e+00 -3.200000e+00 0.000000e+00
      vertex 2.500000e+00 -4.200000e+00 0.000000e+00
      vertex 1.800000e+00 -4.200000e+00 0.000000e+00
    endloop
  endfacet
  facet normal 0.000000e+00 0.000000e+00 -1.000000e+00
    outer loop
      vertex -1.084808e+00 6.373649e+00 0.000000e+00
      vertex -1.039693e+00 6.542021e+00 0.000000e+00
      vertex -9.660253e-01 6.700001e+00 0.000000e+00
    endloop
  endfacet
  facet normal 0.000000e+00 0.000000e+00 -1.000000e+00
    outer loop
      vertex -6.000000e-01 7.066026e+00 0.000000e+00
      vertex -1.100000e+00 6.200000e+00 0.000000e+00
      vertex -7.427875e-01 6.966044e+00 0.000000e+00
    endloop
  endfacet
  facet normal 0.000000e+00 0.000000e+00 -1.000000e+00
    outer loop
      vertex -4.420201e-01 7.139693e+00 0.000000e+00
      vertex -2.736480e-01 7.184808e+00 0.000000e+00
      vertex -1.100000e+00 6.200000e+00 0.000000e+00
    endloop
  endfacet
  facet normal 0.000000e+00 0.000000e+00 -1.000000e+00
    outer loop
      vertex -1.100000e+00 6.200000e+00 0.000000e+00
      vertex -2.736480e-01 7.184808e+00 0.000000e+00
      vertex -9.999984e-02 7.200000e+00 0.000000e+00
    endloop
  endfacet
  facet normal 0.000000e+00 0.000000e+00 -1.000000e+00
    outer loop
      vertex -1.100000e+00 6.200000e+00 0.000000e+00
      vertex -9.999984e-02 7.200000e+00 0.000000e+00
      vertex 1.100000e+00 6.200000e+00 0.000000e+00
    endloop
  endfacet
  facet normal 0.000000e+00 0.000000e+00 -1.000000e+00
    outer loop
      vertex 1.100000e+00 6.200000e+00 0.000000e+00
      vertex -9.999984e-02 7.200000e+00 0.000000e+00
      vertex 1.000002e-01 7.200000e+00 0.000000e+00
    endloop
  endfacet
  facet normal 0.000000e+00 0.000000e+00 -1.000000e+00
    outer loop
      vertex 1.100000e+00 6.200000e+00 0.000000e+00
      vertex 1.000002e-01 7.200000e+00 0.000000e+00
      vertex 2.736483e-01 7.184808e+00 0.000000e+00
    endloop
  endfacet
  facet normal 0.000000e+00 0.000000e+00 -1.000000e+00
    outer loop
      vertex -1.084808e+00 6.373649e+00 0.000000e+00
      vertex -9.660253e-01 6.700001e+00 0.000000e+00
      vertex -1.100000e+00 6.200000e+00 0.000000e+00
    endloop
  endfacet
  facet normal 0.000000e+00 0.000000e+00 -1.000000e+00
    outer loop
      vertex -1.100000e+00 6.200000e+00 0.000000e+00
      vertex -9.660253e-01 6.700001e+00 0.000000e+00
      vertex -8.660443e-01 6.842788e+00 0.000000e+00
    endloop
  endfacet
  facet normal 0.000000e+00 0.000000e+00 -1.000000e+00
    outer loop
      vertex -1.100000e+00 6.200000e+00 0.000000e+00
      vertex -8.660443e-01 6.842788e+00 0.000000e+00
      vertex -7.427875e-01 6.966044e+00 0.000000e+00
    endloop
  endfacet
  facet normal 0.000000e+00 0.000000e+00 -1.000000e+00
    outer loop
      vertex 2.736483e-01 7.184808e+00 0.000000e+00
      vertex 4.420202e-01 7.139693e+00 0.000000e+00
      vertex 1.100000e+00 6.200000e+00 0.000000e+00
    endloop
  endfacet
  facet normal 0.000000e+00 0.000000e+00 -1.000000e+00
    outer loop
      vertex 1.100000e+00 6.200000e+00 0.000000e+00
      vertex 4.420202e-01 7.139693e+00 0.000000e+00
      vertex 6.000000e-01 7.066026e+00 0.000000e+00
    endloop
  endfacet
  facet normal 0.000000e+00 0.000000e+00 -1.000000e+00
    outer loop
      vertex 1.100000e+00 6.200000e+00 0.000000e+00
      vertex 6.000000e-01 7.066026e+00 0.000000e+00
      vertex 7.427877e-01 6.966044e+00 0.000000e+00
    endloop
  endfacet
  facet normal 0.000000e+00 0.000000e+00 -1.000000e+00
    outer loop
      vertex 7.427877e-01 6.966044e+00 0.000000e+00
      vertex 8.660443e-01 6.842788e+00 0.000000e+00
      vertex 1.100000e+00 6.200000e+00 0.000000e+00
    endloop
  endfacet
  facet normal 0.000000e+00 0.000000e+00 -1.000000e+00
    outer loop
      vertex 1.100000e+00 6.200000e+00 0.000000e+00
      vertex 8.660443e-01 6.842788e+00 0.000000e+00
      vertex 9.660257e-01 6.700001e+00 0.000000e+00
    endloop
  endfacet
  facet normal 0.000000e+00 0.000000e+00 -1.000000e+00
    outer loop
      vertex 1.100000e+00 6.200000e+00 0.000000e+00
      vertex 9.660257e-01 6.700001e+00 0.000000e+00
      vertex 1.084808e+00 6.373649e+00 0.000000e+00
    endloop
  endfacet
  facet normal 0.000000e+00 0.000000e+00 -1.000000e+00
    outer loop
      vertex 1.084808e+00 6.373649e+00 0.000000e+00
      vertex 9.660257e-01 6.700001e+00 0.000000e+00
      vertex 1.039693e+00 6.542021e+00 0.000000e+00
    endloop
  endfacet
  facet normal -1.000000e+00 0.000000e+00 1.495451e-16
    outer loop
      vertex -2.500000e+00 -8.999996e-01 5.800000e+00
      vertex -2.500000e+00 -8.999996e-01 0.000000e+00
      vertex -2.500000e+00 -4.200000e+00 5.800000e+00
    endloop
  endfacet
  facet normal -1.000000e+00 0.000000e+00 1.495451e-16
    outer loop
      vertex -2.500000e+00 -4.200000e+00 5.800000e+00
      vertex -2.500000e+00 -8.999996e-01 0.000000e+00
      vertex -2.500000e+00 -4.200000e+00 0.000000e+00
    endloop
  endfacet
  facet normal 0.000000e+00 0.000000e+00 1.000000e+00
    outer loop
      vertex -6.999999e-01 -3.200000e+00 5.800000e+00
      vertex -6.999999e-01 -4.200000e+00 5.800000e+00
      vertex 7.000001e-01 -4.200000e+00 5.800000e+00
    endloop
  endfacet
  facet normal 0.000000e+00 0.000000e+00 1.000000e+00
    outer loop
      vertex 1.800000e+00 -4.200000e+00 5.800000e+00
      vertex 2.500000e+00 -4.200000e+00 5.800000e+00
      vertex 1.800000e+00 -3.200000e+00 5.800000e+00
    endloop
  endfacet
  facet normal 0.000000e+00 0.000000e+00 1.000000e+00
    outer loop
      vertex 1.800000e+00 -3.200000e+00 5.800000e+00
      vertex 2.500000e+00 -4.200000e+00 5.800000e+00
      vertex 2.500000e+00 -8.999996e-01 5.800000e+00
    endloop
  endfacet
  facet normal 0.000000e+00 0.000000e+00 1.000000e+00
    outer loop
      vertex 1.800000e+00 -3.200000e+00 5.800000e+00
      vertex 2.500000e+00 -8.999996e-01 5.800000e+00
      vertex 7.000001e-01 -3.200000e+00 5.800000e+00
    endloop
  endfacet
  facet normal 0.000000e+00 0.000000e+00 1.000000e+00
    outer loop
      vertex 7.000001e-01 -3.200000e+00 5.800000e+00
      vertex 2.500000e+00 -8.999996e-01 5.800000e+00
      vertex -2.500000e+00 -8.999996e-01 5.800000e+00
    endloop
  endfacet
  facet normal 0.000000e+00 0.000000e+00 1.000000e+00
    outer loop
      vertex 7.000001e-01 -4.200000e+00 5.800000e+00
      vertex 7.000001e-01 -3.200000e+00 5.800000e+00
      vertex -6.999999e-01 -3.200000e+00 5.800000e+00
    endloop
  endfacet
  facet normal 0.000000e+00 0.000000e+00 1.000000e+00
    outer loop
      vertex -6.999999e-01 -3.200000e+00 5.800000e+00
      vertex 7.000001e-01 -3.200000e+00 5.800000e+00
      vertex -2.500000e+00 -8.999996e-01 5.800000e+00
    endloop
  endfacet
  facet normal 0.000000e+00 0.000000e+00 1.000000e+00
    outer loop
      vertex -6.999999e-01 -3.200000e+00 5.800000e+00
      vertex -2.500000e+00 -8.999996e-01 5.800000e+00
      vertex -1.800000e+00 -3.200000e+00 5.800000e+00
    endloop
  endfacet
  facet normal 0.000000e+00 0.000000e+00 1.000000e+00
    outer loop
      vertex -1.800000e+00 -3.200000e+00 5.800000e+00
      vertex -2.500000e+00 -8.999996e-01 5.800000e+00
      vertex -2.500000e+00 -4.200000e+00 5.800000e+00
    endloop
  endfacet
  facet normal 0.000000e+00 0.000000e+00 1.000000e+00
    outer loop
      vertex -1.800000e+00 -3.200000e+00 5.800000e+00
      vertex -2.500000e+00 -4.200000e+00 5.800000e+00
      vertex -1.800000e+00 -4.200000e+00 5.800000e+00
    endloop
  endfacet
  facet normal 0.000000e+00 1.000000e+00 0.000000e+00
    outer loop
      vertex -1.100000e+00 -8.999996e-01 8.999999e-01
      vertex -1.100000e+00 -8.999996e-01 0.000000e+00
      vertex -2.500000e+00 -8.999996e-01 0.000000e+00
    endloop
  endfacet
  facet normal 0.000000e+00 1.000000e+00 0.000000e+00
    outer loop
      vertex 2.500000e+00 -8.999996e-01 0.000000e+00
      vertex 1.100000e+00 -8.999996e-01 0.000000e+00
      vertex 1.100000e+00 -8.999996e-01 8.999999e-01
    endloop
  endfacet
  facet normal 0.000000e+00 1.000000e+00 0.000000e+00
    outer loop
      vertex -1.550000e+00 -8.999996e-01 2.300000e+00
      vertex -9.499999e-01 -8.999996e-01 2.300000e+00
      vertex 1.100000e+00 -8.999996e-01 8.999999e-01
    endloop
  endfacet
  facet normal 0.000000e+00 1.000000e+00 0.000000e+00
    outer loop
      vertex 1.550000e+00 -8.999996e-01 2.300000e+00
      vertex 1.550000e+00 -8.999996e-01 2.900000e+00
      vertex 2.500000e+00 -8.999996e-01 5.800000e+00
    endloop
  endfacet
  facet normal 0.000000e+00 1.000000e+00 0.000000e+00
    outer loop
      vertex 2.500000e+00 -8.999996e-01 5.800000e+00
      vertex 1.550000e+00 -8.999996e-01 2.900000e+00
      vertex 9.500001e-01 -8.999996e-01 2.900000e+00
    endloop
  endfacet
  facet normal 0.000000e+00 1.000000e+00 0.000000e+00
    outer loop
      vertex 1.100000e+00 -8.999996e-01 8.999999e-01
      vertex -1.100000e+00 -8.999996e-01 8.999999e-01
      vertex -1.550000e+00 -8.999996e-01 2.300000e+00
    endloop
  endfacet
  facet normal 0.000000e+00 1.000000e+00 0.000000e+00
    outer loop
      vertex -1.550000e+00 -8.999996e-01 2.300000e+00
      vertex -1.100000e+00 -8.999996e-01 8.999999e-01
      vertex -2.500000e+00 -8.999996e-01 0.000000e+00
    endloop
  endfacet
  facet normal 0.000000e+00 1.000000e+00 0.000000e+00
    outer loop
      vertex -1.550000e+00 -8.999996e-01 2.300000e+00
      vertex -2.500000e+00 -8.999996e-01 0.000000e+00
      vertex -1.550000e+00 -8.999996e-01 2.900000e+00
    endloop
  endfacet
  facet normal 0.000000e+00 1.000000e+00 0.000000e+00
    outer loop
      vertex -1.550000e+00 -8.999996e-01 2.900000e+00
      vertex -2.500000e+00 -8.999996e-01 0.000000e+00
      vertex -2.500000e+00 -8.999996e-01 5.800000e+00
    endloop
  endfacet
  facet normal 0.000000e+00 1.000000e+00 0.000000e+00
    outer loop
      vertex -1.550000e+00 -8.999996e-01 2.900000e+00
      vertex -2.500000e+00 -8.999996e-01 5.800000e+00
      vertex -9.499999e-01 -8.999996e-01 2.900000e+00
    endloop
  endfacet
  facet normal 0.000000e+00 1.000000e+00 0.000000e+00
    outer loop
      vertex 2.500000e+00 -8.999996e-01 5.800000e+00
      vertex 2.500000e+00 -8.999996e-01 0.000000e+00
      vertex 1.550000e+00 -8.999996e-01 2.300000e+00
    endloop
  endfacet
  facet normal 0.000000e+00 1.000000e+00 0.000000e+00
    outer loop
      vertex 1.550000e+00 -8.999996e-01 2.300000e+00
      vertex 2.500000e+00 -8.999996e-01 0.000000e+00
      vertex 1.100000e+00 -8.999996e-01 8.999999e-01
    endloop
  endfacet
  facet normal 0.000000e+00 1.000000e+00 0.000000e+00
    outer loop
      vertex 1.550000e+00 -8.999996e-01 2.300000e+00
      vertex 1.100000e+00 -8.999996e-01 8.999999e-01
      vertex 9.500001e-01 -8.999996e-01 2.300000e+00
    endloop
  endfacet
  facet normal 0.000000e+00 1.000000e+00 0.000000e+00
    outer loop
      vertex 9.500001e-01 -8.999996e-01 2.300000e+00
      vertex 1.100000e+00 -8.999996e-01 8.999999e-01
      vertex -9.499999e-01 -8.999996e-01 2.300000e+00
    endloop
  endfacet
  facet normal 0.000000e+00 1.000000e+00 0.000000e+00
    outer loop
      vertex 9.500001e-01 -8.999996e-01 2.300000e+00
      vertex -9.499999e-01 -8.999996e-01 2.300000e+00
      vertex 9.500001e-01 -8.999996e-01 2.900000e+00
    endloop
  endfacet
  facet normal 0.000000e+00 1.000000e+00 0.000000e+00
    outer loop
      vertex 9.500001e-01 -8.999996e-01 2.900000e+00
      vertex -9.499999e-01 -8.999996e-01 2.300000e+00
      vertex -9.499999e-01 -8.999996e-01 2.900000e+00
    endloop
  endfacet
  facet normal 0.000000e+00 1.000000e+00 0.000000e+00
    outer loop
      vertex 9.500001e-01 -8.999996e-01 2.900000e+00
      vertex -9.499999e-01 -8.999996e-01 2.900000e+00
      vertex 2.500000e+00 -8.999996e-01 5.800000e+00
    endloop
  endfacet
  facet normal 0.000000e+00 1.000000e+00 0.000000e+00
    outer loop
      vertex 2.500000e+00 -8.999996e-01 5.800000e+00
      vertex -9.499999e-01 -8.999996e-01 2.900000e+00
      vertex -2.500000e+00 -8.999996e-01 5.800000e+00
    endloop
  endfacet
  facet normal 0.000000e+00 -1.000000e+00 0.000000e+00
    outer loop
      vertex -1.800000e+00 -4.200000e+00 5.800000e+00
      vertex -2.500000e+00 -4.200000e+00 5.800000e+00
      vertex -1.800000e+00 -4.200000e+00 0.000000e+00
    endloop
  endfacet
  facet normal 0.000000e+00 -1.000000e+00 0.000000e+00
    outer loop
      vertex -1.800000e+00 -4.200000e+00 0.000000e+00
      vertex -2.500000e+00 -4.200000e+00 5.800000e+00
      vertex -2.500000e+00 -4.200000e+00 0.000000e+00
    endloop
  endfacet
  facet normal -1.000000e+00 0.000000e+00 -1.869314e-17
    outer loop
      vertex -6.999999e-01 -3.200000e+00 5.800000e+00
      vertex -6.999999e-01 -3.200000e+00 0.000000e+00
      vertex -6.999999e-01 -4.200000e+00 5.800000e+00
    endloop
  endfacet
  facet normal -1.000000e+00 0.000000e+00 -1.869314e-17
    outer loop
      vertex -6.999999e-01 -4.200000e+00 5.800000e+00
      vertex -6.999999e-01 -3.200000e+00 0.000000e+00
      vertex -6.999999e-01 -4.200000e+00 0.000000e+00
    endloop
  endfacet
  facet normal 1.000000e+00 0.000000e+00 0.000000e+00
    outer loop
      vertex -1.800000e+00 -3.200000e+00 0.000000e+00
      vertex -1.800000e+00 -3.200000e+00 5.800000e+00
      vertex -1.800000e+00 -4.200000e+00 0.000000e+00
    endloop
  endfacet
  facet normal 1.000000e+00 0.000000e+00 0.000000e+00
    outer loop
      vertex -1.800000e+00 -4.200000e+00 0.000000e+00
      vertex -1.800000e+00 -3.200000e+00 5.800000e+00
      vertex -1.800000e+00 -4.200000e+00 5.800000e+00
    endloop
  endfacet
  facet normal 0.000000e+00 -1.000000e+00 0.000000e+00
    outer loop
      vertex -9.499999e-01 -3.200000e+00 2.300000e+00
      vertex -6.999999e-01 -3.200000e+00 0.000000e+00
      vertex -6.999999e-01 -3.200000e+00 5.800000e+00
    endloop
  endfacet
  facet normal 0.000000e+00 -1.000000e+00 0.000000e+00
    outer loop
      vertex -1.550000e+00 -3.200000e+00 2.900000e+00
      vertex -1.800000e+00 -3.200000e+00 5.800000e+00
      vertex -1.800000e+00 -3.200000e+00 0.000000e+00
    endloop
  endfacet
  facet normal 0.000000e+00 -1.000000e+00 0.000000e+00
    outer loop
      vertex -6.999999e-01 -3.200000e+00 0.000000e+00
      vertex -9.499999e-01 -3.200000e+00 2.300000e+00
      vertex -1.800000e+00 -3.200000e+00 0.000000e+00
    endloop
  endfacet
  facet normal 0.000000e+00 -1.000000e+00 0.000000e+00
    outer loop
      vertex -1.800000e+00 -3.200000e+00 0.000000e+00
      vertex -9.499999e-01 -3.200000e+00 2.300000e+00
      vertex -1.550000e+00 -3.200000e+00 2.300000e+00
    endloop
  endfacet
  facet normal 0.000000e+00 -1.000000e+00 0.000000e+00
    outer loop
      vertex -1.800000e+00 -3.200000e+00 0.000000e+00
      vertex -1.550000e+00 -3.200000e+00 2.300000e+00
      vertex -1.550000e+00 -3.200000e+00 2.900000e+00
    endloop
  endfacet
  facet normal 0.000000e+00 -1.000000e+00 0.000000e+00
    outer loop
      vertex -1.800000e+00 -3.200000e+00 5.800000e+00
      vertex -1.550000e+00 -3.200000e+00 2.900000e+00
      vertex -6.999999e-01 -3.200000e+00 5.800000e+00
    endloop
  endfacet
  facet normal 0.000000e+00 -1.000000e+00 0.000000e+00
    outer loop
      vertex -6.999999e-01 -3.200000e+00 5.800000e+00
      vertex -1.550000e+00 -3.200000e+00 2.900000e+00
      vertex -9.499999e-01 -3.200000e+00 2.900000e+00
    endloop
  endfacet
  facet normal 0.000000e+00 -1.000000e+00 0.000000e+00
    outer loop
      vertex -6.999999e-01 -3.200000e+00 5.800000e+00
      vertex -9.499999e-01 -3.200000e+00 2.900000e+00
      vertex -9.499999e-01 -3.200000e+00 2.300000e+00
    endloop
  endfacet
  facet normal 1.000000e+00 0.000000e+00 0.000000e+00
    outer loop
      vertex 7.000001e-01 -3.200000e+00 0.000000e+00
      vertex 7.000001e-01 -3.200000e+00 5.800000e+00
      vertex 7.000001e-01 -4.200000e+00 0.000000e+00
    endloop
  endfacet
  facet normal 1.000000e+00 0.000000e+00 0.000000e+00
    outer loop
      vertex 7.000001e-01 -4.200000e+00 0.000000e+00
      vertex 7.000001e-01 -3.200000e+00 5.800000e+00
      vertex 7.000001e-01 -4.200000e+00 5.800000e+00
    endloop
  endfacet
  facet normal -1.000000e+00 0.000000e+00 0.000000e+00
    outer loop
      vertex 1.800000e+00 -3.200000e+00 5.800000e+00
      vertex 1.800000e+00 -3.200000e+00 0.000000e+00
      vertex 1.800000e+00 -4.200000e+00 5.800000e+00
    endloop
  endfacet
  facet normal -1.000000e+00 0.000000e+00 0.000000e+00
    outer loop
      vertex 1.800000e+00 -4.200000e+00 5.800000e+00
      vertex 1.800000e+00 -3.200000e+00 0.000000e+00
      vertex 1.800000e+00 -4.200000e+00 0.000000e+00
    endloop
  endfacet
  facet normal 0.000000e+00 -1.000000e+00 0.000000e+00
    outer loop
      vertex 9.500001e-01 -3.200000e+00 2.900000e+00
      vertex 7.000001e-01 -3.200000e+00 0.000000e+00
      vertex 9.500001e-01 -3.200000e+00 2.300000e+00
    endloop
  endfacet
  facet normal 0.000000e+00 -1.000000e+00 0.000000e+00
    outer loop
      vertex 9.500001e-01 -3.200000e+00 2.300000e+00
      vertex 7.000001e-01 -3.200000e+00 0.000000e+00
      vertex 1.800000e+00 -3.200000e+00 0.000000e+00
    endloop
  endfacet
  facet normal 0.000000e+00 -1.000000e+00 0.000000e+00
    outer loop
      vertex 9.500001e-01 -3.200000e+00 2.300000e+00
      vertex 1.800000e+00 -3.200000e+00 0.000000e+00
      vertex 1.550000e+00 -3.200000e+00 2.300000e+00
    endloop
  endfacet
  facet normal 0.000000e+00 -1.000000e+00 0.000000e+00
    outer loop
      vertex 1.550000e+00 -3.200000e+00 2.300000e+00
      vertex 1.800000e+00 -3.200000e+00 0.000000e+00
      vertex 1.550000e+00 -3.200000e+00 2.900000e+00
    endloop
  endfacet
  facet normal 0.000000e+00 -1.000000e+00 0.000000e+00
    outer loop
      vertex 1.550000e+00 -3.200000e+00 2.900000e+00
      vertex 1.800000e+00 -3.200000e+00 0.000000e+00
      vertex 1.800000e+00 -3.200000e+00 5.800000e+00
    endloop
  endfacet
  facet normal 0.000000e+00 -1.000000e+00 0.000000e+00
    outer loop
      vertex 1.550000e+00 -3.200000e+00 2.900000e+00
      vertex 1.800000e+00 -3.200000e+00 5.800000e+00
      vertex 9.500001e-01 -3.200000e+00 2.900000e+00
    endloop
  endfacet
  facet normal 0.000000e+00 -1.000000e+00 0.000000e+00
    outer loop
      vertex 9.500001e-01 -3.200000e+00 2.900000e+00
      vertex 1.800000e+00 -3.200000e+00 5.800000e+00
      vertex 7.000001e-01 -3.200000e+00 5.800000e+00
    endloop
  endfacet
  facet normal 0.000000e+00 -1.000000e+00 0.000000e+00
    outer loop
      vertex 9.500001e-01 -3.200000e+00 2.900000e+00
      vertex 7.000001e-01 -3.200000e+00 5.800000e+00
      vertex 7.000001e-01 -3.200000e+00 0.000000e+00
    endloop
  endfacet
  facet normal -1.000000e+00 0.000000e+00 0.000000e+00
    outer loop
      vertex -1.100000e+00 6.200000e+00 0.000000e+00
      vertex -1.100000e+00 -8.999996e-01 0.000000e+00
      vertex -1.100000e+00 6.200000e+00 8.999999e-01
    endloop
  endfacet
  facet normal -1.000000e+00 0.000000e+00 0.000000e+00
    outer loop
      vertex -1.100000e+00 6.200000e+00 8.999999e-01
      vertex -1.100000e+00 -8.999996e-01 0.000000e+00
      vertex -1.100000e+00 -8.999996e-01 8.999999e-01
    endloop
  endfacet
  facet normal 1.971277e-16 0.000000e+00 1.000000e+00
    outer loop
      vertex -1.100000e+00 -8.999996e-01 8.999999e-01
      vertex 1.100000e+00 -8.999996e-01 8.999999e-01
      vertex -1.100000e+00 6.200000e+00 8.999999e-01
    endloop
  endfacet
  facet normal 1.971277e-16 0.000000e+00 1.000000e+00
    outer loop
      vertex -1.100000e+00 6.200000e+00 8.999999e-01
      vertex 1.100000e+00 -8.999996e-01 8.999999e-01
      vertex 1.100000e+00 6.200000e+00 8.999999e-01
    endloop
  endfacet
  facet normal 1.971277e-16 0.000000e+00 1.000000e+00
    outer loop
      vertex -2.736480e-01 7.184808e+00 8.999999e-01
      vertex -4.420201e-01 7.139693e+00 8.999999e-01
      vertex -1.100000e+00 6.200000e+00 8.999999e-01
    endloop
  endfacet
  facet normal 1.971277e-16 0.000000e+00 1.000000e+00
    outer loop
      vertex 1.084808e+00 6.373649e+00 8.999999e-01
      vertex 1.039693e+00 6.542021e+00 8.999999e-01
      vertex 9.660257e-01 6.700001e+00 8.999999e-01
    endloop
  endfacet
  facet normal 1.971277e-16 0.000000e+00 1.000000e+00
    outer loop
      vertex 4.420202e-01 7.139693e+00 8.999999e-01
      vertex 1.100000e+00 6.200000e+00 8.999999e-01
      vertex 6.000000e-01 7.066026e+00 8.999999e-01
    endloop
  endfacet
  facet normal 1.971277e-16 0.000000e+00 1.000000e+00
    outer loop
      vertex 6.000000e-01 7.066026e+00 8.999999e-01
      vertex 1.100000e+00 6.200000e+00 8.999999e-01
      vertex 7.427877e-01 6.966044e+00 8.999999e-01
    endloop
  endfacet
  facet normal 1.971277e-16 0.000000e+00 1.000000e+00
    outer loop
      vertex 4.420202e-01 7.139693e+00 8.999999e-01
      vertex 2.736483e-01 7.184808e+00 8.999999e-01
      vertex 1.100000e+00 6.200000e+00 8.999999e-01
    endloop
  endfacet
  facet normal 1.971277e-16 0.000000e+00 1.000000e+00
    outer loop
      vertex 1.100000e+00 6.200000e+00 8.999999e-01
      vertex 2.736483e-01 7.184808e+00 8.999999e-01
      vertex 1.000002e-01 7.200000e+00 8.999999e-01
    endloop
  endfacet
  facet normal 1.971277e-16 0.000000e+00 1.000000e+00
    outer loop
      vertex 1.100000e+00 6.200000e+00 8.999999e-01
      vertex 1.000002e-01 7.200000e+00 8.999999e-01
      vertex -1.100000e+00 6.200000e+00 8.999999e-01
    endloop
  endfacet
  facet normal 1.971277e-16 0.000000e+00 1.000000e+00
    outer loop
      vertex -1.100000e+00 6.200000e+00 8.999999e-01
      vertex 1.000002e-01 7.200000e+00 8.999999e-01
      vertex -9.999984e-02 7.200000e+00 8.999999e-01
    endloop
  endfacet
  facet normal 1.971277e-16 0.000000e+00 1.000000e+00
    outer loop
      vertex -1.100000e+00 6.200000e+00 8.999999e-01
      vertex -9.999984e-02 7.200000e+00 8.999999e-01
      vertex -2.736480e-01 7.184808e+00 8.999999e-01
    endloop
  endfacet
  facet normal 1.971277e-16 0.000000e+00 1.000000e+00
    outer loop
      vertex 1.084808e+00 6.373649e+00 8.999999e-01
      vertex 9.660257e-01 6.700001e+00 8.999999e-01
      vertex 1.100000e+00 6.200000e+00 8.999999e-01
    endloop
  endfacet
  facet normal 1.971277e-16 0.000000e+00 1.000000e+00
    outer loop
      vertex 1.100000e+00 6.200000e+00 8.999999e-01
      vertex 9.660257e-01 6.700001e+00 8.999999e-01
      vertex 8.660443e-01 6.842788e+00 8.999999e-01
    endloop
  endfacet
  facet normal 1.971277e-16 0.000000e+00 1.000000e+00
    outer loop
      vertex 1.100000e+00 6.200000e+00 8.999999e-01
      vertex 8.660443e-01 6.842788e+00 8.999999e-01
      vertex 7.427877e-01 6.966044e+00 8.999999e-01
    endloop
  endfacet
  facet normal 1.971277e-16 0.000000e+00 1.000000e+00
    outer loop
      vertex -1.039693e+00 6.542021e+00 8.999999e-01
      vertex -7.427875e-01 6.966044e+00 8.999999e-01
      vertex -9.660253e-01 6.700001e+00 8.999999e-01
    endloop
  endfacet
  facet normal 1.971277e-16 0.000000e+00 1.000000e+00
    outer loop
      vertex -9.660253e-01 6.700001e+00 8.999999e-01
      vertex -7.427875e-01 6.966044e+00 8.999999e-01
      vertex -8.660443e-01 6.842788e+00 8.999999e-01
    endloop
  endfacet
  facet normal 1.971277e-16 0.000000e+00 1.000000e+00
    outer loop
      vertex -4.420201e-01 7.139693e+00 8.999999e-01
      vertex -6.000000e-01 7.066026e+00 8.999999e-01
      vertex -1.100000e+00 6.200000e+00 8.999999e-01
    endloop
  endfacet
  facet normal 1.971277e-16 0.000000e+00 1.000000e+00
    outer loop
      vertex -1.100000e+00 6.200000e+00 8.999999e-01
      vertex -6.000000e-01 7.066026e+00 8.999999e-01
      vertex -7.427875e-01 6.966044e+00 8.999999e-01
    endloop
  endfacet
  facet normal 1.971277e-16 0.000000e+00 1.000000e+00
    outer loop
      vertex -1.100000e+00 6.200000e+00 8.999999e-01
      vertex -7.427875e-01 6.966044e+00 8.999999e-01
      vertex -1.084808e+00 6.373649e+00 8.999999e-01
    endloop
  endfacet
  facet normal 1.971277e-16 0.000000e+00 1.000000e+00
    outer loop
      vertex -1.084808e+00 6.373649e+00 8.999999e-01
      vertex -7.427875e-01 6.966044e+00 8.999999e-01
      vertex -1.039693e+00 6.542021e+00 8.999999e-01
    endloop
  endfacet
  facet normal 1.000000e+00 0.000000e+00 0.000000e+00
    outer loop
      vertex 1.100000e+00 6.200000e+00 8.999999e-01
      vertex 1.100000e+00 -8.999996e-01 8.999999e-01
      vertex 1.100000e+00 6.200000e+00 0.000000e+00
    endloop
  endfacet
  facet normal 1.000000e+00 0.000000e+00 0.000000e+00
    outer loop
      vertex 1.100000e+00 6.200000e+00 0.000000e+00
      vertex 1.100000e+00 -8.999996e-01 8.999999e-01
      vertex 1.100000e+00 -8.999996e-01 0.000000e+00
    endloop
  endfacet
  facet normal 0.000000e+00 1.000000e+00 0.000000e+00
    outer loop
      vertex 1.000002e-01 7.200000e+00 0.000000e+00
      vertex -9.999984e-02 7.200000e+00 0.000000e+00
      vertex 1.000002e-01 7.200000e+00 8.999999e-01
    endloop
  endfacet
  facet normal 0.000000e+00 1.000000e+00 0.000000e+00
    outer loop
      vertex 1.000002e-01 7.200000e+00 8.999999e-01
      vertex -9.999984e-02 7.200000e+00 0.000000e+00
      vertex -9.999984e-02 7.200000e+00 8.999999e-01
    endloop
  endfacet
  facet normal 0.000000e+00 -1.000000e+00 0.000000e+00
    outer loop
      vertex 1.550000e+00 -7.200000e+00 2.300000e+00
      vertex 1.550000e+00 -7.200000e+00 2.900000e+00
      vertex 9.500001e-01 -7.200000e+00 2.300000e+00
    endloop
  endfacet
  facet normal 0.000000e+00 -1.000000e+00 0.000000e+00
    outer loop
      vertex 9.500001e-01 -7.200000e+00 2.300000e+00
      vertex 1.550000e+00 -7.200000e+00 2.900000e+00
      vertex 9.500001e-01 -7.200000e+00 2.900000e+00
    endloop
  endfacet
  facet normal 3.614007e-16 0.000000e+00 -1.000000e+00
    outer loop
      vertex 1.550000e+00 -7.200000e+00 2.300000e+00
      vertex 9.500001e-01 -7.200000e+00 2.300000e+00
      vertex 1.550000e+00 -3.200000e+00 2.300000e+00
    endloop
  endfacet
  facet normal 3.614007e-16 0.000000e+00 -1.000000e+00
    outer loop
      vertex 1.550000e+00 -3.200000e+00 2.300000e+00
      vertex 9.500001e-01 -7.200000e+00 2.300000e+00
      vertex 9.500001e-01 -3.200000e+00 2.300000e+00
    endloop
  endfacet
  facet normal 1.000000e+00 0.000000e+00 3.614007e-16
    outer loop
      vertex 1.550000e+00 -7.200000e+00 2.900000e+00
      vertex 1.550000e+00 -7.200000e+00 2.300000e+00
      vertex 1.550000e+00 -3.200000e+00 2.900000e+00
    endloop
  endfacet
  facet normal 1.000000e+00 0.000000e+00 3.614007e-16
    outer loop
      vertex 1.550000e+00 -3.200000e+00 2.900000e+00
      vertex 1.550000e+00 -7.200000e+00 2.300000e+00
      vertex 1.550000e+00 -3.200000e+00 2.300000e+00
    endloop
  endfacet
  facet normal -1.129377e-16 0.000000e+00 1.000000e+00
    outer loop
      vertex 9.500001e-01 -7.200000e+00 2.900000e+00
      vertex 1.550000e+00 -7.200000e+00 2.900000e+00
      vertex 9.500001e-01 -3.200000e+00 2.900000e+00
    endloop
  endfacet
  facet normal -1.129377e-16 0.000000e+00 1.000000e+00
    outer loop
      vertex 9.500001e-01 -3.200000e+00 2.900000e+00
      vertex 1.550000e+00 -7.200000e+00 2.900000e+00
      vertex 1.550000e+00 -3.200000e+00 2.900000e+00
    endloop
  endfacet
  facet normal -1.000000e+00 0.000000e+00 -1.807004e-16
    outer loop
      vertex 9.500001e-01 -7.200000e+00 2.300000e+00
      vertex 9.500001e-01 -7.200000e+00 2.900000e+00
      vertex 9.500001e-01 -3.200000e+00 2.300000e+00
    endloop
  endfacet
  facet normal -1.000000e+00 0.000000e+00 -1.807004e-16
    outer loop
      vertex 9.500001e-01 -3.200000e+00 2.300000e+00
      vertex 9.500001e-01 -7.200000e+00 2.900000e+00
      vertex 9.500001e-01 -3.200000e+00 2.900000e+00
    endloop
  endfacet
  facet normal -1.000000e+00 0.000000e+00 -1.807004e-16
    outer loop
      vertex 9.500001e-01 -8.999996e-01 2.900000e+00
      vertex 9.500001e-01 6.800000e+00 2.900000e+00
      vertex 9.500001e-01 -8.999996e-01 2.300000e+00
    endloop
  endfacet
  facet normal -1.000000e+00 0.000000e+00 -1.807004e-16
    outer loop
      vertex 9.500001e-01 -8.999996e-01 2.300000e+00
      vertex 9.500001e-01 6.800000e+00 2.900000e+00
      vertex 9.500001e-01 6.800000e+00 2.300000e+00
    endloop
  endfacet
  facet normal -1.129377e-16 0.000000e+00 1.000000e+00
    outer loop
      vertex 1.550000e+00 -8.999996e-01 2.900000e+00
      vertex 1.550000e+00 6.800000e+00 2.900000e+00
      vertex 9.500001e-01 -8.999996e-01 2.900000e+00
    endloop
  endfacet
  facet normal -1.129377e-16 0.000000e+00 1.000000e+00
    outer loop
      vertex 9.500001e-01 -8.999996e-01 2.900000e+00
      vertex 1.550000e+00 6.800000e+00 2.900000e+00
      vertex 9.500001e-01 6.800000e+00 2.900000e+00
    endloop
  endfacet
  facet normal 1.000000e+00 0.000000e+00 3.614007e-16
    outer loop
      vertex 1.550000e+00 -8.999996e-01 2.300000e+00
      vertex 1.550000e+00 6.800000e+00 2.300000e+00
      vertex 1.550000e+00 -8.999996e-01 2.900000e+00
    endloop
  endfacet
  facet normal 1.000000e+00 0.000000e+00 3.614007e-16
    outer loop
      vertex 1.550000e+00 -8.999996e-01 2.900000e+00
      vertex 1.550000e+00 6.800000e+00 2.300000e+00
      vertex 1.550000e+00 6.800000e+00 2.900000e+00
    endloop
  endfacet
  facet normal 3.614007e-16 0.000000e+00 -1.000000e+00
    outer loop
      vertex 9.500001e-01 -8.999996e-01 2.300000e+00
      vertex 9.500001e-01 6.800000e+00 2.300000e+00
      vertex 1.550000e+00 -8.999996e-01 2.300000e+00
    endloop
  endfacet
  facet normal 3.614007e-16 0.000000e+00 -1.000000e+00
    outer loop
      vertex 1.550000e+00 -8.999996e-01 2.300000e+00
      vertex 9.500001e-01 6.800000e+00 2.300000e+00
      vertex 1.550000e+00 6.800000e+00 2.300000e+00
    endloop
  endfacet
  facet normal 0.000000e+00 1.000000e+00 0.000000e+00
    outer loop
      vertex 1.550000e+00 6.800000e+00 2.900000e+00
      vertex 1.550000e+00 6.800000e+00 2.300000e+00
      vertex 9.500001e-01 6.800000e+00 2.900000e+00
    endloop
  endfacet
  facet normal 0.000000e+00 1.000000e+00 0.000000e+00
    outer loop
      vertex 9.500001e-01 6.800000e+00 2.900000e+00
      vertex 1.550000e+00 6.800000e+00 2.300000e+00
      vertex 9.500001e-01 6.800000e+00 2.300000e+00
    endloop
  endfacet
  facet normal 0.000000e+00 -1.000000e+00 0.000000e+00
    outer loop
      vertex -1.550000e+00 -7.200000e+00 2.900000e+00
      vertex -1.550000e+00 -7.200000e+00 2.300000e+00
      vertex -9.499999e-01 -7.200000e+00 2.900000e+00
    endloop
  endfacet
  facet normal 0.000000e+00 -1.000000e+00 0.000000e+00
    outer loop
      vertex -9.499999e-01 -7.200000e+00 2.900000e+00
      vertex -1.550000e+00 -7.200000e+00 2.300000e+00
      vertex -9.499999e-01 -7.200000e+00 2.300000e+00
    endloop
  endfacet
  facet normal -1.129377e-16 0.000000e+00 1.000000e+00
    outer loop
      vertex -1.550000e+00 -3.200000e+00 2.900000e+00
      vertex -1.550000e+00 -7.200000e+00 2.900000e+00
      vertex -9.499999e-01 -3.200000e+00 2.900000e+00
    endloop
  endfacet
  facet normal -1.129377e-16 0.000000e+00 1.000000e+00
    outer loop
      vertex -9.499999e-01 -3.200000e+00 2.900000e+00
      vertex -1.550000e+00 -7.200000e+00 2.900000e+00
      vertex -9.499999e-01 -7.200000e+00 2.900000e+00
    endloop
  endfacet
  facet normal -1.000000e+00 0.000000e+00 -3.614007e-16
    outer loop
      vertex -1.550000e+00 -3.200000e+00 2.300000e+00
      vertex -1.550000e+00 -7.200000e+00 2.300000e+00
      vertex -1.550000e+00 -3.200000e+00 2.900000e+00
    endloop
  endfacet
  facet normal -1.000000e+00 0.000000e+00 -3.614007e-16
    outer loop
      vertex -1.550000e+00 -3.200000e+00 2.900000e+00
      vertex -1.550000e+00 -7.200000e+00 2.300000e+00
      vertex -1.550000e+00 -7.200000e+00 2.900000e+00
    endloop
  endfacet
  facet normal -3.614007e-16 0.000000e+00 -1.000000e+00
    outer loop
      vertex -9.499999e-01 -3.200000e+00 2.300000e+00
      vertex -9.499999e-01 -7.200000e+00 2.300000e+00
      vertex -1.550000e+00 -3.200000e+00 2.300000e+00
    endloop
  endfacet
  facet normal -3.614007e-16 0.000000e+00 -1.000000e+00
    outer loop
      vertex -1.550000e+00 -3.200000e+00 2.300000e+00
      vertex -9.499999e-01 -7.200000e+00 2.300000e+00
      vertex -1.550000e+00 -7.200000e+00 2.300000e+00
    endloop
  endfacet
  facet normal 1.000000e+00 0.000000e+00 1.807004e-16
    outer loop
      vertex -9.499999e-01 -3.200000e+00 2.900000e+00
      vertex -9.499999e-01 -7.200000e+00 2.900000e+00
      vertex -9.499999e-01 -3.200000e+00 2.300000e+00
    endloop
  endfacet
  facet normal 1.000000e+00 0.000000e+00 1.807004e-16
    outer loop
      vertex -9.499999e-01 -3.200000e+00 2.300000e+00
      vertex -9.499999e-01 -7.200000e+00 2.900000e+00
      vertex -9.499999e-01 -7.200000e+00 2.300000e+00
    endloop
  endfacet
  facet normal 1.000000e+00 0.000000e+00 1.807004e-16
    outer loop
      vertex -9.499999e-01 -8.999996e-01 2.300000e+00
      vertex -9.499999e-01 6.800000e+00 2.300000e+00
      vertex -9.499999e-01 -8.999996e-01 2.900000e+00
    endloop
  endfacet
  facet normal 1.000000e+00 0.000000e+00 1.807004e-16
    outer loop
      vertex -9.499999e-01 -8.999996e-01 2.900000e+00
      vertex -9.499999e-01 6.800000e+00 2.300000e+00
      vertex -9.499999e-01 6.800000e+00 2.900000e+00
    endloop
  endfacet
  facet normal -3.614007e-16 0.000000e+00 -1.000000e+00
    outer loop
      vertex -1.550000e+00 -8.999996e-01 2.300000e+00
      vertex -1.550000e+00 6.800000e+00 2.300000e+00
      vertex -9.499999e-01 -8.999996e-01 2.300000e+00
    endloop
  endfacet
  facet normal -3.614007e-16 0.000000e+00 -1.000000e+00
    outer loop
      vertex -9.499999e-01 -8.999996e-01 2.300000e+00
      vertex -1.550000e+00 6.800000e+00 2.300000e+00
      vertex -9.499999e-01 6.800000e+00 2.300000e+00
    endloop
  endfacet
  facet normal -1.000000e+00 0.000000e+00 -3.614007e-16
    outer loop
      vertex -1.550000e+00 -8.999996e-01 2.900000e+00
      vertex -1.550000e+00 6.800000e+00 2.900000e+00
      vertex -1.550000e+00 -8.999996e-01 2.300000e+00
    endloop
  endfacet
  facet normal -1.000000e+00 0.000000e+00 -3.614007e-16
    outer loop
      vertex -1.550000e+00 -8.999996e-01 2.300000e+00
      vertex -1.550000e+00 6.800000e+00 2.900000e+00
      vertex -1.550000e+00 6.800000e+00 2.300000e+00
    endloop
  endfacet
  facet normal -1.129377e-16 0.000000e+00 1.000000e+00
    outer loop
      vertex -9.499999e-01 -8.999996e-01 2.900000e+00
      vertex -9.499999e-01 6.800000e+00 2.900000e+00
      vertex -1.550000e+00 -8.999996e-01 2.900000e+00
    endloop
  endfacet
  facet normal -1.129377e-16 0.000000e+00 1.000000e+00
    outer loop
      vertex -1.550000e+00 -8.999996e-01 2.900000e+00
      vertex -9.499999e-01 6.800000e+00 2.900000e+00
      vertex -1.550000e+00 6.800000e+00 2.900000e+00
    endloop
  endfacet
  facet normal 0.000000e+00 1.000000e+00 0.000000e+00
    outer loop
      vertex -1.550000e+00 6.800000e+00 2.300000e+00
      vertex -1.550000e+00 6.800000e+00 2.900000e+00
      vertex -9.499999e-01 6.800000e+00 2.300000e+00
    endloop
  endfacet
  facet normal 0.000000e+00 1.000000e+00 0.000000e+00
    outer loop
      vertex -9.499999e-01 6.800000e+00 2.300000e+00
      vertex -1.550000e+00 6.800000e+00 2.900000e+00
      vertex -9.499999e-01 6.800000e+00 2.900000e+00
    endloop
  endfacet
endsolid Default
