solid Default
  facet normal 0.000000e+00 -1.000000e+00 0.000000e+00
    outer loop
      vertex 1.950000e+00 -4.150000e+00 5.800000e+00
      vertex 5.500000e-01 -4.150000e+00 5.800000e+00
      vertex 1.950000e+00 -4.150000e+00 0.000000e+00
    endloop
  endfacet
  facet normal 0.000000e+00 -1.000000e+00 0.000000e+00
    outer loop
      vertex 1.950000e+00 -4.150000e+00 0.000000e+00
      vertex 5.500000e-01 -4.150000e+00 5.800000e+00
      vertex 5.500000e-01 -4.150000e+00 0.000000e+00
    endloop
  endfacet
  facet normal 0.000000e+00 -1.000000e+00 0.000000e+00
    outer loop
      vertex 3.050000e+00 -4.150000e+00 0.000000e+00
      vertex 4.449999e+00 -4.150000e+00 0.000000e+00
      vertex 3.050000e+00 -4.150000e+00 5.800000e+00
    endloop
  endfacet
  facet normal 0.000000e+00 -1.000000e+00 0.000000e+00
    outer loop
      vertex 3.050000e+00 -4.150000e+00 5.800000e+00
      vertex 4.449999e+00 -4.150000e+00 0.000000e+00
      vertex 4.449999e+00 -4.150000e+00 5.800000e+00
    endloop
  endfacet
  facet normal 0.000000e+00 -1.000000e+00 0.000000e+00
    outer loop
      vertex -1.950000e+00 -4.150000e+00 0.000000e+00
      vertex -5.499999e-01 -4.150000e+00 0.000000e+00
      vertex -1.950000e+00 -4.150000e+00 5.800000e+00
    endloop
  endfacet
  facet normal 0.000000e+00 -1.000000e+00 0.000000e+00
    outer loop
      vertex -1.950000e+00 -4.150000e+00 5.800000e+00
      vertex -5.499999e-01 -4.150000e+00 0.000000e+00
      vertex -5.499999e-01 -4.150000e+00 5.800000e+00
    endloop
  endfacet
  facet normal 0.000000e+00 -1.000000e+00 0.000000e+00
    outer loop
      vertex 5.550000e+00 -4.150000e+00 0.000000e+00
      vertex 6.350000e+00 -4.150000e+00 0.000000e+00
      vertex 5.550000e+00 -4.150000e+00 5.800000e+00
    endloop
  endfacet
  facet normal 0.000000e+00 -1.000000e+00 0.000000e+00
    outer loop
      vertex 5.550000e+00 -4.150000e+00 5.800000e+00
      vertex 6.350000e+00 -4.150000e+00 0.000000e+00
      vertex 6.350000e+00 -4.150000e+00 5.800000e+00
    endloop
  endfacet
  facet normal 0.000000e+00 -1.000000e+00 0.000000e+00
    outer loop
      vertex -5.550000e+00 -4.150000e+00 5.800000e+00
      vertex -6.350000e+00 -4.150000e+00 5.800000e+00
      vertex -5.550000e+00 -4.150000e+00 0.000000e+00
    endloop
  endfacet
  facet normal 0.000000e+00 -1.000000e+00 0.000000e+00
    outer loop
      vertex -5.550000e+00 -4.150000e+00 0.000000e+00
      vertex -6.350000e+00 -4.150000e+00 5.800000e+00
      vertex -6.350000e+00 -4.150000e+00 0.000000e+00
    endloop
  endfacet
  facet normal -5.807913e-02 9.983119e-01 0.000000e+00
    outer loop
      vertex -3.900000e+00 7.150000e+00 8.999999e-01
      vertex -3.900000e+00 7.150000e+00 0.000000e+00
      vertex -4.073648e+00 7.134808e+00 0.000000e+00
    endloop
  endfacet
  facet normal -1.161583e-01 9.932307e-01 0.000000e+00
    outer loop
      vertex -3.900000e+00 7.150000e+00 8.999999e-01
      vertex -4.073648e+00 7.134808e+00 0.000000e+00
      vertex -4.073648e+00 7.134808e+00 8.999999e-01
    endloop
  endfacet
  facet normal -2.305519e-01 9.730600e-01 0.000000e+00
    outer loop
      vertex -4.073648e+00 7.134808e+00 8.999999e-01
      vertex -4.073648e+00 7.134808e+00 0.000000e+00
      vertex -4.242020e+00 7.089693e+00 0.000000e+00
    endloop
  endfacet
  facet normal -2.868663e-01 9.579706e-01 0.000000e+00
    outer loop
      vertex -4.073648e+00 7.134808e+00 8.999999e-01
      vertex -4.242020e+00 7.089693e+00 0.000000e+00
      vertex -4.242020e+00 7.089693e+00 8.999999e-01
    endloop
  endfacet
  facet normal -3.960194e-01 9.182422e-01 0.000000e+00
    outer loop
      vertex -4.242020e+00 7.089693e+00 8.999999e-01
      vertex -4.242020e+00 7.089693e+00 0.000000e+00
      vertex -4.400000e+00 7.016025e+00 0.000000e+00
    endloop
  endfacet
  facet normal -4.488580e-01 8.936031e-01 0.000000e+00
    outer loop
      vertex -4.242020e+00 7.089693e+00 8.999999e-01
      vertex -4.400000e+00 7.016025e+00 0.000000e+00
      vertex -4.400000e+00 7.016025e+00 8.999999e-01
    endloop
  endfacet
  facet normal -5.494540e-01 8.355240e-01 0.000000e+00
    outer loop
      vertex -4.400000e+00 7.016025e+00 8.999999e-01
      vertex -4.400000e+00 7.016025e+00 0.000000e+00
      vertex -4.542787e+00 6.916044e+00 0.000000e+00
    endloop
  endfacet
  facet normal -5.972114e-01 8.020840e-01 0.000000e+00
    outer loop
      vertex -4.400000e+00 7.016025e+00 8.999999e-01
      vertex -4.542787e+00 6.916044e+00 0.000000e+00
      vertex -4.542787e+00 6.916044e+00 8.999999e-01
    endloop
  endfacet
  facet normal -6.861938e-01 7.274188e-01 0.000000e+00
    outer loop
      vertex -4.542787e+00 6.916044e+00 8.999999e-01
      vertex -4.542787e+00 6.916044e+00 0.000000e+00
      vertex -4.666044e+00 6.792787e+00 0.000000e+00
    endloop
  endfacet
  facet normal -7.274188e-01 6.861938e-01 0.000000e+00
    outer loop
      vertex -4.542787e+00 6.916044e+00 8.999999e-01
      vertex -4.666044e+00 6.792787e+00 0.000000e+00
      vertex -4.666044e+00 6.792787e+00 8.999999e-01
    endloop
  endfacet
  facet normal -8.020840e-01 5.972114e-01 0.000000e+00
    outer loop
      vertex -4.666044e+00 6.792787e+00 8.999999e-01
      vertex -4.666044e+00 6.792787e+00 0.000000e+00
      vertex -4.766025e+00 6.650001e+00 0.000000e+00
    endloop
  endfacet
  facet normal -8.355240e-01 5.494540e-01 0.000000e+00
    outer loop
      vertex -4.666044e+00 6.792787e+00 8.999999e-01
      vertex -4.766025e+00 6.650001e+00 0.000000e+00
      vertex -4.766025e+00 6.650001e+00 8.999999e-01
    endloop
  endfacet
  facet normal -8.936031e-01 4.488580e-01 0.000000e+00
    outer loop
      vertex -4.766025e+00 6.650001e+00 8.999999e-01
      vertex -4.766025e+00 6.650001e+00 0.000000e+00
      vertex -4.839693e+00 6.492020e+00 0.000000e+00
    endloop
  endfacet
  facet normal -9.182422e-01 3.960194e-01 0.000000e+00
    outer loop
      vertex -4.766025e+00 6.650001e+00 8.999999e-01
      vertex -4.839693e+00 6.492020e+00 0.000000e+00
      vertex -4.839693e+00 6.492020e+00 8.999999e-01
    endloop
  endfacet
  facet normal -9.579706e-01 2.868663e-01 0.000000e+00
    outer loop
      vertex -4.839693e+00 6.492020e+00 8.999999e-01
      vertex -4.839693e+00 6.492020e+00 0.000000e+00
      vertex -4.884808e+00 6.323649e+00 0.000000e+00
    endloop
  endfacet
  facet normal -9.730600e-01 2.305519e-01 0.000000e+00
    outer loop
      vertex -4.839693e+00 6.492020e+00 8.999999e-01
      vertex -4.884808e+00 6.323649e+00 0.000000e+00
      vertex -4.884808e+00 6.323649e+00 8.999999e-01
    endloop
  endfacet
  facet normal -9.932307e-01 1.161583e-01 0.000000e+00
    outer loop
      vertex -4.884808e+00 6.323649e+00 8.999999e-01
      vertex -4.884808e+00 6.323649e+00 0.000000e+00
      vertex -4.900000e+00 6.150000e+00 0.000000e+00
    endloop
  endfacet
  facet normal -9.983119e-01 5.807913e-02 0.000000e+00
    outer loop
      vertex -4.884808e+00 6.323649e+00 8.999999e-01
      vertex -4.900000e+00 6.150000e+00 0.000000e+00
      vertex -4.900000e+00 6.150000e+00 8.999999e-01
    endloop
  endfacet
  facet normal 5.807913e-02 9.983119e-01 0.000000e+00
    outer loop
      vertex 3.900000e+00 7.150000e+00 0.000000e+00
      vertex 3.900000e+00 7.150000e+00 8.999999e-01
      vertex 4.073649e+00 7.134808e+00 8.999999e-01
    endloop
  endfacet
  facet normal 1.161583e-01 9.932307e-01 0.000000e+00
    outer loop
      vertex 3.900000e+00 7.150000e+00 0.000000e+00
      vertex 4.073649e+00 7.134808e+00 8.999999e-01
      vertex 4.073649e+00 7.134808e+00 0.000000e+00
    endloop
  endfacet
  facet normal 2.305519e-01 9.730600e-01 0.000000e+00
    outer loop
      vertex 4.073649e+00 7.134808e+00 0.000000e+00
      vertex 4.073649e+00 7.134808e+00 8.999999e-01
      vertex 4.242020e+00 7.089693e+00 8.999999e-01
    endloop
  endfacet
  facet normal 2.868663e-01 9.579706e-01 0.000000e+00
    outer loop
      vertex 4.073649e+00 7.134808e+00 0.000000e+00
      vertex 4.242020e+00 7.089693e+00 8.999999e-01
      vertex 4.242020e+00 7.089693e+00 0.000000e+00
    endloop
  endfacet
  facet normal 3.960194e-01 9.182422e-01 0.000000e+00
    outer loop
      vertex 4.242020e+00 7.089693e+00 0.000000e+00
      vertex 4.242020e+00 7.089693e+00 8.999999e-01
      vertex 4.400001e+00 7.016025e+00 8.999999e-01
    endloop
  endfacet
  facet normal 4.488580e-01 8.936031e-01 0.000000e+00
    outer loop
      vertex 4.242020e+00 7.089693e+00 0.000000e+00
      vertex 4.400001e+00 7.016025e+00 8.999999e-01
      vertex 4.400001e+00 7.016025e+00 0.000000e+00
    endloop
  endfacet
  facet normal 5.494540e-01 8.355240e-01 0.000000e+00
    outer loop
      vertex 4.400001e+00 7.016025e+00 0.000000e+00
      vertex 4.400001e+00 7.016025e+00 8.999999e-01
      vertex 4.542787e+00 6.916044e+00 8.999999e-01
    endloop
  endfacet
  facet normal 5.972114e-01 8.020840e-01 0.000000e+00
    outer loop
      vertex 4.400001e+00 7.016025e+00 0.000000e+00
      vertex 4.542787e+00 6.916044e+00 8.999999e-01
      vertex 4.542787e+00 6.916044e+00 0.000000e+00
    endloop
  endfacet
  facet normal 6.861938e-01 7.274188e-01 0.000000e+00
    outer loop
      vertex 4.542787e+00 6.916044e+00 0.000000e+00
      vertex 4.542787e+00 6.916044e+00 8.999999e-01
      vertex 4.666045e+00 6.792787e+00 8.999999e-01
    endloop
  endfacet
  facet normal 7.274188e-01 6.861938e-01 0.000000e+00
    outer loop
      vertex 4.542787e+00 6.916044e+00 0.000000e+00
      vertex 4.666045e+00 6.792787e+00 8.999999e-01
      vertex 4.666045e+00 6.792787e+00 0.000000e+00
    endloop
  endfacet
  facet normal 8.020840e-01 5.972114e-01 0.000000e+00
    outer loop
      vertex 4.666045e+00 6.792787e+00 0.000000e+00
      vertex 4.666045e+00 6.792787e+00 8.999999e-01
      vertex 4.766025e+00 6.650001e+00 8.999999e-01
    endloop
  endfacet
  facet normal 8.355240e-01 5.494540e-01 0.000000e+00
    outer loop
      vertex 4.666045e+00 6.792787e+00 0.000000e+00
      vertex 4.766025e+00 6.650001e+00 8.999999e-01
      vertex 4.766025e+00 6.650001e+00 0.000000e+00
    endloop
  endfacet
  facet normal 8.936031e-01 4.488580e-01 0.000000e+00
    outer loop
      vertex 4.766025e+00 6.650001e+00 0.000000e+00
      vertex 4.766025e+00 6.650001e+00 8.999999e-01
      vertex 4.839693e+00 6.492020e+00 8.999999e-01
    endloop
  endfacet
  facet normal 9.182422e-01 3.960194e-01 0.000000e+00
    outer loop
      vertex 4.766025e+00 6.650001e+00 0.000000e+00
      vertex 4.839693e+00 6.492020e+00 8.999999e-01
      vertex 4.839693e+00 6.492020e+00 0.000000e+00
    endloop
  endfacet
  facet normal 9.579706e-01 2.868663e-01 0.000000e+00
    outer loop
      vertex 4.839693e+00 6.492020e+00 0.000000e+00
      vertex 4.839693e+00 6.492020e+00 8.999999e-01
      vertex 4.884808e+00 6.323649e+00 8.999999e-01
    endloop
  endfacet
  facet normal 9.730600e-01 2.305519e-01 0.000000e+00
    outer loop
      vertex 4.839693e+00 6.492020e+00 0.000000e+00
      vertex 4.884808e+00 6.323649e+00 8.999999e-01
      vertex 4.884808e+00 6.323649e+00 0.000000e+00
    endloop
  endfacet
  facet normal 9.932307e-01 1.161583e-01 0.000000e+00
    outer loop
      vertex 4.884808e+00 6.323649e+00 0.000000e+00
      vertex 4.884808e+00 6.323649e+00 8.999999e-01
      vertex 4.900000e+00 6.150000e+00 8.999999e-01
    endloop
  endfacet
  facet normal 9.983119e-01 5.807913e-02 0.000000e+00
    outer loop
      vertex 4.884808e+00 6.323649e+00 0.000000e+00
      vertex 4.900000e+00 6.150000e+00 8.999999e-01
      vertex 4.900000e+00 6.150000e+00 0.000000e+00
    endloop
  endfacet
  facet normal 1.000000e+00 0.000000e+00 -2.990902e-16
    outer loop
      vertex 6.350000e+00 -8.499999e-01 5.800000e+00
      vertex 6.350000e+00 -4.150000e+00 5.800000e+00
      vertex 6.350000e+00 -8.499999e-01 1.050000e+00
    endloop
  endfacet
  facet normal 1.000000e+00 0.000000e+00 -2.990902e-16
    outer loop
      vertex 6.350000e+00 -8.499999e-01 1.050000e+00
      vertex 6.350000e+00 -4.150000e+00 5.800000e+00
      vertex 6.350000e+00 -4.150000e+00 0.000000e+00
    endloop
  endfacet
  facet normal 1.000000e+00 0.000000e+00 -2.990902e-16
    outer loop
      vertex 6.350000e+00 -8.499999e-01 1.050000e+00
      vertex 6.350000e+00 -4.150000e+00 0.000000e+00
      vertex 6.350000e+00 -8.499999e-01 0.000000e+00
    endloop
  endfacet
  facet normal 0.000000e+00 0.000000e+00 -1.000000e+00
    outer loop
      vertex 6.350000e+00 -8.499999e-01 0.000000e+00
      vertex 6.350000e+00 -4.150000e+00 0.000000e+00
      vertex 5.550000e+00 -4.150000e+00 0.000000e+00
    endloop
  endfacet
  facet normal 0.000000e+00 0.000000e+00 -1.000000e+00
    outer loop
      vertex 1.950000e+00 -4.150000e+00 0.000000e+00
      vertex 5.500000e-01 -4.150000e+00 0.000000e+00
      vertex 1.950000e+00 -3.150000e+00 0.000000e+00
    endloop
  endfacet
  facet normal 0.000000e+00 0.000000e+00 -1.000000e+00
    outer loop
      vertex 1.950000e+00 -3.150000e+00 0.000000e+00
      vertex 5.500000e-01 -4.150000e+00 0.000000e+00
      vertex 5.500000e-01 -3.150000e+00 0.000000e+00
    endloop
  endfacet
  facet normal 0.000000e+00 0.000000e+00 -1.000000e+00
    outer loop
      vertex -4.400000e+00 7.016025e+00 0.000000e+00
      vertex -4.242020e+00 7.089693e+00 0.000000e+00
      vertex 1.950000e+00 -3.150000e+00 0.000000e+00
    endloop
  endfacet
  facet normal 0.000000e+00 0.000000e+00 -1.000000e+00
    outer loop
      vertex -5.499999e-01 -3.150000e+00 0.000000e+00
      vertex -5.499999e-01 -4.150000e+00 0.000000e+00
      vertex -1.950000e+00 -4.150000e+00 0.000000e+00
    endloop
  endfacet
  facet normal 0.000000e+00 0.000000e+00 -1.000000e+00
    outer loop
      vertex -4.242020e+00 7.089693e+00 0.000000e+00
      vertex -4.073648e+00 7.134808e+00 0.000000e+00
      vertex 1.950000e+00 -3.150000e+00 0.000000e+00
    endloop
  endfacet
  facet normal 0.000000e+00 0.000000e+00 -1.000000e+00
    outer loop
      vertex 1.950000e+00 -3.150000e+00 0.000000e+00
      vertex -4.073648e+00 7.134808e+00 0.000000e+00
      vertex -3.900000e+00 7.150000e+00 0.000000e+00
    endloop
  endfacet
  facet normal 0.000000e+00 0.000000e+00 -1.000000e+00
    outer loop
      vertex 1.950000e+00 -3.150000e+00 0.000000e+00
      vertex -3.900000e+00 7.150000e+00 0.000000e+00
      vertex 3.050000e+00 -3.150000e+00 0.000000e+00
    endloop
  endfacet
  facet normal 0.000000e+00 0.000000e+00 -1.000000e+00
    outer loop
      vertex 3.050000e+00 -3.150000e+00 0.000000e+00
      vertex -3.900000e+00 7.150000e+00 0.000000e+00
      vertex 3.900000e+00 7.150000e+00 0.000000e+00
    endloop
  endfacet
  facet normal 0.000000e+00 0.000000e+00 -1.000000e+00
    outer loop
      vertex 4.449999e+00 -4.150000e+00 0.000000e+00
      vertex 3.050000e+00 -4.150000e+00 0.000000e+00
      vertex 4.449999e+00 -3.150000e+00 0.000000e+00
    endloop
  endfacet
  facet normal 0.000000e+00 0.000000e+00 -1.000000e+00
    outer loop
      vertex 4.449999e+00 -3.150000e+00 0.000000e+00
      vertex 3.050000e+00 -4.150000e+00 0.000000e+00
      vertex 3.050000e+00 -3.150000e+00 0.000000e+00
    endloop
  endfacet
  facet normal 0.000000e+00 0.000000e+00 -1.000000e+00
    outer loop
      vertex 5.550000e+00 -4.150000e+00 0.000000e+00
      vertex 5.550000e+00 -3.150000e+00 0.000000e+00
      vertex 6.350000e+00 -8.499999e-01 0.000000e+00
    endloop
  endfacet
  facet normal 0.000000e+00 0.000000e+00 -1.000000e+00
    outer loop
      vertex 6.350000e+00 -8.499999e-01 0.000000e+00
      vertex 5.550000e+00 -3.150000e+00 0.000000e+00
      vertex 4.449999e+00 -3.150000e+00 0.000000e+00
    endloop
  endfacet
  facet normal 0.000000e+00 0.000000e+00 -1.000000e+00
    outer loop
      vertex 6.350000e+00 -8.499999e-01 0.000000e+00
      vertex 4.449999e+00 -3.150000e+00 0.000000e+00
      vertex 4.900000e+00 -8.499999e-01 0.000000e+00
    endloop
  endfacet
  facet normal 0.000000e+00 0.000000e+00 -1.000000e+00
    outer loop
      vertex 4.900000e+00 -8.499999e-01 0.000000e+00
      vertex 4.449999e+00 -3.150000e+00 0.000000e+00
      vertex 3.050000e+00 -3.150000e+00 0.000000e+00
    endloop
  endfacet
  facet normal 0.000000e+00 0.000000e+00 -1.000000e+00
    outer loop
      vertex 4.900000e+00 -8.499999e-01 0.000000e+00
      vertex 3.050000e+00 -3.150000e+00 0.000000e+00
      vertex 4.900000e+00 6.150000e+00 0.000000e+00
    endloop
  endfacet
  facet normal 0.000000e+00 0.000000e+00 -1.000000e+00
    outer loop
      vertex 4.900000e+00 6.150000e+00 0.000000e+00
      vertex 3.050000e+00 -3.150000e+00 0.000000e+00
      vertex 3.900000e+00 7.150000e+00 0.000000e+00
    endloop
  endfacet
  facet normal 0.000000e+00 0.000000e+00 -1.000000e+00
    outer loop
      vertex -4.839693e+00 6.492020e+00 0.000000e+00
      vertex -4.766025e+00 6.650001e+00 0.000000e+00
      vertex 1.950000e+00 -3.150000e+00 0.000000e+00
    endloop
  endfacet
  facet normal 0.000000e+00 0.000000e+00 -1.000000e+00
    outer loop
      vertex -3.050000e+00 -4.150000e+00 0.000000e+00
      vertex -4.450000e+00 -4.150000e+00 0.000000e+00
      vertex -3.050000e+00 -3.150000e+00 0.000000e+00
    endloop
  endfacet
  facet normal 0.000000e+00 0.000000e+00 -1.000000e+00
    outer loop
      vertex -3.050000e+00 -3.150000e+00 0.000000e+00
      vertex -4.450000e+00 -4.150000e+00 0.000000e+00
      vertex -4.450000e+00 -3.150000e+00 0.000000e+00
    endloop
  endfacet
  facet normal 0.000000e+00 0.000000e+00 -1.000000e+00
    outer loop
      vertex -1.950000e+00 -4.150000e+00 0.000000e+00
      vertex -1.950000e+00 -3.150000e+00 0.000000e+00
      vertex -5.499999e-01 -3.150000e+00 0.000000e+00
    endloop
  endfacet
  facet normal 0.000000e+00 0.000000e+00 -1.000000e+00
    outer loop
      vertex -5.499999e-01 -3.150000e+00 0.000000e+00
      vertex -1.950000e+00 -3.150000e+00 0.000000e+00
      vertex -4.900000e+00 -8.499999e-01 0.000000e+00
    endloop
  endfacet
  facet normal 0.000000e+00 0.000000e+00 -1.000000e+00
    outer loop
      vertex -5.499999e-01 -3.150000e+00 0.000000e+00
      vertex -4.900000e+00 -8.499999e-01 0.000000e+00
      vertex 5.500000e-01 -3.150000e+00 0.000000e+00
    endloop
  endfacet
  facet normal 0.000000e+00 0.000000e+00 -1.000000e+00
    outer loop
      vertex 5.500000e-01 -3.150000e+00 0.000000e+00
      vertex -4.900000e+00 -8.499999e-01 0.000000e+00
      vertex -4.900000e+00 6.150000e+00 0.000000e+00
    endloop
  endfacet
  facet normal 0.000000e+00 0.000000e+00 -1.000000e+00
    outer loop
      vertex 5.500000e-01 -3.150000e+00 0.000000e+00
      vertex -4.900000e+00 6.150000e+00 0.000000e+00
      vertex 1.950000e+00 -3.150000e+00 0.000000e+00
    endloop
  endfacet
  facet normal 0.000000e+00 0.000000e+00 -1.000000e+00
    outer loop
      vertex 1.950000e+00 -3.150000e+00 0.000000e+00
      vertex -4.900000e+00 6.150000e+00 0.000000e+00
      vertex -4.884808e+00 6.323649e+00 0.000000e+00
    endloop
  endfacet
  facet normal 0.000000e+00 0.000000e+00 -1.000000e+00
    outer loop
      vertex 1.950000e+00 -3.150000e+00 0.000000e+00
      vertex -4.884808e+00 6.323649e+00 0.000000e+00
      vertex -4.839693e+00 6.492020e+00 0.000000e+00
    endloop
  endfacet
  facet normal 0.000000e+00 0.000000e+00 -1.000000e+00
    outer loop
      vertex -4.766025e+00 6.650001e+00 0.000000e+00
      vertex -4.666044e+00 6.792787e+00 0.000000e+00
      vertex 1.950000e+00 -3.150000e+00 0.000000e+00
    endloop
  endfacet
  facet normal 0.000000e+00 0.000000e+00 -1.000000e+00
    outer loop
      vertex 1.950000e+00 -3.150000e+00 0.000000e+00
      vertex -4.666044e+00 6.792787e+00 0.000000e+00
      vertex -4.542787e+00 6.916044e+00 0.000000e+00
    endloop
  endfacet
  facet normal 0.000000e+00 0.000000e+00 -1.000000e+00
    outer loop
      vertex 1.950000e+00 -3.150000e+00 0.000000e+00
      vertex -4.542787e+00 6.916044e+00 0.000000e+00
      vertex -4.400000e+00 7.016025e+00 0.000000e+00
    endloop
  endfacet
  facet normal 0.000000e+00 0.000000e+00 -1.000000e+00
    outer loop
      vertex 3.900000e+00 7.150000e+00 0.000000e+00
      vertex 4.073649e+00 7.134808e+00 0.000000e+00
      vertex 4.900000e+00 6.150000e+00 0.000000e+00
    endloop
  endfacet
  facet normal 0.000000e+00 0.000000e+00 -1.000000e+00
    outer loop
      vertex 4.900000e+00 6.150000e+00 0.000000e+00
      vertex 4.073649e+00 7.134808e+00 0.000000e+00
      vertex 4.242020e+00 7.089693e+00 0.000000e+00
    endloop
  endfacet
  facet normal 0.000000e+00 0.000000e+00 -1.000000e+00
    outer loop
      vertex 4.900000e+00 6.150000e+00 0.000000e+00
      vertex 4.242020e+00 7.089693e+00 0.000000e+00
      vertex 4.400001e+00 7.016025e+00 0.000000e+00
    endloop
  endfacet
  facet normal 0.000000e+00 0.000000e+00 -1.000000e+00
    outer loop
      vertex -5.550000e+00 -4.150000e+00 0.000000e+00
      vertex -6.350000e+00 -4.150000e+00 0.000000e+00
      vertex -5.550000e+00 -3.150000e+00 0.000000e+00
    endloop
  endfacet
  facet normal 0.000000e+00 0.000000e+00 -1.000000e+00
    outer loop
      vertex -5.550000e+00 -3.150000e+00 0.000000e+00
      vertex -6.350000e+00 -4.150000e+00 0.000000e+00
      vertex -6.350000e+00 -8.499999e-01 0.000000e+00
    endloop
  endfacet
  facet normal 0.000000e+00 0.000000e+00 -1.000000e+00
    outer loop
      vertex -5.550000e+00 -3.150000e+00 0.000000e+00
      vertex -6.350000e+00 -8.499999e-01 0.000000e+00
      vertex -4.450000e+00 -3.150000e+00 0.000000e+00
    endloop
  endfacet
  facet normal 0.000000e+00 0.000000e+00 -1.000000e+00
    outer loop
      vertex -4.450000e+00 -3.150000e+00 0.000000e+00
      vertex -6.350000e+00 -8.499999e-01 0.000000e+00
      vertex -4.900000e+00 -8.499999e-01 0.000000e+00
    endloop
  endfacet
  facet normal 0.000000e+00 0.000000e+00 -1.000000e+00
    outer loop
      vertex -4.450000e+00 -3.150000e+00 0.000000e+00
      vertex -4.900000e+00 -8.499999e-01 0.000000e+00
      vertex -3.050000e+00 -3.150000e+00 0.000000e+00
    endloop
  endfacet
  facet normal 0.000000e+00 0.000000e+00 -1.000000e+00
    outer loop
      vertex -3.050000e+00 -3.150000e+00 0.000000e+00
      vertex -4.900000e+00 -8.499999e-01 0.000000e+00
      vertex -1.950000e+00 -3.150000e+00 0.000000e+00
    endloop
  endfacet
  facet normal 0.000000e+00 0.000000e+00 -1.000000e+00
    outer loop
      vertex 4.400001e+00 7.016025e+00 0.000000e+00
      vertex 4.542787e+00 6.916044e+00 0.000000e+00
      vertex 4.900000e+00 6.150000e+00 0.000000e+00
    endloop
  endfacet
  facet normal 0.000000e+00 0.000000e+00 -1.000000e+00
    outer loop
      vertex 4.900000e+00 6.150000e+00 0.000000e+00
      vertex 4.542787e+00 6.916044e+00 0.000000e+00
      vertex 4.666045e+00 6.792787e+00 0.000000e+00
    endloop
  endfacet
  facet normal 0.000000e+00 0.000000e+00 -1.000000e+00
    outer loop
      vertex 4.900000e+00 6.150000e+00 0.000000e+00
      vertex 4.666045e+00 6.792787e+00 0.000000e+00
      vertex 4.884808e+00 6.323649e+00 0.000000e+00
    endloop
  endfacet
  facet normal 0.000000e+00 0.000000e+00 -1.000000e+00
    outer loop
      vertex 4.884808e+00 6.323649e+00 0.000000e+00
      vertex 4.666045e+00 6.792787e+00 0.000000e+00
      vertex 4.766025e+00 6.650001e+00 0.000000e+00
    endloop
  endfacet
  facet normal 0.000000e+00 0.000000e+00 -1.000000e+00
    outer loop
      vertex 4.884808e+00 6.323649e+00 0.000000e+00
      vertex 4.766025e+00 6.650001e+00 0.000000e+00
      vertex 4.839693e+00 6.492020e+00 0.000000e+00
    endloop
  endfacet
  facet normal -1.000000e+00 0.000000e+00 1.495451e-16
    outer loop
      vertex -6.350000e+00 -8.499999e-01 0.000000e+00
      vertex -6.350000e+00 -4.150000e+00 0.000000e+00
      vertex -6.350000e+00 -8.499999e-01 1.050000e+00
    endloop
  endfacet
  facet normal -1.000000e+00 0.000000e+00 1.495451e-16
    outer loop
      vertex -6.350000e+00 -8.499999e-01 1.050000e+00
      vertex -6.350000e+00 -4.150000e+00 0.000000e+00
      vertex -6.350000e+00 -4.150000e+00 5.800000e+00
    endloop
  endfacet
  facet normal -1.000000e+00 0.000000e+00 1.495451e-16
    outer loop
      vertex -6.350000e+00 -8.499999e-01 1.050000e+00
      vertex -6.350000e+00 -4.150000e+00 5.800000e+00
      vertex -6.350000e+00 -8.499999e-01 5.800000e+00
    endloop
  endfacet
  facet normal 0.000000e+00 0.000000e+00 1.000000e+00
    outer loop
      vertex 3.050000e+00 -3.150000e+00 5.800000e+00
      vertex 3.050000e+00 -4.150000e+00 5.800000e+00
      vertex 4.449999e+00 -4.150000e+00 5.800000e+00
    endloop
  endfacet
  facet normal 0.000000e+00 0.000000e+00 1.000000e+00
    outer loop
      vertex 5.550000e+00 -4.150000e+00 5.800000e+00
      vertex 6.350000e+00 -4.150000e+00 5.800000e+00
      vertex 5.550000e+00 -3.150000e+00 5.800000e+00
    endloop
  endfacet
  facet normal 0.000000e+00 0.000000e+00 1.000000e+00
    outer loop
      vertex 5.550000e+00 -3.150000e+00 5.800000e+00
      vertex 6.350000e+00 -4.150000e+00 5.800000e+00
      vertex 6.350000e+00 -8.499999e-01 5.800000e+00
    endloop
  endfacet
  facet normal 0.000000e+00 0.000000e+00 1.000000e+00
    outer loop
      vertex 5.550000e+00 -3.150000e+00 5.800000e+00
      vertex 6.350000e+00 -8.499999e-01 5.800000e+00
      vertex 4.449999e+00 -3.150000e+00 5.800000e+00
    endloop
  endfacet
  facet normal 0.000000e+00 0.000000e+00 1.000000e+00
    outer loop
      vertex -4.450000e+00 -3.150000e+00 5.800000e+00
      vertex -4.450000e+00 -4.150000e+00 5.800000e+00
      vertex -3.050000e+00 -4.150000e+00 5.800000e+00
    endloop
  endfacet
  facet normal 0.000000e+00 0.000000e+00 1.000000e+00
    outer loop
      vertex -3.050000e+00 -4.150000e+00 5.800000e+00
      vertex -3.050000e+00 -3.150000e+00 5.800000e+00
      vertex -4.450000e+00 -3.150000e+00 5.800000e+00
    endloop
  endfacet
  facet normal 0.000000e+00 0.000000e+00 1.000000e+00
    outer loop
      vertex -4.450000e+00 -3.150000e+00 5.800000e+00
      vertex -3.050000e+00 -3.150000e+00 5.800000e+00
      vertex -1.250000e+00 -8.499999e-01 5.800000e+00
    endloop
  endfacet
  facet normal 0.000000e+00 0.000000e+00 1.000000e+00
    outer loop
      vertex -4.450000e+00 -3.150000e+00 5.800000e+00
      vertex -1.250000e+00 -8.499999e-01 5.800000e+00
      vertex -5.550000e+00 -3.150000e+00 5.800000e+00
    endloop
  endfacet
  facet normal 0.000000e+00 0.000000e+00 1.000000e+00
    outer loop
      vertex -5.550000e+00 -3.150000e+00 5.800000e+00
      vertex -1.250000e+00 -8.499999e-01 5.800000e+00
      vertex -6.350000e+00 -8.499999e-01 5.800000e+00
    endloop
  endfacet
  facet normal 0.000000e+00 0.000000e+00 1.000000e+00
    outer loop
      vertex -5.550000e+00 -3.150000e+00 5.800000e+00
      vertex -6.350000e+00 -8.499999e-01 5.800000e+00
      vertex -5.550000e+00 -4.150000e+00 5.800000e+00
    endloop
  endfacet
  facet normal 0.000000e+00 0.000000e+00 1.000000e+00
    outer loop
      vertex -5.550000e+00 -4.150000e+00 5.800000e+00
      vertex -6.350000e+00 -8.499999e-01 5.800000e+00
      vertex -6.350000e+00 -4.150000e+00 5.800000e+00
    endloop
  endfacet
  facet normal 0.000000e+00 0.000000e+00 1.000000e+00
    outer loop
      vertex -1.950000e+00 -4.150000e+00 5.800000e+00
      vertex -5.499999e-01 -4.150000e+00 5.800000e+00
      vertex -1.950000e+00 -3.150000e+00 5.800000e+00
    endloop
  endfacet
  facet normal 0.000000e+00 0.000000e+00 1.000000e+00
    outer loop
      vertex -1.950000e+00 -3.150000e+00 5.800000e+00
      vertex -5.499999e-01 -4.150000e+00 5.800000e+00
      vertex -5.499999e-01 -3.150000e+00 5.800000e+00
    endloop
  endfacet
  facet normal 0.000000e+00 0.000000e+00 1.000000e+00
    outer loop
      vertex -3.050000e+00 -3.150000e+00 5.800000e+00
      vertex -1.950000e+00 -3.150000e+00 5.800000e+00
      vertex -1.250000e+00 -8.499999e-01 5.800000e+00
    endloop
  endfacet
  facet normal 0.000000e+00 0.000000e+00 1.000000e+00
    outer loop
      vertex -1.250000e+00 -8.499999e-01 5.800000e+00
      vertex -1.950000e+00 -3.150000e+00 5.800000e+00
      vertex -5.499999e-01 -3.150000e+00 5.800000e+00
    endloop
  endfacet
  facet normal 0.000000e+00 0.000000e+00 1.000000e+00
    outer loop
      vertex -1.250000e+00 -8.499999e-01 5.800000e+00
      vertex -5.499999e-01 -3.150000e+00 5.800000e+00
      vertex 6.350000e+00 -8.499999e-01 5.800000e+00
    endloop
  endfacet
  facet normal 0.000000e+00 0.000000e+00 1.000000e+00
    outer loop
      vertex 6.350000e+00 -8.499999e-01 5.800000e+00
      vertex -5.499999e-01 -3.150000e+00 5.800000e+00
      vertex 5.500000e-01 -3.150000e+00 5.800000e+00
    endloop
  endfacet
  facet normal 0.000000e+00 0.000000e+00 1.000000e+00
    outer loop
      vertex 4.449999e+00 -4.150000e+00 5.800000e+00
      vertex 4.449999e+00 -3.150000e+00 5.800000e+00
      vertex 3.050000e+00 -3.150000e+00 5.800000e+00
    endloop
  endfacet
  facet normal 0.000000e+00 0.000000e+00 1.000000e+00
    outer loop
      vertex 3.050000e+00 -3.150000e+00 5.800000e+00
      vertex 4.449999e+00 -3.150000e+00 5.800000e+00
      vertex 6.350000e+00 -8.499999e-01 5.800000e+00
    endloop
  endfacet
  facet normal 0.000000e+00 0.000000e+00 1.000000e+00
    outer loop
      vertex 3.050000e+00 -3.150000e+00 5.800000e+00
      vertex 6.350000e+00 -8.499999e-01 5.800000e+00
      vertex 1.950000e+00 -3.150000e+00 5.800000e+00
    endloop
  endfacet
  facet normal 0.000000e+00 0.000000e+00 1.000000e+00
    outer loop
      vertex 1.950000e+00 -3.150000e+00 5.800000e+00
      vertex 6.350000e+00 -8.499999e-01 5.800000e+00
      vertex 5.500000e-01 -3.150000e+00 5.800000e+00
    endloop
  endfacet
  facet normal 0.000000e+00 0.000000e+00 1.000000e+00
    outer loop
      vertex 1.950000e+00 -3.150000e+00 5.800000e+00
      vertex 5.500000e-01 -3.150000e+00 5.800000e+00
      vertex 1.950000e+00 -4.150000e+00 5.800000e+00
    endloop
  endfacet
  facet normal 0.000000e+00 0.000000e+00 1.000000e+00
    outer loop
      vertex 1.950000e+00 -4.150000e+00 5.800000e+00
      vertex 5.500000e-01 -3.150000e+00 5.800000e+00
      vertex 5.500000e-01 -4.150000e+00 5.800000e+00
    endloop
  endfacet
  facet normal 0.000000e+00 1.000000e+00 0.000000e+00
    outer loop
      vertex -4.900000e+00 -8.499999e-01 0.000000e+00
      vertex -6.350000e+00 -8.499999e-01 0.000000e+00
      vertex -4.900000e+00 -8.499999e-01 8.999999e-01
    endloop
  endfacet
  facet normal 0.000000e+00 1.000000e+00 0.000000e+00
    outer loop
      vertex -4.900000e+00 -8.499999e-01 8.999999e-01
      vertex -6.350000e+00 -8.499999e-01 0.000000e+00
      vertex -6.350000e+00 -8.499999e-01 1.050000e+00
    endloop
  endfacet
  facet normal 0.000000e+00 1.000000e+00 0.000000e+00
    outer loop
      vertex -1.250000e+00 -8.499999e-01 8.999999e-01
      vertex -1.250000e+00 -8.499999e-01 1.050000e+00
      vertex 4.900000e+00 -8.499999e-01 8.999999e-01
    endloop
  endfacet
  facet normal 0.000000e+00 1.000000e+00 0.000000e+00
    outer loop
      vertex 4.900000e+00 -8.499999e-01 8.999999e-01
      vertex -1.250000e+00 -8.499999e-01 1.050000e+00
      vertex 6.350000e+00 -8.499999e-01 1.050000e+00
    endloop
  endfacet
  facet normal 0.000000e+00 1.000000e+00 0.000000e+00
    outer loop
      vertex 4.900000e+00 -8.499999e-01 8.999999e-01
      vertex 6.350000e+00 -8.499999e-01 1.050000e+00
      vertex 4.900000e+00 -8.499999e-01 0.000000e+00
    endloop
  endfacet
  facet normal 0.000000e+00 1.000000e+00 0.000000e+00
    outer loop
      vertex 4.900000e+00 -8.499999e-01 0.000000e+00
      vertex 6.350000e+00 -8.499999e-01 1.050000e+00
      vertex 6.350000e+00 -8.499999e-01 0.000000e+00
    endloop
  endfacet
  facet normal 0.000000e+00 1.000000e+00 0.000000e+00
    outer loop
      vertex -2.999999e-01 -8.499999e-01 2.700000e+00
      vertex -2.999999e-01 -8.499999e-01 2.100000e+00
      vertex -1.250000e+00 -8.499999e-01 1.050000e+00
    endloop
  endfacet
  facet normal 0.000000e+00 1.000000e+00 0.000000e+00
    outer loop
      vertex -1.250000e+00 -8.499999e-01 1.050000e+00
      vertex -2.999999e-01 -8.499999e-01 2.100000e+00
      vertex 3.000000e-01 -8.499999e-01 2.100000e+00
    endloop
  endfacet
  facet normal 0.000000e+00 1.000000e+00 0.000000e+00
    outer loop
      vertex -1.250000e+00 -8.499999e-01 1.050000e+00
      vertex 4.700000e+00 -8.499999e-01 2.100000e+00
      vertex 6.350000e+00 -8.499999e-01 1.050000e+00
    endloop
  endfacet
  facet normal 0.000000e+00 1.000000e+00 0.000000e+00
    outer loop
      vertex 6.350000e+00 -8.499999e-01 1.050000e+00
      vertex 4.700000e+00 -8.499999e-01 2.100000e+00
      vertex 5.300000e+00 -8.499999e-01 2.100000e+00
    endloop
  endfacet
  facet normal 0.000000e+00 1.000000e+00 0.000000e+00
    outer loop
      vertex 6.350000e+00 -8.499999e-01 1.050000e+00
      vertex 5.300000e+00 -8.499999e-01 2.100000e+00
      vertex 6.350000e+00 -8.499999e-01 5.800000e+00
    endloop
  endfacet
  facet normal 0.000000e+00 1.000000e+00 0.000000e+00
    outer loop
      vertex 6.350000e+00 -8.499999e-01 5.800000e+00
      vertex 5.300000e+00 -8.499999e-01 2.100000e+00
      vertex 5.300000e+00 -8.499999e-01 2.700000e+00
    endloop
  endfacet
  facet normal 0.000000e+00 1.000000e+00 0.000000e+00
    outer loop
      vertex 6.350000e+00 -8.499999e-01 5.800000e+00
      vertex 5.300000e+00 -8.499999e-01 2.700000e+00
      vertex 4.700000e+00 -8.499999e-01 2.700000e+00
    endloop
  endfacet
  facet normal 0.000000e+00 1.000000e+00 0.000000e+00
    outer loop
      vertex 2.200001e+00 -8.499999e-01 2.700000e+00
      vertex 6.350000e+00 -8.499999e-01 5.800000e+00
      vertex 2.800000e+00 -8.499999e-01 2.700000e+00
    endloop
  endfacet
  facet normal 0.000000e+00 1.000000e+00 0.000000e+00
    outer loop
      vertex 2.800000e+00 -8.499999e-01 2.700000e+00
      vertex 6.350000e+00 -8.499999e-01 5.800000e+00
      vertex 4.700000e+00 -8.499999e-01 2.700000e+00
    endloop
  endfacet
  facet normal 0.000000e+00 1.000000e+00 0.000000e+00
    outer loop
      vertex 2.800000e+00 -8.499999e-01 2.700000e+00
      vertex 4.700000e+00 -8.499999e-01 2.700000e+00
      vertex 2.800000e+00 -8.499999e-01 2.100000e+00
    endloop
  endfacet
  facet normal 0.000000e+00 1.000000e+00 0.000000e+00
    outer loop
      vertex -1.250000e+00 -8.499999e-01 5.800000e+00
      vertex -2.200000e+00 -8.499999e-01 2.700000e+00
      vertex -2.800000e+00 -8.499999e-01 2.700000e+00
    endloop
  endfacet
  facet normal 0.000000e+00 1.000000e+00 0.000000e+00
    outer loop
      vertex -2.800000e+00 -8.499999e-01 2.100000e+00
      vertex -2.200000e+00 -8.499999e-01 2.100000e+00
      vertex -1.250000e+00 -8.499999e-01 1.050000e+00
    endloop
  endfacet
  facet normal 0.000000e+00 1.000000e+00 0.000000e+00
    outer loop
      vertex -5.300000e+00 -8.499999e-01 2.700000e+00
      vertex -5.300000e+00 -8.499999e-01 2.100000e+00
      vertex -6.350000e+00 -8.499999e-01 1.050000e+00
    endloop
  endfacet
  facet normal 0.000000e+00 1.000000e+00 0.000000e+00
    outer loop
      vertex -6.350000e+00 -8.499999e-01 1.050000e+00
      vertex -5.300000e+00 -8.499999e-01 2.100000e+00
      vertex -4.700000e+00 -8.499999e-01 2.100000e+00
    endloop
  endfacet
  facet normal 0.000000e+00 1.000000e+00 0.000000e+00
    outer loop
      vertex 4.700000e+00 -8.499999e-01 2.700000e+00
      vertex 4.700000e+00 -8.499999e-01 2.100000e+00
      vertex 2.800000e+00 -8.499999e-01 2.100000e+00
    endloop
  endfacet
  facet normal 0.000000e+00 1.000000e+00 0.000000e+00
    outer loop
      vertex 2.800000e+00 -8.499999e-01 2.100000e+00
      vertex 4.700000e+00 -8.499999e-01 2.100000e+00
      vertex -1.250000e+00 -8.499999e-01 1.050000e+00
    endloop
  endfacet
  facet normal 0.000000e+00 1.000000e+00 0.000000e+00
    outer loop
      vertex 2.800000e+00 -8.499999e-01 2.100000e+00
      vertex -1.250000e+00 -8.499999e-01 1.050000e+00
      vertex 2.200001e+00 -8.499999e-01 2.100000e+00
    endloop
  endfacet
  facet normal 0.000000e+00 1.000000e+00 0.000000e+00
    outer loop
      vertex 2.200001e+00 -8.499999e-01 2.100000e+00
      vertex -1.250000e+00 -8.499999e-01 1.050000e+00
      vertex 3.000000e-01 -8.499999e-01 2.100000e+00
    endloop
  endfacet
  facet normal 0.000000e+00 1.000000e+00 0.000000e+00
    outer loop
      vertex 2.200001e+00 -8.499999e-01 2.100000e+00
      vertex 3.000000e-01 -8.499999e-01 2.100000e+00
      vertex 2.200001e+00 -8.499999e-01 2.700000e+00
    endloop
  endfacet
  facet normal 0.000000e+00 1.000000e+00 0.000000e+00
    outer loop
      vertex 2.200001e+00 -8.499999e-01 2.700000e+00
      vertex 3.000000e-01 -8.499999e-01 2.100000e+00
      vertex 3.000000e-01 -8.499999e-01 2.700000e+00
    endloop
  endfacet
  facet normal 0.000000e+00 1.000000e+00 0.000000e+00
    outer loop
      vertex 2.200001e+00 -8.499999e-01 2.700000e+00
      vertex 3.000000e-01 -8.499999e-01 2.700000e+00
      vertex 6.350000e+00 -8.499999e-01 5.800000e+00
    endloop
  endfacet
  facet normal 0.000000e+00 1.000000e+00 0.000000e+00
    outer loop
      vertex 6.350000e+00 -8.499999e-01 5.800000e+00
      vertex 3.000000e-01 -8.499999e-01 2.700000e+00
      vertex -2.999999e-01 -8.499999e-01 2.700000e+00
    endloop
  endfacet
  facet normal 0.000000e+00 1.000000e+00 0.000000e+00
    outer loop
      vertex 6.350000e+00 -8.499999e-01 5.800000e+00
      vertex -2.999999e-01 -8.499999e-01 2.700000e+00
      vertex -1.250000e+00 -8.499999e-01 5.800000e+00
    endloop
  endfacet
  facet normal 0.000000e+00 1.000000e+00 0.000000e+00
    outer loop
      vertex -1.250000e+00 -8.499999e-01 5.800000e+00
      vertex -2.999999e-01 -8.499999e-01 2.700000e+00
      vertex -1.250000e+00 -8.499999e-01 1.050000e+00
    endloop
  endfacet
  facet normal 0.000000e+00 1.000000e+00 0.000000e+00
    outer loop
      vertex -1.250000e+00 -8.499999e-01 5.800000e+00
      vertex -1.250000e+00 -8.499999e-01 1.050000e+00
      vertex -2.200000e+00 -8.499999e-01 2.700000e+00
    endloop
  endfacet
  facet normal 0.000000e+00 1.000000e+00 0.000000e+00
    outer loop
      vertex -2.200000e+00 -8.499999e-01 2.700000e+00
      vertex -1.250000e+00 -8.499999e-01 1.050000e+00
      vertex -2.200000e+00 -8.499999e-01 2.100000e+00
    endloop
  endfacet
  facet normal 0.000000e+00 1.000000e+00 0.000000e+00
    outer loop
      vertex -1.250000e+00 -8.499999e-01 8.999999e-01
      vertex -4.900000e+00 -8.499999e-01 8.999999e-01
      vertex -1.250000e+00 -8.499999e-01 1.050000e+00
    endloop
  endfacet
  facet normal 0.000000e+00 1.000000e+00 0.000000e+00
    outer loop
      vertex -1.250000e+00 -8.499999e-01 1.050000e+00
      vertex -4.900000e+00 -8.499999e-01 8.999999e-01
      vertex -6.350000e+00 -8.499999e-01 1.050000e+00
    endloop
  endfacet
  facet normal 0.000000e+00 1.000000e+00 0.000000e+00
    outer loop
      vertex -1.250000e+00 -8.499999e-01 1.050000e+00
      vertex -6.350000e+00 -8.499999e-01 1.050000e+00
      vertex -2.800000e+00 -8.499999e-01 2.100000e+00
    endloop
  endfacet
  facet normal 0.000000e+00 1.000000e+00 0.000000e+00
    outer loop
      vertex -2.800000e+00 -8.499999e-01 2.100000e+00
      vertex -6.350000e+00 -8.499999e-01 1.050000e+00
      vertex -4.700000e+00 -8.499999e-01 2.100000e+00
    endloop
  endfacet
  facet normal 0.000000e+00 1.000000e+00 0.000000e+00
    outer loop
      vertex -2.800000e+00 -8.499999e-01 2.100000e+00
      vertex -4.700000e+00 -8.499999e-01 2.100000e+00
      vertex -2.800000e+00 -8.499999e-01 2.700000e+00
    endloop
  endfacet
  facet normal 0.000000e+00 1.000000e+00 0.000000e+00
    outer loop
      vertex -2.800000e+00 -8.499999e-01 2.700000e+00
      vertex -4.700000e+00 -8.499999e-01 2.100000e+00
      vertex -4.700000e+00 -8.499999e-01 2.700000e+00
    endloop
  endfacet
  facet normal 0.000000e+00 1.000000e+00 0.000000e+00
    outer loop
      vertex -2.800000e+00 -8.499999e-01 2.700000e+00
      vertex -4.700000e+00 -8.499999e-01 2.700000e+00
      vertex -1.250000e+00 -8.499999e-01 5.800000e+00
    endloop
  endfacet
  facet normal 0.000000e+00 1.000000e+00 0.000000e+00
    outer loop
      vertex -1.250000e+00 -8.499999e-01 5.800000e+00
      vertex -4.700000e+00 -8.499999e-01 2.700000e+00
      vertex -5.300000e+00 -8.499999e-01 2.700000e+00
    endloop
  endfacet
  facet normal 0.000000e+00 1.000000e+00 0.000000e+00
    outer loop
      vertex -1.250000e+00 -8.499999e-01 5.800000e+00
      vertex -5.300000e+00 -8.499999e-01 2.700000e+00
      vertex -6.350000e+00 -8.499999e-01 5.800000e+00
    endloop
  endfacet
  facet normal 0.000000e+00 1.000000e+00 0.000000e+00
    outer loop
      vertex -6.350000e+00 -8.499999e-01 5.800000e+00
      vertex -5.300000e+00 -8.499999e-01 2.700000e+00
      vertex -6.350000e+00 -8.499999e-01 1.050000e+00
    endloop
  endfacet
  facet normal 0.000000e+00 -1.000000e+00 0.000000e+00
    outer loop
      vertex -3.050000e+00 -4.150000e+00 5.800000e+00
      vertex -4.450000e+00 -4.150000e+00 5.800000e+00
      vertex -3.050000e+00 -4.150000e+00 0.000000e+00
    endloop
  endfacet
  facet normal 0.000000e+00 -1.000000e+00 0.000000e+00
    outer loop
      vertex -3.050000e+00 -4.150000e+00 0.000000e+00
      vertex -4.450000e+00 -4.150000e+00 5.800000e+00
      vertex -4.450000e+00 -4.150000e+00 0.000000e+00
    endloop
  endfacet
  facet normal -1.000000e+00 0.000000e+00 0.000000e+00
    outer loop
      vertex -4.900000e+00 6.150000e+00 0.000000e+00
      vertex -4.900000e+00 -8.499999e-01 0.000000e+00
      vertex -4.900000e+00 6.150000e+00 8.999999e-01
    endloop
  endfacet
  facet normal -1.000000e+00 0.000000e+00 0.000000e+00
    outer loop
      vertex -4.900000e+00 6.150000e+00 8.999999e-01
      vertex -4.900000e+00 -8.499999e-01 0.000000e+00
      vertex -4.900000e+00 -8.499999e-01 8.999999e-01
    endloop
  endfacet
  facet normal 0.000000e+00 0.000000e+00 1.000000e+00
    outer loop
      vertex -4.900000e+00 6.150000e+00 8.999999e-01
      vertex -4.900000e+00 -8.499999e-01 8.999999e-01
      vertex -1.250000e+00 -8.499999e-01 8.999999e-01
    endloop
  endfacet
  facet normal 0.000000e+00 0.000000e+00 1.000000e+00
    outer loop
      vertex -1.250000e+00 -8.499999e-01 8.999999e-01
      vertex 4.900000e+00 -8.499999e-01 8.999999e-01
      vertex -3.900000e+00 7.150000e+00 8.999999e-01
    endloop
  endfacet
  facet normal 0.000000e+00 0.000000e+00 1.000000e+00
    outer loop
      vertex -3.900000e+00 7.150000e+00 8.999999e-01
      vertex 4.900000e+00 -8.499999e-01 8.999999e-01
      vertex 4.900000e+00 6.150000e+00 8.999999e-01
    endloop
  endfacet
  facet normal 0.000000e+00 0.000000e+00 1.000000e+00
    outer loop
      vertex -1.250000e+00 -8.499999e-01 8.999999e-01
      vertex -3.900000e+00 7.150000e+00 8.999999e-01
      vertex -4.900000e+00 6.150000e+00 8.999999e-01
    endloop
  endfacet
  facet normal 0.000000e+00 0.000000e+00 1.000000e+00
    outer loop
      vertex -4.900000e+00 6.150000e+00 8.999999e-01
      vertex -3.900000e+00 7.150000e+00 8.999999e-01
      vertex -4.073648e+00 7.134808e+00 8.999999e-01
    endloop
  endfacet
  facet normal 0.000000e+00 0.000000e+00 1.000000e+00
    outer loop
      vertex -4.900000e+00 6.150000e+00 8.999999e-01
      vertex -4.073648e+00 7.134808e+00 8.999999e-01
      vertex -4.242020e+00 7.089693e+00 8.999999e-01
    endloop
  endfacet
  facet normal 0.000000e+00 0.000000e+00 1.000000e+00
    outer loop
      vertex 4.400001e+00 7.016025e+00 8.999999e-01
      vertex 4.242020e+00 7.089693e+00 8.999999e-01
      vertex 4.900000e+00 6.150000e+00 8.999999e-01
    endloop
  endfacet
  facet normal 0.000000e+00 0.000000e+00 1.000000e+00
    outer loop
      vertex -4.766025e+00 6.650001e+00 8.999999e-01
      vertex -4.839693e+00 6.492020e+00 8.999999e-01
      vertex -4.884808e+00 6.323649e+00 8.999999e-01
    endloop
  endfacet
  facet normal 0.000000e+00 0.000000e+00 1.000000e+00
    outer loop
      vertex 4.242020e+00 7.089693e+00 8.999999e-01
      vertex 4.073649e+00 7.134808e+00 8.999999e-01
      vertex 4.900000e+00 6.150000e+00 8.999999e-01
    endloop
  endfacet
  facet normal 0.000000e+00 0.000000e+00 1.000000e+00
    outer loop
      vertex 4.900000e+00 6.150000e+00 8.999999e-01
      vertex 4.073649e+00 7.134808e+00 8.999999e-01
      vertex 3.900000e+00 7.150000e+00 8.999999e-01
    endloop
  endfacet
  facet normal 0.000000e+00 0.000000e+00 1.000000e+00
    outer loop
      vertex 4.900000e+00 6.150000e+00 8.999999e-01
      vertex 3.900000e+00 7.150000e+00 8.999999e-01
      vertex -3.900000e+00 7.150000e+00 8.999999e-01
    endloop
  endfacet
  facet normal 0.000000e+00 0.000000e+00 1.000000e+00
    outer loop
      vertex -4.242020e+00 7.089693e+00 8.999999e-01
      vertex -4.400000e+00 7.016025e+00 8.999999e-01
      vertex -4.900000e+00 6.150000e+00 8.999999e-01
    endloop
  endfacet
  facet normal 0.000000e+00 0.000000e+00 1.000000e+00
    outer loop
      vertex -4.900000e+00 6.150000e+00 8.999999e-01
      vertex -4.400000e+00 7.016025e+00 8.999999e-01
      vertex -4.542787e+00 6.916044e+00 8.999999e-01
    endloop
  endfacet
  facet normal 0.000000e+00 0.000000e+00 1.000000e+00
    outer loop
      vertex -4.900000e+00 6.150000e+00 8.999999e-01
      vertex -4.542787e+00 6.916044e+00 8.999999e-01
      vertex -4.884808e+00 6.323649e+00 8.999999e-01
    endloop
  endfacet
  facet normal 0.000000e+00 0.000000e+00 1.000000e+00
    outer loop
      vertex -4.884808e+00 6.323649e+00 8.999999e-01
      vertex -4.542787e+00 6.916044e+00 8.999999e-01
      vertex -4.666044e+00 6.792787e+00 8.999999e-01
    endloop
  endfacet
  facet normal 0.000000e+00 0.000000e+00 1.000000e+00
    outer loop
      vertex -4.884808e+00 6.323649e+00 8.999999e-01
      vertex -4.666044e+00 6.792787e+00 8.999999e-01
      vertex -4.766025e+00 6.650001e+00 8.999999e-01
    endloop
  endfacet
  facet normal 0.000000e+00 0.000000e+00 1.000000e+00
    outer loop
      vertex 4.839693e+00 6.492020e+00 8.999999e-01
      vertex 4.766025e+00 6.650001e+00 8.999999e-01
      vertex 4.884808e+00 6.323649e+00 8.999999e-01
    endloop
  endfacet
  facet normal 0.000000e+00 0.000000e+00 1.000000e+00
    outer loop
      vertex 4.884808e+00 6.323649e+00 8.999999e-01
      vertex 4.766025e+00 6.650001e+00 8.999999e-01
      vertex 4.666045e+00 6.792787e+00 8.999999e-01
    endloop
  endfacet
  facet normal 0.000000e+00 0.000000e+00 1.000000e+00
    outer loop
      vertex 4.884808e+00 6.323649e+00 8.999999e-01
      vertex 4.666045e+00 6.792787e+00 8.999999e-01
      vertex 4.900000e+00 6.150000e+00 8.999999e-01
    endloop
  endfacet
  facet normal 0.000000e+00 0.000000e+00 1.000000e+00
    outer loop
      vertex 4.900000e+00 6.150000e+00 8.999999e-01
      vertex 4.666045e+00 6.792787e+00 8.999999e-01
      vertex 4.542787e+00 6.916044e+00 8.999999e-01
    endloop
  endfacet
  facet normal 0.000000e+00 0.000000e+00 1.000000e+00
    outer loop
      vertex 4.900000e+00 6.150000e+00 8.999999e-01
      vertex 4.542787e+00 6.916044e+00 8.999999e-01
      vertex 4.400001e+00 7.016025e+00 8.999999e-01
    endloop
  endfacet
  facet normal 1.000000e+00 0.000000e+00 0.000000e+00
    outer loop
      vertex 4.900000e+00 6.150000e+00 8.999999e-01
      vertex 4.900000e+00 -8.499999e-01 8.999999e-01
      vertex 4.900000e+00 6.150000e+00 0.000000e+00
    endloop
  endfacet
  facet normal 1.000000e+00 0.000000e+00 0.000000e+00
    outer loop
      vertex 4.900000e+00 6.150000e+00 0.000000e+00
      vertex 4.900000e+00 -8.499999e-01 8.999999e-01
      vertex 4.900000e+00 -8.499999e-01 0.000000e+00
    endloop
  endfacet
  facet normal 0.000000e+00 1.000000e+00 0.000000e+00
    outer loop
      vertex -3.900000e+00 7.150000e+00 8.999999e-01
      vertex 3.900000e+00 7.150000e+00 8.999999e-01
      vertex -3.900000e+00 7.150000e+00 0.000000e+00
    endloop
  endfacet
  facet normal 0.000000e+00 1.000000e+00 0.000000e+00
    outer loop
      vertex -3.900000e+00 7.150000e+00 0.000000e+00
      vertex 3.900000e+00 7.150000e+00 8.999999e-01
      vertex 3.900000e+00 7.150000e+00 0.000000e+00
    endloop
  endfacet
  facet normal 1.000000e+00 0.000000e+00 0.000000e+00
    outer loop
      vertex -5.550000e+00 -3.150000e+00 0.000000e+00
      vertex -5.550000e+00 -3.150000e+00 5.800000e+00
      vertex -5.550000e+00 -4.150000e+00 0.000000e+00
    endloop
  endfacet
  facet normal 1.000000e+00 0.000000e+00 0.000000e+00
    outer loop
      vertex -5.550000e+00 -4.150000e+00 0.000000e+00
      vertex -5.550000e+00 -3.150000e+00 5.800000e+00
      vertex -5.550000e+00 -4.150000e+00 5.800000e+00
    endloop
  endfacet
  facet normal -1.000000e+00 0.000000e+00 0.000000e+00
    outer loop
      vertex -4.450000e+00 -3.150000e+00 5.800000e+00
      vertex -4.450000e+00 -3.150000e+00 0.000000e+00
      vertex -4.450000e+00 -4.150000e+00 5.800000e+00
    endloop
  endfacet
  facet normal -1.000000e+00 0.000000e+00 0.000000e+00
    outer loop
      vertex -4.450000e+00 -4.150000e+00 5.800000e+00
      vertex -4.450000e+00 -3.150000e+00 0.000000e+00
      vertex -4.450000e+00 -4.150000e+00 0.000000e+00
    endloop
  endfacet
  facet normal 0.000000e+00 -1.000000e+00 0.000000e+00
    outer loop
      vertex -5.300000e+00 -3.150000e+00 2.700000e+00
      vertex -5.550000e+00 -3.150000e+00 0.000000e+00
      vertex -5.300000e+00 -3.150000e+00 2.100000e+00
    endloop
  endfacet
  facet normal 0.000000e+00 -1.000000e+00 0.000000e+00
    outer loop
      vertex -5.300000e+00 -3.150000e+00 2.100000e+00
      vertex -5.550000e+00 -3.150000e+00 0.000000e+00
      vertex -4.450000e+00 -3.150000e+00 0.000000e+00
    endloop
  endfacet
  facet normal 0.000000e+00 -1.000000e+00 0.000000e+00
    outer loop
      vertex -5.300000e+00 -3.150000e+00 2.100000e+00
      vertex -4.450000e+00 -3.150000e+00 0.000000e+00
      vertex -4.700000e+00 -3.150000e+00 2.100000e+00
    endloop
  endfacet
  facet normal 0.000000e+00 -1.000000e+00 0.000000e+00
    outer loop
      vertex -4.700000e+00 -3.150000e+00 2.100000e+00
      vertex -4.450000e+00 -3.150000e+00 0.000000e+00
      vertex -4.700000e+00 -3.150000e+00 2.700000e+00
    endloop
  endfacet
  facet normal 0.000000e+00 -1.000000e+00 0.000000e+00
    outer loop
      vertex -4.700000e+00 -3.150000e+00 2.700000e+00
      vertex -4.450000e+00 -3.150000e+00 0.000000e+00
      vertex -4.450000e+00 -3.150000e+00 5.800000e+00
    endloop
  endfacet
  facet normal 0.000000e+00 -1.000000e+00 0.000000e+00
    outer loop
      vertex -4.700000e+00 -3.150000e+00 2.700000e+00
      vertex -4.450000e+00 -3.150000e+00 5.800000e+00
      vertex -5.300000e+00 -3.150000e+00 2.700000e+00
    endloop
  endfacet
  facet normal 0.000000e+00 -1.000000e+00 0.000000e+00
    outer loop
      vertex -5.300000e+00 -3.150000e+00 2.700000e+00
      vertex -4.450000e+00 -3.150000e+00 5.800000e+00
      vertex -5.550000e+00 -3.150000e+00 5.800000e+00
    endloop
  endfacet
  facet normal 0.000000e+00 -1.000000e+00 0.000000e+00
    outer loop
      vertex -5.300000e+00 -3.150000e+00 2.700000e+00
      vertex -5.550000e+00 -3.150000e+00 5.800000e+00
      vertex -5.550000e+00 -3.150000e+00 0.000000e+00
    endloop
  endfacet
  facet normal -1.000000e+00 0.000000e+00 1.869314e-17
    outer loop
      vertex 5.500000e-01 -3.150000e+00 5.800000e+00
      vertex 5.500000e-01 -3.150000e+00 0.000000e+00
      vertex 5.500000e-01 -4.150000e+00 5.800000e+00
    endloop
  endfacet
  facet normal -1.000000e+00 0.000000e+00 1.869314e-17
    outer loop
      vertex 5.500000e-01 -4.150000e+00 5.800000e+00
      vertex 5.500000e-01 -3.150000e+00 0.000000e+00
      vertex 5.500000e-01 -4.150000e+00 0.000000e+00
    endloop
  endfacet
  facet normal 1.000000e+00 0.000000e+00 -3.738628e-17
    outer loop
      vertex -5.499999e-01 -3.150000e+00 0.000000e+00
      vertex -5.499999e-01 -3.150000e+00 5.800000e+00
      vertex -5.499999e-01 -4.150000e+00 0.000000e+00
    endloop
  endfacet
  facet normal 1.000000e+00 0.000000e+00 -3.738628e-17
    outer loop
      vertex -5.499999e-01 -4.150000e+00 0.000000e+00
      vertex -5.499999e-01 -3.150000e+00 5.800000e+00
      vertex -5.499999e-01 -4.150000e+00 5.800000e+00
    endloop
  endfacet
  facet normal 0.000000e+00 -1.000000e+00 0.000000e+00
    outer loop
      vertex -2.999999e-01 -3.150000e+00 2.700000e+00
      vertex -5.499999e-01 -3.150000e+00 0.000000e+00
      vertex -2.999999e-01 -3.150000e+00 2.100000e+00
    endloop
  endfacet
  facet normal 0.000000e+00 -1.000000e+00 0.000000e+00
    outer loop
      vertex -2.999999e-01 -3.150000e+00 2.100000e+00
      vertex -5.499999e-01 -3.150000e+00 0.000000e+00
      vertex 5.500000e-01 -3.150000e+00 0.000000e+00
    endloop
  endfacet
  facet normal 0.000000e+00 -1.000000e+00 0.000000e+00
    outer loop
      vertex -2.999999e-01 -3.150000e+00 2.100000e+00
      vertex 5.500000e-01 -3.150000e+00 0.000000e+00
      vertex 3.000000e-01 -3.150000e+00 2.100000e+00
    endloop
  endfacet
  facet normal 0.000000e+00 -1.000000e+00 0.000000e+00
    outer loop
      vertex 3.000000e-01 -3.150000e+00 2.100000e+00
      vertex 5.500000e-01 -3.150000e+00 0.000000e+00
      vertex 3.000000e-01 -3.150000e+00 2.700000e+00
    endloop
  endfacet
  facet normal 0.000000e+00 -1.000000e+00 0.000000e+00
    outer loop
      vertex 3.000000e-01 -3.150000e+00 2.700000e+00
      vertex 5.500000e-01 -3.150000e+00 0.000000e+00
      vertex 5.500000e-01 -3.150000e+00 5.800000e+00
    endloop
  endfacet
  facet normal 0.000000e+00 -1.000000e+00 0.000000e+00
    outer loop
      vertex 3.000000e-01 -3.150000e+00 2.700000e+00
      vertex 5.500000e-01 -3.150000e+00 5.800000e+00
      vertex -2.999999e-01 -3.150000e+00 2.700000e+00
    endloop
  endfacet
  facet normal 0.000000e+00 -1.000000e+00 0.000000e+00
    outer loop
      vertex -2.999999e-01 -3.150000e+00 2.700000e+00
      vertex 5.500000e-01 -3.150000e+00 5.800000e+00
      vertex -5.499999e-01 -3.150000e+00 5.800000e+00
    endloop
  endfacet
  facet normal 0.000000e+00 -1.000000e+00 0.000000e+00
    outer loop
      vertex -2.999999e-01 -3.150000e+00 2.700000e+00
      vertex -5.499999e-01 -3.150000e+00 5.800000e+00
      vertex -5.499999e-01 -3.150000e+00 0.000000e+00
    endloop
  endfacet
  facet normal -1.000000e+00 0.000000e+00 -3.738628e-17
    outer loop
      vertex -1.950000e+00 -3.150000e+00 5.800000e+00
      vertex -1.950000e+00 -3.150000e+00 0.000000e+00
      vertex -1.950000e+00 -4.150000e+00 5.800000e+00
    endloop
  endfacet
  facet normal -1.000000e+00 0.000000e+00 -3.738628e-17
    outer loop
      vertex -1.950000e+00 -4.150000e+00 5.800000e+00
      vertex -1.950000e+00 -3.150000e+00 0.000000e+00
      vertex -1.950000e+00 -4.150000e+00 0.000000e+00
    endloop
  endfacet
  facet normal 1.000000e+00 0.000000e+00 0.000000e+00
    outer loop
      vertex -3.050000e+00 -3.150000e+00 0.000000e+00
      vertex -3.050000e+00 -3.150000e+00 5.800000e+00
      vertex -3.050000e+00 -4.150000e+00 0.000000e+00
    endloop
  endfacet
  facet normal 1.000000e+00 0.000000e+00 0.000000e+00
    outer loop
      vertex -3.050000e+00 -4.150000e+00 0.000000e+00
      vertex -3.050000e+00 -3.150000e+00 5.800000e+00
      vertex -3.050000e+00 -4.150000e+00 5.800000e+00
    endloop
  endfacet
  facet normal 0.000000e+00 -1.000000e+00 0.000000e+00
    outer loop
      vertex -3.050000e+00 -3.150000e+00 0.000000e+00
      vertex -2.800000e+00 -3.150000e+00 2.100000e+00
      vertex -2.800000e+00 -3.150000e+00 2.700000e+00
    endloop
  endfacet
  facet normal 0.000000e+00 -1.000000e+00 0.000000e+00
    outer loop
      vertex -2.800000e+00 -3.150000e+00 2.100000e+00
      vertex -3.050000e+00 -3.150000e+00 0.000000e+00
      vertex -2.200000e+00 -3.150000e+00 2.100000e+00
    endloop
  endfacet
  facet normal 0.000000e+00 -1.000000e+00 0.000000e+00
    outer loop
      vertex -2.200000e+00 -3.150000e+00 2.100000e+00
      vertex -3.050000e+00 -3.150000e+00 0.000000e+00
      vertex -1.950000e+00 -3.150000e+00 0.000000e+00
    endloop
  endfacet
  facet normal 0.000000e+00 -1.000000e+00 0.000000e+00
    outer loop
      vertex -2.200000e+00 -3.150000e+00 2.100000e+00
      vertex -1.950000e+00 -3.150000e+00 0.000000e+00
      vertex -2.200000e+00 -3.150000e+00 2.700000e+00
    endloop
  endfacet
  facet normal 0.000000e+00 -1.000000e+00 0.000000e+00
    outer loop
      vertex -2.200000e+00 -3.150000e+00 2.700000e+00
      vertex -1.950000e+00 -3.150000e+00 0.000000e+00
      vertex -1.950000e+00 -3.150000e+00 5.800000e+00
    endloop
  endfacet
  facet normal 0.000000e+00 -1.000000e+00 0.000000e+00
    outer loop
      vertex -2.200000e+00 -3.150000e+00 2.700000e+00
      vertex -1.950000e+00 -3.150000e+00 5.800000e+00
      vertex -2.800000e+00 -3.150000e+00 2.700000e+00
    endloop
  endfacet
  facet normal 0.000000e+00 -1.000000e+00 0.000000e+00
    outer loop
      vertex -2.800000e+00 -3.150000e+00 2.700000e+00
      vertex -1.950000e+00 -3.150000e+00 5.800000e+00
      vertex -3.050000e+00 -3.150000e+00 5.800000e+00
    endloop
  endfacet
  facet normal 0.000000e+00 -1.000000e+00 0.000000e+00
    outer loop
      vertex -2.800000e+00 -3.150000e+00 2.700000e+00
      vertex -3.050000e+00 -3.150000e+00 5.800000e+00
      vertex -3.050000e+00 -3.150000e+00 0.000000e+00
    endloop
  endfacet
  facet normal 1.000000e+00 0.000000e+00 0.000000e+00
    outer loop
      vertex 4.449999e+00 -3.150000e+00 0.000000e+00
      vertex 4.449999e+00 -3.150000e+00 5.800000e+00
      vertex 4.449999e+00 -4.150000e+00 0.000000e+00
    endloop
  endfacet
  facet normal 1.000000e+00 0.000000e+00 0.000000e+00
    outer loop
      vertex 4.449999e+00 -4.150000e+00 0.000000e+00
      vertex 4.449999e+00 -3.150000e+00 5.800000e+00
      vertex 4.449999e+00 -4.150000e+00 5.800000e+00
    endloop
  endfacet
  facet normal -1.000000e+00 0.000000e+00 0.000000e+00
    outer loop
      vertex 5.550000e+00 -3.150000e+00 5.800000e+00
      vertex 5.550000e+00 -3.150000e+00 0.000000e+00
      vertex 5.550000e+00 -4.150000e+00 5.800000e+00
    endloop
  endfacet
  facet normal -1.000000e+00 0.000000e+00 0.000000e+00
    outer loop
      vertex 5.550000e+00 -4.150000e+00 5.800000e+00
      vertex 5.550000e+00 -3.150000e+00 0.000000e+00
      vertex 5.550000e+00 -4.150000e+00 0.000000e+00
    endloop
  endfacet
  facet normal 0.000000e+00 -1.000000e+00 0.000000e+00
    outer loop
      vertex 4.700000e+00 -3.150000e+00 2.700000e+00
      vertex 4.449999e+00 -3.150000e+00 0.000000e+00
      vertex 4.700000e+00 -3.150000e+00 2.100000e+00
    endloop
  endfacet
  facet normal 0.000000e+00 -1.000000e+00 0.000000e+00
    outer loop
      vertex 4.700000e+00 -3.150000e+00 2.100000e+00
      vertex 4.449999e+00 -3.150000e+00 0.000000e+00
      vertex 5.550000e+00 -3.150000e+00 0.000000e+00
    endloop
  endfacet
  facet normal 0.000000e+00 -1.000000e+00 0.000000e+00
    outer loop
      vertex 4.700000e+00 -3.150000e+00 2.100000e+00
      vertex 5.550000e+00 -3.150000e+00 0.000000e+00
      vertex 5.300000e+00 -3.150000e+00 2.100000e+00
    endloop
  endfacet
  facet normal 0.000000e+00 -1.000000e+00 0.000000e+00
    outer loop
      vertex 5.300000e+00 -3.150000e+00 2.100000e+00
      vertex 5.550000e+00 -3.150000e+00 0.000000e+00
      vertex 5.300000e+00 -3.150000e+00 2.700000e+00
    endloop
  endfacet
  facet normal 0.000000e+00 -1.000000e+00 0.000000e+00
    outer loop
      vertex 5.300000e+00 -3.150000e+00 2.700000e+00
      vertex 5.550000e+00 -3.150000e+00 0.000000e+00
      vertex 5.550000e+00 -3.150000e+00 5.800000e+00
    endloop
  endfacet
  facet normal 0.000000e+00 -1.000000e+00 0.000000e+00
    outer loop
      vertex 5.300000e+00 -3.150000e+00 2.700000e+00
      vertex 5.550000e+00 -3.150000e+00 5.800000e+00
      vertex 4.700000e+00 -3.150000e+00 2.700000e+00
    endloop
  endfacet
  facet normal 0.000000e+00 -1.000000e+00 0.000000e+00
    outer loop
      vertex 4.700000e+00 -3.150000e+00 2.700000e+00
      vertex 5.550000e+00 -3.150000e+00 5.800000e+00
      vertex 4.449999e+00 -3.150000e+00 5.800000e+00
    endloop
  endfacet
  facet normal 0.000000e+00 -1.000000e+00 0.000000e+00
    outer loop
      vertex 4.700000e+00 -3.150000e+00 2.700000e+00
      vertex 4.449999e+00 -3.150000e+00 5.800000e+00
      vertex 4.449999e+00 -3.150000e+00 0.000000e+00
    endloop
  endfacet
  facet normal 1.000000e+00 0.000000e+00 0.000000e+00
    outer loop
      vertex 1.950000e+00 -3.150000e+00 0.000000e+00
      vertex 1.950000e+00 -3.150000e+00 5.800000e+00
      vertex 1.950000e+00 -4.150000e+00 0.000000e+00
    endloop
  endfacet
  facet normal 1.000000e+00 0.000000e+00 0.000000e+00
    outer loop
      vertex 1.950000e+00 -4.150000e+00 0.000000e+00
      vertex 1.950000e+00 -3.150000e+00 5.800000e+00
      vertex 1.950000e+00 -4.150000e+00 5.800000e+00
    endloop
  endfacet
  facet normal -1.000000e+00 0.000000e+00 0.000000e+00
    outer loop
      vertex 3.050000e+00 -3.150000e+00 5.800000e+00
      vertex 3.050000e+00 -3.150000e+00 0.000000e+00
      vertex 3.050000e+00 -4.150000e+00 5.800000e+00
    endloop
  endfacet
  facet normal -1.000000e+00 0.000000e+00 0.000000e+00
    outer loop
      vertex 3.050000e+00 -4.150000e+00 5.800000e+00
      vertex 3.050000e+00 -3.150000e+00 0.000000e+00
      vertex 3.050000e+00 -4.150000e+00 0.000000e+00
    endloop
  endfacet
  facet normal 0.000000e+00 -1.000000e+00 0.000000e+00
    outer loop
      vertex 2.200001e+00 -3.150000e+00 2.700000e+00
      vertex 1.950000e+00 -3.150000e+00 0.000000e+00
      vertex 2.200001e+00 -3.150000e+00 2.100000e+00
    endloop
  endfacet
  facet normal 0.000000e+00 -1.000000e+00 0.000000e+00
    outer loop
      vertex 2.200001e+00 -3.150000e+00 2.100000e+00
      vertex 1.950000e+00 -3.150000e+00 0.000000e+00
      vertex 3.050000e+00 -3.150000e+00 0.000000e+00
    endloop
  endfacet
  facet normal 0.000000e+00 -1.000000e+00 0.000000e+00
    outer loop
      vertex 2.200001e+00 -3.150000e+00 2.100000e+00
      vertex 3.050000e+00 -3.150000e+00 0.000000e+00
      vertex 2.800000e+00 -3.150000e+00 2.100000e+00
    endloop
  endfacet
  facet normal 0.000000e+00 -1.000000e+00 0.000000e+00
    outer loop
      vertex 2.800000e+00 -3.150000e+00 2.100000e+00
      vertex 3.050000e+00 -3.150000e+00 0.000000e+00
      vertex 2.800000e+00 -3.150000e+00 2.700000e+00
    endloop
  endfacet
  facet normal 0.000000e+00 -1.000000e+00 0.000000e+00
    outer loop
      vertex 2.800000e+00 -3.150000e+00 2.700000e+00
      vertex 3.050000e+00 -3.150000e+00 0.000000e+00
      vertex 3.050000e+00 -3.150000e+00 5.800000e+00
    endloop
  endfacet
  facet normal 0.000000e+00 -1.000000e+00 0.000000e+00
    outer loop
      vertex 2.800000e+00 -3.150000e+00 2.700000e+00
      vertex 3.050000e+00 -3.150000e+00 5.800000e+00
      vertex 2.200001e+00 -3.150000e+00 2.700000e+00
    endloop
  endfacet
  facet normal 0.000000e+00 -1.000000e+00 0.000000e+00
    outer loop
      vertex 2.200001e+00 -3.150000e+00 2.700000e+00
      vertex 3.050000e+00 -3.150000e+00 5.800000e+00
      vertex 1.950000e+00 -3.150000e+00 5.800000e+00
    endloop
  endfacet
  facet normal 0.000000e+00 -1.000000e+00 0.000000e+00
    outer loop
      vertex 2.200001e+00 -3.150000e+00 2.700000e+00
      vertex 1.950000e+00 -3.150000e+00 5.800000e+00
      vertex 1.950000e+00 -3.150000e+00 0.000000e+00
    endloop
  endfacet
  facet normal 0.000000e+00 -1.000000e+00 0.000000e+00
    outer loop
      vertex -4.700000e+00 -7.150000e+00 2.100000e+00
      vertex -4.700000e+00 -7.150000e+00 2.700000e+00
      vertex -5.300000e+00 -7.150000e+00 2.100000e+00
    endloop
  endfacet
  facet normal 0.000000e+00 -1.000000e+00 0.000000e+00
    outer loop
      vertex -5.300000e+00 -7.150000e+00 2.100000e+00
      vertex -4.700000e+00 -7.150000e+00 2.700000e+00
      vertex -5.300000e+00 -7.150000e+00 2.700000e+00
    endloop
  endfacet
  facet normal 1.807004e-16 0.000000e+00 -1.000000e+00
    outer loop
      vertex -4.700000e+00 -7.150000e+00 2.100000e+00
      vertex -5.300000e+00 -7.150000e+00 2.100000e+00
      vertex -4.700000e+00 -3.150000e+00 2.100000e+00
    endloop
  endfacet
  facet normal 1.807004e-16 0.000000e+00 -1.000000e+00
    outer loop
      vertex -4.700000e+00 -3.150000e+00 2.100000e+00
      vertex -5.300000e+00 -7.150000e+00 2.100000e+00
      vertex -5.300000e+00 -3.150000e+00 2.100000e+00
    endloop
  endfacet
  facet normal 1.000000e+00 0.000000e+00 0.000000e+00
    outer loop
      vertex -4.700000e+00 -7.150000e+00 2.700000e+00
      vertex -4.700000e+00 -7.150000e+00 2.100000e+00
      vertex -4.700000e+00 -3.150000e+00 2.700000e+00
    endloop
  endfacet
  facet normal 1.000000e+00 0.000000e+00 0.000000e+00
    outer loop
      vertex -4.700000e+00 -3.150000e+00 2.700000e+00
      vertex -4.700000e+00 -7.150000e+00 2.100000e+00
      vertex -4.700000e+00 -3.150000e+00 2.100000e+00
    endloop
  endfacet
  facet normal 0.000000e+00 0.000000e+00 1.000000e+00
    outer loop
      vertex -5.300000e+00 -7.150000e+00 2.700000e+00
      vertex -4.700000e+00 -7.150000e+00 2.700000e+00
      vertex -5.300000e+00 -3.150000e+00 2.700000e+00
    endloop
  endfacet
  facet normal 0.000000e+00 0.000000e+00 1.000000e+00
    outer loop
      vertex -5.300000e+00 -3.150000e+00 2.700000e+00
      vertex -4.700000e+00 -7.150000e+00 2.700000e+00
      vertex -4.700000e+00 -3.150000e+00 2.700000e+00
    endloop
  endfacet
  facet normal -1.000000e+00 0.000000e+00 0.000000e+00
    outer loop
      vertex -5.300000e+00 -7.150000e+00 2.100000e+00
      vertex -5.300000e+00 -7.150000e+00 2.700000e+00
      vertex -5.300000e+00 -3.150000e+00 2.100000e+00
    endloop
  endfacet
  facet normal -1.000000e+00 0.000000e+00 0.000000e+00
    outer loop
      vertex -5.300000e+00 -3.150000e+00 2.100000e+00
      vertex -5.300000e+00 -7.150000e+00 2.700000e+00
      vertex -5.300000e+00 -3.150000e+00 2.700000e+00
    endloop
  endfacet
  facet normal -1.000000e+00 0.000000e+00 0.000000e+00
    outer loop
      vertex -5.300000e+00 -8.499999e-01 2.700000e+00
      vertex -5.300000e+00 6.750000e+00 2.700000e+00
      vertex -5.300000e+00 -8.499999e-01 2.100000e+00
    endloop
  endfacet
  facet normal -1.000000e+00 0.000000e+00 0.000000e+00
    outer loop
      vertex -5.300000e+00 -8.499999e-01 2.100000e+00
      vertex -5.300000e+00 6.750000e+00 2.700000e+00
      vertex -5.300000e+00 6.750000e+00 2.100000e+00
    endloop
  endfacet
  facet normal 0.000000e+00 0.000000e+00 1.000000e+00
    outer loop
      vertex -4.700000e+00 -8.499999e-01 2.700000e+00
      vertex -4.700000e+00 6.750000e+00 2.700000e+00
      vertex -5.300000e+00 -8.499999e-01 2.700000e+00
    endloop
  endfacet
  facet normal 0.000000e+00 0.000000e+00 1.000000e+00
    outer loop
      vertex -5.300000e+00 -8.499999e-01 2.700000e+00
      vertex -4.700000e+00 6.750000e+00 2.700000e+00
      vertex -5.300000e+00 6.750000e+00 2.700000e+00
    endloop
  endfacet
  facet normal 1.000000e+00 0.000000e+00 0.000000e+00
    outer loop
      vertex -4.700000e+00 -8.499999e-01 2.100000e+00
      vertex -4.700000e+00 6.750000e+00 2.100000e+00
      vertex -4.700000e+00 -8.499999e-01 2.700000e+00
    endloop
  endfacet
  facet normal 1.000000e+00 0.000000e+00 0.000000e+00
    outer loop
      vertex -4.700000e+00 -8.499999e-01 2.700000e+00
      vertex -4.700000e+00 6.750000e+00 2.100000e+00
      vertex -4.700000e+00 6.750000e+00 2.700000e+00
    endloop
  endfacet
  facet normal 1.807004e-16 0.000000e+00 -1.000000e+00
    outer loop
      vertex -5.300000e+00 -8.499999e-01 2.100000e+00
      vertex -5.300000e+00 6.750000e+00 2.100000e+00
      vertex -4.700000e+00 -8.499999e-01 2.100000e+00
    endloop
  endfacet
  facet normal 1.807004e-16 0.000000e+00 -1.000000e+00
    outer loop
      vertex -4.700000e+00 -8.499999e-01 2.100000e+00
      vertex -5.300000e+00 6.750000e+00 2.100000e+00
      vertex -4.700000e+00 6.750000e+00 2.100000e+00
    endloop
  endfacet
  facet normal 0.000000e+00 1.000000e+00 0.000000e+00
    outer loop
      vertex -4.700000e+00 6.750000e+00 2.700000e+00
      vertex -4.700000e+00 6.750000e+00 2.100000e+00
      vertex -5.300000e+00 6.750000e+00 2.700000e+00
    endloop
  endfacet
  facet normal 0.000000e+00 1.000000e+00 0.000000e+00
    outer loop
      vertex -5.300000e+00 6.750000e+00 2.700000e+00
      vertex -4.700000e+00 6.750000e+00 2.100000e+00
      vertex -5.300000e+00 6.750000e+00 2.100000e+00
    endloop
  endfacet
  facet normal 0.000000e+00 -1.000000e+00 0.000000e+00
    outer loop
      vertex -2.800000e+00 -7.150000e+00 2.700000e+00
      vertex -2.800000e+00 -7.150000e+00 2.100000e+00
      vertex -2.200000e+00 -7.150000e+00 2.700000e+00
    endloop
  endfacet
  facet normal 0.000000e+00 -1.000000e+00 0.000000e+00
    outer loop
      vertex -2.200000e+00 -7.150000e+00 2.700000e+00
      vertex -2.800000e+00 -7.150000e+00 2.100000e+00
      vertex -2.200000e+00 -7.150000e+00 2.100000e+00
    endloop
  endfacet
  facet normal -1.355253e-16 0.000000e+00 1.000000e+00
    outer loop
      vertex -2.800000e+00 -3.150000e+00 2.700000e+00
      vertex -2.800000e+00 -7.150000e+00 2.700000e+00
      vertex -2.200000e+00 -3.150000e+00 2.700000e+00
    endloop
  endfacet
  facet normal -1.355253e-16 0.000000e+00 1.000000e+00
    outer loop
      vertex -2.200000e+00 -3.150000e+00 2.700000e+00
      vertex -2.800000e+00 -7.150000e+00 2.700000e+00
      vertex -2.200000e+00 -7.150000e+00 2.700000e+00
    endloop
  endfacet
  facet normal -1.000000e+00 0.000000e+00 0.000000e+00
    outer loop
      vertex -2.800000e+00 -3.150000e+00 2.100000e+00
      vertex -2.800000e+00 -7.150000e+00 2.100000e+00
      vertex -2.800000e+00 -3.150000e+00 2.700000e+00
    endloop
  endfacet
  facet normal -1.000000e+00 0.000000e+00 0.000000e+00
    outer loop
      vertex -2.800000e+00 -3.150000e+00 2.700000e+00
      vertex -2.800000e+00 -7.150000e+00 2.100000e+00
      vertex -2.800000e+00 -7.150000e+00 2.700000e+00
    endloop
  endfacet
  facet normal 3.614007e-16 0.000000e+00 -1.000000e+00
    outer loop
      vertex -2.200000e+00 -3.150000e+00 2.100000e+00
      vertex -2.200000e+00 -7.150000e+00 2.100000e+00
      vertex -2.800000e+00 -3.150000e+00 2.100000e+00
    endloop
  endfacet
  facet normal 3.614007e-16 0.000000e+00 -1.000000e+00
    outer loop
      vertex -2.800000e+00 -3.150000e+00 2.100000e+00
      vertex -2.200000e+00 -7.150000e+00 2.100000e+00
      vertex -2.800000e+00 -7.150000e+00 2.100000e+00
    endloop
  endfacet
  facet normal 1.000000e+00 0.000000e+00 0.000000e+00
    outer loop
      vertex -2.200000e+00 -3.150000e+00 2.700000e+00
      vertex -2.200000e+00 -7.150000e+00 2.700000e+00
      vertex -2.200000e+00 -3.150000e+00 2.100000e+00
    endloop
  endfacet
  facet normal 1.000000e+00 0.000000e+00 0.000000e+00
    outer loop
      vertex -2.200000e+00 -3.150000e+00 2.100000e+00
      vertex -2.200000e+00 -7.150000e+00 2.700000e+00
      vertex -2.200000e+00 -7.150000e+00 2.100000e+00
    endloop
  endfacet
  facet normal 1.000000e+00 0.000000e+00 0.000000e+00
    outer loop
      vertex -2.200000e+00 -8.499999e-01 2.100000e+00
      vertex -2.200000e+00 6.750000e+00 2.100000e+00
      vertex -2.200000e+00 -8.499999e-01 2.700000e+00
    endloop
  endfacet
  facet normal 1.000000e+00 0.000000e+00 0.000000e+00
    outer loop
      vertex -2.200000e+00 -8.499999e-01 2.700000e+00
      vertex -2.200000e+00 6.750000e+00 2.100000e+00
      vertex -2.200000e+00 6.750000e+00 2.700000e+00
    endloop
  endfacet
  facet normal 3.614007e-16 0.000000e+00 -1.000000e+00
    outer loop
      vertex -2.800000e+00 -8.499999e-01 2.100000e+00
      vertex -2.800000e+00 6.750000e+00 2.100000e+00
      vertex -2.200000e+00 -8.499999e-01 2.100000e+00
    endloop
  endfacet
  facet normal 3.614007e-16 0.000000e+00 -1.000000e+00
    outer loop
      vertex -2.200000e+00 -8.499999e-01 2.100000e+00
      vertex -2.800000e+00 6.750000e+00 2.100000e+00
      vertex -2.200000e+00 6.750000e+00 2.100000e+00
    endloop
  endfacet
  facet normal -1.000000e+00 0.000000e+00 0.000000e+00
    outer loop
      vertex -2.800000e+00 -8.499999e-01 2.700000e+00
      vertex -2.800000e+00 6.750000e+00 2.700000e+00
      vertex -2.800000e+00 -8.499999e-01 2.100000e+00
    endloop
  endfacet
  facet normal -1.000000e+00 0.000000e+00 0.000000e+00
    outer loop
      vertex -2.800000e+00 -8.499999e-01 2.100000e+00
      vertex -2.800000e+00 6.750000e+00 2.700000e+00
      vertex -2.800000e+00 6.750000e+00 2.100000e+00
    endloop
  endfacet
  facet normal -1.355253e-16 0.000000e+00 1.000000e+00
    outer loop
      vertex -2.200000e+00 -8.499999e-01 2.700000e+00
      vertex -2.200000e+00 6.750000e+00 2.700000e+00
      vertex -2.800000e+00 -8.499999e-01 2.700000e+00
    endloop
  endfacet
  facet normal -1.355253e-16 0.000000e+00 1.000000e+00
    outer loop
      vertex -2.800000e+00 -8.499999e-01 2.700000e+00
      vertex -2.200000e+00 6.750000e+00 2.700000e+00
      vertex -2.800000e+00 6.750000e+00 2.700000e+00
    endloop
  endfacet
  facet normal 0.000000e+00 1.000000e+00 0.000000e+00
    outer loop
      vertex -2.800000e+00 6.750000e+00 2.100000e+00
      vertex -2.800000e+00 6.750000e+00 2.700000e+00
      vertex -2.200000e+00 6.750000e+00 2.100000e+00
    endloop
  endfacet
  facet normal 0.000000e+00 1.000000e+00 0.000000e+00
    outer loop
      vertex -2.200000e+00 6.750000e+00 2.100000e+00
      vertex -2.800000e+00 6.750000e+00 2.700000e+00
      vertex -2.200000e+00 6.750000e+00 2.700000e+00
    endloop
  endfacet
  facet normal 0.000000e+00 -1.000000e+00 0.000000e+00
    outer loop
      vertex 3.000000e-01 -7.150000e+00 2.100000e+00
      vertex 3.000000e-01 -7.150000e+00 2.700000e+00
      vertex -2.999999e-01 -7.150000e+00 2.100000e+00
    endloop
  endfacet
  facet normal 0.000000e+00 -1.000000e+00 0.000000e+00
    outer loop
      vertex -2.999999e-01 -7.150000e+00 2.100000e+00
      vertex 3.000000e-01 -7.150000e+00 2.700000e+00
      vertex -2.999999e-01 -7.150000e+00 2.700000e+00
    endloop
  endfacet
  facet normal 0.000000e+00 0.000000e+00 -1.000000e+00
    outer loop
      vertex 3.000000e-01 -7.150000e+00 2.100000e+00
      vertex -2.999999e-01 -7.150000e+00 2.100000e+00
      vertex 3.000000e-01 -3.150000e+00 2.100000e+00
    endloop
  endfacet
  facet normal 0.000000e+00 0.000000e+00 -1.000000e+00
    outer loop
      vertex 3.000000e-01 -3.150000e+00 2.100000e+00
      vertex -2.999999e-01 -7.150000e+00 2.100000e+00
      vertex -2.999999e-01 -3.150000e+00 2.100000e+00
    endloop
  endfacet
  facet normal 1.000000e+00 0.000000e+00 9.035018e-17
    outer loop
      vertex 3.000000e-01 -7.150000e+00 2.700000e+00
      vertex 3.000000e-01 -7.150000e+00 2.100000e+00
      vertex 3.000000e-01 -3.150000e+00 2.700000e+00
    endloop
  endfacet
  facet normal 1.000000e+00 0.000000e+00 9.035018e-17
    outer loop
      vertex 3.000000e-01 -3.150000e+00 2.700000e+00
      vertex 3.000000e-01 -7.150000e+00 2.100000e+00
      vertex 3.000000e-01 -3.150000e+00 2.100000e+00
    endloop
  endfacet
  facet normal 0.000000e+00 0.000000e+00 1.000000e+00
    outer loop
      vertex -2.999999e-01 -7.150000e+00 2.700000e+00
      vertex 3.000000e-01 -7.150000e+00 2.700000e+00
      vertex -2.999999e-01 -3.150000e+00 2.700000e+00
    endloop
  endfacet
  facet normal 0.000000e+00 0.000000e+00 1.000000e+00
    outer loop
      vertex -2.999999e-01 -3.150000e+00 2.700000e+00
      vertex 3.000000e-01 -7.150000e+00 2.700000e+00
      vertex 3.000000e-01 -3.150000e+00 2.700000e+00
    endloop
  endfacet
  facet normal -1.000000e+00 0.000000e+00 -1.807004e-16
    outer loop
      vertex -2.999999e-01 -7.150000e+00 2.100000e+00
      vertex -2.999999e-01 -7.150000e+00 2.700000e+00
      vertex -2.999999e-01 -3.150000e+00 2.100000e+00
    endloop
  endfacet
  facet normal -1.000000e+00 0.000000e+00 -1.807004e-16
    outer loop
      vertex -2.999999e-01 -3.150000e+00 2.100000e+00
      vertex -2.999999e-01 -7.150000e+00 2.700000e+00
      vertex -2.999999e-01 -3.150000e+00 2.700000e+00
    endloop
  endfacet
  facet normal -1.000000e+00 0.000000e+00 -1.807004e-16
    outer loop
      vertex -2.999999e-01 -8.499999e-01 2.700000e+00
      vertex -2.999999e-01 6.750000e+00 2.700000e+00
      vertex -2.999999e-01 -8.499999e-01 2.100000e+00
    endloop
  endfacet
  facet normal -1.000000e+00 0.000000e+00 -1.807004e-16
    outer loop
      vertex -2.999999e-01 -8.499999e-01 2.100000e+00
      vertex -2.999999e-01 6.750000e+00 2.700000e+00
      vertex -2.999999e-01 6.750000e+00 2.100000e+00
    endloop
  endfacet
  facet normal 0.000000e+00 0.000000e+00 1.000000e+00
    outer loop
      vertex 3.000000e-01 -8.499999e-01 2.700000e+00
      vertex 3.000000e-01 6.750000e+00 2.700000e+00
      vertex -2.999999e-01 -8.499999e-01 2.700000e+00
    endloop
  endfacet
  facet normal 0.000000e+00 0.000000e+00 1.000000e+00
    outer loop
      vertex -2.999999e-01 -8.499999e-01 2.700000e+00
      vertex 3.000000e-01 6.750000e+00 2.700000e+00
      vertex -2.999999e-01 6.750000e+00 2.700000e+00
    endloop
  endfacet
  facet normal 1.000000e+00 0.000000e+00 9.035018e-17
    outer loop
      vertex 3.000000e-01 -8.499999e-01 2.100000e+00
      vertex 3.000000e-01 6.750000e+00 2.100000e+00
      vertex 3.000000e-01 -8.499999e-01 2.700000e+00
    endloop
  endfacet
  facet normal 1.000000e+00 0.000000e+00 9.035018e-17
    outer loop
      vertex 3.000000e-01 -8.499999e-01 2.700000e+00
      vertex 3.000000e-01 6.750000e+00 2.100000e+00
      vertex 3.000000e-01 6.750000e+00 2.700000e+00
    endloop
  endfacet
  facet normal 0.000000e+00 0.000000e+00 -1.000000e+00
    outer loop
      vertex -2.999999e-01 -8.499999e-01 2.100000e+00
      vertex -2.999999e-01 6.750000e+00 2.100000e+00
      vertex 3.000000e-01 -8.499999e-01 2.100000e+00
    endloop
  endfacet
  facet normal 0.000000e+00 0.000000e+00 -1.000000e+00
    outer loop
      vertex 3.000000e-01 -8.499999e-01 2.100000e+00
      vertex -2.999999e-01 6.750000e+00 2.100000e+00
      vertex 3.000000e-01 6.750000e+00 2.100000e+00
    endloop
  endfacet
  facet normal 0.000000e+00 1.000000e+00 0.000000e+00
    outer loop
      vertex 3.000000e-01 6.750000e+00 2.700000e+00
      vertex 3.000000e-01 6.750000e+00 2.100000e+00
      vertex -2.999999e-01 6.750000e+00 2.700000e+00
    endloop
  endfacet
  facet normal 0.000000e+00 1.000000e+00 0.000000e+00
    outer loop
      vertex -2.999999e-01 6.750000e+00 2.700000e+00
      vertex 3.000000e-01 6.750000e+00 2.100000e+00
      vertex -2.999999e-01 6.750000e+00 2.100000e+00
    endloop
  endfacet
  facet normal 0.000000e+00 -1.000000e+00 0.000000e+00
    outer loop
      vertex 2.800000e+00 -7.150000e+00 2.100000e+00
      vertex 2.800000e+00 -7.150000e+00 2.700000e+00
      vertex 2.200001e+00 -7.150000e+00 2.100000e+00
    endloop
  endfacet
  facet normal 0.000000e+00 -1.000000e+00 0.000000e+00
    outer loop
      vertex 2.200001e+00 -7.150000e+00 2.100000e+00
      vertex 2.800000e+00 -7.150000e+00 2.700000e+00
      vertex 2.200001e+00 -7.150000e+00 2.700000e+00
    endloop
  endfacet
  facet normal 3.614007e-16 0.000000e+00 -1.000000e+00
    outer loop
      vertex 2.800000e+00 -7.150000e+00 2.100000e+00
      vertex 2.200001e+00 -7.150000e+00 2.100000e+00
      vertex 2.800000e+00 -3.150000e+00 2.100000e+00
    endloop
  endfacet
  facet normal 3.614007e-16 0.000000e+00 -1.000000e+00
    outer loop
      vertex 2.800000e+00 -3.150000e+00 2.100000e+00
      vertex 2.200001e+00 -7.150000e+00 2.100000e+00
      vertex 2.200001e+00 -3.150000e+00 2.100000e+00
    endloop
  endfacet
  facet normal 1.000000e+00 0.000000e+00 0.000000e+00
    outer loop
      vertex 2.800000e+00 -7.150000e+00 2.700000e+00
      vertex 2.800000e+00 -7.150000e+00 2.100000e+00
      vertex 2.800000e+00 -3.150000e+00 2.700000e+00
    endloop
  endfacet
  facet normal 1.000000e+00 0.000000e+00 0.000000e+00
    outer loop
      vertex 2.800000e+00 -3.150000e+00 2.700000e+00
      vertex 2.800000e+00 -7.150000e+00 2.100000e+00
      vertex 2.800000e+00 -3.150000e+00 2.100000e+00
    endloop
  endfacet
  facet normal 0.000000e+00 0.000000e+00 1.000000e+00
    outer loop
      vertex 2.200001e+00 -7.150000e+00 2.700000e+00
      vertex 2.800000e+00 -7.150000e+00 2.700000e+00
      vertex 2.200001e+00 -3.150000e+00 2.700000e+00
    endloop
  endfacet
  facet normal 0.000000e+00 0.000000e+00 1.000000e+00
    outer loop
      vertex 2.200001e+00 -3.150000e+00 2.700000e+00
      vertex 2.800000e+00 -7.150000e+00 2.700000e+00
      vertex 2.800000e+00 -3.150000e+00 2.700000e+00
    endloop
  endfacet
  facet normal -1.000000e+00 0.000000e+00 0.000000e+00
    outer loop
      vertex 2.200001e+00 -7.150000e+00 2.100000e+00
      vertex 2.200001e+00 -7.150000e+00 2.700000e+00
      vertex 2.200001e+00 -3.150000e+00 2.100000e+00
    endloop
  endfacet
  facet normal -1.000000e+00 0.000000e+00 0.000000e+00
    outer loop
      vertex 2.200001e+00 -3.150000e+00 2.100000e+00
      vertex 2.200001e+00 -7.150000e+00 2.700000e+00
      vertex 2.200001e+00 -3.150000e+00 2.700000e+00
    endloop
  endfacet
  facet normal -1.000000e+00 0.000000e+00 0.000000e+00
    outer loop
      vertex 2.200001e+00 -8.499999e-01 2.700000e+00
      vertex 2.200001e+00 6.750000e+00 2.700000e+00
      vertex 2.200001e+00 -8.499999e-01 2.100000e+00
    endloop
  endfacet
  facet normal -1.000000e+00 0.000000e+00 0.000000e+00
    outer loop
      vertex 2.200001e+00 -8.499999e-01 2.100000e+00
      vertex 2.200001e+00 6.750000e+00 2.700000e+00
      vertex 2.200001e+00 6.750000e+00 2.100000e+00
    endloop
  endfacet
  facet normal 0.000000e+00 0.000000e+00 1.000000e+00
    outer loop
      vertex 2.800000e+00 -8.499999e-01 2.700000e+00
      vertex 2.800000e+00 6.750000e+00 2.700000e+00
      vertex 2.200001e+00 -8.499999e-01 2.700000e+00
    endloop
  endfacet
  facet normal 0.000000e+00 0.000000e+00 1.000000e+00
    outer loop
      vertex 2.200001e+00 -8.499999e-01 2.700000e+00
      vertex 2.800000e+00 6.750000e+00 2.700000e+00
      vertex 2.200001e+00 6.750000e+00 2.700000e+00
    endloop
  endfacet
  facet normal 1.000000e+00 0.000000e+00 0.000000e+00
    outer loop
      vertex 2.800000e+00 -8.499999e-01 2.100000e+00
      vertex 2.800000e+00 6.750000e+00 2.100000e+00
      vertex 2.800000e+00 -8.499999e-01 2.700000e+00
    endloop
  endfacet
  facet normal 1.000000e+00 0.000000e+00 0.000000e+00
    outer loop
      vertex 2.800000e+00 -8.499999e-01 2.700000e+00
      vertex 2.800000e+00 6.750000e+00 2.100000e+00
      vertex 2.800000e+00 6.750000e+00 2.700000e+00
    endloop
  endfacet
  facet normal 3.614007e-16 0.000000e+00 -1.000000e+00
    outer loop
      vertex 2.200001e+00 -8.499999e-01 2.100000e+00
      vertex 2.200001e+00 6.750000e+00 2.100000e+00
      vertex 2.800000e+00 -8.499999e-01 2.100000e+00
    endloop
  endfacet
  facet normal 3.614007e-16 0.000000e+00 -1.000000e+00
    outer loop
      vertex 2.800000e+00 -8.499999e-01 2.100000e+00
      vertex 2.200001e+00 6.750000e+00 2.100000e+00
      vertex 2.800000e+00 6.750000e+00 2.100000e+00
    endloop
  endfacet
  facet normal 0.000000e+00 1.000000e+00 0.000000e+00
    outer loop
      vertex 2.800000e+00 6.750000e+00 2.700000e+00
      vertex 2.800000e+00 6.750000e+00 2.100000e+00
      vertex 2.200001e+00 6.750000e+00 2.700000e+00
    endloop
  endfacet
  facet normal 0.000000e+00 1.000000e+00 0.000000e+00
    outer loop
      vertex 2.200001e+00 6.750000e+00 2.700000e+00
      vertex 2.800000e+00 6.750000e+00 2.100000e+00
      vertex 2.200001e+00 6.750000e+00 2.100000e+00
    endloop
  endfacet
  facet normal 0.000000e+00 -1.000000e+00 0.000000e+00
    outer loop
      vertex 5.300000e+00 -7.150000e+00 2.100000e+00
      vertex 5.300000e+00 -7.150000e+00 2.700000e+00
      vertex 4.700000e+00 -7.150000e+00 2.100000e+00
    endloop
  endfacet
  facet normal 0.000000e+00 -1.000000e+00 0.000000e+00
    outer loop
      vertex 4.700000e+00 -7.150000e+00 2.100000e+00
      vertex 5.300000e+00 -7.150000e+00 2.700000e+00
      vertex 4.700000e+00 -7.150000e+00 2.700000e+00
    endloop
  endfacet
  facet normal 0.000000e+00 0.000000e+00 -1.000000e+00
    outer loop
      vertex 5.300000e+00 -7.150000e+00 2.100000e+00
      vertex 4.700000e+00 -7.150000e+00 2.100000e+00
      vertex 5.300000e+00 -3.150000e+00 2.100000e+00
    endloop
  endfacet
  facet normal 0.000000e+00 0.000000e+00 -1.000000e+00
    outer loop
      vertex 5.300000e+00 -3.150000e+00 2.100000e+00
      vertex 4.700000e+00 -7.150000e+00 2.100000e+00
      vertex 4.700000e+00 -3.150000e+00 2.100000e+00
    endloop
  endfacet
  facet normal 1.000000e+00 0.000000e+00 0.000000e+00
    outer loop
      vertex 5.300000e+00 -7.150000e+00 2.700000e+00
      vertex 5.300000e+00 -7.150000e+00 2.100000e+00
      vertex 5.300000e+00 -3.150000e+00 2.700000e+00
    endloop
  endfacet
  facet normal 1.000000e+00 0.000000e+00 0.000000e+00
    outer loop
      vertex 5.300000e+00 -3.150000e+00 2.700000e+00
      vertex 5.300000e+00 -7.150000e+00 2.100000e+00
      vertex 5.300000e+00 -3.150000e+00 2.100000e+00
    endloop
  endfacet
  facet normal 0.000000e+00 0.000000e+00 1.000000e+00
    outer loop
      vertex 4.700000e+00 -7.150000e+00 2.700000e+00
      vertex 5.300000e+00 -7.150000e+00 2.700000e+00
      vertex 4.700000e+00 -3.150000e+00 2.700000e+00
    endloop
  endfacet
  facet normal 0.000000e+00 0.000000e+00 1.000000e+00
    outer loop
      vertex 4.700000e+00 -3.150000e+00 2.700000e+00
      vertex 5.300000e+00 -7.150000e+00 2.700000e+00
      vertex 5.300000e+00 -3.150000e+00 2.700000e+00
    endloop
  endfacet
  facet normal -1.000000e+00 0.000000e+00 0.000000e+00
    outer loop
      vertex 4.700000e+00 -7.150000e+00 2.100000e+00
      vertex 4.700000e+00 -7.150000e+00 2.700000e+00
      vertex 4.700000e+00 -3.150000e+00 2.100000e+00
    endloop
  endfacet
  facet normal -1.000000e+00 0.000000e+00 0.000000e+00
    outer loop
      vertex 4.700000e+00 -3.150000e+00 2.100000e+00
      vertex 4.700000e+00 -7.150000e+00 2.700000e+00
      vertex 4.700000e+00 -3.150000e+00 2.700000e+00
    endloop
  endfacet
  facet normal -1.000000e+00 0.000000e+00 0.000000e+00
    outer loop
      vertex 4.700000e+00 -8.499999e-01 2.700000e+00
      vertex 4.700000e+00 6.750000e+00 2.700000e+00
      vertex 4.700000e+00 -8.499999e-01 2.100000e+00
    endloop
  endfacet
  facet normal -1.000000e+00 0.000000e+00 0.000000e+00
    outer loop
      vertex 4.700000e+00 -8.499999e-01 2.100000e+00
      vertex 4.700000e+00 6.750000e+00 2.700000e+00
      vertex 4.700000e+00 6.750000e+00 2.100000e+00
    endloop
  endfacet
  facet normal 0.000000e+00 0.000000e+00 1.000000e+00
    outer loop
      vertex 5.300000e+00 -8.499999e-01 2.700000e+00
      vertex 5.300000e+00 6.750000e+00 2.700000e+00
      vertex 4.700000e+00 -8.499999e-01 2.700000e+00
    endloop
  endfacet
  facet normal 0.000000e+00 0.000000e+00 1.000000e+00
    outer loop
      vertex 4.700000e+00 -8.499999e-01 2.700000e+00
      vertex 5.300000e+00 6.750000e+00 2.700000e+00
      vertex 4.700000e+00 6.750000e+00 2.700000e+00
    endloop
  endfacet
  facet normal 1.000000e+00 0.000000e+00 0.000000e+00
    outer loop
      vertex 5.300000e+00 -8.499999e-01 2.100000e+00
      vertex 5.300000e+00 6.750000e+00 2.100000e+00
      vertex 5.300000e+00 -8.499999e-01 2.700000e+00
    endloop
  endfacet
  facet normal 1.000000e+00 0.000000e+00 0.000000e+00
    outer loop
      vertex 5.300000e+00 -8.499999e-01 2.700000e+00
      vertex 5.300000e+00 6.750000e+00 2.100000e+00
      vertex 5.300000e+00 6.750000e+00 2.700000e+00
    endloop
  endfacet
  facet normal 0.000000e+00 0.000000e+00 -1.000000e+00
    outer loop
      vertex 4.700000e+00 -8.499999e-01 2.100000e+00
      vertex 4.700000e+00 6.750000e+00 2.100000e+00
      vertex 5.300000e+00 -8.499999e-01 2.100000e+00
    endloop
  endfacet
  facet normal 0.000000e+00 0.000000e+00 -1.000000e+00
    outer loop
      vertex 5.300000e+00 -8.499999e-01 2.100000e+00
      vertex 4.700000e+00 6.750000e+00 2.100000e+00
      vertex 5.300000e+00 6.750000e+00 2.100000e+00
    endloop
  endfacet
  facet normal 0.000000e+00 1.000000e+00 0.000000e+00
    outer loop
      vertex 5.300000e+00 6.750000e+00 2.700000e+00
      vertex 5.300000e+00 6.750000e+00 2.100000e+00
      vertex 4.700000e+00 6.750000e+00 2.700000e+00
    endloop
  endfacet
  facet normal 0.000000e+00 1.000000e+00 0.000000e+00
    outer loop
      vertex 4.700000e+00 6.750000e+00 2.700000e+00
      vertex 5.300000e+00 6.750000e+00 2.100000e+00
      vertex 4.700000e+00 6.750000e+00 2.100000e+00
    endloop
  endfacet
endsolid Default
