solid Default
  facet normal 0.000000e+00 -1.000000e+00 0.000000e+00
    outer loop
      vertex 2.000000e+00 -4.000000e+00 5.800000e+00
      vertex 4.999999e-01 -4.000000e+00 5.800000e+00
      vertex 2.000000e+00 -4.000000e+00 0.000000e+00
    endloop
  endfacet
  facet normal 0.000000e+00 -1.000000e+00 0.000000e+00
    outer loop
      vertex 2.000000e+00 -4.000000e+00 0.000000e+00
      vertex 4.999999e-01 -4.000000e+00 5.800000e+00
      vertex 4.999999e-01 -4.000000e+00 0.000000e+00
    endloop
  endfacet
  facet normal 0.000000e+00 -1.000000e+00 0.000000e+00
    outer loop
      vertex 3.000000e+00 -4.000000e+00 0.000000e+00
      vertex 3.800000e+00 -4.000000e+00 0.000000e+00
      vertex 3.000000e+00 -4.000000e+00 5.800000e+00
    endloop
  endfacet
  facet normal 0.000000e+00 -1.000000e+00 0.000000e+00
    outer loop
      vertex 3.000000e+00 -4.000000e+00 5.800000e+00
      vertex 3.800000e+00 -4.000000e+00 0.000000e+00
      vertex 3.800000e+00 -4.000000e+00 5.800000e+00
    endloop
  endfacet
  facet normal 0.000000e+00 -1.000000e+00 0.000000e+00
    outer loop
      vertex -3.000000e+00 -4.000000e+00 5.800000e+00
      vertex -3.800000e+00 -4.000000e+00 5.800000e+00
      vertex -3.000000e+00 -4.000000e+00 0.000000e+00
    endloop
  endfacet
  facet normal 0.000000e+00 -1.000000e+00 0.000000e+00
    outer loop
      vertex -3.000000e+00 -4.000000e+00 0.000000e+00
      vertex -3.800000e+00 -4.000000e+00 5.800000e+00
      vertex -3.800000e+00 -4.000000e+00 0.000000e+00
    endloop
  endfacet
  facet normal -5.807913e-02 9.983119e-01 0.000000e+00
    outer loop
      vertex -2.350000e+00 7.400000e+00 8.999999e-01
      vertex -2.350000e+00 7.400000e+00 0.000000e+00
      vertex -2.436824e+00 7.392404e+00 0.000000e+00
    endloop
  endfacet
  facet normal -1.161583e-01 9.932307e-01 0.000000e+00
    outer loop
      vertex -2.350000e+00 7.400000e+00 8.999999e-01
      vertex -2.436824e+00 7.392404e+00 0.000000e+00
      vertex -2.436824e+00 7.392404e+00 8.999999e-01
    endloop
  endfacet
  facet normal -2.305519e-01 9.730600e-01 0.000000e+00
    outer loop
      vertex -2.436824e+00 7.392404e+00 8.999999e-01
      vertex -2.436824e+00 7.392404e+00 0.000000e+00
      vertex -2.521010e+00 7.369847e+00 0.000000e+00
    endloop
  endfacet
  facet normal -2.868663e-01 9.579706e-01 0.000000e+00
    outer loop
      vertex -2.436824e+00 7.392404e+00 8.999999e-01
      vertex -2.521010e+00 7.369847e+00 0.000000e+00
      vertex -2.521010e+00 7.369847e+00 8.999999e-01
    endloop
  endfacet
  facet normal -3.960194e-01 9.182422e-01 0.000000e+00
    outer loop
      vertex -2.521010e+00 7.369847e+00 8.999999e-01
      vertex -2.521010e+00 7.369847e+00 0.000000e+00
      vertex -2.600000e+00 7.333013e+00 0.000000e+00
    endloop
  endfacet
  facet normal -4.488580e-01 8.936031e-01 0.000000e+00
    outer loop
      vertex -2.521010e+00 7.369847e+00 8.999999e-01
      vertex -2.600000e+00 7.333013e+00 0.000000e+00
      vertex -2.600000e+00 7.333013e+00 8.999999e-01
    endloop
  endfacet
  facet normal -5.494540e-01 8.355240e-01 0.000000e+00
    outer loop
      vertex -2.600000e+00 7.333013e+00 8.999999e-01
      vertex -2.600000e+00 7.333013e+00 0.000000e+00
      vertex -2.671394e+00 7.283022e+00 0.000000e+00
    endloop
  endfacet
  facet normal -5.972114e-01 8.020840e-01 0.000000e+00
    outer loop
      vertex -2.600000e+00 7.333013e+00 8.999999e-01
      vertex -2.671394e+00 7.283022e+00 0.000000e+00
      vertex -2.671394e+00 7.283022e+00 8.999999e-01
    endloop
  endfacet
  facet normal -6.861938e-01 7.274188e-01 0.000000e+00
    outer loop
      vertex -2.671394e+00 7.283022e+00 8.999999e-01
      vertex -2.671394e+00 7.283022e+00 0.000000e+00
      vertex -2.733022e+00 7.221394e+00 0.000000e+00
    endloop
  endfacet
  facet normal -7.274188e-01 6.861938e-01 0.000000e+00
    outer loop
      vertex -2.671394e+00 7.283022e+00 8.999999e-01
      vertex -2.733022e+00 7.221394e+00 0.000000e+00
      vertex -2.733022e+00 7.221394e+00 8.999999e-01
    endloop
  endfacet
  facet normal -8.020840e-01 5.972114e-01 0.000000e+00
    outer loop
      vertex -2.733022e+00 7.221394e+00 8.999999e-01
      vertex -2.733022e+00 7.221394e+00 0.000000e+00
      vertex -2.783013e+00 7.149999e+00 0.000000e+00
    endloop
  endfacet
  facet normal -8.355240e-01 5.494540e-01 0.000000e+00
    outer loop
      vertex -2.733022e+00 7.221394e+00 8.999999e-01
      vertex -2.783013e+00 7.149999e+00 0.000000e+00
      vertex -2.783013e+00 7.149999e+00 8.999999e-01
    endloop
  endfacet
  facet normal -8.936031e-01 4.488580e-01 0.000000e+00
    outer loop
      vertex -2.783013e+00 7.149999e+00 8.999999e-01
      vertex -2.783013e+00 7.149999e+00 0.000000e+00
      vertex -2.819846e+00 7.071010e+00 0.000000e+00
    endloop
  endfacet
  facet normal -9.182422e-01 3.960194e-01 0.000000e+00
    outer loop
      vertex -2.783013e+00 7.149999e+00 8.999999e-01
      vertex -2.819846e+00 7.071010e+00 0.000000e+00
      vertex -2.819846e+00 7.071010e+00 8.999999e-01
    endloop
  endfacet
  facet normal -9.579706e-01 2.868663e-01 0.000000e+00
    outer loop
      vertex -2.819846e+00 7.071010e+00 8.999999e-01
      vertex -2.819846e+00 7.071010e+00 0.000000e+00
      vertex -2.842404e+00 6.986825e+00 0.000000e+00
    endloop
  endfacet
  facet normal -9.730600e-01 2.305519e-01 0.000000e+00
    outer loop
      vertex -2.819846e+00 7.071010e+00 8.999999e-01
      vertex -2.842404e+00 6.986825e+00 0.000000e+00
      vertex -2.842404e+00 6.986825e+00 8.999999e-01
    endloop
  endfacet
  facet normal -9.932307e-01 1.161583e-01 0.000000e+00
    outer loop
      vertex -2.842404e+00 6.986825e+00 8.999999e-01
      vertex -2.842404e+00 6.986825e+00 0.000000e+00
      vertex -2.850000e+00 6.900000e+00 0.000000e+00
    endloop
  endfacet
  facet normal -9.983119e-01 5.807913e-02 0.000000e+00
    outer loop
      vertex -2.842404e+00 6.986825e+00 8.999999e-01
      vertex -2.850000e+00 6.900000e+00 0.000000e+00
      vertex -2.850000e+00 6.900000e+00 8.999999e-01
    endloop
  endfacet
  facet normal 5.807913e-02 9.983119e-01 0.000000e+00
    outer loop
      vertex 2.350000e+00 7.400000e+00 0.000000e+00
      vertex 2.350000e+00 7.400000e+00 8.999999e-01
      vertex 2.436824e+00 7.392404e+00 8.999999e-01
    endloop
  endfacet
  facet normal 1.161583e-01 9.932307e-01 0.000000e+00
    outer loop
      vertex 2.350000e+00 7.400000e+00 0.000000e+00
      vertex 2.436824e+00 7.392404e+00 8.999999e-01
      vertex 2.436824e+00 7.392404e+00 0.000000e+00
    endloop
  endfacet
  facet normal 2.305519e-01 9.730600e-01 0.000000e+00
    outer loop
      vertex 2.436824e+00 7.392404e+00 0.000000e+00
      vertex 2.436824e+00 7.392404e+00 8.999999e-01
      vertex 2.521010e+00 7.369847e+00 8.999999e-01
    endloop
  endfacet
  facet normal 2.868663e-01 9.579706e-01 0.000000e+00
    outer loop
      vertex 2.436824e+00 7.392404e+00 0.000000e+00
      vertex 2.521010e+00 7.369847e+00 8.999999e-01
      vertex 2.521010e+00 7.369847e+00 0.000000e+00
    endloop
  endfacet
  facet normal 3.960194e-01 9.182422e-01 0.000000e+00
    outer loop
      vertex 2.521010e+00 7.369847e+00 0.000000e+00
      vertex 2.521010e+00 7.369847e+00 8.999999e-01
      vertex 2.600000e+00 7.333013e+00 8.999999e-01
    endloop
  endfacet
  facet normal 4.488580e-01 8.936031e-01 0.000000e+00
    outer loop
      vertex 2.521010e+00 7.369847e+00 0.000000e+00
      vertex 2.600000e+00 7.333013e+00 8.999999e-01
      vertex 2.600000e+00 7.333013e+00 0.000000e+00
    endloop
  endfacet
  facet normal 5.494540e-01 8.355240e-01 0.000000e+00
    outer loop
      vertex 2.600000e+00 7.333013e+00 0.000000e+00
      vertex 2.600000e+00 7.333013e+00 8.999999e-01
      vertex 2.671394e+00 7.283022e+00 8.999999e-01
    endloop
  endfacet
  facet normal 5.972114e-01 8.020840e-01 0.000000e+00
    outer loop
      vertex 2.600000e+00 7.333013e+00 0.000000e+00
      vertex 2.671394e+00 7.283022e+00 8.999999e-01
      vertex 2.671394e+00 7.283022e+00 0.000000e+00
    endloop
  endfacet
  facet normal 6.861938e-01 7.274188e-01 0.000000e+00
    outer loop
      vertex 2.671394e+00 7.283022e+00 0.000000e+00
      vertex 2.671394e+00 7.283022e+00 8.999999e-01
      vertex 2.733022e+00 7.221394e+00 8.999999e-01
    endloop
  endfacet
  facet normal 7.274188e-01 6.861938e-01 0.000000e+00
    outer loop
      vertex 2.671394e+00 7.283022e+00 0.000000e+00
      vertex 2.733022e+00 7.221394e+00 8.999999e-01
      vertex 2.733022e+00 7.221394e+00 0.000000e+00
    endloop
  endfacet
  facet normal 8.020840e-01 5.972114e-01 0.000000e+00
    outer loop
      vertex 2.733022e+00 7.221394e+00 0.000000e+00
      vertex 2.733022e+00 7.221394e+00 8.999999e-01
      vertex 2.783013e+00 7.149999e+00 8.999999e-01
    endloop
  endfacet
  facet normal 8.355240e-01 5.494540e-01 0.000000e+00
    outer loop
      vertex 2.733022e+00 7.221394e+00 0.000000e+00
      vertex 2.783013e+00 7.149999e+00 8.999999e-01
      vertex 2.783013e+00 7.149999e+00 0.000000e+00
    endloop
  endfacet
  facet normal 8.936031e-01 4.488580e-01 0.000000e+00
    outer loop
      vertex 2.783013e+00 7.149999e+00 0.000000e+00
      vertex 2.783013e+00 7.149999e+00 8.999999e-01
      vertex 2.819847e+00 7.071010e+00 8.999999e-01
    endloop
  endfacet
  facet normal 9.182422e-01 3.960194e-01 0.000000e+00
    outer loop
      vertex 2.783013e+00 7.149999e+00 0.000000e+00
      vertex 2.819847e+00 7.071010e+00 8.999999e-01
      vertex 2.819847e+00 7.071010e+00 0.000000e+00
    endloop
  endfacet
  facet normal 9.579706e-01 2.868663e-01 0.000000e+00
    outer loop
      vertex 2.819847e+00 7.071010e+00 0.000000e+00
      vertex 2.819847e+00 7.071010e+00 8.999999e-01
      vertex 2.842404e+00 6.986825e+00 8.999999e-01
    endloop
  endfacet
  facet normal 9.730600e-01 2.305519e-01 0.000000e+00
    outer loop
      vertex 2.819847e+00 7.071010e+00 0.000000e+00
      vertex 2.842404e+00 6.986825e+00 8.999999e-01
      vertex 2.842404e+00 6.986825e+00 0.000000e+00
    endloop
  endfacet
  facet normal 9.932307e-01 1.161583e-01 0.000000e+00
    outer loop
      vertex 2.842404e+00 6.986825e+00 0.000000e+00
      vertex 2.842404e+00 6.986825e+00 8.999999e-01
      vertex 2.850000e+00 6.900000e+00 8.999999e-01
    endloop
  endfacet
  facet normal 9.983119e-01 5.807913e-02 0.000000e+00
    outer loop
      vertex 2.842404e+00 6.986825e+00 0.000000e+00
      vertex 2.850000e+00 6.900000e+00 8.999999e-01
      vertex 2.850000e+00 6.900000e+00 0.000000e+00
    endloop
  endfacet
  facet normal 1.000000e+00 0.000000e+00 2.990902e-16
    outer loop
      vertex 3.800000e+00 -8.000002e-01 0.000000e+00
      vertex 3.800000e+00 -8.000002e-01 5.800000e+00
      vertex 3.800000e+00 -4.000000e+00 0.000000e+00
    endloop
  endfacet
  facet normal 1.000000e+00 0.000000e+00 2.990902e-16
    outer loop
      vertex 3.800000e+00 -4.000000e+00 0.000000e+00
      vertex 3.800000e+00 -8.000002e-01 5.800000e+00
      vertex 3.800000e+00 -4.000000e+00 5.800000e+00
    endloop
  endfacet
  facet normal 0.000000e+00 0.000000e+00 -1.000000e+00
    outer loop
      vertex 2.000000e+00 -4.000000e+00 0.000000e+00
      vertex 4.999999e-01 -4.000000e+00 0.000000e+00
      vertex 2.000000e+00 -3.000000e+00 0.000000e+00
    endloop
  endfacet
  facet normal 0.000000e+00 0.000000e+00 -1.000000e+00
    outer loop
      vertex 2.000000e+00 -3.000000e+00 0.000000e+00
      vertex 4.999999e-01 -4.000000e+00 0.000000e+00
      vertex 4.999999e-01 -3.000000e+00 0.000000e+00
    endloop
  endfacet
  facet normal 0.000000e+00 0.000000e+00 -1.000000e+00
    outer loop
      vertex -2.436824e+00 7.392404e+00 0.000000e+00
      vertex -2.350000e+00 7.400000e+00 0.000000e+00
      vertex 2.000000e+00 -3.000000e+00 0.000000e+00
    endloop
  endfacet
  facet normal 0.000000e+00 0.000000e+00 -1.000000e+00
    outer loop
      vertex 2.000000e+00 -3.000000e+00 0.000000e+00
      vertex -2.350000e+00 7.400000e+00 0.000000e+00
      vertex 2.350000e+00 7.400000e+00 0.000000e+00
    endloop
  endfacet
  facet normal 0.000000e+00 0.000000e+00 -1.000000e+00
    outer loop
      vertex -5.000001e-01 -3.000000e+00 0.000000e+00
      vertex -5.000001e-01 -4.000000e+00 0.000000e+00
      vertex -2.000000e+00 -4.000000e+00 0.000000e+00
    endloop
  endfacet
  facet normal 0.000000e+00 0.000000e+00 -1.000000e+00
    outer loop
      vertex 2.819847e+00 7.071010e+00 0.000000e+00
      vertex 2.842404e+00 6.986825e+00 0.000000e+00
      vertex 2.521010e+00 7.369847e+00 0.000000e+00
    endloop
  endfacet
  facet normal 0.000000e+00 0.000000e+00 -1.000000e+00
    outer loop
      vertex -2.819846e+00 7.071010e+00 0.000000e+00
      vertex -2.783013e+00 7.149999e+00 0.000000e+00
      vertex 2.000000e+00 -3.000000e+00 0.000000e+00
    endloop
  endfacet
  facet normal 0.000000e+00 0.000000e+00 -1.000000e+00
    outer loop
      vertex 2.000000e+00 -3.000000e+00 0.000000e+00
      vertex -2.783013e+00 7.149999e+00 0.000000e+00
      vertex -2.733022e+00 7.221394e+00 0.000000e+00
    endloop
  endfacet
  facet normal 0.000000e+00 0.000000e+00 -1.000000e+00
    outer loop
      vertex 2.000000e+00 -3.000000e+00 0.000000e+00
      vertex -2.733022e+00 7.221394e+00 0.000000e+00
      vertex -2.671394e+00 7.283022e+00 0.000000e+00
    endloop
  endfacet
  facet normal 0.000000e+00 0.000000e+00 -1.000000e+00
    outer loop
      vertex -2.671394e+00 7.283022e+00 0.000000e+00
      vertex -2.600000e+00 7.333013e+00 0.000000e+00
      vertex 2.000000e+00 -3.000000e+00 0.000000e+00
    endloop
  endfacet
  facet normal 0.000000e+00 0.000000e+00 -1.000000e+00
    outer loop
      vertex 2.000000e+00 -3.000000e+00 0.000000e+00
      vertex -2.600000e+00 7.333013e+00 0.000000e+00
      vertex -2.521010e+00 7.369847e+00 0.000000e+00
    endloop
  endfacet
  facet normal 0.000000e+00 0.000000e+00 -1.000000e+00
    outer loop
      vertex 2.000000e+00 -3.000000e+00 0.000000e+00
      vertex -2.521010e+00 7.369847e+00 0.000000e+00
      vertex -2.436824e+00 7.392404e+00 0.000000e+00
    endloop
  endfacet
  facet normal 0.000000e+00 0.000000e+00 -1.000000e+00
    outer loop
      vertex -3.000000e+00 -4.000000e+00 0.000000e+00
      vertex -3.800000e+00 -4.000000e+00 0.000000e+00
      vertex -3.000000e+00 -3.000000e+00 0.000000e+00
    endloop
  endfacet
  facet normal 0.000000e+00 0.000000e+00 -1.000000e+00
    outer loop
      vertex -3.000000e+00 -3.000000e+00 0.000000e+00
      vertex -3.800000e+00 -4.000000e+00 0.000000e+00
      vertex -3.800000e+00 -8.000002e-01 0.000000e+00
    endloop
  endfacet
  facet normal 0.000000e+00 0.000000e+00 -1.000000e+00
    outer loop
      vertex -3.000000e+00 -3.000000e+00 0.000000e+00
      vertex -3.800000e+00 -8.000002e-01 0.000000e+00
      vertex -2.000000e+00 -3.000000e+00 0.000000e+00
    endloop
  endfacet
  facet normal 0.000000e+00 0.000000e+00 -1.000000e+00
    outer loop
      vertex -2.000000e+00 -3.000000e+00 0.000000e+00
      vertex -3.800000e+00 -8.000002e-01 0.000000e+00
      vertex -2.850000e+00 -8.000002e-01 0.000000e+00
    endloop
  endfacet
  facet normal 0.000000e+00 0.000000e+00 -1.000000e+00
    outer loop
      vertex -2.000000e+00 -4.000000e+00 0.000000e+00
      vertex -2.000000e+00 -3.000000e+00 0.000000e+00
      vertex -5.000001e-01 -3.000000e+00 0.000000e+00
    endloop
  endfacet
  facet normal 0.000000e+00 0.000000e+00 -1.000000e+00
    outer loop
      vertex -5.000001e-01 -3.000000e+00 0.000000e+00
      vertex -2.000000e+00 -3.000000e+00 0.000000e+00
      vertex -2.850000e+00 -8.000002e-01 0.000000e+00
    endloop
  endfacet
  facet normal 0.000000e+00 0.000000e+00 -1.000000e+00
    outer loop
      vertex -5.000001e-01 -3.000000e+00 0.000000e+00
      vertex -2.850000e+00 -8.000002e-01 0.000000e+00
      vertex 4.999999e-01 -3.000000e+00 0.000000e+00
    endloop
  endfacet
  facet normal 0.000000e+00 0.000000e+00 -1.000000e+00
    outer loop
      vertex 4.999999e-01 -3.000000e+00 0.000000e+00
      vertex -2.850000e+00 -8.000002e-01 0.000000e+00
      vertex -2.850000e+00 6.900000e+00 0.000000e+00
    endloop
  endfacet
  facet normal 0.000000e+00 0.000000e+00 -1.000000e+00
    outer loop
      vertex 4.999999e-01 -3.000000e+00 0.000000e+00
      vertex -2.850000e+00 6.900000e+00 0.000000e+00
      vertex 2.000000e+00 -3.000000e+00 0.000000e+00
    endloop
  endfacet
  facet normal 0.000000e+00 0.000000e+00 -1.000000e+00
    outer loop
      vertex 2.000000e+00 -3.000000e+00 0.000000e+00
      vertex -2.850000e+00 6.900000e+00 0.000000e+00
      vertex -2.842404e+00 6.986825e+00 0.000000e+00
    endloop
  endfacet
  facet normal 0.000000e+00 0.000000e+00 -1.000000e+00
    outer loop
      vertex 2.000000e+00 -3.000000e+00 0.000000e+00
      vertex -2.842404e+00 6.986825e+00 0.000000e+00
      vertex -2.819846e+00 7.071010e+00 0.000000e+00
    endloop
  endfacet
  facet normal 0.000000e+00 0.000000e+00 -1.000000e+00
    outer loop
      vertex 3.800000e+00 -4.000000e+00 0.000000e+00
      vertex 3.000000e+00 -4.000000e+00 0.000000e+00
      vertex 3.800000e+00 -8.000002e-01 0.000000e+00
    endloop
  endfacet
  facet normal 0.000000e+00 0.000000e+00 -1.000000e+00
    outer loop
      vertex 3.800000e+00 -8.000002e-01 0.000000e+00
      vertex 3.000000e+00 -4.000000e+00 0.000000e+00
      vertex 3.000000e+00 -3.000000e+00 0.000000e+00
    endloop
  endfacet
  facet normal 0.000000e+00 0.000000e+00 -1.000000e+00
    outer loop
      vertex 3.800000e+00 -8.000002e-01 0.000000e+00
      vertex 3.000000e+00 -3.000000e+00 0.000000e+00
      vertex 2.850000e+00 -8.000002e-01 0.000000e+00
    endloop
  endfacet
  facet normal 0.000000e+00 0.000000e+00 -1.000000e+00
    outer loop
      vertex 2.850000e+00 -8.000002e-01 0.000000e+00
      vertex 3.000000e+00 -3.000000e+00 0.000000e+00
      vertex 2.000000e+00 -3.000000e+00 0.000000e+00
    endloop
  endfacet
  facet normal 0.000000e+00 0.000000e+00 -1.000000e+00
    outer loop
      vertex 2.850000e+00 -8.000002e-01 0.000000e+00
      vertex 2.000000e+00 -3.000000e+00 0.000000e+00
      vertex 2.850000e+00 6.900000e+00 0.000000e+00
    endloop
  endfacet
  facet normal 0.000000e+00 0.000000e+00 -1.000000e+00
    outer loop
      vertex 2.850000e+00 6.900000e+00 0.000000e+00
      vertex 2.000000e+00 -3.000000e+00 0.000000e+00
      vertex 2.350000e+00 7.400000e+00 0.000000e+00
    endloop
  endfacet
  facet normal 0.000000e+00 0.000000e+00 -1.000000e+00
    outer loop
      vertex 2.850000e+00 6.900000e+00 0.000000e+00
      vertex 2.350000e+00 7.400000e+00 0.000000e+00
      vertex 2.842404e+00 6.986825e+00 0.000000e+00
    endloop
  endfacet
  facet normal 0.000000e+00 0.000000e+00 -1.000000e+00
    outer loop
      vertex 2.842404e+00 6.986825e+00 0.000000e+00
      vertex 2.350000e+00 7.400000e+00 0.000000e+00
      vertex 2.436824e+00 7.392404e+00 0.000000e+00
    endloop
  endfacet
  facet normal 0.000000e+00 0.000000e+00 -1.000000e+00
    outer loop
      vertex 2.842404e+00 6.986825e+00 0.000000e+00
      vertex 2.436824e+00 7.392404e+00 0.000000e+00
      vertex 2.521010e+00 7.369847e+00 0.000000e+00
    endloop
  endfacet
  facet normal 0.000000e+00 0.000000e+00 -1.000000e+00
    outer loop
      vertex 2.521010e+00 7.369847e+00 0.000000e+00
      vertex 2.600000e+00 7.333013e+00 0.000000e+00
      vertex 2.671394e+00 7.283022e+00 0.000000e+00
    endloop
  endfacet
  facet normal 0.000000e+00 0.000000e+00 -1.000000e+00
    outer loop
      vertex 2.671394e+00 7.283022e+00 0.000000e+00
      vertex 2.733022e+00 7.221394e+00 0.000000e+00
      vertex 2.521010e+00 7.369847e+00 0.000000e+00
    endloop
  endfacet
  facet normal 0.000000e+00 0.000000e+00 -1.000000e+00
    outer loop
      vertex 2.521010e+00 7.369847e+00 0.000000e+00
      vertex 2.733022e+00 7.221394e+00 0.000000e+00
      vertex 2.783013e+00 7.149999e+00 0.000000e+00
    endloop
  endfacet
  facet normal 0.000000e+00 0.000000e+00 -1.000000e+00
    outer loop
      vertex 2.521010e+00 7.369847e+00 0.000000e+00
      vertex 2.783013e+00 7.149999e+00 0.000000e+00
      vertex 2.819847e+00 7.071010e+00 0.000000e+00
    endloop
  endfacet
  facet normal -1.000000e+00 0.000000e+00 0.000000e+00
    outer loop
      vertex -3.800000e+00 -8.000002e-01 5.800000e+00
      vertex -3.800000e+00 -8.000002e-01 0.000000e+00
      vertex -3.800000e+00 -4.000000e+00 5.800000e+00
    endloop
  endfacet
  facet normal -1.000000e+00 0.000000e+00 0.000000e+00
    outer loop
      vertex -3.800000e+00 -4.000000e+00 5.800000e+00
      vertex -3.800000e+00 -8.000002e-01 0.000000e+00
      vertex -3.800000e+00 -4.000000e+00 0.000000e+00
    endloop
  endfacet
  facet normal 0.000000e+00 0.000000e+00 1.000000e+00
    outer loop
      vertex -2.000000e+00 -3.000000e+00 5.800000e+00
      vertex -2.000000e+00 -4.000000e+00 5.800000e+00
      vertex -5.000001e-01 -4.000000e+00 5.800000e+00
    endloop
  endfacet
  facet normal 0.000000e+00 0.000000e+00 1.000000e+00
    outer loop
      vertex -3.800000e+00 -8.000002e-01 5.800000e+00
      vertex -3.800000e+00 -4.000000e+00 5.800000e+00
      vertex -3.000000e+00 -4.000000e+00 5.800000e+00
    endloop
  endfacet
  facet normal 0.000000e+00 0.000000e+00 1.000000e+00
    outer loop
      vertex 4.999999e-01 -4.000000e+00 5.800000e+00
      vertex 2.000000e+00 -4.000000e+00 5.800000e+00
      vertex 4.999999e-01 -3.000000e+00 5.800000e+00
    endloop
  endfacet
  facet normal 0.000000e+00 0.000000e+00 1.000000e+00
    outer loop
      vertex 4.999999e-01 -3.000000e+00 5.800000e+00
      vertex 2.000000e+00 -4.000000e+00 5.800000e+00
      vertex 2.000000e+00 -3.000000e+00 5.800000e+00
    endloop
  endfacet
  facet normal 0.000000e+00 0.000000e+00 1.000000e+00
    outer loop
      vertex -5.000001e-01 -4.000000e+00 5.800000e+00
      vertex -5.000001e-01 -3.000000e+00 5.800000e+00
      vertex -2.000000e+00 -3.000000e+00 5.800000e+00
    endloop
  endfacet
  facet normal 0.000000e+00 0.000000e+00 1.000000e+00
    outer loop
      vertex -2.000000e+00 -3.000000e+00 5.800000e+00
      vertex -5.000001e-01 -3.000000e+00 5.800000e+00
      vertex -3.800000e+00 -8.000002e-01 5.800000e+00
    endloop
  endfacet
  facet normal 0.000000e+00 0.000000e+00 1.000000e+00
    outer loop
      vertex -2.000000e+00 -3.000000e+00 5.800000e+00
      vertex -3.800000e+00 -8.000002e-01 5.800000e+00
      vertex -3.000000e+00 -3.000000e+00 5.800000e+00
    endloop
  endfacet
  facet normal 0.000000e+00 0.000000e+00 1.000000e+00
    outer loop
      vertex -3.000000e+00 -3.000000e+00 5.800000e+00
      vertex -3.800000e+00 -8.000002e-01 5.800000e+00
      vertex -3.000000e+00 -4.000000e+00 5.800000e+00
    endloop
  endfacet
  facet normal 0.000000e+00 0.000000e+00 1.000000e+00
    outer loop
      vertex 3.000000e+00 -4.000000e+00 5.800000e+00
      vertex 3.800000e+00 -4.000000e+00 5.800000e+00
      vertex 3.000000e+00 -3.000000e+00 5.800000e+00
    endloop
  endfacet
  facet normal 0.000000e+00 0.000000e+00 1.000000e+00
    outer loop
      vertex 3.000000e+00 -3.000000e+00 5.800000e+00
      vertex 3.800000e+00 -4.000000e+00 5.800000e+00
      vertex 3.800000e+00 -8.000002e-01 5.800000e+00
    endloop
  endfacet
  facet normal 0.000000e+00 0.000000e+00 1.000000e+00
    outer loop
      vertex 3.000000e+00 -3.000000e+00 5.800000e+00
      vertex 3.800000e+00 -8.000002e-01 5.800000e+00
      vertex 2.000000e+00 -3.000000e+00 5.800000e+00
    endloop
  endfacet
  facet normal 0.000000e+00 0.000000e+00 1.000000e+00
    outer loop
      vertex 2.000000e+00 -3.000000e+00 5.800000e+00
      vertex 3.800000e+00 -8.000002e-01 5.800000e+00
      vertex -3.800000e+00 -8.000002e-01 5.800000e+00
    endloop
  endfacet
  facet normal 0.000000e+00 0.000000e+00 1.000000e+00
    outer loop
      vertex 2.000000e+00 -3.000000e+00 5.800000e+00
      vertex -3.800000e+00 -8.000002e-01 5.800000e+00
      vertex 4.999999e-01 -3.000000e+00 5.800000e+00
    endloop
  endfacet
  facet normal 0.000000e+00 0.000000e+00 1.000000e+00
    outer loop
      vertex 4.999999e-01 -3.000000e+00 5.800000e+00
      vertex -3.800000e+00 -8.000002e-01 5.800000e+00
      vertex -5.000001e-01 -3.000000e+00 5.800000e+00
    endloop
  endfacet
  facet normal 0.000000e+00 1.000000e+00 0.000000e+00
    outer loop
      vertex -2.200000e+00 -8.000002e-01 2.100000e+00
      vertex 2.850000e+00 -8.000002e-01 8.999999e-01
      vertex -2.800000e+00 -8.000002e-01 2.100000e+00
    endloop
  endfacet
  facet normal 0.000000e+00 1.000000e+00 0.000000e+00
    outer loop
      vertex -2.800000e+00 -8.000002e-01 2.100000e+00
      vertex 2.850000e+00 -8.000002e-01 8.999999e-01
      vertex -2.850000e+00 -8.000002e-01 8.999999e-01
    endloop
  endfacet
  facet normal 0.000000e+00 1.000000e+00 0.000000e+00
    outer loop
      vertex 3.800000e+00 -8.000002e-01 5.800000e+00
      vertex 3.000001e-01 -8.000002e-01 2.700000e+00
      vertex -3.000000e-01 -8.000002e-01 2.700000e+00
    endloop
  endfacet
  facet normal 0.000000e+00 1.000000e+00 0.000000e+00
    outer loop
      vertex -2.200000e+00 -8.000002e-01 2.700000e+00
      vertex -2.800000e+00 -8.000002e-01 2.700000e+00
      vertex -3.800000e+00 -8.000002e-01 5.800000e+00
    endloop
  endfacet
  facet normal 0.000000e+00 1.000000e+00 0.000000e+00
    outer loop
      vertex -2.850000e+00 -8.000002e-01 0.000000e+00
      vertex -3.800000e+00 -8.000002e-01 0.000000e+00
      vertex -2.850000e+00 -8.000002e-01 8.999999e-01
    endloop
  endfacet
  facet normal 0.000000e+00 1.000000e+00 0.000000e+00
    outer loop
      vertex -2.850000e+00 -8.000002e-01 8.999999e-01
      vertex -3.800000e+00 -8.000002e-01 0.000000e+00
      vertex -3.800000e+00 -8.000002e-01 5.800000e+00
    endloop
  endfacet
  facet normal 0.000000e+00 1.000000e+00 0.000000e+00
    outer loop
      vertex -2.850000e+00 -8.000002e-01 8.999999e-01
      vertex -3.800000e+00 -8.000002e-01 5.800000e+00
      vertex -2.800000e+00 -8.000002e-01 2.100000e+00
    endloop
  endfacet
  facet normal 0.000000e+00 1.000000e+00 0.000000e+00
    outer loop
      vertex -2.800000e+00 -8.000002e-01 2.100000e+00
      vertex -3.800000e+00 -8.000002e-01 5.800000e+00
      vertex -2.800000e+00 -8.000002e-01 2.700000e+00
    endloop
  endfacet
  facet normal 0.000000e+00 1.000000e+00 0.000000e+00
    outer loop
      vertex 3.000001e-01 -8.000002e-01 2.100000e+00
      vertex 2.850000e+00 -8.000002e-01 8.999999e-01
      vertex -3.000000e-01 -8.000002e-01 2.100000e+00
    endloop
  endfacet
  facet normal 0.000000e+00 1.000000e+00 0.000000e+00
    outer loop
      vertex -3.000000e-01 -8.000002e-01 2.100000e+00
      vertex 2.850000e+00 -8.000002e-01 8.999999e-01
      vertex -2.200000e+00 -8.000002e-01 2.100000e+00
    endloop
  endfacet
  facet normal 0.000000e+00 1.000000e+00 0.000000e+00
    outer loop
      vertex -3.000000e-01 -8.000002e-01 2.100000e+00
      vertex -2.200000e+00 -8.000002e-01 2.100000e+00
      vertex -3.000000e-01 -8.000002e-01 2.700000e+00
    endloop
  endfacet
  facet normal 0.000000e+00 1.000000e+00 0.000000e+00
    outer loop
      vertex -3.000000e-01 -8.000002e-01 2.700000e+00
      vertex -2.200000e+00 -8.000002e-01 2.100000e+00
      vertex -2.200000e+00 -8.000002e-01 2.700000e+00
    endloop
  endfacet
  facet normal 0.000000e+00 1.000000e+00 0.000000e+00
    outer loop
      vertex -3.000000e-01 -8.000002e-01 2.700000e+00
      vertex -2.200000e+00 -8.000002e-01 2.700000e+00
      vertex 3.800000e+00 -8.000002e-01 5.800000e+00
    endloop
  endfacet
  facet normal 0.000000e+00 1.000000e+00 0.000000e+00
    outer loop
      vertex 3.800000e+00 -8.000002e-01 5.800000e+00
      vertex -2.200000e+00 -8.000002e-01 2.700000e+00
      vertex -3.800000e+00 -8.000002e-01 5.800000e+00
    endloop
  endfacet
  facet normal 0.000000e+00 1.000000e+00 0.000000e+00
    outer loop
      vertex 3.800000e+00 -8.000002e-01 0.000000e+00
      vertex 2.850000e+00 -8.000002e-01 0.000000e+00
      vertex 2.850000e+00 -8.000002e-01 8.999999e-01
    endloop
  endfacet
  facet normal 0.000000e+00 1.000000e+00 0.000000e+00
    outer loop
      vertex 3.000001e-01 -8.000002e-01 2.100000e+00
      vertex 3.000001e-01 -8.000002e-01 2.700000e+00
      vertex 2.200000e+00 -8.000002e-01 2.700000e+00
    endloop
  endfacet
  facet normal 0.000000e+00 1.000000e+00 0.000000e+00
    outer loop
      vertex 2.200000e+00 -8.000002e-01 2.700000e+00
      vertex 3.000001e-01 -8.000002e-01 2.700000e+00
      vertex 3.800000e+00 -8.000002e-01 5.800000e+00
    endloop
  endfacet
  facet normal 0.000000e+00 1.000000e+00 0.000000e+00
    outer loop
      vertex 2.200000e+00 -8.000002e-01 2.700000e+00
      vertex 3.800000e+00 -8.000002e-01 5.800000e+00
      vertex 2.800000e+00 -8.000002e-01 2.700000e+00
    endloop
  endfacet
  facet normal 0.000000e+00 1.000000e+00 0.000000e+00
    outer loop
      vertex 2.800000e+00 -8.000002e-01 2.700000e+00
      vertex 3.800000e+00 -8.000002e-01 5.800000e+00
      vertex 3.800000e+00 -8.000002e-01 0.000000e+00
    endloop
  endfacet
  facet normal 0.000000e+00 1.000000e+00 0.000000e+00
    outer loop
      vertex 2.800000e+00 -8.000002e-01 2.700000e+00
      vertex 3.800000e+00 -8.000002e-01 0.000000e+00
      vertex 2.800000e+00 -8.000002e-01 2.100000e+00
    endloop
  endfacet
  facet normal 0.000000e+00 1.000000e+00 0.000000e+00
    outer loop
      vertex 2.800000e+00 -8.000002e-01 2.100000e+00
      vertex 3.800000e+00 -8.000002e-01 0.000000e+00
      vertex 2.850000e+00 -8.000002e-01 8.999999e-01
    endloop
  endfacet
  facet normal 0.000000e+00 1.000000e+00 0.000000e+00
    outer loop
      vertex 2.800000e+00 -8.000002e-01 2.100000e+00
      vertex 2.850000e+00 -8.000002e-01 8.999999e-01
      vertex 2.200000e+00 -8.000002e-01 2.100000e+00
    endloop
  endfacet
  facet normal 0.000000e+00 1.000000e+00 0.000000e+00
    outer loop
      vertex 2.200000e+00 -8.000002e-01 2.100000e+00
      vertex 2.850000e+00 -8.000002e-01 8.999999e-01
      vertex 3.000001e-01 -8.000002e-01 2.100000e+00
    endloop
  endfacet
  facet normal 0.000000e+00 1.000000e+00 0.000000e+00
    outer loop
      vertex 2.200000e+00 -8.000002e-01 2.100000e+00
      vertex 3.000001e-01 -8.000002e-01 2.100000e+00
      vertex 2.200000e+00 -8.000002e-01 2.700000e+00
    endloop
  endfacet
  facet normal 0.000000e+00 -1.000000e+00 0.000000e+00
    outer loop
      vertex -5.000001e-01 -4.000000e+00 5.800000e+00
      vertex -2.000000e+00 -4.000000e+00 5.800000e+00
      vertex -5.000001e-01 -4.000000e+00 0.000000e+00
    endloop
  endfacet
  facet normal 0.000000e+00 -1.000000e+00 0.000000e+00
    outer loop
      vertex -5.000001e-01 -4.000000e+00 0.000000e+00
      vertex -2.000000e+00 -4.000000e+00 5.800000e+00
      vertex -2.000000e+00 -4.000000e+00 0.000000e+00
    endloop
  endfacet
  facet normal -1.000000e+00 0.000000e+00 0.000000e+00
    outer loop
      vertex -2.850000e+00 6.900000e+00 0.000000e+00
      vertex -2.850000e+00 -8.000002e-01 0.000000e+00
      vertex -2.850000e+00 6.900000e+00 8.999999e-01
    endloop
  endfacet
  facet normal -1.000000e+00 0.000000e+00 0.000000e+00
    outer loop
      vertex -2.850000e+00 6.900000e+00 8.999999e-01
      vertex -2.850000e+00 -8.000002e-01 0.000000e+00
      vertex -2.850000e+00 -8.000002e-01 8.999999e-01
    endloop
  endfacet
  facet normal 0.000000e+00 0.000000e+00 1.000000e+00
    outer loop
      vertex 2.436824e+00 7.392404e+00 8.999999e-01
      vertex 2.350000e+00 7.400000e+00 8.999999e-01
      vertex 2.850000e+00 6.900000e+00 8.999999e-01
    endloop
  endfacet
  facet normal 0.000000e+00 0.000000e+00 1.000000e+00
    outer loop
      vertex 2.850000e+00 6.900000e+00 8.999999e-01
      vertex 2.350000e+00 7.400000e+00 8.999999e-01
      vertex 2.850000e+00 -8.000002e-01 8.999999e-01
    endloop
  endfacet
  facet normal 0.000000e+00 0.000000e+00 1.000000e+00
    outer loop
      vertex 2.850000e+00 -8.000002e-01 8.999999e-01
      vertex 2.350000e+00 7.400000e+00 8.999999e-01
      vertex -2.850000e+00 -8.000002e-01 8.999999e-01
    endloop
  endfacet
  facet normal 0.000000e+00 0.000000e+00 1.000000e+00
    outer loop
      vertex -2.850000e+00 -8.000002e-01 8.999999e-01
      vertex 2.350000e+00 7.400000e+00 8.999999e-01
      vertex -2.350000e+00 7.400000e+00 8.999999e-01
    endloop
  endfacet
  facet normal 0.000000e+00 0.000000e+00 1.000000e+00
    outer loop
      vertex -2.850000e+00 -8.000002e-01 8.999999e-01
      vertex -2.350000e+00 7.400000e+00 8.999999e-01
      vertex -2.850000e+00 6.900000e+00 8.999999e-01
    endloop
  endfacet
  facet normal 0.000000e+00 0.000000e+00 1.000000e+00
    outer loop
      vertex 2.819847e+00 7.071010e+00 8.999999e-01
      vertex 2.783013e+00 7.149999e+00 8.999999e-01
      vertex 2.521010e+00 7.369847e+00 8.999999e-01
    endloop
  endfacet
  facet normal 0.000000e+00 0.000000e+00 1.000000e+00
    outer loop
      vertex 2.436824e+00 7.392404e+00 8.999999e-01
      vertex 2.850000e+00 6.900000e+00 8.999999e-01
      vertex 2.521010e+00 7.369847e+00 8.999999e-01
    endloop
  endfacet
  facet normal 0.000000e+00 0.000000e+00 1.000000e+00
    outer loop
      vertex 2.521010e+00 7.369847e+00 8.999999e-01
      vertex 2.850000e+00 6.900000e+00 8.999999e-01
      vertex 2.842404e+00 6.986825e+00 8.999999e-01
    endloop
  endfacet
  facet normal 0.000000e+00 0.000000e+00 1.000000e+00
    outer loop
      vertex 2.521010e+00 7.369847e+00 8.999999e-01
      vertex 2.842404e+00 6.986825e+00 8.999999e-01
      vertex 2.819847e+00 7.071010e+00 8.999999e-01
    endloop
  endfacet
  facet normal 0.000000e+00 0.000000e+00 1.000000e+00
    outer loop
      vertex 2.783013e+00 7.149999e+00 8.999999e-01
      vertex 2.733022e+00 7.221394e+00 8.999999e-01
      vertex 2.521010e+00 7.369847e+00 8.999999e-01
    endloop
  endfacet
  facet normal 0.000000e+00 0.000000e+00 1.000000e+00
    outer loop
      vertex 2.521010e+00 7.369847e+00 8.999999e-01
      vertex 2.733022e+00 7.221394e+00 8.999999e-01
      vertex 2.671394e+00 7.283022e+00 8.999999e-01
    endloop
  endfacet
  facet normal 0.000000e+00 0.000000e+00 1.000000e+00
    outer loop
      vertex 2.521010e+00 7.369847e+00 8.999999e-01
      vertex 2.671394e+00 7.283022e+00 8.999999e-01
      vertex 2.600000e+00 7.333013e+00 8.999999e-01
    endloop
  endfacet
  facet normal 0.000000e+00 0.000000e+00 1.000000e+00
    outer loop
      vertex -2.350000e+00 7.400000e+00 8.999999e-01
      vertex -2.436824e+00 7.392404e+00 8.999999e-01
      vertex -2.850000e+00 6.900000e+00 8.999999e-01
    endloop
  endfacet
  facet normal 0.000000e+00 0.000000e+00 1.000000e+00
    outer loop
      vertex -2.850000e+00 6.900000e+00 8.999999e-01
      vertex -2.436824e+00 7.392404e+00 8.999999e-01
      vertex -2.521010e+00 7.369847e+00 8.999999e-01
    endloop
  endfacet
  facet normal 0.000000e+00 0.000000e+00 1.000000e+00
    outer loop
      vertex -2.850000e+00 6.900000e+00 8.999999e-01
      vertex -2.521010e+00 7.369847e+00 8.999999e-01
      vertex -2.600000e+00 7.333013e+00 8.999999e-01
    endloop
  endfacet
  facet normal 0.000000e+00 0.000000e+00 1.000000e+00
    outer loop
      vertex -2.600000e+00 7.333013e+00 8.999999e-01
      vertex -2.671394e+00 7.283022e+00 8.999999e-01
      vertex -2.850000e+00 6.900000e+00 8.999999e-01
    endloop
  endfacet
  facet normal 0.000000e+00 0.000000e+00 1.000000e+00
    outer loop
      vertex -2.850000e+00 6.900000e+00 8.999999e-01
      vertex -2.671394e+00 7.283022e+00 8.999999e-01
      vertex -2.733022e+00 7.221394e+00 8.999999e-01
    endloop
  endfacet
  facet normal 0.000000e+00 0.000000e+00 1.000000e+00
    outer loop
      vertex -2.850000e+00 6.900000e+00 8.999999e-01
      vertex -2.733022e+00 7.221394e+00 8.999999e-01
      vertex -2.842404e+00 6.986825e+00 8.999999e-01
    endloop
  endfacet
  facet normal 0.000000e+00 0.000000e+00 1.000000e+00
    outer loop
      vertex -2.842404e+00 6.986825e+00 8.999999e-01
      vertex -2.733022e+00 7.221394e+00 8.999999e-01
      vertex -2.783013e+00 7.149999e+00 8.999999e-01
    endloop
  endfacet
  facet normal 0.000000e+00 0.000000e+00 1.000000e+00
    outer loop
      vertex -2.842404e+00 6.986825e+00 8.999999e-01
      vertex -2.783013e+00 7.149999e+00 8.999999e-01
      vertex -2.819846e+00 7.071010e+00 8.999999e-01
    endloop
  endfacet
  facet normal 1.000000e+00 0.000000e+00 0.000000e+00
    outer loop
      vertex 2.850000e+00 6.900000e+00 8.999999e-01
      vertex 2.850000e+00 -8.000002e-01 8.999999e-01
      vertex 2.850000e+00 6.900000e+00 0.000000e+00
    endloop
  endfacet
  facet normal 1.000000e+00 0.000000e+00 0.000000e+00
    outer loop
      vertex 2.850000e+00 6.900000e+00 0.000000e+00
      vertex 2.850000e+00 -8.000002e-01 8.999999e-01
      vertex 2.850000e+00 -8.000002e-01 0.000000e+00
    endloop
  endfacet
  facet normal 0.000000e+00 1.000000e+00 0.000000e+00
    outer loop
      vertex -2.350000e+00 7.400000e+00 8.999999e-01
      vertex 2.350000e+00 7.400000e+00 8.999999e-01
      vertex -2.350000e+00 7.400000e+00 0.000000e+00
    endloop
  endfacet
  facet normal 0.000000e+00 1.000000e+00 0.000000e+00
    outer loop
      vertex -2.350000e+00 7.400000e+00 0.000000e+00
      vertex 2.350000e+00 7.400000e+00 8.999999e-01
      vertex 2.350000e+00 7.400000e+00 0.000000e+00
    endloop
  endfacet
  facet normal 1.000000e+00 0.000000e+00 7.477255e-17
    outer loop
      vertex -3.000000e+00 -3.000000e+00 0.000000e+00
      vertex -3.000000e+00 -3.000000e+00 5.800000e+00
      vertex -3.000000e+00 -4.000000e+00 0.000000e+00
    endloop
  endfacet
  facet normal 1.000000e+00 0.000000e+00 7.477255e-17
    outer loop
      vertex -3.000000e+00 -4.000000e+00 0.000000e+00
      vertex -3.000000e+00 -3.000000e+00 5.800000e+00
      vertex -3.000000e+00 -4.000000e+00 5.800000e+00
    endloop
  endfacet
  facet normal -1.000000e+00 0.000000e+00 7.477255e-17
    outer loop
      vertex -2.000000e+00 -3.000000e+00 5.800000e+00
      vertex -2.000000e+00 -3.000000e+00 0.000000e+00
      vertex -2.000000e+00 -4.000000e+00 5.800000e+00
    endloop
  endfacet
  facet normal -1.000000e+00 0.000000e+00 7.477255e-17
    outer loop
      vertex -2.000000e+00 -4.000000e+00 5.800000e+00
      vertex -2.000000e+00 -3.000000e+00 0.000000e+00
      vertex -2.000000e+00 -4.000000e+00 0.000000e+00
    endloop
  endfacet
  facet normal 0.000000e+00 -1.000000e+00 0.000000e+00
    outer loop
      vertex -2.800000e+00 -3.000000e+00 2.700000e+00
      vertex -3.000000e+00 -3.000000e+00 0.000000e+00
      vertex -2.800000e+00 -3.000000e+00 2.100000e+00
    endloop
  endfacet
  facet normal 0.000000e+00 -1.000000e+00 0.000000e+00
    outer loop
      vertex -2.800000e+00 -3.000000e+00 2.100000e+00
      vertex -3.000000e+00 -3.000000e+00 0.000000e+00
      vertex -2.000000e+00 -3.000000e+00 0.000000e+00
    endloop
  endfacet
  facet normal 0.000000e+00 -1.000000e+00 0.000000e+00
    outer loop
      vertex -2.800000e+00 -3.000000e+00 2.100000e+00
      vertex -2.000000e+00 -3.000000e+00 0.000000e+00
      vertex -2.200000e+00 -3.000000e+00 2.100000e+00
    endloop
  endfacet
  facet normal 0.000000e+00 -1.000000e+00 0.000000e+00
    outer loop
      vertex -2.200000e+00 -3.000000e+00 2.100000e+00
      vertex -2.000000e+00 -3.000000e+00 0.000000e+00
      vertex -2.200000e+00 -3.000000e+00 2.700000e+00
    endloop
  endfacet
  facet normal 0.000000e+00 -1.000000e+00 0.000000e+00
    outer loop
      vertex -2.200000e+00 -3.000000e+00 2.700000e+00
      vertex -2.000000e+00 -3.000000e+00 0.000000e+00
      vertex -2.000000e+00 -3.000000e+00 5.800000e+00
    endloop
  endfacet
  facet normal 0.000000e+00 -1.000000e+00 0.000000e+00
    outer loop
      vertex -2.200000e+00 -3.000000e+00 2.700000e+00
      vertex -2.000000e+00 -3.000000e+00 5.800000e+00
      vertex -2.800000e+00 -3.000000e+00 2.700000e+00
    endloop
  endfacet
  facet normal 0.000000e+00 -1.000000e+00 0.000000e+00
    outer loop
      vertex -2.800000e+00 -3.000000e+00 2.700000e+00
      vertex -2.000000e+00 -3.000000e+00 5.800000e+00
      vertex -3.000000e+00 -3.000000e+00 5.800000e+00
    endloop
  endfacet
  facet normal 0.000000e+00 -1.000000e+00 0.000000e+00
    outer loop
      vertex -2.800000e+00 -3.000000e+00 2.700000e+00
      vertex -3.000000e+00 -3.000000e+00 5.800000e+00
      vertex -3.000000e+00 -3.000000e+00 0.000000e+00
    endloop
  endfacet
  facet normal -1.000000e+00 0.000000e+00 0.000000e+00
    outer loop
      vertex 4.999999e-01 -3.000000e+00 5.800000e+00
      vertex 4.999999e-01 -3.000000e+00 0.000000e+00
      vertex 4.999999e-01 -4.000000e+00 5.800000e+00
    endloop
  endfacet
  facet normal -1.000000e+00 0.000000e+00 0.000000e+00
    outer loop
      vertex 4.999999e-01 -4.000000e+00 5.800000e+00
      vertex 4.999999e-01 -3.000000e+00 0.000000e+00
      vertex 4.999999e-01 -4.000000e+00 0.000000e+00
    endloop
  endfacet
  facet normal 1.000000e+00 0.000000e+00 0.000000e+00
    outer loop
      vertex -5.000001e-01 -3.000000e+00 0.000000e+00
      vertex -5.000001e-01 -3.000000e+00 5.800000e+00
      vertex -5.000001e-01 -4.000000e+00 0.000000e+00
    endloop
  endfacet
  facet normal 1.000000e+00 0.000000e+00 0.000000e+00
    outer loop
      vertex -5.000001e-01 -4.000000e+00 0.000000e+00
      vertex -5.000001e-01 -3.000000e+00 5.800000e+00
      vertex -5.000001e-01 -4.000000e+00 5.800000e+00
    endloop
  endfacet
  facet normal 0.000000e+00 -1.000000e+00 0.000000e+00
    outer loop
      vertex -5.000001e-01 -3.000000e+00 0.000000e+00
      vertex -3.000000e-01 -3.000000e+00 2.100000e+00
      vertex -3.000000e-01 -3.000000e+00 2.700000e+00
    endloop
  endfacet
  facet normal 0.000000e+00 -1.000000e+00 0.000000e+00
    outer loop
      vertex -3.000000e-01 -3.000000e+00 2.100000e+00
      vertex -5.000001e-01 -3.000000e+00 0.000000e+00
      vertex 3.000001e-01 -3.000000e+00 2.100000e+00
    endloop
  endfacet
  facet normal 0.000000e+00 -1.000000e+00 0.000000e+00
    outer loop
      vertex 3.000001e-01 -3.000000e+00 2.100000e+00
      vertex -5.000001e-01 -3.000000e+00 0.000000e+00
      vertex 4.999999e-01 -3.000000e+00 0.000000e+00
    endloop
  endfacet
  facet normal 0.000000e+00 -1.000000e+00 0.000000e+00
    outer loop
      vertex 3.000001e-01 -3.000000e+00 2.100000e+00
      vertex 4.999999e-01 -3.000000e+00 0.000000e+00
      vertex 3.000001e-01 -3.000000e+00 2.700000e+00
    endloop
  endfacet
  facet normal 0.000000e+00 -1.000000e+00 0.000000e+00
    outer loop
      vertex 3.000001e-01 -3.000000e+00 2.700000e+00
      vertex 4.999999e-01 -3.000000e+00 0.000000e+00
      vertex 4.999999e-01 -3.000000e+00 5.800000e+00
    endloop
  endfacet
  facet normal 0.000000e+00 -1.000000e+00 0.000000e+00
    outer loop
      vertex 3.000001e-01 -3.000000e+00 2.700000e+00
      vertex 4.999999e-01 -3.000000e+00 5.800000e+00
      vertex -3.000000e-01 -3.000000e+00 2.700000e+00
    endloop
  endfacet
  facet normal 0.000000e+00 -1.000000e+00 0.000000e+00
    outer loop
      vertex -3.000000e-01 -3.000000e+00 2.700000e+00
      vertex 4.999999e-01 -3.000000e+00 5.800000e+00
      vertex -5.000001e-01 -3.000000e+00 5.800000e+00
    endloop
  endfacet
  facet normal 0.000000e+00 -1.000000e+00 0.000000e+00
    outer loop
      vertex -3.000000e-01 -3.000000e+00 2.700000e+00
      vertex -5.000001e-01 -3.000000e+00 5.800000e+00
      vertex -5.000001e-01 -3.000000e+00 0.000000e+00
    endloop
  endfacet
  facet normal 1.000000e+00 0.000000e+00 0.000000e+00
    outer loop
      vertex 2.000000e+00 -3.000000e+00 0.000000e+00
      vertex 2.000000e+00 -3.000000e+00 5.800000e+00
      vertex 2.000000e+00 -4.000000e+00 0.000000e+00
    endloop
  endfacet
  facet normal 1.000000e+00 0.000000e+00 0.000000e+00
    outer loop
      vertex 2.000000e+00 -4.000000e+00 0.000000e+00
      vertex 2.000000e+00 -3.000000e+00 5.800000e+00
      vertex 2.000000e+00 -4.000000e+00 5.800000e+00
    endloop
  endfacet
  facet normal -1.000000e+00 0.000000e+00 0.000000e+00
    outer loop
      vertex 3.000000e+00 -3.000000e+00 5.800000e+00
      vertex 3.000000e+00 -3.000000e+00 0.000000e+00
      vertex 3.000000e+00 -4.000000e+00 5.800000e+00
    endloop
  endfacet
  facet normal -1.000000e+00 0.000000e+00 0.000000e+00
    outer loop
      vertex 3.000000e+00 -4.000000e+00 5.800000e+00
      vertex 3.000000e+00 -3.000000e+00 0.000000e+00
      vertex 3.000000e+00 -4.000000e+00 0.000000e+00
    endloop
  endfacet
  facet normal 0.000000e+00 -1.000000e+00 0.000000e+00
    outer loop
      vertex 2.000000e+00 -3.000000e+00 0.000000e+00
      vertex 2.200000e+00 -3.000000e+00 2.100000e+00
      vertex 2.200000e+00 -3.000000e+00 2.700000e+00
    endloop
  endfacet
  facet normal 0.000000e+00 -1.000000e+00 0.000000e+00
    outer loop
      vertex 2.200000e+00 -3.000000e+00 2.100000e+00
      vertex 2.000000e+00 -3.000000e+00 0.000000e+00
      vertex 2.800000e+00 -3.000000e+00 2.100000e+00
    endloop
  endfacet
  facet normal 0.000000e+00 -1.000000e+00 0.000000e+00
    outer loop
      vertex 2.800000e+00 -3.000000e+00 2.100000e+00
      vertex 2.000000e+00 -3.000000e+00 0.000000e+00
      vertex 3.000000e+00 -3.000000e+00 0.000000e+00
    endloop
  endfacet
  facet normal 0.000000e+00 -1.000000e+00 0.000000e+00
    outer loop
      vertex 2.800000e+00 -3.000000e+00 2.100000e+00
      vertex 3.000000e+00 -3.000000e+00 0.000000e+00
      vertex 2.800000e+00 -3.000000e+00 2.700000e+00
    endloop
  endfacet
  facet normal 0.000000e+00 -1.000000e+00 0.000000e+00
    outer loop
      vertex 2.800000e+00 -3.000000e+00 2.700000e+00
      vertex 3.000000e+00 -3.000000e+00 0.000000e+00
      vertex 3.000000e+00 -3.000000e+00 5.800000e+00
    endloop
  endfacet
  facet normal 0.000000e+00 -1.000000e+00 0.000000e+00
    outer loop
      vertex 2.800000e+00 -3.000000e+00 2.700000e+00
      vertex 3.000000e+00 -3.000000e+00 5.800000e+00
      vertex 2.200000e+00 -3.000000e+00 2.700000e+00
    endloop
  endfacet
  facet normal 0.000000e+00 -1.000000e+00 0.000000e+00
    outer loop
      vertex 2.200000e+00 -3.000000e+00 2.700000e+00
      vertex 3.000000e+00 -3.000000e+00 5.800000e+00
      vertex 2.000000e+00 -3.000000e+00 5.800000e+00
    endloop
  endfacet
  facet normal 0.000000e+00 -1.000000e+00 0.000000e+00
    outer loop
      vertex 2.200000e+00 -3.000000e+00 2.700000e+00
      vertex 2.000000e+00 -3.000000e+00 5.800000e+00
      vertex 2.000000e+00 -3.000000e+00 0.000000e+00
    endloop
  endfacet
  facet normal 0.000000e+00 -1.000000e+00 0.000000e+00
    outer loop
      vertex -2.200000e+00 -7.400000e+00 2.100000e+00
      vertex -2.200000e+00 -7.400000e+00 2.700000e+00
      vertex -2.800000e+00 -7.400000e+00 2.100000e+00
    endloop
  endfacet
  facet normal 0.000000e+00 -1.000000e+00 0.000000e+00
    outer loop
      vertex -2.800000e+00 -7.400000e+00 2.100000e+00
      vertex -2.200000e+00 -7.400000e+00 2.700000e+00
      vertex -2.800000e+00 -7.400000e+00 2.700000e+00
    endloop
  endfacet
  facet normal 3.614007e-16 0.000000e+00 -1.000000e+00
    outer loop
      vertex -2.200000e+00 -7.400000e+00 2.100000e+00
      vertex -2.800000e+00 -7.400000e+00 2.100000e+00
      vertex -2.200000e+00 -3.000000e+00 2.100000e+00
    endloop
  endfacet
  facet normal 3.614007e-16 0.000000e+00 -1.000000e+00
    outer loop
      vertex -2.200000e+00 -3.000000e+00 2.100000e+00
      vertex -2.800000e+00 -7.400000e+00 2.100000e+00
      vertex -2.800000e+00 -3.000000e+00 2.100000e+00
    endloop
  endfacet
  facet normal 1.000000e+00 0.000000e+00 0.000000e+00
    outer loop
      vertex -2.200000e+00 -7.400000e+00 2.700000e+00
      vertex -2.200000e+00 -7.400000e+00 2.100000e+00
      vertex -2.200000e+00 -3.000000e+00 2.700000e+00
    endloop
  endfacet
  facet normal 1.000000e+00 0.000000e+00 0.000000e+00
    outer loop
      vertex -2.200000e+00 -3.000000e+00 2.700000e+00
      vertex -2.200000e+00 -7.400000e+00 2.100000e+00
      vertex -2.200000e+00 -3.000000e+00 2.100000e+00
    endloop
  endfacet
  facet normal 0.000000e+00 0.000000e+00 1.000000e+00
    outer loop
      vertex -2.800000e+00 -7.400000e+00 2.700000e+00
      vertex -2.200000e+00 -7.400000e+00 2.700000e+00
      vertex -2.800000e+00 -3.000000e+00 2.700000e+00
    endloop
  endfacet
  facet normal 0.000000e+00 0.000000e+00 1.000000e+00
    outer loop
      vertex -2.800000e+00 -3.000000e+00 2.700000e+00
      vertex -2.200000e+00 -7.400000e+00 2.700000e+00
      vertex -2.200000e+00 -3.000000e+00 2.700000e+00
    endloop
  endfacet
  facet normal -1.000000e+00 0.000000e+00 0.000000e+00
    outer loop
      vertex -2.800000e+00 -7.400000e+00 2.100000e+00
      vertex -2.800000e+00 -7.400000e+00 2.700000e+00
      vertex -2.800000e+00 -3.000000e+00 2.100000e+00
    endloop
  endfacet
  facet normal -1.000000e+00 0.000000e+00 0.000000e+00
    outer loop
      vertex -2.800000e+00 -3.000000e+00 2.100000e+00
      vertex -2.800000e+00 -7.400000e+00 2.700000e+00
      vertex -2.800000e+00 -3.000000e+00 2.700000e+00
    endloop
  endfacet
  facet normal -1.000000e+00 0.000000e+00 0.000000e+00
    outer loop
      vertex -2.800000e+00 -8.000002e-01 2.700000e+00
      vertex -2.800000e+00 7.000000e+00 2.700000e+00
      vertex -2.800000e+00 -8.000002e-01 2.100000e+00
    endloop
  endfacet
  facet normal -1.000000e+00 0.000000e+00 0.000000e+00
    outer loop
      vertex -2.800000e+00 -8.000002e-01 2.100000e+00
      vertex -2.800000e+00 7.000000e+00 2.700000e+00
      vertex -2.800000e+00 7.000000e+00 2.100000e+00
    endloop
  endfacet
  facet normal 0.000000e+00 0.000000e+00 1.000000e+00
    outer loop
      vertex -2.200000e+00 -8.000002e-01 2.700000e+00
      vertex -2.200000e+00 7.000000e+00 2.700000e+00
      vertex -2.800000e+00 -8.000002e-01 2.700000e+00
    endloop
  endfacet
  facet normal 0.000000e+00 0.000000e+00 1.000000e+00
    outer loop
      vertex -2.800000e+00 -8.000002e-01 2.700000e+00
      vertex -2.200000e+00 7.000000e+00 2.700000e+00
      vertex -2.800000e+00 7.000000e+00 2.700000e+00
    endloop
  endfacet
  facet normal 1.000000e+00 0.000000e+00 0.000000e+00
    outer loop
      vertex -2.200000e+00 -8.000002e-01 2.100000e+00
      vertex -2.200000e+00 7.000000e+00 2.100000e+00
      vertex -2.200000e+00 -8.000002e-01 2.700000e+00
    endloop
  endfacet
  facet normal 1.000000e+00 0.000000e+00 0.000000e+00
    outer loop
      vertex -2.200000e+00 -8.000002e-01 2.700000e+00
      vertex -2.200000e+00 7.000000e+00 2.100000e+00
      vertex -2.200000e+00 7.000000e+00 2.700000e+00
    endloop
  endfacet
  facet normal 3.614007e-16 0.000000e+00 -1.000000e+00
    outer loop
      vertex -2.800000e+00 -8.000002e-01 2.100000e+00
      vertex -2.800000e+00 7.000000e+00 2.100000e+00
      vertex -2.200000e+00 -8.000002e-01 2.100000e+00
    endloop
  endfacet
  facet normal 3.614007e-16 0.000000e+00 -1.000000e+00
    outer loop
      vertex -2.200000e+00 -8.000002e-01 2.100000e+00
      vertex -2.800000e+00 7.000000e+00 2.100000e+00
      vertex -2.200000e+00 7.000000e+00 2.100000e+00
    endloop
  endfacet
  facet normal 0.000000e+00 1.000000e+00 0.000000e+00
    outer loop
      vertex -2.200000e+00 7.000000e+00 2.700000e+00
      vertex -2.200000e+00 7.000000e+00 2.100000e+00
      vertex -2.800000e+00 7.000000e+00 2.700000e+00
    endloop
  endfacet
  facet normal 0.000000e+00 1.000000e+00 0.000000e+00
    outer loop
      vertex -2.800000e+00 7.000000e+00 2.700000e+00
      vertex -2.200000e+00 7.000000e+00 2.100000e+00
      vertex -2.800000e+00 7.000000e+00 2.100000e+00
    endloop
  endfacet
  facet normal 0.000000e+00 -1.000000e+00 0.000000e+00
    outer loop
      vertex 3.000001e-01 -7.400000e+00 2.100000e+00
      vertex 3.000001e-01 -7.400000e+00 2.700000e+00
      vertex -3.000000e-01 -7.400000e+00 2.100000e+00
    endloop
  endfacet
  facet normal 0.000000e+00 -1.000000e+00 0.000000e+00
    outer loop
      vertex -3.000000e-01 -7.400000e+00 2.100000e+00
      vertex 3.000001e-01 -7.400000e+00 2.700000e+00
      vertex -3.000000e-01 -7.400000e+00 2.700000e+00
    endloop
  endfacet
  facet normal 0.000000e+00 0.000000e+00 -1.000000e+00
    outer loop
      vertex 3.000001e-01 -3.000000e+00 2.100000e+00
      vertex 3.000001e-01 -7.400000e+00 2.100000e+00
      vertex -3.000000e-01 -3.000000e+00 2.100000e+00
    endloop
  endfacet
  facet normal 0.000000e+00 0.000000e+00 -1.000000e+00
    outer loop
      vertex -3.000000e-01 -3.000000e+00 2.100000e+00
      vertex 3.000001e-01 -7.400000e+00 2.100000e+00
      vertex -3.000000e-01 -7.400000e+00 2.100000e+00
    endloop
  endfacet
  facet normal 1.000000e+00 0.000000e+00 1.807004e-16
    outer loop
      vertex 3.000001e-01 -3.000000e+00 2.700000e+00
      vertex 3.000001e-01 -7.400000e+00 2.700000e+00
      vertex 3.000001e-01 -3.000000e+00 2.100000e+00
    endloop
  endfacet
  facet normal 1.000000e+00 0.000000e+00 1.807004e-16
    outer loop
      vertex 3.000001e-01 -3.000000e+00 2.100000e+00
      vertex 3.000001e-01 -7.400000e+00 2.700000e+00
      vertex 3.000001e-01 -7.400000e+00 2.100000e+00
    endloop
  endfacet
  facet normal 0.000000e+00 0.000000e+00 1.000000e+00
    outer loop
      vertex -3.000000e-01 -3.000000e+00 2.700000e+00
      vertex -3.000000e-01 -7.400000e+00 2.700000e+00
      vertex 3.000001e-01 -3.000000e+00 2.700000e+00
    endloop
  endfacet
  facet normal 0.000000e+00 0.000000e+00 1.000000e+00
    outer loop
      vertex 3.000001e-01 -3.000000e+00 2.700000e+00
      vertex -3.000000e-01 -7.400000e+00 2.700000e+00
      vertex 3.000001e-01 -7.400000e+00 2.700000e+00
    endloop
  endfacet
  facet normal -1.000000e+00 0.000000e+00 -2.710505e-16
    outer loop
      vertex -3.000000e-01 -3.000000e+00 2.100000e+00
      vertex -3.000000e-01 -7.400000e+00 2.100000e+00
      vertex -3.000000e-01 -3.000000e+00 2.700000e+00
    endloop
  endfacet
  facet normal -1.000000e+00 0.000000e+00 -2.710505e-16
    outer loop
      vertex -3.000000e-01 -3.000000e+00 2.700000e+00
      vertex -3.000000e-01 -7.400000e+00 2.100000e+00
      vertex -3.000000e-01 -7.400000e+00 2.700000e+00
    endloop
  endfacet
  facet normal -1.000000e+00 0.000000e+00 -2.710505e-16
    outer loop
      vertex -3.000000e-01 -8.000002e-01 2.700000e+00
      vertex -3.000000e-01 7.000000e+00 2.700000e+00
      vertex -3.000000e-01 -8.000002e-01 2.100000e+00
    endloop
  endfacet
  facet normal -1.000000e+00 0.000000e+00 -2.710505e-16
    outer loop
      vertex -3.000000e-01 -8.000002e-01 2.100000e+00
      vertex -3.000000e-01 7.000000e+00 2.700000e+00
      vertex -3.000000e-01 7.000000e+00 2.100000e+00
    endloop
  endfacet
  facet normal 0.000000e+00 0.000000e+00 1.000000e+00
    outer loop
      vertex 3.000001e-01 -8.000002e-01 2.700000e+00
      vertex 3.000001e-01 7.000000e+00 2.700000e+00
      vertex -3.000000e-01 -8.000002e-01 2.700000e+00
    endloop
  endfacet
  facet normal 0.000000e+00 0.000000e+00 1.000000e+00
    outer loop
      vertex -3.000000e-01 -8.000002e-01 2.700000e+00
      vertex 3.000001e-01 7.000000e+00 2.700000e+00
      vertex -3.000000e-01 7.000000e+00 2.700000e+00
    endloop
  endfacet
  facet normal 1.000000e+00 0.000000e+00 1.807004e-16
    outer loop
      vertex 3.000001e-01 -8.000002e-01 2.100000e+00
      vertex 3.000001e-01 7.000000e+00 2.100000e+00
      vertex 3.000001e-01 -8.000002e-01 2.700000e+00
    endloop
  endfacet
  facet normal 1.000000e+00 0.000000e+00 1.807004e-16
    outer loop
      vertex 3.000001e-01 -8.000002e-01 2.700000e+00
      vertex 3.000001e-01 7.000000e+00 2.100000e+00
      vertex 3.000001e-01 7.000000e+00 2.700000e+00
    endloop
  endfacet
  facet normal 0.000000e+00 0.000000e+00 -1.000000e+00
    outer loop
      vertex -3.000000e-01 -8.000002e-01 2.100000e+00
      vertex -3.000000e-01 7.000000e+00 2.100000e+00
      vertex 3.000001e-01 -8.000002e-01 2.100000e+00
    endloop
  endfacet
  facet normal 0.000000e+00 0.000000e+00 -1.000000e+00
    outer loop
      vertex 3.000001e-01 -8.000002e-01 2.100000e+00
      vertex -3.000000e-01 7.000000e+00 2.100000e+00
      vertex 3.000001e-01 7.000000e+00 2.100000e+00
    endloop
  endfacet
  facet normal 0.000000e+00 1.000000e+00 0.000000e+00
    outer loop
      vertex 3.000001e-01 7.000000e+00 2.700000e+00
      vertex 3.000001e-01 7.000000e+00 2.100000e+00
      vertex -3.000000e-01 7.000000e+00 2.700000e+00
    endloop
  endfacet
  facet normal 0.000000e+00 1.000000e+00 0.000000e+00
    outer loop
      vertex -3.000000e-01 7.000000e+00 2.700000e+00
      vertex 3.000001e-01 7.000000e+00 2.100000e+00
      vertex -3.000000e-01 7.000000e+00 2.100000e+00
    endloop
  endfacet
  facet normal 0.000000e+00 -1.000000e+00 0.000000e+00
    outer loop
      vertex 2.200000e+00 -7.400000e+00 2.700000e+00
      vertex 2.200000e+00 -7.400000e+00 2.100000e+00
      vertex 2.800000e+00 -7.400000e+00 2.700000e+00
    endloop
  endfacet
  facet normal 0.000000e+00 -1.000000e+00 0.000000e+00
    outer loop
      vertex 2.800000e+00 -7.400000e+00 2.700000e+00
      vertex 2.200000e+00 -7.400000e+00 2.100000e+00
      vertex 2.800000e+00 -7.400000e+00 2.100000e+00
    endloop
  endfacet
  facet normal 0.000000e+00 0.000000e+00 1.000000e+00
    outer loop
      vertex 2.200000e+00 -7.400000e+00 2.700000e+00
      vertex 2.800000e+00 -7.400000e+00 2.700000e+00
      vertex 2.200000e+00 -3.000000e+00 2.700000e+00
    endloop
  endfacet
  facet normal 0.000000e+00 0.000000e+00 1.000000e+00
    outer loop
      vertex 2.200000e+00 -3.000000e+00 2.700000e+00
      vertex 2.800000e+00 -7.400000e+00 2.700000e+00
      vertex 2.800000e+00 -3.000000e+00 2.700000e+00
    endloop
  endfacet
  facet normal -1.000000e+00 0.000000e+00 0.000000e+00
    outer loop
      vertex 2.200000e+00 -7.400000e+00 2.100000e+00
      vertex 2.200000e+00 -7.400000e+00 2.700000e+00
      vertex 2.200000e+00 -3.000000e+00 2.100000e+00
    endloop
  endfacet
  facet normal -1.000000e+00 0.000000e+00 0.000000e+00
    outer loop
      vertex 2.200000e+00 -3.000000e+00 2.100000e+00
      vertex 2.200000e+00 -7.400000e+00 2.700000e+00
      vertex 2.200000e+00 -3.000000e+00 2.700000e+00
    endloop
  endfacet
  facet normal 0.000000e+00 0.000000e+00 -1.000000e+00
    outer loop
      vertex 2.800000e+00 -7.400000e+00 2.100000e+00
      vertex 2.200000e+00 -7.400000e+00 2.100000e+00
      vertex 2.800000e+00 -3.000000e+00 2.100000e+00
    endloop
  endfacet
  facet normal 0.000000e+00 0.000000e+00 -1.000000e+00
    outer loop
      vertex 2.800000e+00 -3.000000e+00 2.100000e+00
      vertex 2.200000e+00 -7.400000e+00 2.100000e+00
      vertex 2.200000e+00 -3.000000e+00 2.100000e+00
    endloop
  endfacet
  facet normal 1.000000e+00 0.000000e+00 -7.228014e-16
    outer loop
      vertex 2.800000e+00 -7.400000e+00 2.700000e+00
      vertex 2.800000e+00 -7.400000e+00 2.100000e+00
      vertex 2.800000e+00 -3.000000e+00 2.700000e+00
    endloop
  endfacet
  facet normal 1.000000e+00 0.000000e+00 -7.228014e-16
    outer loop
      vertex 2.800000e+00 -3.000000e+00 2.700000e+00
      vertex 2.800000e+00 -7.400000e+00 2.100000e+00
      vertex 2.800000e+00 -3.000000e+00 2.100000e+00
    endloop
  endfacet
  facet normal 1.000000e+00 0.000000e+00 -7.228014e-16
    outer loop
      vertex 2.800000e+00 -8.000002e-01 2.100000e+00
      vertex 2.800000e+00 7.000000e+00 2.100000e+00
      vertex 2.800000e+00 -8.000002e-01 2.700000e+00
    endloop
  endfacet
  facet normal 1.000000e+00 0.000000e+00 -7.228014e-16
    outer loop
      vertex 2.800000e+00 -8.000002e-01 2.700000e+00
      vertex 2.800000e+00 7.000000e+00 2.100000e+00
      vertex 2.800000e+00 7.000000e+00 2.700000e+00
    endloop
  endfacet
  facet normal 0.000000e+00 0.000000e+00 -1.000000e+00
    outer loop
      vertex 2.200000e+00 -8.000002e-01 2.100000e+00
      vertex 2.200000e+00 7.000000e+00 2.100000e+00
      vertex 2.800000e+00 -8.000002e-01 2.100000e+00
    endloop
  endfacet
  facet normal 0.000000e+00 0.000000e+00 -1.000000e+00
    outer loop
      vertex 2.800000e+00 -8.000002e-01 2.100000e+00
      vertex 2.200000e+00 7.000000e+00 2.100000e+00
      vertex 2.800000e+00 7.000000e+00 2.100000e+00
    endloop
  endfacet
  facet normal -1.000000e+00 0.000000e+00 0.000000e+00
    outer loop
      vertex 2.200000e+00 -8.000002e-01 2.700000e+00
      vertex 2.200000e+00 7.000000e+00 2.700000e+00
      vertex 2.200000e+00 -8.000002e-01 2.100000e+00
    endloop
  endfacet
  facet normal -1.000000e+00 0.000000e+00 0.000000e+00
    outer loop
      vertex 2.200000e+00 -8.000002e-01 2.100000e+00
      vertex 2.200000e+00 7.000000e+00 2.700000e+00
      vertex 2.200000e+00 7.000000e+00 2.100000e+00
    endloop
  endfacet
  facet normal 0.000000e+00 0.000000e+00 1.000000e+00
    outer loop
      vertex 2.800000e+00 -8.000002e-01 2.700000e+00
      vertex 2.800000e+00 7.000000e+00 2.700000e+00
      vertex 2.200000e+00 -8.000002e-01 2.700000e+00
    endloop
  endfacet
  facet normal 0.000000e+00 0.000000e+00 1.000000e+00
    outer loop
      vertex 2.200000e+00 -8.000002e-01 2.700000e+00
      vertex 2.800000e+00 7.000000e+00 2.700000e+00
      vertex 2.200000e+00 7.000000e+00 2.700000e+00
    endloop
  endfacet
  facet normal 0.000000e+00 1.000000e+00 0.000000e+00
    outer loop
      vertex 2.200000e+00 7.000000e+00 2.100000e+00
      vertex 2.200000e+00 7.000000e+00 2.700000e+00
      vertex 2.800000e+00 7.000000e+00 2.100000e+00
    endloop
  endfacet
  facet normal 0.000000e+00 1.000000e+00 0.000000e+00
    outer loop
      vertex 2.800000e+00 7.000000e+00 2.100000e+00
      vertex 2.200000e+00 7.000000e+00 2.700000e+00
      vertex 2.800000e+00 7.000000e+00 2.700000e+00
    endloop
  endfacet
endsolid Default
