solid Default
  facet normal 0.000000e+00 6.123234e-17 1.000000e+00
    outer loop
      vertex -1.000000e+00 -1.250000e+00 5.400000e+00
      vertex 1.000000e+00 -1.250000e+00 5.400000e+00
      vertex 1.250000e+00 -1.000000e+00 5.400000e+00
    endloop
  endfacet
  facet normal 0.000000e+00 6.123234e-17 1.000000e+00
    outer loop
      vertex -1.250000e+00 -1.000000e+00 5.400000e+00
      vertex -1.000000e+00 -1.250000e+00 5.400000e+00
      vertex 3.000000e-01 -3.000000e-01 5.400000e+00
    endloop
  endfacet
  facet normal 0.000000e+00 6.123234e-17 1.000000e+00
    outer loop
      vertex 3.000000e-01 -3.000000e-01 5.400000e+00
      vertex -3.000001e-01 -3.000000e-01 5.400000e+00
      vertex -1.250000e+00 -1.000000e+00 5.400000e+00
    endloop
  endfacet
  facet normal 0.000000e+00 6.123234e-17 1.000000e+00
    outer loop
      vertex -1.250000e+00 -1.000000e+00 5.400000e+00
      vertex -3.000001e-01 -3.000000e-01 5.400000e+00
      vertex -3.000001e-01 3.000001e-01 5.400000e+00
    endloop
  endfacet
  facet normal 0.000000e+00 6.123234e-17 1.000000e+00
    outer loop
      vertex -1.250000e+00 -1.000000e+00 5.400000e+00
      vertex -3.000001e-01 3.000001e-01 5.400000e+00
      vertex -1.250000e+00 1.000000e+00 5.400000e+00
    endloop
  endfacet
  facet normal 0.000000e+00 6.123234e-17 1.000000e+00
    outer loop
      vertex -1.000000e+00 -1.250000e+00 5.400000e+00
      vertex 1.250000e+00 -1.000000e+00 5.400000e+00
      vertex 3.000000e-01 -3.000000e-01 5.400000e+00
    endloop
  endfacet
  facet normal 0.000000e+00 6.123234e-17 1.000000e+00
    outer loop
      vertex 3.000000e-01 -3.000000e-01 5.400000e+00
      vertex 1.250000e+00 -1.000000e+00 5.400000e+00
      vertex 1.250000e+00 1.000000e+00 5.400000e+00
    endloop
  endfacet
  facet normal 0.000000e+00 6.123234e-17 1.000000e+00
    outer loop
      vertex 3.000000e-01 -3.000000e-01 5.400000e+00
      vertex 1.250000e+00 1.000000e+00 5.400000e+00
      vertex 3.000000e-01 3.000001e-01 5.400000e+00
    endloop
  endfacet
  facet normal 0.000000e+00 6.123234e-17 1.000000e+00
    outer loop
      vertex 3.000000e-01 3.000001e-01 5.400000e+00
      vertex 1.250000e+00 1.000000e+00 5.400000e+00
      vertex 1.000000e+00 1.250000e+00 5.400000e+00
    endloop
  endfacet
  facet normal 0.000000e+00 6.123234e-17 1.000000e+00
    outer loop
      vertex 3.000000e-01 3.000001e-01 5.400000e+00
      vertex 1.000000e+00 1.250000e+00 5.400000e+00
      vertex -3.000001e-01 3.000001e-01 5.400000e+00
    endloop
  endfacet
  facet normal 0.000000e+00 6.123234e-17 1.000000e+00
    outer loop
      vertex -3.000001e-01 3.000001e-01 5.400000e+00
      vertex 1.000000e+00 1.250000e+00 5.400000e+00
      vertex -1.000000e+00 1.250000e+00 5.400000e+00
    endloop
  endfacet
  facet normal 0.000000e+00 6.123234e-17 1.000000e+00
    outer loop
      vertex -3.000001e-01 3.000001e-01 5.400000e+00
      vertex -1.000000e+00 1.250000e+00 5.400000e+00
      vertex -1.250000e+00 1.000000e+00 5.400000e+00
    endloop
  endfacet
  facet normal 7.071068e-01 7.071068e-01 -4.329780e-17
    outer loop
      vertex 1.000000e+00 1.250000e+00 5.400000e+00
      vertex 1.250000e+00 1.000000e+00 5.400000e+00
      vertex 1.000000e+00 1.250000e+00 3.000000e+00
    endloop
  endfacet
  facet normal 7.071068e-01 7.071068e-01 -4.329780e-17
    outer loop
      vertex 1.000000e+00 1.250000e+00 3.000000e+00
      vertex 1.250000e+00 1.000000e+00 5.400000e+00
      vertex 1.250000e+00 1.000000e+00 3.000000e+00
    endloop
  endfacet
  facet normal 0.000000e+00 1.000000e+00 -6.123234e-17
    outer loop
      vertex -1.000000e+00 1.250000e+00 5.400000e+00
      vertex 1.000000e+00 1.250000e+00 5.400000e+00
      vertex -1.000000e+00 1.250000e+00 3.000000e+00
    endloop
  endfacet
  facet normal 0.000000e+00 1.000000e+00 -6.123234e-17
    outer loop
      vertex -1.000000e+00 1.250000e+00 3.000000e+00
      vertex 1.000000e+00 1.250000e+00 5.400000e+00
      vertex 1.000000e+00 1.250000e+00 3.000000e+00
    endloop
  endfacet
  facet normal -7.071068e-01 7.071068e-01 -4.329780e-17
    outer loop
      vertex -1.250000e+00 1.000000e+00 5.400000e+00
      vertex -1.000000e+00 1.250000e+00 5.400000e+00
      vertex -1.250000e+00 1.000000e+00 3.000000e+00
    endloop
  endfacet
  facet normal -7.071068e-01 7.071068e-01 -4.329780e-17
    outer loop
      vertex -1.250000e+00 1.000000e+00 3.000000e+00
      vertex -1.000000e+00 1.250000e+00 5.400000e+00
      vertex -1.000000e+00 1.250000e+00 3.000000e+00
    endloop
  endfacet
  facet normal -1.000000e+00 -2.168404e-16 1.327765e-32
    outer loop
      vertex -1.250000e+00 -1.000000e+00 5.400000e+00
      vertex -1.250000e+00 1.000000e+00 5.400000e+00
      vertex -1.250000e+00 -1.000000e+00 3.000000e+00
    endloop
  endfacet
  facet normal -1.000000e+00 -2.168404e-16 1.327765e-32
    outer loop
      vertex -1.250000e+00 -1.000000e+00 3.000000e+00
      vertex -1.250000e+00 1.000000e+00 5.400000e+00
      vertex -1.250000e+00 1.000000e+00 3.000000e+00
    endloop
  endfacet
  facet normal -7.071068e-01 -7.071068e-01 4.329780e-17
    outer loop
      vertex -1.000000e+00 -1.250000e+00 5.400000e+00
      vertex -1.250000e+00 -1.000000e+00 5.400000e+00
      vertex -1.000000e+00 -1.250000e+00 3.000000e+00
    endloop
  endfacet
  facet normal -7.071068e-01 -7.071068e-01 4.329780e-17
    outer loop
      vertex -1.000000e+00 -1.250000e+00 3.000000e+00
      vertex -1.250000e+00 -1.000000e+00 5.400000e+00
      vertex -1.250000e+00 -1.000000e+00 3.000000e+00
    endloop
  endfacet
  facet normal 0.000000e+00 -1.000000e+00 6.123234e-17
    outer loop
      vertex 1.000000e+00 -1.250000e+00 5.400000e+00
      vertex -1.000000e+00 -1.250000e+00 5.400000e+00
      vertex 1.000000e+00 -1.250000e+00 3.000000e+00
    endloop
  endfacet
  facet normal 0.000000e+00 -1.000000e+00 6.123234e-17
    outer loop
      vertex 1.000000e+00 -1.250000e+00 3.000000e+00
      vertex -1.000000e+00 -1.250000e+00 5.400000e+00
      vertex -1.000000e+00 -1.250000e+00 3.000000e+00
    endloop
  endfacet
  facet normal 7.071068e-01 -7.071068e-01 4.329780e-17
    outer loop
      vertex 1.250000e+00 -1.000000e+00 5.400000e+00
      vertex 1.000000e+00 -1.250000e+00 5.400000e+00
      vertex 1.250000e+00 -1.000000e+00 3.000000e+00
    endloop
  endfacet
  facet normal 7.071068e-01 -7.071068e-01 4.329780e-17
    outer loop
      vertex 1.250000e+00 -1.000000e+00 3.000000e+00
      vertex 1.000000e+00 -1.250000e+00 5.400000e+00
      vertex 1.000000e+00 -1.250000e+00 3.000000e+00
    endloop
  endfacet
  facet normal 1.000000e+00 4.336809e-16 -2.655529e-32
    outer loop
      vertex 1.250000e+00 1.000000e+00 5.400000e+00
      vertex 1.250000e+00 -1.000000e+00 5.400000e+00
      vertex 1.250000e+00 1.000000e+00 3.000000e+00
    endloop
  endfacet
  facet normal 1.000000e+00 4.336809e-16 -2.655529e-32
    outer loop
      vertex 1.250000e+00 1.000000e+00 3.000000e+00
      vertex 1.250000e+00 -1.000000e+00 5.400000e+00
      vertex 1.250000e+00 -1.000000e+00 3.000000e+00
    endloop
  endfacet
  facet normal 0.000000e+00 -6.123234e-17 -1.000000e+00
    outer loop
      vertex 3.000000e-01 -3.000000e-01 3.000000e+00
      vertex 3.000000e-01 3.000001e-01 3.000000e+00
      vertex 1.250000e+00 -1.000000e+00 3.000000e+00
    endloop
  endfacet
  facet normal 0.000000e+00 -6.123234e-17 -1.000000e+00
    outer loop
      vertex -1.000000e+00 1.250000e+00 3.000000e+00
      vertex 1.000000e+00 1.250000e+00 3.000000e+00
      vertex 1.250000e+00 1.000000e+00 3.000000e+00
    endloop
  endfacet
  facet normal 0.000000e+00 -6.123234e-17 -1.000000e+00
    outer loop
      vertex -1.250000e+00 -1.000000e+00 3.000000e+00
      vertex -1.250000e+00 1.000000e+00 3.000000e+00
      vertex -1.000000e+00 1.250000e+00 3.000000e+00
    endloop
  endfacet
  facet normal 0.000000e+00 -6.123234e-17 -1.000000e+00
    outer loop
      vertex 1.250000e+00 -1.000000e+00 3.000000e+00
      vertex 1.000000e+00 -1.250000e+00 3.000000e+00
      vertex 3.000000e-01 -3.000000e-01 3.000000e+00
    endloop
  endfacet
  facet normal 0.000000e+00 -6.123234e-17 -1.000000e+00
    outer loop
      vertex 3.000000e-01 -3.000000e-01 3.000000e+00
      vertex 1.000000e+00 -1.250000e+00 3.000000e+00
      vertex -1.000000e+00 -1.250000e+00 3.000000e+00
    endloop
  endfacet
  facet normal 0.000000e+00 -6.123234e-17 -1.000000e+00
    outer loop
      vertex 3.000000e-01 -3.000000e-01 3.000000e+00
      vertex -1.000000e+00 -1.250000e+00 3.000000e+00
      vertex -3.000001e-01 -3.000000e-01 3.000000e+00
    endloop
  endfacet
  facet normal 0.000000e+00 -6.123234e-17 -1.000000e+00
    outer loop
      vertex -3.000001e-01 -3.000000e-01 3.000000e+00
      vertex -1.000000e+00 -1.250000e+00 3.000000e+00
      vertex -1.250000e+00 -1.000000e+00 3.000000e+00
    endloop
  endfacet
  facet normal 0.000000e+00 -6.123234e-17 -1.000000e+00
    outer loop
      vertex -3.000001e-01 -3.000000e-01 3.000000e+00
      vertex -1.250000e+00 -1.000000e+00 3.000000e+00
      vertex -3.000001e-01 3.000001e-01 3.000000e+00
    endloop
  endfacet
  facet normal 0.000000e+00 -6.123234e-17 -1.000000e+00
    outer loop
      vertex -3.000001e-01 3.000001e-01 3.000000e+00
      vertex -1.250000e+00 -1.000000e+00 3.000000e+00
      vertex -1.000000e+00 1.250000e+00 3.000000e+00
    endloop
  endfacet
  facet normal 0.000000e+00 -6.123234e-17 -1.000000e+00
    outer loop
      vertex -3.000001e-01 3.000001e-01 3.000000e+00
      vertex -1.000000e+00 1.250000e+00 3.000000e+00
      vertex 3.000000e-01 3.000001e-01 3.000000e+00
    endloop
  endfacet
  facet normal 0.000000e+00 -6.123234e-17 -1.000000e+00
    outer loop
      vertex 3.000000e-01 3.000001e-01 3.000000e+00
      vertex -1.000000e+00 1.250000e+00 3.000000e+00
      vertex 1.250000e+00 1.000000e+00 3.000000e+00
    endloop
  endfacet
  facet normal 0.000000e+00 -6.123234e-17 -1.000000e+00
    outer loop
      vertex 3.000000e-01 3.000001e-01 3.000000e+00
      vertex 1.250000e+00 1.000000e+00 3.000000e+00
      vertex 1.250000e+00 -1.000000e+00 3.000000e+00
    endloop
  endfacet
  facet normal 1.000000e+00 2.710505e-16 -1.659706e-32
    outer loop
      vertex 3.000000e-01 3.000001e-01 1.140000e+01
      vertex 3.000000e-01 -3.000000e-01 1.140000e+01
      vertex 3.000000e-01 3.000001e-01 5.400000e+00
    endloop
  endfacet
  facet normal 1.000000e+00 2.710505e-16 -1.659706e-32
    outer loop
      vertex 3.000000e-01 3.000001e-01 5.400000e+00
      vertex 3.000000e-01 -3.000000e-01 1.140000e+01
      vertex 3.000000e-01 -3.000000e-01 5.400000e+00
    endloop
  endfacet
  facet normal 0.000000e+00 1.000000e+00 -6.123234e-17
    outer loop
      vertex -3.000001e-01 3.000001e-01 1.140000e+01
      vertex 3.000000e-01 3.000001e-01 1.140000e+01
      vertex -3.000001e-01 3.000001e-01 5.400000e+00
    endloop
  endfacet
  facet normal 0.000000e+00 1.000000e+00 -6.123234e-17
    outer loop
      vertex -3.000001e-01 3.000001e-01 5.400000e+00
      vertex 3.000000e-01 3.000001e-01 1.140000e+01
      vertex 3.000000e-01 3.000001e-01 5.400000e+00
    endloop
  endfacet
  facet normal -1.000000e+00 -9.035018e-17 5.532353e-33
    outer loop
      vertex -3.000001e-01 -3.000000e-01 1.140000e+01
      vertex -3.000001e-01 3.000001e-01 1.140000e+01
      vertex -3.000001e-01 -3.000000e-01 5.400000e+00
    endloop
  endfacet
  facet normal -1.000000e+00 -9.035018e-17 5.532353e-33
    outer loop
      vertex -3.000001e-01 -3.000000e-01 5.400000e+00
      vertex -3.000001e-01 3.000001e-01 1.140000e+01
      vertex -3.000001e-01 3.000001e-01 5.400000e+00
    endloop
  endfacet
  facet normal 0.000000e+00 -1.000000e+00 6.123234e-17
    outer loop
      vertex 3.000000e-01 -3.000000e-01 1.140000e+01
      vertex -3.000001e-01 -3.000000e-01 1.140000e+01
      vertex 3.000000e-01 -3.000000e-01 5.400000e+00
    endloop
  endfacet
  facet normal 0.000000e+00 -1.000000e+00 6.123234e-17
    outer loop
      vertex 3.000000e-01 -3.000000e-01 5.400000e+00
      vertex -3.000001e-01 -3.000000e-01 1.140000e+01
      vertex -3.000001e-01 -3.000000e-01 5.400000e+00
    endloop
  endfacet
  facet normal 0.000000e+00 6.123234e-17 1.000000e+00
    outer loop
      vertex -3.000001e-01 3.000001e-01 1.140000e+01
      vertex -3.000001e-01 -3.000000e-01 1.140000e+01
      vertex 3.000000e-01 3.000001e-01 1.140000e+01
    endloop
  endfacet
  facet normal 0.000000e+00 6.123234e-17 1.000000e+00
    outer loop
      vertex 3.000000e-01 3.000001e-01 1.140000e+01
      vertex -3.000001e-01 -3.000000e-01 1.140000e+01
      vertex 3.000000e-01 -3.000000e-01 1.140000e+01
    endloop
  endfacet
  facet normal 1.000000e+00 -1.807004e-16 1.106471e-32
    outer loop
      vertex 3.000000e-01 -3.000000e-01 3.000000e+00
      vertex 3.000000e-01 -3.000000e-01 9.491012e-17
      vertex 3.000000e-01 3.000001e-01 3.000000e+00
    endloop
  endfacet
  facet normal 1.000000e+00 -1.807004e-16 1.106471e-32
    outer loop
      vertex 3.000000e-01 3.000001e-01 3.000000e+00
      vertex 3.000000e-01 -3.000000e-01 9.491012e-17
      vertex 3.000000e-01 3.000001e-01 5.817072e-17
    endloop
  endfacet
  facet normal 0.000000e+00 1.000000e+00 -6.123234e-17
    outer loop
      vertex 3.000000e-01 3.000001e-01 3.000000e+00
      vertex 3.000000e-01 3.000001e-01 5.817072e-17
      vertex -3.000001e-01 3.000001e-01 3.000000e+00
    endloop
  endfacet
  facet normal 0.000000e+00 1.000000e+00 -6.123234e-17
    outer loop
      vertex -3.000001e-01 3.000001e-01 3.000000e+00
      vertex 3.000000e-01 3.000001e-01 5.817072e-17
      vertex -3.000001e-01 3.000001e-01 5.817072e-17
    endloop
  endfacet
  facet normal -1.000000e+00 0.000000e+00 0.000000e+00
    outer loop
      vertex -3.000001e-01 3.000001e-01 3.000000e+00
      vertex -3.000001e-01 3.000001e-01 5.817072e-17
      vertex -3.000001e-01 -3.000000e-01 3.000000e+00
    endloop
  endfacet
  facet normal -1.000000e+00 0.000000e+00 0.000000e+00
    outer loop
      vertex -3.000001e-01 -3.000000e-01 3.000000e+00
      vertex -3.000001e-01 3.000001e-01 5.817072e-17
      vertex -3.000001e-01 -3.000000e-01 9.491012e-17
    endloop
  endfacet
  facet normal 0.000000e+00 -1.000000e+00 6.123234e-17
    outer loop
      vertex -3.000001e-01 -3.000000e-01 3.000000e+00
      vertex -3.000001e-01 -3.000000e-01 9.491012e-17
      vertex 3.000000e-01 -3.000000e-01 3.000000e+00
    endloop
  endfacet
  facet normal 0.000000e+00 -1.000000e+00 6.123234e-17
    outer loop
      vertex 3.000000e-01 -3.000000e-01 3.000000e+00
      vertex -3.000001e-01 -3.000000e-01 9.491012e-17
      vertex 3.000000e-01 -3.000000e-01 9.491012e-17
    endloop
  endfacet
  facet normal 0.000000e+00 -6.123234e-17 -1.000000e+00
    outer loop
      vertex -3.000001e-01 -3.000000e-01 9.491012e-17
      vertex -3.000001e-01 3.000001e-01 5.817072e-17
      vertex 3.000000e-01 -3.000000e-01 9.491012e-17
    endloop
  endfacet
  facet normal 0.000000e+00 -6.123234e-17 -1.000000e+00
    outer loop
      vertex 3.000000e-01 -3.000000e-01 9.491012e-17
      vertex -3.000001e-01 3.000001e-01 5.817072e-17
      vertex 3.000000e-01 3.000001e-01 5.817072e-17
    endloop
  endfacet
endsolid Default
