%FSLAX23Y23*%
%MOIN*%
G70*
G01*
G75*
G04 Layer_Color=16711935*
%ADD10R,0.039X0.037*%
%ADD11R,0.050X0.060*%
%ADD12R,0.060X0.050*%
%ADD13R,0.059X0.039*%
%ADD14R,0.083X0.026*%
%ADD15R,0.256X0.630*%
%ADD16R,0.035X0.031*%
%ADD17R,0.035X0.031*%
%ADD18R,0.028X0.031*%
%ADD19R,0.039X0.059*%
%ADD20R,0.197X0.197*%
%ADD21R,0.035X0.010*%
%ADD22R,0.010X0.035*%
%ADD23R,0.118X0.177*%
%ADD24R,0.079X0.295*%
%ADD25R,0.126X0.059*%
%ADD26R,0.055X0.150*%
%ADD27R,0.050X0.014*%
%ADD28R,0.110X0.020*%
%ADD29R,0.098X0.079*%
%ADD30R,0.087X0.024*%
%ADD31R,0.071X0.016*%
%ADD32R,0.079X0.079*%
%ADD33R,0.047X0.043*%
%ADD34R,0.043X0.047*%
%ADD35R,0.063X0.197*%
%ADD36R,0.010X0.026*%
%ADD37R,0.026X0.010*%
%ADD38R,0.150X0.150*%
%ADD39R,0.037X0.039*%
G04:AMPARAMS|DCode=40|XSize=14mil|YSize=33mil|CornerRadius=1mil|HoleSize=0mil|Usage=FLASHONLY|Rotation=270.000|XOffset=0mil|YOffset=0mil|HoleType=Round|Shape=RoundedRectangle|*
%AMROUNDEDRECTD40*
21,1,0.014,0.031,0,0,270.0*
21,1,0.011,0.033,0,0,270.0*
1,1,0.003,-0.015,-0.006*
1,1,0.003,-0.015,0.006*
1,1,0.003,0.015,0.006*
1,1,0.003,0.015,-0.006*
%
%ADD40ROUNDEDRECTD40*%
%ADD41R,0.063X0.094*%
%ADD42C,0.008*%
%ADD43C,0.015*%
%ADD44C,0.020*%
%ADD45C,0.025*%
%ADD46C,0.018*%
%ADD47C,0.012*%
%ADD48C,0.010*%
%ADD49C,0.075*%
%ADD50C,0.065*%
%ADD51C,0.118*%
%ADD52C,0.035*%
%ADD53C,0.025*%
%ADD54C,0.039*%
G04:AMPARAMS|DCode=55|XSize=197mil|YSize=60mil|CornerRadius=15mil|HoleSize=0mil|Usage=FLASHONLY|Rotation=90.000|XOffset=0mil|YOffset=0mil|HoleType=Round|Shape=RoundedRectangle|*
%AMROUNDEDRECTD55*
21,1,0.197,0.030,0,0,90.0*
21,1,0.167,0.060,0,0,90.0*
1,1,0.030,0.015,0.083*
1,1,0.030,0.015,-0.083*
1,1,0.030,-0.015,-0.083*
1,1,0.030,-0.015,0.083*
%
%ADD55ROUNDEDRECTD55*%
%ADD56C,0.008*%
%ADD57C,0.010*%
%ADD58C,0.024*%
%ADD59C,0.030*%
%ADD60R,0.047X0.045*%
%ADD61R,0.058X0.068*%
%ADD62R,0.068X0.058*%
%ADD63R,0.067X0.047*%
%ADD64R,0.091X0.034*%
%ADD65R,0.264X0.638*%
%ADD66R,0.043X0.039*%
%ADD67R,0.043X0.039*%
%ADD68R,0.036X0.039*%
%ADD69R,0.047X0.067*%
%ADD70R,0.205X0.205*%
%ADD71R,0.043X0.018*%
%ADD72R,0.018X0.043*%
%ADD73R,0.126X0.185*%
%ADD74R,0.087X0.303*%
%ADD75R,0.134X0.067*%
%ADD76R,0.063X0.158*%
%ADD77R,0.058X0.022*%
%ADD78R,0.118X0.028*%
%ADD79R,0.106X0.087*%
%ADD80R,0.095X0.032*%
%ADD81R,0.079X0.024*%
%ADD82R,0.087X0.087*%
%ADD83R,0.055X0.051*%
%ADD84R,0.051X0.055*%
%ADD85R,0.071X0.205*%
%ADD86R,0.018X0.034*%
%ADD87R,0.034X0.018*%
%ADD88R,0.158X0.158*%
%ADD89R,0.045X0.047*%
G04:AMPARAMS|DCode=90|XSize=22mil|YSize=41mil|CornerRadius=2mil|HoleSize=0mil|Usage=FLASHONLY|Rotation=270.000|XOffset=0mil|YOffset=0mil|HoleType=Round|Shape=RoundedRectangle|*
%AMROUNDEDRECTD90*
21,1,0.022,0.037,0,0,270.0*
21,1,0.017,0.041,0,0,270.0*
1,1,0.004,-0.019,-0.009*
1,1,0.004,-0.019,0.009*
1,1,0.004,0.019,0.009*
1,1,0.004,0.019,-0.009*
%
%ADD90ROUNDEDRECTD90*%
%ADD91R,0.071X0.102*%
%ADD92C,0.083*%
%ADD93C,0.073*%
%ADD94C,0.126*%
%ADD95C,0.043*%
%ADD96C,0.047*%
%ADD97C,0.033*%
G04:AMPARAMS|DCode=98|XSize=205mil|YSize=68mil|CornerRadius=17mil|HoleSize=0mil|Usage=FLASHONLY|Rotation=90.000|XOffset=0mil|YOffset=0mil|HoleType=Round|Shape=RoundedRectangle|*
%AMROUNDEDRECTD98*
21,1,0.205,0.034,0,0,90.0*
21,1,0.171,0.068,0,0,90.0*
1,1,0.034,0.017,0.085*
1,1,0.034,0.017,-0.085*
1,1,0.034,-0.017,-0.085*
1,1,0.034,-0.017,0.085*
%
%ADD98ROUNDEDRECTD98*%
D92*
X853Y2675D02*
D03*
X953D02*
D03*
X1053D02*
D03*
X1153D02*
D03*
X1753D02*
D03*
X1653D02*
D03*
X1553D02*
D03*
X1453D02*
D03*
X1353D02*
D03*
X1253D02*
D03*
X2113D02*
D03*
X2213D02*
D03*
X2313D02*
D03*
X2413D02*
D03*
X2513D02*
D03*
X2613D02*
D03*
X2013D02*
D03*
X1913D02*
D03*
Y775D02*
D03*
X1813D02*
D03*
X1213D02*
D03*
X1313D02*
D03*
X1413D02*
D03*
X1513D02*
D03*
X1613D02*
D03*
X1713D02*
D03*
X2613D02*
D03*
X2513D02*
D03*
X2413D02*
D03*
X2313D02*
D03*
X2213D02*
D03*
X2113D02*
D03*
X853Y666D02*
D03*
X953D02*
D03*
X970Y1287D02*
D03*
X1070D02*
D03*
X1170D02*
D03*
X2756Y375D02*
D03*
Y275D02*
D03*
Y175D02*
D03*
X2480D02*
D03*
Y275D02*
D03*
Y375D02*
D03*
X2205D02*
D03*
Y275D02*
D03*
Y175D02*
D03*
X1929D02*
D03*
Y275D02*
D03*
Y375D02*
D03*
X1654D02*
D03*
Y275D02*
D03*
Y175D02*
D03*
X1378D02*
D03*
Y275D02*
D03*
Y375D02*
D03*
X1001Y150D02*
D03*
Y406D02*
D03*
X1178Y150D02*
D03*
Y406D02*
D03*
X896D02*
D03*
Y150D02*
D03*
X719Y406D02*
D03*
Y150D02*
D03*
X2991Y1893D02*
D03*
Y1793D02*
D03*
Y1693D02*
D03*
Y1993D02*
D03*
Y2093D02*
D03*
Y1019D02*
D03*
Y919D02*
D03*
Y1306D02*
D03*
Y1206D02*
D03*
X1002Y2084D02*
D03*
X902D02*
D03*
X1153Y1752D02*
D03*
Y1852D02*
D03*
X2393Y2189D02*
D03*
X2293D02*
D03*
X1304Y1852D02*
D03*
Y1752D02*
D03*
Y1652D02*
D03*
X1404Y1852D02*
D03*
Y1752D02*
D03*
Y1652D02*
D03*
X2393Y2444D02*
D03*
X2293D02*
D03*
X2193D02*
D03*
X2393Y2344D02*
D03*
X2293D02*
D03*
X2193D02*
D03*
X305Y980D02*
D03*
Y1080D02*
D03*
D93*
X386Y387D02*
D03*
X484D02*
D03*
X583D02*
D03*
X386Y151D02*
D03*
X484D02*
D03*
X583D02*
D03*
D94*
X177Y177D02*
D03*
Y2657D02*
D03*
X3012D02*
D03*
Y177D02*
D03*
X177Y531D02*
D03*
X3012D02*
D03*
X177Y2303D02*
D03*
X3012D02*
D03*
D95*
X213Y1532D02*
D03*
Y1705D02*
D03*
D96*
X576Y2115D02*
D03*
X674D02*
D03*
D97*
X1551Y2173D02*
D03*
X1621D02*
D03*
X1691D02*
D03*
Y2103D02*
D03*
X1551D02*
D03*
Y2033D02*
D03*
X1691D02*
D03*
X877Y1752D02*
D03*
X924D02*
D03*
X971D02*
D03*
Y1705D02*
D03*
X924D02*
D03*
X877D02*
D03*
Y1658D02*
D03*
X924D02*
D03*
X971D02*
D03*
X1621Y2103D02*
D03*
Y2033D02*
D03*
X2282Y1948D02*
D03*
X2362D02*
D03*
Y1868D02*
D03*
X2282D02*
D03*
X2202D02*
D03*
Y1788D02*
D03*
X2282D02*
D03*
X2362D02*
D03*
Y1708D02*
D03*
X2282D02*
D03*
X2202D02*
D03*
Y1628D02*
D03*
X2282D02*
D03*
X2362D02*
D03*
Y1548D02*
D03*
X2282D02*
D03*
X2202D02*
D03*
Y1468D02*
D03*
X2282D02*
D03*
X2362D02*
D03*
X2202Y1948D02*
D03*
X506Y590D02*
D03*
X546D02*
D03*
X526Y561D02*
D03*
X506Y531D02*
D03*
X59Y1335D02*
D03*
X546Y531D02*
D03*
D98*
X536Y2363D02*
D03*
X714D02*
D03*
M02*
