%FSLAX23Y23*%
%MOIN*%
G70*
G01*
G75*
G04 Layer_Physical_Order=3*
G04 Layer_Color=16440176*
%ADD10R,0.039X0.037*%
%ADD11R,0.050X0.060*%
%ADD12R,0.060X0.050*%
%ADD13R,0.059X0.039*%
%ADD14R,0.083X0.026*%
%ADD15R,0.256X0.630*%
%ADD16R,0.035X0.031*%
%ADD17R,0.035X0.031*%
%ADD18R,0.028X0.031*%
%ADD19R,0.039X0.059*%
%ADD20R,0.197X0.197*%
%ADD21R,0.035X0.010*%
%ADD22R,0.010X0.035*%
%ADD23R,0.118X0.177*%
%ADD24R,0.079X0.295*%
%ADD25R,0.126X0.059*%
%ADD26R,0.055X0.150*%
%ADD27R,0.050X0.014*%
%ADD28R,0.110X0.020*%
%ADD29R,0.098X0.079*%
%ADD30R,0.087X0.024*%
%ADD31R,0.071X0.016*%
%ADD32R,0.079X0.079*%
%ADD33R,0.047X0.043*%
%ADD34R,0.043X0.047*%
%ADD35R,0.063X0.197*%
%ADD36R,0.010X0.026*%
%ADD37R,0.026X0.010*%
%ADD38R,0.150X0.150*%
%ADD39R,0.037X0.039*%
G04:AMPARAMS|DCode=40|XSize=14mil|YSize=33mil|CornerRadius=1mil|HoleSize=0mil|Usage=FLASHONLY|Rotation=270.000|XOffset=0mil|YOffset=0mil|HoleType=Round|Shape=RoundedRectangle|*
%AMROUNDEDRECTD40*
21,1,0.014,0.031,0,0,270.0*
21,1,0.011,0.033,0,0,270.0*
1,1,0.003,-0.015,-0.006*
1,1,0.003,-0.015,0.006*
1,1,0.003,0.015,0.006*
1,1,0.003,0.015,-0.006*
%
%ADD40ROUNDEDRECTD40*%
%ADD41R,0.063X0.094*%
%ADD42C,0.008*%
%ADD43C,0.015*%
%ADD44C,0.020*%
%ADD45C,0.025*%
%ADD46C,0.018*%
%ADD47C,0.012*%
%ADD48C,0.010*%
%ADD49C,0.075*%
%ADD50C,0.065*%
%ADD51C,0.118*%
%ADD52C,0.035*%
%ADD53C,0.025*%
%ADD54C,0.039*%
G36*
X2877Y1627D02*
Y1619D01*
Y1566D01*
X2871Y1560D01*
X2860Y1549D01*
X2815D01*
X2809Y1555D01*
X2792Y1572D01*
Y1597D01*
Y1623D01*
X2818Y1649D01*
Y1679D01*
X2823Y1681D01*
X2877Y1627D01*
D02*
G37*
G36*
X1565Y1465D02*
X1443Y1343D01*
X1438Y1345D01*
Y1468D01*
X1438Y1468D01*
X1438Y1468D01*
X1439Y1470D01*
X1563D01*
X1565Y1465D01*
D02*
G37*
G36*
X2139Y1724D02*
Y1672D01*
X2104Y1637D01*
X2098D01*
Y1699D01*
X2085Y1712D01*
X2074D01*
X2069Y1717D01*
Y1740D01*
X2074Y1745D01*
X2118D01*
X2139Y1724D01*
D02*
G37*
G36*
X694Y1688D02*
Y1686D01*
Y1600D01*
X691Y1597D01*
X679Y1585D01*
X644D01*
X629Y1600D01*
Y1601D01*
Y1665D01*
X639Y1675D01*
X647Y1683D01*
X652D01*
Y1723D01*
X657Y1725D01*
X694Y1688D01*
D02*
G37*
G36*
X609Y1451D02*
Y1417D01*
X596Y1404D01*
X546D01*
X504Y1362D01*
X466D01*
X451Y1347D01*
Y1241D01*
X435Y1225D01*
X402Y1258D01*
Y1375D01*
Y1386D01*
Y1415D01*
X449Y1462D01*
X598D01*
X609Y1451D01*
D02*
G37*
G36*
X1429Y984D02*
X1444D01*
Y923D01*
X1355Y834D01*
X1284D01*
X1282Y832D01*
X1196D01*
X1178Y850D01*
Y876D01*
X1240Y938D01*
X1381D01*
X1428Y985D01*
X1429Y984D01*
D02*
G37*
G36*
X653Y523D02*
Y474D01*
X642Y462D01*
X587D01*
X571Y479D01*
Y583D01*
X577Y589D01*
X587D01*
X653Y523D01*
D02*
G37*
G36*
X965Y1198D02*
Y1131D01*
X961Y1127D01*
X952Y1127D01*
X861D01*
X813Y1175D01*
Y1253D01*
X823Y1263D01*
X899D01*
X965Y1198D01*
D02*
G37*
G36*
X2367Y917D02*
X2365Y912D01*
X2001D01*
X1913Y913D01*
X1876Y950D01*
Y983D01*
X1887Y1015D01*
X1894Y1025D01*
X1901Y1037D01*
X2065Y1038D01*
X2142D01*
X2170Y1066D01*
X2218D01*
X2367Y917D01*
D02*
G37*
G36*
X2488Y1749D02*
X2492Y1745D01*
X2493D01*
Y1729D01*
X2494Y1728D01*
X2480Y1714D01*
Y1711D01*
Y1662D01*
X2479Y1661D01*
X2467Y1649D01*
Y1648D01*
X2458D01*
X2440Y1666D01*
X2428Y1678D01*
Y1682D01*
Y1718D01*
X2444Y1734D01*
X2454D01*
X2467Y1747D01*
Y1750D01*
X2487D01*
X2488Y1749D01*
D02*
G37*
G36*
X1272Y2399D02*
Y2385D01*
Y2312D01*
X1267Y2307D01*
X1253Y2293D01*
X1236D01*
X1225Y2304D01*
X1224Y2305D01*
Y2379D01*
Y2391D01*
X1245Y2412D01*
Y2419D01*
X1250Y2421D01*
X1272Y2399D01*
D02*
G37*
G36*
X1256Y2140D02*
X1257D01*
Y2123D01*
X1252Y2118D01*
X1218Y2084D01*
X1125D01*
X1124Y2089D01*
X1166Y2131D01*
X1197D01*
X1231Y2165D01*
X1256Y2140D01*
D02*
G37*
G36*
X1497Y2511D02*
X1482Y2496D01*
X1453D01*
X1452Y2495D01*
X1440Y2483D01*
Y2482D01*
Y2454D01*
X1439Y2453D01*
X1431Y2445D01*
Y2444D01*
X1403D01*
X1400Y2447D01*
X1383Y2464D01*
Y2465D01*
X1354D01*
X1351Y2469D01*
X1351Y2472D01*
X1401Y2521D01*
X1487D01*
X1497Y2511D01*
D02*
G37*
G36*
X2634Y2342D02*
X2641D01*
Y2173D01*
X2618Y2150D01*
X2583Y2185D01*
Y2241D01*
Y2337D01*
X2585Y2339D01*
X2603Y2357D01*
X2618D01*
X2618Y2357D01*
Y2357D01*
X2619Y2357D01*
X2634Y2342D01*
D02*
G37*
G36*
X1020Y1869D02*
X1046D01*
X1050Y1864D01*
Y1859D01*
X1037Y1847D01*
Y1823D01*
X980D01*
X965Y1837D01*
X852D01*
X850Y1842D01*
X870Y1862D01*
Y1872D01*
X891Y1893D01*
X996D01*
X1020Y1869D01*
D02*
G37*
G36*
X769Y1804D02*
Y1798D01*
X656Y1742D01*
X652Y1745D01*
Y1757D01*
Y1810D01*
X756D01*
X769Y1804D01*
D02*
G37*
G36*
X1914Y1720D02*
Y1697D01*
Y1690D01*
X1910Y1686D01*
X1909Y1685D01*
X1769D01*
X1752Y1668D01*
X1747Y1670D01*
Y1672D01*
X1737D01*
X1736Y1673D01*
X1732Y1677D01*
Y1705D01*
X1731Y1706D01*
X1741Y1716D01*
X1849D01*
X1854Y1721D01*
X1863Y1730D01*
X1904D01*
X1914Y1720D01*
D02*
G37*
G36*
X2510Y1792D02*
Y1765D01*
X2505Y1763D01*
X2500Y1768D01*
X2468D01*
X2448Y1748D01*
X2431D01*
X2425Y1754D01*
Y1801D01*
X2424Y1802D01*
X2435Y1813D01*
X2489D01*
X2510Y1792D01*
D02*
G37*
G36*
X2138Y1808D02*
Y1763D01*
X2132Y1756D01*
X2098D01*
X2092Y1762D01*
X2045D01*
X2023Y1753D01*
X2019Y1756D01*
Y1763D01*
X2054Y1798D01*
X2075D01*
X2091Y1814D01*
X2132D01*
X2138Y1808D01*
D02*
G37*
D43*
X2013Y630D02*
Y811D01*
X1513Y775D02*
X1636Y899D01*
X1775D01*
X1808Y866D01*
X1958D01*
X2013Y811D01*
Y630D02*
X2180Y463D01*
X2424D01*
X2618Y2286D02*
Y2416D01*
X2497Y2537D02*
X2618Y2416D01*
X1980Y2537D02*
X2497D01*
X1947Y2504D02*
X1980Y2537D01*
X652Y1636D02*
Y1801D01*
X2393Y2189D02*
X2579D01*
X2618Y2150D01*
Y2286D01*
Y2108D02*
Y2150D01*
Y2108D02*
X2818Y1908D01*
X2873Y1893D02*
X2991D01*
X2818Y1587D02*
Y1838D01*
Y1908D01*
Y1838D02*
X2873Y1893D01*
X1419Y2459D02*
Y2488D01*
X1435Y2504D01*
X1947D01*
X956Y2518D02*
X1132D01*
X2038Y2096D02*
X2154D01*
X2177Y2119D02*
X2377D01*
X2393Y2135D02*
Y2189D01*
X2154Y2096D02*
X2177Y2119D01*
X2377D02*
X2393Y2135D01*
X1245Y2335D02*
Y2371D01*
X1231Y2321D02*
X1245Y2335D01*
X1395Y2459D02*
X1419D01*
X1384Y2470D02*
X1395Y2459D01*
X1132Y2518D02*
X1180Y2470D01*
X1281D02*
X1384D01*
X1245Y2371D02*
Y2434D01*
X1281Y2470D01*
X1180D02*
X1281D01*
X886Y1878D02*
X921D01*
X652Y1801D02*
X809D01*
X886Y1878D01*
X1000D02*
X1016Y1862D01*
X1068D02*
X1100Y1894D01*
Y2065D01*
X1148Y2113D01*
X921Y1878D02*
X1000D01*
X1148Y2113D02*
X1212D01*
X1231Y2132D02*
Y2321D01*
X1212Y2113D02*
X1231Y2132D01*
X1016Y1862D02*
X1056D01*
X1068D01*
X1040Y1773D02*
Y1846D01*
Y1773D02*
X1061Y1752D01*
X1040Y1846D02*
X1056Y1862D01*
X1061Y1752D02*
X1153D01*
X580Y476D02*
Y632D01*
X435Y777D02*
X580Y632D01*
X435Y777D02*
Y1414D01*
X456Y1435D01*
X580Y476D02*
X614D01*
D45*
X1436Y1233D02*
Y1470D01*
X1260Y846D02*
X1357D01*
X1436Y925D01*
Y1233D01*
X1876Y950D02*
X1914Y912D01*
X2621D02*
X2725Y808D01*
X1876Y950D02*
Y1002D01*
X1914Y912D02*
X2621D01*
X2725Y808D02*
X2790D01*
X2641Y1306D02*
X2991D01*
X2535Y1412D02*
X2641Y1306D01*
X2535Y1412D02*
Y1749D01*
X2501Y1783D02*
X2535Y1749D01*
X2594Y1206D02*
X2991D01*
X2467Y1333D02*
X2594Y1206D01*
X2467Y1333D02*
Y1733D01*
X2030Y1342D02*
Y1753D01*
X2060Y1783D01*
X2092D01*
X2098Y1389D02*
Y1733D01*
X1876Y1002D02*
X1912Y1038D01*
X1876Y1002D02*
Y1407D01*
X1912Y1038D02*
X2172D01*
X1813Y1470D02*
X1876Y1407D01*
X1005Y1197D02*
X1180D01*
X1715Y1470D02*
X1813D01*
X1747Y1502D02*
Y1703D01*
X1715Y1470D02*
X1747Y1502D01*
X1436Y1470D02*
X1715D01*
X970Y1232D02*
X1005Y1197D01*
X970Y1232D02*
Y1287D01*
X568Y1374D02*
X650D01*
X737Y1287D02*
X970D01*
X650Y1374D02*
X737Y1287D01*
X1180Y1197D02*
X1400D01*
X1436Y1233D01*
X1613Y703D02*
Y775D01*
X2790Y808D02*
X3060D01*
X3119Y867D02*
Y1400D01*
X3060Y808D02*
X3119Y867D01*
X3014Y1505D02*
X3119Y1400D01*
X2805Y1505D02*
X3014D01*
X1515Y963D02*
X1618D01*
X1664Y1009D02*
Y1155D01*
X1618Y963D02*
X1664Y1009D01*
X487Y1334D02*
X528D01*
X568Y1374D01*
X2098Y1389D02*
X2395Y1092D01*
X2030Y1342D02*
X2390Y982D01*
X2820D02*
X2883Y919D01*
X2991D01*
X2390Y982D02*
X2820D01*
X2922Y1019D02*
X2991D01*
X2395Y1092D02*
X2849D01*
X2922Y1019D01*
X1697Y676D02*
X1807Y566D01*
Y327D02*
Y566D01*
X1929Y275D02*
X2205D01*
X2480D01*
X2756D01*
X1807Y327D02*
X1859Y275D01*
X1654D02*
X1859D01*
X1929D01*
X1378D02*
X1654D01*
X991Y794D02*
Y1088D01*
X890Y1189D02*
X991Y1088D01*
X890Y1189D02*
Y1190D01*
X1586Y676D02*
X1697D01*
X991Y794D02*
X1109Y676D01*
X1586D02*
X1613Y703D01*
X1313Y716D02*
Y775D01*
X1109Y676D02*
X1273D01*
X1586D01*
X1273D02*
X1313Y716D01*
X2467Y1783D02*
X2501D01*
D48*
X1847Y1975D02*
X1885D01*
X1819Y1947D02*
X1847Y1975D01*
X1885D02*
X1892Y1968D01*
X1621Y1797D02*
X1641Y1817D01*
X1621Y1716D02*
Y1797D01*
Y1883D01*
X1819Y1904D02*
Y1947D01*
X1641Y1817D02*
X1732D01*
X1819Y1904D01*
X1504Y1649D02*
Y1727D01*
X1295Y1440D02*
X1504Y1649D01*
X1498Y2211D02*
X1521Y2234D01*
Y2307D01*
X1460Y2368D02*
X1521Y2307D01*
X1460Y2368D02*
Y2445D01*
X1141Y1440D02*
X1295D01*
X1504Y1727D02*
X1547D01*
X1567Y1707D02*
X1612D01*
X1547Y1727D02*
X1567Y1707D01*
X1612D02*
X1621Y1716D01*
X1498Y2006D02*
Y2211D01*
Y2006D02*
X1621Y1883D01*
X1892Y1968D02*
X1924D01*
D49*
X1313Y775D02*
D03*
X1513D02*
D03*
X1613D02*
D03*
X970Y1287D02*
D03*
X2756Y275D02*
D03*
X2480D02*
D03*
X2205D02*
D03*
X1929D02*
D03*
X1654D02*
D03*
X1378D02*
D03*
X2991Y1893D02*
D03*
Y1019D02*
D03*
Y919D02*
D03*
Y1306D02*
D03*
Y1206D02*
D03*
X1153Y1752D02*
D03*
X2393Y2189D02*
D03*
D53*
X1148Y2113D02*
D03*
X2038Y2096D02*
D03*
X921Y1878D02*
D03*
X652Y1636D02*
D03*
Y1801D02*
D03*
X487Y1334D02*
D03*
X1435Y1470D02*
D03*
X1515Y963D02*
D03*
X1260Y846D02*
D03*
X2424Y463D02*
D03*
X2092Y1783D02*
D03*
X2098Y1733D02*
D03*
X2467D02*
D03*
X1747Y1703D02*
D03*
X2172Y1038D02*
D03*
X2790Y808D02*
D03*
X2805Y1505D02*
D03*
X1180Y1197D02*
D03*
X2618Y2286D02*
D03*
X2818Y1587D02*
D03*
X956Y2518D02*
D03*
X1419Y2459D02*
D03*
X1504Y1727D02*
D03*
X1141Y1440D02*
D03*
X1460Y2445D02*
D03*
X1924Y1968D02*
D03*
X1245Y2371D02*
D03*
X1664Y1155D02*
D03*
X890Y1190D02*
D03*
X614Y476D02*
D03*
X456Y1435D02*
D03*
X580Y476D02*
D03*
X435Y1414D02*
D03*
X460Y1388D02*
D03*
X1214Y893D02*
D03*
X1194Y860D02*
D03*
X2177Y949D02*
D03*
X2250Y975D02*
D03*
X1864Y1702D02*
D03*
X2122Y1768D02*
D03*
Y1801D02*
D03*
X2126Y1716D02*
D03*
X2109Y1688D02*
D03*
X2467Y1783D02*
D03*
X2445Y1801D02*
D03*
X2441Y1766D02*
D03*
X2459Y1684D02*
D03*
X2440Y1715D02*
D03*
X872Y1239D02*
D03*
X875Y1151D02*
D03*
M02*
