%FSLAX23Y23*%
%MOIN*%
G70*
G01*
G75*
%ADD10R,0.039X0.037*%
%ADD11R,0.050X0.060*%
%ADD12R,0.060X0.050*%
%ADD13R,0.059X0.039*%
%ADD14R,0.083X0.026*%
%ADD15R,0.256X0.630*%
%ADD16R,0.035X0.031*%
%ADD17R,0.035X0.031*%
%ADD18R,0.028X0.031*%
%ADD19R,0.039X0.059*%
%ADD20R,0.197X0.197*%
%ADD21R,0.035X0.010*%
%ADD22R,0.010X0.035*%
%ADD23R,0.118X0.177*%
%ADD24R,0.079X0.295*%
%ADD25R,0.126X0.059*%
%ADD26R,0.055X0.150*%
%ADD27R,0.050X0.014*%
%ADD28R,0.110X0.020*%
%ADD29R,0.098X0.079*%
%ADD30R,0.087X0.024*%
%ADD31R,0.071X0.016*%
%ADD32R,0.079X0.079*%
%ADD33R,0.047X0.043*%
%ADD34R,0.043X0.047*%
%ADD35R,0.063X0.197*%
%ADD36R,0.010X0.026*%
%ADD37R,0.026X0.010*%
%ADD38R,0.150X0.150*%
%ADD39R,0.037X0.039*%
G04:AMPARAMS|DCode=40|XSize=14mil|YSize=33mil|CornerRadius=1mil|HoleSize=0mil|Usage=FLASHONLY|Rotation=270.000|XOffset=0mil|YOffset=0mil|HoleType=Round|Shape=RoundedRectangle|*
%AMROUNDEDRECTD40*
21,1,0.014,0.031,0,0,270.0*
21,1,0.011,0.033,0,0,270.0*
1,1,0.003,-0.015,-0.006*
1,1,0.003,-0.015,0.006*
1,1,0.003,0.015,0.006*
1,1,0.003,0.015,-0.006*
%
%ADD40ROUNDEDRECTD40*%
%ADD41R,0.063X0.094*%
%ADD42C,0.008*%
%ADD43C,0.015*%
%ADD44C,0.020*%
%ADD45C,0.025*%
%ADD46C,0.018*%
%ADD47C,0.012*%
%ADD48C,0.010*%
%ADD49C,0.075*%
%ADD50C,0.065*%
%ADD51C,0.118*%
%ADD52C,0.035*%
%ADD53C,0.025*%
%ADD54C,0.039*%
G04:AMPARAMS|DCode=55|XSize=197mil|YSize=60mil|CornerRadius=15mil|HoleSize=0mil|Usage=FLASHONLY|Rotation=90.000|XOffset=0mil|YOffset=0mil|HoleType=Round|Shape=RoundedRectangle|*
%AMROUNDEDRECTD55*
21,1,0.197,0.030,0,0,90.0*
21,1,0.167,0.060,0,0,90.0*
1,1,0.030,0.015,0.083*
1,1,0.030,0.015,-0.083*
1,1,0.030,-0.015,-0.083*
1,1,0.030,-0.015,0.083*
%
%ADD55ROUNDEDRECTD55*%
%ADD56C,0.008*%
%ADD57C,0.010*%
%ADD58C,0.024*%
%ADD59C,0.030*%
%ADD60R,0.047X0.045*%
%ADD61R,0.058X0.068*%
%ADD62R,0.068X0.058*%
%ADD63R,0.067X0.047*%
%ADD64R,0.091X0.034*%
%ADD65R,0.264X0.638*%
%ADD66R,0.043X0.039*%
%ADD67R,0.043X0.039*%
%ADD68R,0.036X0.039*%
%ADD69R,0.047X0.067*%
%ADD70R,0.205X0.205*%
%ADD71R,0.043X0.018*%
%ADD72R,0.018X0.043*%
%ADD73R,0.126X0.185*%
%ADD74R,0.087X0.303*%
%ADD75R,0.134X0.067*%
%ADD76R,0.063X0.158*%
%ADD77R,0.058X0.022*%
%ADD78R,0.118X0.028*%
%ADD79R,0.106X0.087*%
%ADD80R,0.095X0.032*%
%ADD81R,0.079X0.024*%
%ADD82R,0.087X0.087*%
%ADD83R,0.055X0.051*%
%ADD84R,0.051X0.055*%
%ADD85R,0.071X0.205*%
%ADD86R,0.018X0.034*%
%ADD87R,0.034X0.018*%
%ADD88R,0.158X0.158*%
%ADD89R,0.045X0.047*%
G04:AMPARAMS|DCode=90|XSize=22mil|YSize=41mil|CornerRadius=2mil|HoleSize=0mil|Usage=FLASHONLY|Rotation=270.000|XOffset=0mil|YOffset=0mil|HoleType=Round|Shape=RoundedRectangle|*
%AMROUNDEDRECTD90*
21,1,0.022,0.037,0,0,270.0*
21,1,0.017,0.041,0,0,270.0*
1,1,0.004,-0.019,-0.009*
1,1,0.004,-0.019,0.009*
1,1,0.004,0.019,0.009*
1,1,0.004,0.019,-0.009*
%
%ADD90ROUNDEDRECTD90*%
%ADD91R,0.071X0.102*%
%ADD92C,0.083*%
%ADD93C,0.073*%
%ADD94C,0.126*%
%ADD95C,0.043*%
%ADD96C,0.047*%
%ADD97C,0.033*%
G04:AMPARAMS|DCode=98|XSize=205mil|YSize=68mil|CornerRadius=17mil|HoleSize=0mil|Usage=FLASHONLY|Rotation=90.000|XOffset=0mil|YOffset=0mil|HoleType=Round|Shape=RoundedRectangle|*
%AMROUNDEDRECTD98*
21,1,0.205,0.034,0,0,90.0*
21,1,0.171,0.068,0,0,90.0*
1,1,0.034,0.017,0.085*
1,1,0.034,0.017,-0.085*
1,1,0.034,-0.017,-0.085*
1,1,0.034,-0.017,0.085*
%
%ADD98ROUNDEDRECTD98*%
%ADD99C,0.007*%
D99*
X838Y2675D02*
X868D01*
X853Y2660D02*
Y2690D01*
X938Y2675D02*
X968D01*
X953Y2660D02*
Y2690D01*
X1038Y2675D02*
X1068D01*
X1053Y2660D02*
Y2690D01*
X1138Y2675D02*
X1168D01*
X1153Y2660D02*
Y2690D01*
X1738Y2675D02*
X1768D01*
X1753Y2660D02*
Y2690D01*
X1638Y2675D02*
X1668D01*
X1653Y2660D02*
Y2690D01*
X1538Y2675D02*
X1568D01*
X1553Y2660D02*
Y2690D01*
X1438Y2675D02*
X1468D01*
X1453Y2660D02*
Y2690D01*
X1338Y2675D02*
X1368D01*
X1353Y2660D02*
Y2690D01*
X1238Y2675D02*
X1268D01*
X1253Y2660D02*
Y2690D01*
X2098Y2675D02*
X2128D01*
X2113Y2660D02*
Y2690D01*
X2198Y2675D02*
X2228D01*
X2213Y2660D02*
Y2690D01*
X2298Y2675D02*
X2328D01*
X2313Y2660D02*
Y2690D01*
X2398Y2675D02*
X2428D01*
X2413Y2660D02*
Y2690D01*
X2498Y2675D02*
X2528D01*
X2513Y2660D02*
Y2690D01*
X2598Y2675D02*
X2628D01*
X2613Y2660D02*
Y2690D01*
X1998Y2675D02*
X2028D01*
X2013Y2660D02*
Y2690D01*
X1898Y2675D02*
X1928D01*
X1913Y2660D02*
Y2690D01*
X1898Y775D02*
X1928D01*
X1913Y760D02*
Y790D01*
X1798Y775D02*
X1828D01*
X1813Y760D02*
Y790D01*
X1198Y775D02*
X1228D01*
X1213Y760D02*
Y790D01*
X1298Y775D02*
X1328D01*
X1313Y760D02*
Y790D01*
X1398Y775D02*
X1428D01*
X1413Y760D02*
Y790D01*
X1498Y775D02*
X1528D01*
X1513Y760D02*
Y790D01*
X1598Y775D02*
X1628D01*
X1613Y760D02*
Y790D01*
X1698Y775D02*
X1728D01*
X1713Y760D02*
Y790D01*
X2598Y775D02*
X2628D01*
X2613Y760D02*
Y790D01*
X2498Y775D02*
X2528D01*
X2513Y760D02*
Y790D01*
X2398Y775D02*
X2428D01*
X2413Y760D02*
Y790D01*
X2298Y775D02*
X2328D01*
X2313Y760D02*
Y790D01*
X2198Y775D02*
X2228D01*
X2213Y760D02*
Y790D01*
X2098Y775D02*
X2128D01*
X2113Y760D02*
Y790D01*
X368Y387D02*
X403D01*
X386Y370D02*
Y405D01*
X467Y387D02*
X502D01*
X484Y370D02*
Y405D01*
X565Y387D02*
X600D01*
X583Y370D02*
Y405D01*
X368Y151D02*
X403D01*
X386Y134D02*
Y169D01*
X467Y151D02*
X502D01*
X484Y134D02*
Y169D01*
X565Y151D02*
X600D01*
X583Y134D02*
Y169D01*
X833Y666D02*
X873D01*
X853Y646D02*
Y686D01*
X933Y666D02*
X973D01*
X953Y646D02*
Y686D01*
X950Y1287D02*
X990D01*
X970Y1267D02*
Y1307D01*
X1050Y1287D02*
X1090D01*
X1070Y1267D02*
Y1307D01*
X1150Y1287D02*
X1190D01*
X1170Y1267D02*
Y1307D01*
X2736Y375D02*
X2776D01*
X2756Y355D02*
Y395D01*
X2736Y275D02*
X2776D01*
X2756Y255D02*
Y295D01*
X2736Y175D02*
X2776D01*
X2756Y155D02*
Y195D01*
X2460Y175D02*
X2500D01*
X2480Y155D02*
Y195D01*
X2460Y275D02*
X2500D01*
X2480Y255D02*
Y295D01*
X2460Y375D02*
X2500D01*
X2480Y355D02*
Y395D01*
X2185Y375D02*
X2225D01*
X2205Y355D02*
Y395D01*
X2185Y275D02*
X2225D01*
X2205Y255D02*
Y295D01*
X2185Y175D02*
X2225D01*
X2205Y155D02*
Y195D01*
X1909Y175D02*
X1949D01*
X1929Y155D02*
Y195D01*
X1909Y275D02*
X1949D01*
X1929Y255D02*
Y295D01*
X1909Y375D02*
X1949D01*
X1929Y355D02*
Y395D01*
X1634Y375D02*
X1674D01*
X1654Y355D02*
Y395D01*
X1634Y275D02*
X1674D01*
X1654Y255D02*
Y295D01*
X1634Y175D02*
X1674D01*
X1654Y155D02*
Y195D01*
X1358Y175D02*
X1398D01*
X1378Y155D02*
Y195D01*
X1358Y275D02*
X1398D01*
X1378Y255D02*
Y295D01*
X1358Y375D02*
X1398D01*
X1378Y355D02*
Y395D01*
X981Y150D02*
X1020D01*
X1001Y131D02*
Y170D01*
X981Y406D02*
X1020D01*
X1001Y387D02*
Y426D01*
X1158Y150D02*
X1198D01*
X1178Y131D02*
Y170D01*
X1158Y406D02*
X1198D01*
X1178Y387D02*
Y426D01*
X877Y406D02*
X916D01*
X896Y387D02*
Y426D01*
X877Y150D02*
X916D01*
X896Y131D02*
Y170D01*
X700Y406D02*
X739D01*
X719Y387D02*
Y426D01*
X700Y150D02*
X739D01*
X719Y131D02*
Y170D01*
X118Y177D02*
X236D01*
X177Y118D02*
Y236D01*
X118Y2657D02*
X236D01*
X177Y2598D02*
Y2717D01*
X2953Y2657D02*
X3071D01*
X3012Y2598D02*
Y2717D01*
X2953Y177D02*
X3071D01*
X3012Y118D02*
Y236D01*
X118Y531D02*
X236D01*
X177Y472D02*
Y591D01*
X2953Y531D02*
X3071D01*
X3012Y472D02*
Y591D01*
X118Y2303D02*
X236D01*
X177Y2244D02*
Y2362D01*
X2953Y2303D02*
X3071D01*
X3012Y2244D02*
Y2362D01*
X195Y1532D02*
X231D01*
X213Y1514D02*
Y1549D01*
X195Y1705D02*
X231D01*
X213Y1687D02*
Y1723D01*
X2971Y1893D02*
X3011D01*
X2991Y1873D02*
Y1913D01*
X2971Y1793D02*
X3011D01*
X2991Y1773D02*
Y1813D01*
X2971Y1693D02*
X3011D01*
X2991Y1673D02*
Y1713D01*
X2971Y1993D02*
X3011D01*
X2991Y1973D02*
Y2013D01*
X2971Y2093D02*
X3011D01*
X2991Y2073D02*
Y2113D01*
X2971Y1019D02*
X3011D01*
X2991Y999D02*
Y1039D01*
X2971Y919D02*
X3011D01*
X2991Y899D02*
Y939D01*
X2971Y1306D02*
X3011D01*
X2991Y1286D02*
Y1326D01*
X2971Y1206D02*
X3011D01*
X2991Y1186D02*
Y1226D01*
X982Y2084D02*
X1022D01*
X1002Y2064D02*
Y2104D01*
X882Y2084D02*
X922D01*
X902Y2064D02*
Y2104D01*
X1133Y1752D02*
X1173D01*
X1153Y1732D02*
Y1772D01*
X1133Y1852D02*
X1173D01*
X1153Y1832D02*
Y1872D01*
X2373Y2189D02*
X2413D01*
X2393Y2169D02*
Y2209D01*
X2273Y2189D02*
X2313D01*
X2293Y2169D02*
Y2209D01*
X1284Y1852D02*
X1324D01*
X1304Y1832D02*
Y1872D01*
X1284Y1752D02*
X1324D01*
X1304Y1732D02*
Y1772D01*
X1284Y1652D02*
X1324D01*
X1304Y1632D02*
Y1672D01*
X1384Y1852D02*
X1424D01*
X1404Y1832D02*
Y1872D01*
X1384Y1752D02*
X1424D01*
X1404Y1732D02*
Y1772D01*
X1384Y1652D02*
X1424D01*
X1404Y1632D02*
Y1672D01*
X2373Y2444D02*
X2413D01*
X2393Y2424D02*
Y2464D01*
X2273Y2444D02*
X2313D01*
X2293Y2424D02*
Y2464D01*
X2173Y2444D02*
X2213D01*
X2193Y2424D02*
Y2464D01*
X2373Y2344D02*
X2413D01*
X2393Y2324D02*
Y2364D01*
X2273Y2344D02*
X2313D01*
X2293Y2324D02*
Y2364D01*
X2173Y2344D02*
X2213D01*
X2193Y2324D02*
Y2364D01*
X285Y980D02*
X325D01*
X305Y960D02*
Y1000D01*
X285Y1080D02*
X325D01*
X305Y1060D02*
Y1100D01*
X391Y1486D02*
X407D01*
X399Y1479D02*
Y1493D01*
X343Y1508D02*
X359D01*
X351Y1500D02*
Y1515D01*
X559Y911D02*
X575D01*
X567Y904D02*
Y919D01*
X559Y722D02*
X575D01*
X567Y715D02*
Y729D01*
X380Y562D02*
X394D01*
X387Y554D02*
Y570D01*
X465Y475D02*
X481D01*
X473Y468D02*
Y482D01*
X412Y573D02*
X426D01*
X419Y566D02*
Y581D01*
X2582Y2588D02*
X2598D01*
X2590Y2580D02*
Y2595D01*
X1495Y2582D02*
X1510D01*
X1502Y2575D02*
Y2589D01*
X2335Y2568D02*
X2349D01*
X2342Y2560D02*
Y2576D01*
X1230Y2534D02*
X1245D01*
X1237Y2526D02*
Y2542D01*
X1426Y2172D02*
X1441D01*
X1434Y2164D02*
Y2180D01*
X1408Y2132D02*
X1423D01*
X1416Y2125D02*
Y2139D01*
X1495Y1786D02*
X1510D01*
X1503Y1778D02*
Y1793D01*
X1530Y1758D02*
X1544D01*
X1537Y1750D02*
Y1765D01*
X2720Y1861D02*
X2734D01*
X2727Y1854D02*
Y1868D01*
X1791Y1211D02*
X1806D01*
X1799Y1204D02*
Y1219D01*
X410Y1555D02*
X424D01*
X417Y1548D02*
Y1562D01*
X1696Y2389D02*
X1711D01*
X1703Y2382D02*
Y2397D01*
X1740Y2383D02*
X1755D01*
X1747Y2375D02*
Y2391D01*
X1344Y2275D02*
X1359D01*
X1351Y2267D02*
Y2283D01*
X1324Y2361D02*
X1339D01*
X1331Y2353D02*
Y2368D01*
X1140Y2113D02*
X1156D01*
X1148Y2105D02*
Y2121D01*
X1054Y2280D02*
X1069D01*
X1061Y2273D02*
Y2287D01*
X964Y2164D02*
X979D01*
X971Y2157D02*
Y2171D01*
X2463Y2044D02*
X2477D01*
X2470Y2036D02*
Y2052D01*
X2030Y2096D02*
X2046D01*
X2038Y2089D02*
Y2103D01*
X2010Y2051D02*
X2024D01*
X2017Y2043D02*
Y2059D01*
X2047Y2360D02*
X2062D01*
X2055Y2352D02*
Y2368D01*
X1832Y2423D02*
X1847D01*
X1840Y2415D02*
Y2431D01*
X2046Y2403D02*
X2060D01*
X2053Y2395D02*
Y2411D01*
X2635Y1608D02*
X2651D01*
X2643Y1600D02*
Y1615D01*
X2602Y1683D02*
X2618D01*
X2610Y1676D02*
Y1691D01*
X1842Y1890D02*
X1857D01*
X1849Y1883D02*
Y1898D01*
X1875Y1862D02*
X1890D01*
X1882Y1855D02*
Y1870D01*
X1928Y1633D02*
X1942D01*
X1935Y1625D02*
Y1640D01*
X1933Y1533D02*
X1947D01*
X1940Y1526D02*
Y1541D01*
X1839Y1836D02*
X1854D01*
X1846Y1829D02*
Y1844D01*
X1498Y1835D02*
X1513D01*
X1506Y1827D02*
Y1842D01*
X1574Y1750D02*
X1589D01*
X1582Y1743D02*
Y1758D01*
X1770Y2278D02*
X1785D01*
X1777Y2270D02*
Y2286D01*
X1760Y1758D02*
X1775D01*
X1767Y1750D02*
Y1765D01*
X1803Y2242D02*
X1817D01*
X1810Y2234D02*
Y2250D01*
X1803Y1808D02*
X1817D01*
X1810Y1801D02*
Y1816D01*
X400Y1845D02*
X414D01*
X407Y1837D02*
Y1852D01*
X914Y1878D02*
X928D01*
X921Y1870D02*
Y1885D01*
X1025Y1892D02*
X1039D01*
X1032Y1885D02*
Y1900D01*
X702Y1854D02*
X717D01*
X710Y1847D02*
Y1862D01*
X645Y1636D02*
X660D01*
X652Y1628D02*
Y1643D01*
X1354Y1936D02*
X1368D01*
X1361Y1929D02*
Y1944D01*
X1066Y1724D02*
X1082D01*
X1074Y1717D02*
Y1732D01*
X1173Y1621D02*
X1189D01*
X1181Y1613D02*
Y1628D01*
X1201Y1592D02*
X1215D01*
X1208Y1584D02*
Y1599D01*
X1237Y1591D02*
X1252D01*
X1244Y1584D02*
Y1599D01*
X1133Y1960D02*
X1148D01*
X1140Y1952D02*
Y1967D01*
X1168Y1989D02*
X1183D01*
X1175Y1982D02*
Y1997D01*
X645Y1801D02*
X660D01*
X652Y1793D02*
Y1809D01*
X959Y1540D02*
X974D01*
X966Y1533D02*
Y1548D01*
X805Y1556D02*
X821D01*
X813Y1548D02*
Y1564D01*
X724Y1380D02*
X738D01*
X731Y1372D02*
Y1388D01*
X479Y1334D02*
X495D01*
X487Y1327D02*
Y1342D01*
X1722Y974D02*
X1737D01*
X1730Y966D02*
Y982D01*
X1428Y1470D02*
X1442D01*
X1435Y1462D02*
Y1477D01*
X1508Y963D02*
X1523D01*
X1515Y956D02*
Y970D01*
X1314Y1236D02*
X1329D01*
X1321Y1229D02*
Y1243D01*
X1253Y846D02*
X1268D01*
X1260Y839D02*
Y854D01*
X2147Y668D02*
X2161D01*
X2154Y660D02*
Y675D01*
X1707Y853D02*
X1722D01*
X1715Y845D02*
Y860D01*
X1039Y531D02*
X1054D01*
X1047Y524D02*
Y539D01*
X1679Y570D02*
X1694D01*
X1687Y562D02*
Y577D01*
X1416Y557D02*
X1431D01*
X1424Y549D02*
Y564D01*
X2417Y463D02*
X2431D01*
X2424Y456D02*
Y470D01*
X2085Y1783D02*
X2099D01*
X2092Y1776D02*
Y1791D01*
X2091Y1733D02*
X2105D01*
X2098Y1725D02*
Y1740D01*
X2460Y1733D02*
X2474D01*
X2467Y1725D02*
Y1740D01*
X1740Y1703D02*
X1755D01*
X1747Y1696D02*
Y1711D01*
X2164Y1038D02*
X2180D01*
X2172Y1031D02*
Y1046D01*
X2783Y808D02*
X2797D01*
X2790Y800D02*
Y816D01*
X2797Y1505D02*
X2812D01*
X2805Y1497D02*
Y1513D01*
X2787Y909D02*
X2803D01*
X2795Y901D02*
Y916D01*
X2787Y1036D02*
X2803D01*
X2795Y1028D02*
Y1043D01*
X2787Y1170D02*
X2803D01*
X2795Y1163D02*
Y1178D01*
X2787Y1266D02*
X2803D01*
X2795Y1258D02*
Y1273D01*
X2711Y1422D02*
X2727D01*
X2719Y1414D02*
Y1429D01*
X1936Y1482D02*
X1951D01*
X1943Y1474D02*
Y1490D01*
X1939Y1852D02*
X1954D01*
X1947Y1844D02*
Y1860D01*
X2618Y1883D02*
X2632D01*
X2625Y1875D02*
Y1890D01*
X1173Y1197D02*
X1188D01*
X1180Y1189D02*
Y1204D01*
X1895Y1920D02*
X1911D01*
X1903Y1913D02*
Y1928D01*
X1857Y1947D02*
X1872D01*
X1865Y1939D02*
Y1954D01*
X1834Y2144D02*
X1849D01*
X1842Y2136D02*
Y2151D01*
X1999Y2253D02*
X2014D01*
X2007Y2246D02*
Y2261D01*
X1826Y2001D02*
X1840D01*
X1833Y1993D02*
Y2009D01*
X1791Y1974D02*
X1806D01*
X1799Y1967D02*
Y1982D01*
X1827Y2044D02*
X1842D01*
X1835Y2036D02*
Y2052D01*
X2036Y2206D02*
X2050D01*
X2043Y2198D02*
Y2214D01*
X2678Y1653D02*
X2693D01*
X2685Y1645D02*
Y1661D01*
X2553Y2543D02*
X2569D01*
X2561Y2536D02*
Y2550D01*
X1694Y2543D02*
X1709D01*
X1702Y2536D02*
Y2550D01*
X1618Y2352D02*
X1633D01*
X1626Y2345D02*
Y2359D01*
X1140Y2754D02*
X1156D01*
X1148Y2747D02*
Y2761D01*
X1556Y2316D02*
X1571D01*
X1563Y2309D02*
Y2323D01*
X1444Y2313D02*
X1459D01*
X1452Y2306D02*
Y2320D01*
X1480Y2272D02*
X1495D01*
X1487Y2264D02*
Y2280D01*
X1395Y2745D02*
X1411D01*
X1403Y2737D02*
Y2753D01*
X1288Y2519D02*
X1304D01*
X1296Y2511D02*
Y2526D01*
X1653Y2385D02*
X1668D01*
X1660Y2378D02*
Y2392D01*
X1778Y1648D02*
X1793D01*
X1786Y1640D02*
Y1656D01*
X1378Y2307D02*
X1393D01*
X1385Y2299D02*
Y2315D01*
X1120Y2406D02*
X1135D01*
X1127Y2398D02*
Y2414D01*
X1270Y2559D02*
X1286D01*
X1278Y2552D02*
Y2566D01*
X2005Y2461D02*
X2020D01*
X2013Y2454D02*
Y2469D01*
X1592Y2434D02*
X1607D01*
X1600Y2427D02*
Y2441D01*
X1768Y2420D02*
X1783D01*
X1776Y2412D02*
Y2428D01*
X1140Y2025D02*
X1156D01*
X1148Y2017D02*
Y2033D01*
X1487Y1909D02*
X1502D01*
X1494Y1901D02*
Y1916D01*
X1456Y1950D02*
X1470D01*
X1463Y1942D02*
Y1957D01*
X1339Y1968D02*
X1355D01*
X1347Y1961D02*
Y1975D01*
X1298Y2277D02*
X1314D01*
X1306Y2270D02*
Y2284D01*
X1401Y2014D02*
X1416D01*
X1408Y2007D02*
Y2022D01*
X1360Y2033D02*
X1375D01*
X1368Y2026D02*
Y2040D01*
X1770Y1922D02*
X1785D01*
X1777Y1914D02*
Y1929D01*
X2701Y2470D02*
X2716D01*
X2708Y2463D02*
Y2477D01*
X2750Y2276D02*
X2764D01*
X2757Y2269D02*
Y2283D01*
X2905Y2367D02*
X2920D01*
X2912Y2359D02*
Y2375D01*
X2647Y2495D02*
X2661D01*
X2654Y2487D02*
Y2503D01*
X2611Y2286D02*
X2625D01*
X2618Y2279D02*
Y2293D01*
X2891Y2545D02*
X2905D01*
X2898Y2537D02*
Y2553D01*
X2810Y1587D02*
X2826D01*
X2818Y1579D02*
Y1594D01*
X1048Y2385D02*
X1062D01*
X1055Y2378D02*
Y2392D01*
X948Y2518D02*
X964D01*
X956Y2510D02*
Y2526D01*
X1411Y2459D02*
X1426D01*
X1419Y2451D02*
Y2467D01*
X2328Y2087D02*
X2342D01*
X2335Y2079D02*
Y2095D01*
X1372Y2551D02*
X1387D01*
X1379Y2543D02*
Y2559D01*
X1497Y1727D02*
X1512D01*
X1504Y1719D02*
Y1735D01*
X1133Y1440D02*
X1148D01*
X1141Y1433D02*
Y1447D01*
X1452Y2445D02*
X1467D01*
X1460Y2438D02*
Y2453D01*
X1355Y2435D02*
X1370D01*
X1363Y2428D02*
Y2443D01*
X527Y2566D02*
X543D01*
X535Y2559D02*
Y2573D01*
X799Y2363D02*
X814D01*
X807Y2355D02*
Y2370D01*
X855Y2235D02*
X871D01*
X863Y2227D02*
Y2243D01*
X900Y2578D02*
X915D01*
X908Y2570D02*
Y2586D01*
X1650Y2450D02*
X1664D01*
X1657Y2443D02*
Y2457D01*
X1141Y861D02*
X1156D01*
X1149Y854D02*
Y868D01*
X1051Y861D02*
X1066D01*
X1058Y854D02*
Y868D01*
X1367Y1996D02*
X1382D01*
X1374Y1988D02*
Y2003D01*
X756Y800D02*
X771D01*
X763Y793D02*
Y808D01*
X1916Y1968D02*
X1931D01*
X1924Y1961D02*
Y1975D01*
X1543Y2173D02*
X1559D01*
X1551Y2165D02*
Y2181D01*
X1613Y2173D02*
X1628D01*
X1621Y2165D02*
Y2181D01*
X1684Y2173D02*
X1699D01*
X1691Y2165D02*
Y2181D01*
X1684Y2103D02*
X1699D01*
X1691Y2095D02*
Y2111D01*
X1543Y2103D02*
X1559D01*
X1551Y2095D02*
Y2111D01*
X1543Y2033D02*
X1559D01*
X1551Y2026D02*
Y2040D01*
X1684Y2033D02*
X1699D01*
X1691Y2026D02*
Y2040D01*
X869Y1752D02*
X884D01*
X877Y1745D02*
Y1760D01*
X916Y1752D02*
X932D01*
X924Y1745D02*
Y1760D01*
X964Y1752D02*
X979D01*
X971Y1745D02*
Y1760D01*
X964Y1705D02*
X979D01*
X971Y1697D02*
Y1712D01*
X916Y1705D02*
X932D01*
X924Y1697D02*
Y1712D01*
X869Y1705D02*
X884D01*
X877Y1697D02*
Y1712D01*
X869Y1658D02*
X884D01*
X877Y1650D02*
Y1665D01*
X916Y1658D02*
X932D01*
X924Y1650D02*
Y1665D01*
X964Y1658D02*
X979D01*
X971Y1650D02*
Y1665D01*
X1196Y2724D02*
X1211D01*
X1203Y2717D02*
Y2731D01*
X1294Y2756D02*
X1309D01*
X1302Y2749D02*
Y2763D01*
X1613Y2103D02*
X1628D01*
X1621Y2095D02*
Y2111D01*
X1613Y2033D02*
X1628D01*
X1621Y2026D02*
Y2040D01*
X2274Y1948D02*
X2289D01*
X2282Y1941D02*
Y1956D01*
X2355Y1948D02*
X2369D01*
X2362Y1941D02*
Y1956D01*
X2355Y1868D02*
X2369D01*
X2362Y1860D02*
Y1875D01*
X2274Y1868D02*
X2289D01*
X2282Y1860D02*
Y1875D01*
X2194Y1868D02*
X2210D01*
X2202Y1860D02*
Y1875D01*
X2194Y1788D02*
X2210D01*
X2202Y1781D02*
Y1796D01*
X2274Y1788D02*
X2289D01*
X2282Y1781D02*
Y1796D01*
X2355Y1788D02*
X2369D01*
X2362Y1781D02*
Y1796D01*
X2355Y1708D02*
X2369D01*
X2362Y1701D02*
Y1715D01*
X2274Y1708D02*
X2289D01*
X2282Y1701D02*
Y1715D01*
X2194Y1708D02*
X2210D01*
X2202Y1701D02*
Y1715D01*
X2194Y1628D02*
X2210D01*
X2202Y1620D02*
Y1635D01*
X2274Y1628D02*
X2289D01*
X2282Y1620D02*
Y1635D01*
X2355Y1628D02*
X2369D01*
X2362Y1620D02*
Y1635D01*
X2355Y1548D02*
X2369D01*
X2362Y1541D02*
Y1556D01*
X2274Y1548D02*
X2289D01*
X2282Y1541D02*
Y1556D01*
X2194Y1548D02*
X2210D01*
X2202Y1541D02*
Y1556D01*
X2194Y1468D02*
X2210D01*
X2202Y1461D02*
Y1475D01*
X2274Y1468D02*
X2289D01*
X2282Y1461D02*
Y1475D01*
X2355Y1468D02*
X2369D01*
X2362Y1461D02*
Y1475D01*
X2194Y1948D02*
X2210D01*
X2202Y1941D02*
Y1956D01*
X556Y2115D02*
X595D01*
X576Y2095D02*
Y2134D01*
X655Y2115D02*
X694D01*
X674Y2095D02*
Y2134D01*
X2507Y2344D02*
X2523D01*
X2515Y2336D02*
Y2352D01*
X1237Y2371D02*
X1253D01*
X1245Y2364D02*
Y2378D01*
X1656Y1155D02*
X1671D01*
X1664Y1148D02*
Y1163D01*
X1248Y1700D02*
X1263D01*
X1256Y1692D02*
Y1707D01*
X1232Y1802D02*
X1247D01*
X1239Y1794D02*
Y1809D01*
X499Y590D02*
X514D01*
X506Y583D02*
Y598D01*
X538Y590D02*
X553D01*
X546Y583D02*
Y598D01*
X519Y561D02*
X534D01*
X526Y553D02*
Y568D01*
X499Y531D02*
X514D01*
X506Y524D02*
Y539D01*
X539Y1194D02*
X554D01*
X547Y1186D02*
Y1201D01*
X882Y1190D02*
X897D01*
X890Y1183D02*
Y1197D01*
X52Y1335D02*
X67D01*
X59Y1327D02*
Y1342D01*
X435Y1596D02*
X451D01*
X443Y1589D02*
Y1604D01*
X435Y1782D02*
X451D01*
X443Y1775D02*
Y1789D01*
X405Y1650D02*
X421D01*
X413Y1643D02*
Y1658D01*
X405Y1741D02*
X421D01*
X413Y1734D02*
Y1748D01*
X538Y531D02*
X553D01*
X546Y524D02*
Y539D01*
X607Y476D02*
X622D01*
X614Y468D02*
Y484D01*
X449Y1435D02*
X463D01*
X456Y1428D02*
Y1442D01*
X572Y476D02*
X587D01*
X580Y468D02*
Y484D01*
X428Y1414D02*
X442D01*
X435Y1406D02*
Y1421D01*
X452Y1388D02*
X468D01*
X460Y1380D02*
Y1395D01*
X558Y1221D02*
X573D01*
X566Y1214D02*
Y1229D01*
X486Y1216D02*
X502D01*
X494Y1209D02*
Y1224D01*
X576Y1170D02*
X590D01*
X583Y1163D02*
Y1178D01*
X701Y875D02*
X715D01*
X708Y868D02*
Y882D01*
X661Y909D02*
X677D01*
X669Y901D02*
Y916D01*
X631Y950D02*
X646D01*
X638Y942D02*
Y957D01*
X1207Y893D02*
X1222D01*
X1214Y886D02*
Y900D01*
X1186Y860D02*
X1202D01*
X1194Y853D02*
Y868D01*
X2170Y949D02*
X2184D01*
X2177Y942D02*
Y956D01*
X2243Y975D02*
X2257D01*
X2250Y967D02*
Y983D01*
X1857Y1702D02*
X1872D01*
X1864Y1694D02*
Y1709D01*
X2115Y1768D02*
X2129D01*
X2122Y1760D02*
Y1776D01*
X2115Y1801D02*
X2129D01*
X2122Y1793D02*
Y1809D01*
X2118Y1716D02*
X2134D01*
X2126Y1709D02*
Y1724D01*
X2102Y1688D02*
X2116D01*
X2109Y1681D02*
Y1696D01*
X2460Y1783D02*
X2474D01*
X2467Y1776D02*
Y1791D01*
X2438Y1801D02*
X2453D01*
X2445Y1793D02*
Y1809D01*
X2434Y1766D02*
X2448D01*
X2441Y1758D02*
Y1773D01*
X2451Y1684D02*
X2467D01*
X2459Y1676D02*
Y1691D01*
X2432Y1715D02*
X2447D01*
X2440Y1707D02*
Y1722D01*
X1270Y1007D02*
X1286D01*
X1278Y999D02*
Y1015D01*
X1242Y991D02*
X1258D01*
X1250Y984D02*
Y998D01*
X864Y1239D02*
X879D01*
X872Y1232D02*
Y1247D01*
X868Y1151D02*
X882D01*
X875Y1143D02*
Y1158D01*
M02*
