%FSLAX23Y23*%
%MOIN*%
G70*
G01*
G75*
G04 Layer_Physical_Order=1*
G04 Layer_Color=255*
%ADD10R,0.039X0.037*%
%ADD11R,0.050X0.060*%
%ADD12R,0.060X0.050*%
%ADD13R,0.059X0.039*%
%ADD14R,0.083X0.026*%
%ADD15R,0.256X0.630*%
%ADD16R,0.035X0.031*%
%ADD17R,0.035X0.031*%
%ADD18R,0.028X0.031*%
%ADD19R,0.039X0.059*%
%ADD20R,0.197X0.197*%
%ADD21R,0.035X0.010*%
%ADD22R,0.010X0.035*%
%ADD23R,0.118X0.177*%
%ADD24R,0.079X0.295*%
%ADD25R,0.126X0.059*%
%ADD26R,0.055X0.150*%
%ADD27R,0.050X0.014*%
%ADD28R,0.110X0.020*%
%ADD29R,0.098X0.079*%
%ADD30R,0.087X0.024*%
%ADD31R,0.071X0.016*%
%ADD32R,0.079X0.079*%
%ADD33R,0.047X0.043*%
%ADD34R,0.043X0.047*%
%ADD35R,0.063X0.197*%
%ADD36R,0.010X0.026*%
%ADD37R,0.026X0.010*%
%ADD38R,0.150X0.150*%
%ADD39R,0.037X0.039*%
G04:AMPARAMS|DCode=40|XSize=14mil|YSize=33mil|CornerRadius=1mil|HoleSize=0mil|Usage=FLASHONLY|Rotation=270.000|XOffset=0mil|YOffset=0mil|HoleType=Round|Shape=RoundedRectangle|*
%AMROUNDEDRECTD40*
21,1,0.014,0.031,0,0,270.0*
21,1,0.011,0.033,0,0,270.0*
1,1,0.003,-0.015,-0.006*
1,1,0.003,-0.015,0.006*
1,1,0.003,0.015,0.006*
1,1,0.003,0.015,-0.006*
%
%ADD40ROUNDEDRECTD40*%
%ADD41R,0.063X0.094*%
%ADD42C,0.008*%
%ADD43C,0.015*%
%ADD44C,0.020*%
%ADD45C,0.025*%
%ADD46C,0.018*%
%ADD47C,0.012*%
%ADD48C,0.010*%
%ADD49C,0.075*%
%ADD50C,0.065*%
%ADD51C,0.118*%
%ADD52C,0.035*%
%ADD53C,0.025*%
%ADD54C,0.039*%
G36*
X1308Y943D02*
X1319Y932D01*
Y911D01*
Y869D01*
X1318Y868D01*
X1283Y833D01*
X1195D01*
X1189Y839D01*
X1178Y850D01*
Y875D01*
X1196Y893D01*
X1232Y929D01*
X1234D01*
D01*
D01*
D01*
D01*
X1234D01*
Y929D01*
X1234Y929D01*
D01*
X1238Y929D01*
X1238D01*
D01*
D01*
Y929D01*
Y929D01*
X1248D01*
X1238Y931D01*
Y931D01*
X1238Y931D01*
X1237Y932D01*
X1237Y947D01*
X1304D01*
X1308Y943D01*
D02*
G37*
G36*
X2336Y1298D02*
Y1260D01*
Y910D01*
X2321Y895D01*
X2294Y868D01*
X2213D01*
X2205Y876D01*
X2156Y925D01*
Y1074D01*
Y1220D01*
X2254Y1318D01*
X2251Y1323D01*
X2254Y1327D01*
X2305D01*
X2306Y1328D01*
X2336Y1298D01*
D02*
G37*
G36*
X431Y1179D02*
X444Y1166D01*
Y1160D01*
Y953D01*
X436Y945D01*
X381D01*
X366Y960D01*
Y963D01*
Y1031D01*
X364Y1033D01*
X355Y1042D01*
X276D01*
X275Y1043D01*
X258Y1060D01*
X257D01*
Y1162D01*
X281Y1186D01*
X424D01*
X431Y1179D01*
D02*
G37*
G36*
X932Y1238D02*
Y1236D01*
Y1162D01*
X910Y1140D01*
X908Y1138D01*
X823D01*
X806Y1121D01*
X786Y1139D01*
Y1253D01*
X787Y1254D01*
X807Y1274D01*
X896D01*
X932Y1238D01*
D02*
G37*
G36*
X1322Y1013D02*
X1320Y1011D01*
X1287Y978D01*
X1229D01*
X1226Y981D01*
Y989D01*
X1263Y1026D01*
X1306D01*
X1308Y1026D01*
X1322D01*
Y1013D01*
D02*
G37*
G36*
X526Y880D02*
Y839D01*
Y805D01*
X530Y801D01*
X548Y783D01*
X635D01*
X642Y782D01*
X664D01*
X670Y776D01*
Y744D01*
X665Y739D01*
X591D01*
X582Y748D01*
X543D01*
X534Y739D01*
X419D01*
X418Y740D01*
X417Y741D01*
Y781D01*
X446D01*
X466Y801D01*
Y807D01*
Y877D01*
X467Y878D01*
X473Y884D01*
X522D01*
X526Y880D01*
D02*
G37*
G36*
X642Y553D02*
X664D01*
X678Y539D01*
Y468D01*
X671Y461D01*
X566D01*
X548Y479D01*
Y493D01*
X555Y500D01*
X613D01*
X619Y506D01*
Y536D01*
X607Y548D01*
Y554D01*
X634D01*
X642Y553D01*
D02*
G37*
G36*
X1060Y899D02*
X932Y771D01*
X705D01*
X684Y792D01*
X667D01*
Y797D01*
X667Y797D01*
X667Y797D01*
X668Y800D01*
X710D01*
X735Y825D01*
X928D01*
X1007Y904D01*
X1058D01*
X1060Y899D01*
D02*
G37*
G36*
X655Y1207D02*
Y1027D01*
X720Y962D01*
X781D01*
X800Y943D01*
Y882D01*
X775Y857D01*
X683D01*
X605Y935D01*
Y989D01*
X541Y1053D01*
Y1145D01*
X522Y1164D01*
X474D01*
X453Y1185D01*
Y1226D01*
X460Y1233D01*
X629D01*
X655Y1207D01*
D02*
G37*
G36*
X343Y1004D02*
Y933D01*
X359Y917D01*
X398D01*
X436Y879D01*
Y790D01*
X264D01*
X237Y817D01*
Y999D01*
X259Y1021D01*
X326D01*
X343Y1004D01*
D02*
G37*
G36*
X2124Y1739D02*
X2139Y1724D01*
Y1700D01*
Y1686D01*
X2127Y1674D01*
X2125Y1672D01*
X2102D01*
X2091Y1683D01*
X2089Y1685D01*
Y1706D01*
Y1710D01*
X2083Y1716D01*
X2063D01*
X2050Y1729D01*
X2049Y1730D01*
Y1743D01*
X2120D01*
X2124Y1739D01*
D02*
G37*
G36*
X1980Y1688D02*
Y1685D01*
X2007D01*
X2012Y1680D01*
X2010Y1675D01*
X1767D01*
X1764Y1672D01*
X1723D01*
X1716Y1679D01*
Y1700D01*
X1730Y1714D01*
X1843D01*
X1856Y1727D01*
X1941D01*
X1980Y1688D01*
D02*
G37*
G36*
X2518Y1741D02*
Y1724D01*
X2497D01*
X2494Y1721D01*
X2482Y1709D01*
Y1705D01*
Y1681D01*
X2479Y1678D01*
X2470Y1669D01*
X2434D01*
X2433Y1670D01*
X2427Y1676D01*
Y1677D01*
Y1716D01*
X2429Y1718D01*
X2453Y1742D01*
X2454D01*
X2454Y1742D01*
X2457Y1742D01*
X2458Y1743D01*
X2516D01*
X2518Y1741D01*
D02*
G37*
G36*
X2135Y1807D02*
X2136Y1806D01*
Y1764D01*
Y1762D01*
X2129Y1755D01*
X2128Y1756D01*
X2098D01*
X2078Y1776D01*
X2077Y1775D01*
X2046D01*
Y1785D01*
X2046Y1785D01*
X2046Y1785D01*
X2047Y1787D01*
X2079D01*
X2103Y1811D01*
X2104Y1812D01*
X2130D01*
X2135Y1807D01*
D02*
G37*
G36*
X2460Y1811D02*
X2473Y1798D01*
X2519D01*
X2534Y1783D01*
X2525Y1770D01*
X2474D01*
X2466Y1762D01*
X2454Y1750D01*
X2431D01*
X2425Y1756D01*
Y1766D01*
Y1803D01*
X2430Y1808D01*
X2435Y1813D01*
X2458D01*
X2460Y1811D01*
D02*
G37*
G36*
X2860Y1611D02*
Y1547D01*
Y1545D01*
X2856Y1541D01*
X2855Y1540D01*
X2766D01*
Y1537D01*
X2759Y1530D01*
X2727D01*
X2719Y1554D01*
X2799Y1634D01*
X2837D01*
X2860Y1611D01*
D02*
G37*
G36*
X542Y1413D02*
X546Y1409D01*
X503Y1366D01*
X419D01*
X411Y1374D01*
Y1375D01*
Y1417D01*
X450Y1456D01*
X542D01*
Y1413D01*
D02*
G37*
G36*
X417Y1484D02*
X377Y1444D01*
X376Y1443D01*
X307D01*
Y1554D01*
X309Y1555D01*
Y1555D01*
X309Y1555D01*
X417D01*
Y1484D01*
D02*
G37*
G36*
X825Y1629D02*
X819Y1623D01*
X712D01*
X712Y1624D01*
X657Y1569D01*
X652Y1570D01*
X651Y1635D01*
X655Y1639D01*
X702D01*
X719Y1656D01*
X825D01*
X825Y1629D01*
D02*
G37*
G36*
X446Y1691D02*
X463Y1674D01*
X595D01*
X598Y1671D01*
X610Y1659D01*
Y1657D01*
Y1627D01*
X591Y1608D01*
X491D01*
X490Y1609D01*
X479Y1620D01*
Y1623D01*
Y1631D01*
X451Y1659D01*
X429Y1681D01*
X339D01*
X337Y1686D01*
X348Y1697D01*
X440D01*
X446Y1691D01*
D02*
G37*
D10*
X731Y1491D02*
D03*
Y1428D02*
D03*
X1826Y1761D02*
D03*
Y1698D02*
D03*
X2634Y1539D02*
D03*
Y1476D02*
D03*
X1319Y2169D02*
D03*
Y2232D02*
D03*
X1385D02*
D03*
Y2169D02*
D03*
X1061Y1553D02*
D03*
Y1490D02*
D03*
X987Y1428D02*
D03*
Y1491D02*
D03*
X2572Y573D02*
D03*
Y510D02*
D03*
X2053Y608D02*
D03*
Y545D02*
D03*
X1766Y612D02*
D03*
Y549D02*
D03*
X1247Y474D02*
D03*
Y537D02*
D03*
X1640Y1088D02*
D03*
Y1025D02*
D03*
X1350Y1315D02*
D03*
Y1378D02*
D03*
X755Y1815D02*
D03*
Y1878D02*
D03*
X1061Y2178D02*
D03*
Y2241D02*
D03*
X1097Y2113D02*
D03*
Y2050D02*
D03*
X1121Y1019D02*
D03*
Y956D02*
D03*
Y1084D02*
D03*
Y1147D02*
D03*
X1220Y1084D02*
D03*
Y1147D02*
D03*
X1291Y614D02*
D03*
Y677D02*
D03*
X1221Y614D02*
D03*
Y677D02*
D03*
X335Y542D02*
D03*
Y605D02*
D03*
D11*
X3053Y1417D02*
D03*
X2975D02*
D03*
X3053Y1505D02*
D03*
X2975D02*
D03*
X2977Y808D02*
D03*
X3055D02*
D03*
X2977Y721D02*
D03*
X3055D02*
D03*
X2835Y2417D02*
D03*
X2757D02*
D03*
X2835Y2337D02*
D03*
X2757D02*
D03*
Y2545D02*
D03*
X2835D02*
D03*
X954Y1940D02*
D03*
X1032D02*
D03*
X484Y1982D02*
D03*
X406D02*
D03*
X484Y1904D02*
D03*
X406D02*
D03*
X110Y1335D02*
D03*
X188D02*
D03*
X110Y1255D02*
D03*
X188D02*
D03*
X2281Y2081D02*
D03*
X2203D02*
D03*
D12*
X1231Y2183D02*
D03*
Y2261D02*
D03*
X1915Y1781D02*
D03*
Y1703D02*
D03*
X2719Y1476D02*
D03*
Y1554D02*
D03*
X1539Y2384D02*
D03*
Y2462D02*
D03*
X2153Y608D02*
D03*
Y530D02*
D03*
X1435Y1393D02*
D03*
Y1315D02*
D03*
X1730Y1025D02*
D03*
Y1103D02*
D03*
X1850Y627D02*
D03*
Y549D02*
D03*
X1331Y473D02*
D03*
Y551D02*
D03*
D13*
X1140Y2334D02*
D03*
Y2188D02*
D03*
X2790Y1861D02*
D03*
Y1715D02*
D03*
D14*
X2023Y1933D02*
D03*
Y1883D02*
D03*
Y1833D02*
D03*
Y1783D02*
D03*
Y1733D02*
D03*
Y1683D02*
D03*
Y1633D02*
D03*
Y1583D02*
D03*
Y1533D02*
D03*
Y1483D02*
D03*
X2541Y1933D02*
D03*
Y1883D02*
D03*
Y1833D02*
D03*
Y1783D02*
D03*
Y1733D02*
D03*
Y1683D02*
D03*
Y1633D02*
D03*
Y1583D02*
D03*
Y1533D02*
D03*
Y1483D02*
D03*
D15*
X2282Y1708D02*
D03*
D16*
X1000Y2310D02*
D03*
D17*
Y2385D02*
D03*
X921Y2347D02*
D03*
D18*
X2079Y2080D02*
D03*
X2136D02*
D03*
X884Y1940D02*
D03*
X827D02*
D03*
D19*
X1569Y915D02*
D03*
X1715D02*
D03*
D20*
X1621Y2103D02*
D03*
D21*
X1755Y2005D02*
D03*
Y2024D02*
D03*
Y2044D02*
D03*
Y2064D02*
D03*
Y2083D02*
D03*
Y2103D02*
D03*
Y2123D02*
D03*
Y2142D02*
D03*
Y2162D02*
D03*
Y2182D02*
D03*
Y2201D02*
D03*
X1487D02*
D03*
Y2182D02*
D03*
Y2162D02*
D03*
Y2142D02*
D03*
Y2123D02*
D03*
Y2103D02*
D03*
Y2083D02*
D03*
Y2064D02*
D03*
Y2044D02*
D03*
Y2024D02*
D03*
Y2005D02*
D03*
D22*
X1719Y2237D02*
D03*
X1700D02*
D03*
X1680D02*
D03*
X1660D02*
D03*
X1641D02*
D03*
X1621D02*
D03*
X1601D02*
D03*
X1582D02*
D03*
X1562D02*
D03*
X1542D02*
D03*
X1523D02*
D03*
Y1969D02*
D03*
X1542D02*
D03*
X1562D02*
D03*
X1582D02*
D03*
X1601D02*
D03*
X1621D02*
D03*
X1641D02*
D03*
X1660D02*
D03*
X1680D02*
D03*
X1700D02*
D03*
X1719D02*
D03*
D23*
X1591Y1465D02*
D03*
X1827D02*
D03*
D24*
X1840Y1005D02*
D03*
X2060D02*
D03*
D25*
X546Y1435D02*
D03*
Y1600D02*
D03*
D26*
X785Y925D02*
D03*
Y1189D02*
D03*
D27*
X410Y800D02*
D03*
Y774D02*
D03*
Y748D02*
D03*
Y722D02*
D03*
X642Y800D02*
D03*
Y774D02*
D03*
Y748D02*
D03*
Y722D02*
D03*
D28*
X325Y1681D02*
D03*
Y1650D02*
D03*
Y1618D02*
D03*
Y1587D02*
D03*
Y1555D02*
D03*
D29*
X311Y1443D02*
D03*
X95D02*
D03*
X311Y1793D02*
D03*
X95D02*
D03*
D30*
X2272Y660D02*
D03*
Y610D02*
D03*
Y560D02*
D03*
Y510D02*
D03*
X2461Y660D02*
D03*
Y610D02*
D03*
Y560D02*
D03*
Y510D02*
D03*
D31*
X1401Y678D02*
D03*
Y652D02*
D03*
Y627D02*
D03*
Y601D02*
D03*
X1564Y678D02*
D03*
Y652D02*
D03*
Y627D02*
D03*
Y601D02*
D03*
X1538Y1018D02*
D03*
Y1044D02*
D03*
Y1069D02*
D03*
Y1095D02*
D03*
X1375Y1018D02*
D03*
Y1044D02*
D03*
Y1069D02*
D03*
Y1095D02*
D03*
D32*
X1648Y498D02*
D03*
X1491D02*
D03*
X1273Y916D02*
D03*
X1430D02*
D03*
X2435Y909D02*
D03*
X2278D02*
D03*
X2277Y1038D02*
D03*
X2434D02*
D03*
X2433Y1170D02*
D03*
X2276D02*
D03*
Y1294D02*
D03*
X2433D02*
D03*
X2710Y909D02*
D03*
X2553D02*
D03*
X2552Y1038D02*
D03*
X2709D02*
D03*
X2708Y1170D02*
D03*
X2551D02*
D03*
Y1294D02*
D03*
X2708D02*
D03*
D33*
X905Y1427D02*
D03*
X813D02*
D03*
X905Y1495D02*
D03*
X813D02*
D03*
D34*
X1893Y2161D02*
D03*
Y2253D02*
D03*
X1961Y2161D02*
D03*
Y2253D02*
D03*
D35*
X547Y1048D02*
D03*
X413Y1046D02*
D03*
D36*
X855Y1606D02*
D03*
X875D02*
D03*
X894D02*
D03*
X914D02*
D03*
X934D02*
D03*
X954D02*
D03*
X973D02*
D03*
X993D02*
D03*
Y1804D02*
D03*
X973D02*
D03*
X954D02*
D03*
X934D02*
D03*
X914D02*
D03*
X894D02*
D03*
X875D02*
D03*
X855D02*
D03*
D37*
X1023Y1636D02*
D03*
Y1656D02*
D03*
Y1675D02*
D03*
Y1695D02*
D03*
Y1715D02*
D03*
Y1735D02*
D03*
Y1754D02*
D03*
Y1774D02*
D03*
X825D02*
D03*
Y1754D02*
D03*
Y1735D02*
D03*
Y1715D02*
D03*
Y1695D02*
D03*
Y1675D02*
D03*
Y1656D02*
D03*
Y1636D02*
D03*
D38*
X924Y1705D02*
D03*
D39*
X1466Y2394D02*
D03*
X1403D02*
D03*
X1956Y2330D02*
D03*
X1893D02*
D03*
X1895Y2084D02*
D03*
X1958D02*
D03*
Y2016D02*
D03*
X1895D02*
D03*
X1554Y1185D02*
D03*
X1617D02*
D03*
X1633Y678D02*
D03*
X1696D02*
D03*
X1300Y1185D02*
D03*
X1363D02*
D03*
X1086Y608D02*
D03*
X1149D02*
D03*
X587Y661D02*
D03*
X650D02*
D03*
X664Y510D02*
D03*
X727D02*
D03*
X796Y1320D02*
D03*
X859D02*
D03*
X733Y1738D02*
D03*
X670D02*
D03*
X1616Y1825D02*
D03*
X1679D02*
D03*
X2845Y1417D02*
D03*
X2908D02*
D03*
Y1505D02*
D03*
X2845D02*
D03*
X2847Y721D02*
D03*
X2910D02*
D03*
Y808D02*
D03*
X2847D02*
D03*
X2675Y2417D02*
D03*
X2612D02*
D03*
Y2336D02*
D03*
X2675D02*
D03*
X929Y2460D02*
D03*
X992D02*
D03*
Y2235D02*
D03*
X929D02*
D03*
X2687Y2545D02*
D03*
X2624D02*
D03*
X2820Y1993D02*
D03*
X2757D02*
D03*
Y2093D02*
D03*
X2820D02*
D03*
X2079Y2150D02*
D03*
X2142D02*
D03*
X616Y1982D02*
D03*
X553D02*
D03*
Y1904D02*
D03*
X616D02*
D03*
X1208Y1549D02*
D03*
X1271D02*
D03*
Y1479D02*
D03*
X1208D02*
D03*
X884Y1878D02*
D03*
X821D02*
D03*
X487Y1712D02*
D03*
X550D02*
D03*
Y1782D02*
D03*
X487D02*
D03*
X323Y1335D02*
D03*
X260D02*
D03*
X1422Y1185D02*
D03*
X1485D02*
D03*
X1086Y675D02*
D03*
X1149D02*
D03*
X507Y860D02*
D03*
X570D02*
D03*
X340Y475D02*
D03*
X403D02*
D03*
X323Y1255D02*
D03*
X260D02*
D03*
X1297Y1990D02*
D03*
X1234D02*
D03*
D40*
X468Y522D02*
D03*
Y548D02*
D03*
Y573D02*
D03*
Y599D02*
D03*
X584Y522D02*
D03*
Y548D02*
D03*
Y573D02*
D03*
Y599D02*
D03*
D41*
X526Y561D02*
D03*
D42*
X567Y863D02*
X570Y860D01*
X567Y863D02*
Y911D01*
X365Y542D02*
X385Y522D01*
X335Y542D02*
X365D01*
X385Y522D02*
X468D01*
X387Y562D02*
X401Y548D01*
X468D01*
X468Y573D02*
X468Y573D01*
X419Y573D02*
X468D01*
X335Y542D02*
Y552D01*
Y529D02*
Y542D01*
X1228Y2731D02*
X1372D01*
X1221Y2724D02*
X1228Y2731D01*
X1203Y2724D02*
X1221D01*
X1437Y2745D02*
X1445Y2753D01*
X2094D01*
X1403Y2745D02*
X1437D01*
X1532Y2623D02*
X1539Y2616D01*
X953Y2675D02*
X1005Y2623D01*
X1532D01*
X1539Y2616D02*
X2301D01*
X1276Y2607D02*
X1522D01*
X1531Y2598D01*
X1237Y2568D02*
X1276Y2607D01*
X1531Y2598D02*
X2372D01*
X1372Y2731D02*
X1394Y2709D01*
X1415D01*
X2313Y2628D02*
Y2675D01*
X2301Y2616D02*
X2313Y2628D01*
X2382Y2588D02*
X2590D01*
X2372Y2598D02*
X2382Y2588D01*
X1164Y1936D02*
X1361D01*
X1153Y1925D02*
X1164Y1936D01*
X1110Y1925D02*
X1153D01*
X1047Y1862D02*
X1110Y1925D01*
X1332Y1996D02*
X1374D01*
X1326Y1990D02*
X1332Y1996D01*
X1297Y1990D02*
X1326D01*
X1431Y2064D02*
X1487D01*
X1408Y2041D02*
X1431Y2064D01*
X1408Y2014D02*
Y2041D01*
X1435Y2030D02*
X1449Y2044D01*
X1487D01*
X1237Y2534D02*
Y2568D01*
X1991Y2461D02*
X2013D01*
X1642Y2568D02*
X2342D01*
X1434Y2172D02*
X1444Y2162D01*
X1487D01*
X1416Y2132D02*
X1447D01*
X1457Y2142D01*
X1456Y2249D02*
Y2267D01*
Y2249D02*
X1487Y2218D01*
Y2201D02*
Y2218D01*
X1419Y2304D02*
X1456Y2267D01*
X1432Y2226D02*
Y2260D01*
X1453Y2189D02*
Y2205D01*
X1432Y2226D02*
X1453Y2205D01*
X1385Y2307D02*
X1432Y2260D01*
X1453Y2189D02*
X1460Y2182D01*
X1487D01*
X1500Y2237D02*
X1523D01*
X1487Y2250D02*
Y2272D01*
Y2250D02*
X1500Y2237D01*
X1457Y2142D02*
X1487D01*
X1443Y2101D02*
X1465Y2123D01*
X1397Y2101D02*
X1443D01*
X1465Y2123D02*
X1487D01*
X1523Y1875D02*
Y1969D01*
X1506Y1858D02*
X1523Y1875D01*
X1506Y1835D02*
Y1858D01*
X1542Y1803D02*
Y1969D01*
X2588Y2044D02*
X2727Y1905D01*
X2470Y2044D02*
X2588D01*
X2727Y1861D02*
Y1905D01*
X1777Y1189D02*
X1799Y1211D01*
X1777Y939D02*
Y1189D01*
X1753Y915D02*
X1777Y939D01*
X1715Y915D02*
X1753D01*
X1680Y2237D02*
Y2332D01*
X1703Y2355D01*
X1700Y2237D02*
Y2315D01*
X1747Y2362D01*
X1703Y2355D02*
Y2389D01*
X1747Y2362D02*
Y2383D01*
X1419Y2304D02*
Y2323D01*
X1406Y2336D02*
X1419Y2323D01*
X1385Y2352D02*
X1487D01*
X1331Y2406D02*
X1385Y2352D01*
X1127Y2406D02*
X1331D01*
X1061Y2241D02*
Y2280D01*
X1086Y1960D02*
X1140D01*
X1719Y2237D02*
Y2292D01*
X2032Y2383D02*
X2055Y2360D01*
X1810Y2383D02*
X2032D01*
X1719Y2292D02*
X1810Y2383D01*
X2820Y1993D02*
X2990D01*
X2820Y2093D02*
X2990D01*
X2618Y1583D02*
X2643Y1608D01*
X2541Y1583D02*
X2618D01*
X2541Y1683D02*
X2610D01*
X1680Y1941D02*
Y1969D01*
X1660Y1936D02*
Y1969D01*
Y1936D02*
X1734Y1862D01*
X1882D01*
X1935Y1633D02*
X2023D01*
X1940Y1533D02*
X2023D01*
X1735Y1836D02*
X1846D01*
X1641Y1930D02*
X1735Y1836D01*
X1641Y1930D02*
Y1969D01*
X1487Y2005D02*
X1487Y2005D01*
X1758Y1808D02*
X1810D01*
X1743Y1758D02*
X1767D01*
X1582Y1750D02*
Y1969D01*
X1562D02*
X1562Y1969D01*
X1453Y1519D02*
X1504Y1570D01*
X1355Y1519D02*
X1453D01*
X1315Y1479D02*
X1355Y1519D01*
X1271Y1479D02*
X1315Y1479D01*
X954Y1884D02*
Y1940D01*
X976Y1862D02*
X1047D01*
X954Y1884D02*
X976Y1862D01*
X799Y1735D02*
X825D01*
X484Y1982D02*
X553Y1982D01*
X484Y1904D02*
X553Y1904D01*
X1022Y1804D02*
X1127Y1909D01*
X993Y1804D02*
X1022D01*
X1101Y1725D02*
Y1735D01*
X1082Y1754D02*
X1101Y1735D01*
X1023Y1754D02*
X1082D01*
X1107Y1695D02*
X1148Y1654D01*
X1198D01*
X1023Y1695D02*
X1107D01*
X1101Y1675D02*
X1155Y1621D01*
X1181D01*
X1023Y1675D02*
X1101D01*
X1092Y1656D02*
X1156Y1592D01*
X1208D01*
X1023Y1656D02*
X1092D01*
X1166Y1549D02*
X1208D01*
X1079Y1636D02*
X1166Y1549D01*
X1023Y1636D02*
X1079D01*
X1121Y1490D02*
Y1566D01*
X1081Y1606D02*
X1121Y1566D01*
X993Y1606D02*
X1081D01*
X616Y1982D02*
X649Y1982D01*
X1097Y2056D02*
X1099Y2054D01*
X606Y1982D02*
X616D01*
X827Y1940D02*
Y1975D01*
X840Y1988D01*
X948D01*
X954Y1982D01*
Y1940D02*
Y1982D01*
X1132Y1479D02*
X1208Y1479D01*
X1121Y1490D02*
X1132Y1479D01*
X875Y1554D02*
X905Y1524D01*
Y1495D02*
Y1524D01*
X875Y1554D02*
Y1606D01*
X805D02*
X855D01*
X731Y1532D02*
X805Y1606D01*
X188Y1335D02*
X260D01*
X188Y1255D02*
X260Y1255D01*
X1715Y915D02*
X1715Y915D01*
Y853D02*
Y915D01*
X1569Y866D02*
Y915D01*
X1554Y851D02*
X1569Y866D01*
X1488Y851D02*
X1554D01*
X1413Y775D02*
X1488Y851D01*
X1700Y1944D02*
Y1969D01*
X1863Y2253D02*
X1893D01*
X1755Y2182D02*
X1779D01*
X1789Y2192D01*
Y2228D01*
X1777Y2240D02*
X1789Y2228D01*
X1777Y2240D02*
Y2278D01*
X1833Y2223D02*
X1863Y2253D01*
X1893D02*
Y2330D01*
X1755Y2064D02*
X1815D01*
X1835Y2044D01*
X1755Y2201D02*
Y2253D01*
X1746Y2262D02*
X1755Y2253D01*
X1746Y2262D02*
Y2291D01*
X1819Y2364D01*
X2541Y1633D02*
X2621D01*
X2641Y1653D01*
X2685D01*
X1702Y2543D02*
X2561D01*
X1626Y2295D02*
Y2352D01*
Y2295D02*
X1641Y2280D01*
Y2237D02*
Y2280D01*
X1582Y2237D02*
Y2266D01*
X1563Y2285D02*
X1582Y2266D01*
X1563Y2285D02*
Y2316D01*
X1542Y2237D02*
Y2258D01*
X1487Y2313D02*
X1542Y2258D01*
X1452Y2313D02*
X1487D01*
X2213Y2675D02*
Y2740D01*
X1660Y2385D02*
X1660Y2385D01*
Y2237D02*
Y2385D01*
X1786Y1648D02*
X1858D01*
X1923Y1583D01*
X2023D01*
X1415Y2709D02*
X1434Y2728D01*
X1459Y2024D02*
X1487D01*
X1451Y2016D02*
X1459Y2024D01*
X1439Y2064D02*
X1487D01*
X1285Y2256D02*
X1306Y2277D01*
X1743Y1878D02*
X1801D01*
X1680Y1941D02*
X1743Y1878D01*
X1801D02*
X1813Y1890D01*
X1849D01*
X1700Y1944D02*
X1710Y1934D01*
X1738Y1906D01*
X1710Y1934D02*
X1750Y1894D01*
X1792D01*
X1818Y1920D01*
X1849D01*
X1829D02*
X1849D01*
X1903D01*
X1745Y1922D02*
X1777D01*
X1719Y1948D02*
X1745Y1922D01*
X1719Y1948D02*
Y1969D01*
X1799Y1974D02*
Y2004D01*
X1755Y2024D02*
X1779D01*
X1799Y2004D01*
X1755Y2044D02*
X1790D01*
X1833Y2001D01*
X1770Y1947D02*
X1865D01*
X1755Y1962D02*
X1770Y1947D01*
X1755Y1962D02*
Y2005D01*
X2675Y2336D02*
Y2417D01*
X2757D01*
X2835D02*
Y2463D01*
X2828Y2470D02*
X2835Y2463D01*
X2708Y2470D02*
X2828D01*
X2757Y2276D02*
Y2337D01*
X2835D02*
X2835Y2337D01*
X2835Y2337D02*
X2882D01*
X2882Y2337D02*
X2912Y2367D01*
X2654Y2495D02*
Y2499D01*
X2675Y2417D02*
Y2445D01*
X2654Y2466D02*
X2675Y2445D01*
X2654Y2466D02*
Y2495D01*
X2687Y2545D02*
X2757Y2545D01*
X2790Y1715D02*
X2851D01*
X2929Y1793D01*
X2991D01*
X1562Y2237D02*
Y2261D01*
X1528Y2295D02*
X1562Y2261D01*
X1487Y2352D02*
X1528Y2311D01*
Y2295D02*
Y2311D01*
X1658Y1673D02*
X1743Y1758D01*
X1446Y1549D02*
X1486Y1589D01*
Y1671D01*
X1508Y1693D01*
X1643D01*
X1271Y1549D02*
X1446Y1549D01*
X1643Y1693D02*
X1758Y1808D01*
X863Y2235D02*
X929D01*
X863Y2235D02*
X863Y2235D01*
X908Y2578D02*
X1095D01*
X1185Y2488D01*
X1278Y2559D02*
X1317D01*
X1342Y2584D01*
X1976Y2476D02*
X1991Y2461D01*
X1642Y2476D02*
X1976D01*
X1633Y2450D02*
X1657D01*
X1584Y2499D02*
X1633Y2450D01*
X1296Y2519D02*
X1599D01*
X1642Y2476D01*
X1502Y2582D02*
X1628D01*
X1642Y2568D01*
X1342Y2584D02*
X1440D01*
X1469Y2555D01*
X1379Y2551D02*
X1443D01*
X1456Y2538D01*
X1608D01*
X1652Y2494D01*
X1469Y2555D02*
X1626D01*
X1664Y2517D01*
X2270D01*
X1379Y2499D02*
X1584D01*
X1185Y2488D02*
X1368D01*
X1379Y2499D01*
X1058Y861D02*
X1149D01*
X1494Y1909D02*
Y1974D01*
X1487Y1981D02*
Y2005D01*
Y1981D02*
X1494Y1974D01*
X1463Y1950D02*
Y1979D01*
X1451Y1991D02*
Y2016D01*
Y1991D02*
X1463Y1979D01*
X1435Y2000D02*
Y2030D01*
X1347Y1968D02*
X1403D01*
X1435Y2000D01*
X1418Y2083D02*
X1487D01*
X1368Y2033D02*
X1418Y2083D01*
X1787Y2162D02*
X1810Y2185D01*
X1755Y2162D02*
X1787D01*
X1810Y2185D02*
Y2242D01*
X1755Y2142D02*
X1791D01*
X1833Y2184D01*
Y2223D01*
X1860Y2728D02*
X1913Y2675D01*
X1434Y2728D02*
X1860D01*
X2113Y2675D02*
Y2734D01*
X2094Y2753D02*
X2113Y2734D01*
X2182Y2771D02*
X2213Y2740D01*
X2413Y2675D02*
Y2727D01*
X1194Y2754D02*
X1229Y2789D01*
X1148Y2754D02*
X1194D01*
X1229Y2789D02*
X2351D01*
X2413Y2727D01*
X1302Y2756D02*
X1364D01*
X1379Y2771D01*
X2182D01*
X1091Y1989D02*
X1175D01*
X693Y2026D02*
X1054D01*
X649Y1982D02*
X693Y2026D01*
X1054D02*
X1091Y1989D01*
X616Y1904D02*
X647Y1904D01*
X752Y2009D02*
X1037D01*
X647Y1904D02*
X752Y2009D01*
X1037D02*
X1086Y1960D01*
X1398Y2336D02*
X1406D01*
X1331Y2345D02*
X1340Y2336D01*
X1331Y2345D02*
Y2361D01*
X1340Y2336D02*
X1398D01*
X1840Y2423D02*
X1911D01*
X1931Y2403D02*
X2053D01*
X1911Y2423D02*
X1931Y2403D01*
X1600Y2434D02*
X1626D01*
X1640Y2420D02*
X1776D01*
X1626Y2434D02*
X1640Y2420D01*
X1503Y1786D02*
X1525D01*
X1542Y1803D01*
X1537Y1758D02*
X1562Y1783D01*
Y1969D01*
X1504Y1570D02*
Y1658D01*
X1519Y1673D01*
X1658D01*
X1023Y1715D02*
X1048D01*
X1057Y1724D01*
X1069D01*
X1074D01*
X731Y1491D02*
X762D01*
X731Y1485D02*
Y1532D01*
X782Y1427D02*
X813D01*
X770Y1439D02*
X782Y1427D01*
X762Y1491D02*
X770Y1483D01*
Y1439D02*
Y1483D01*
X952Y1491D02*
X987D01*
X948Y1495D02*
X952Y1491D01*
X905Y1495D02*
X948D01*
X1961Y2129D02*
Y2161D01*
X1953Y2121D02*
X1961Y2129D01*
X1860Y2108D02*
X1873Y2121D01*
X1807Y2108D02*
X1860D01*
X1755Y2123D02*
X1792D01*
X1807Y2108D01*
X1895Y2084D02*
Y2112D01*
X1873Y2121D02*
X1904D01*
X1953D01*
X1895Y2112D02*
X1904Y2121D01*
X1385Y2113D02*
X1397Y2101D01*
X1231Y2144D02*
X1247Y2128D01*
X1373D01*
X1231Y2144D02*
Y2183D01*
X1385Y2169D02*
X1385Y2169D01*
X1373Y2128D02*
X1385Y2140D01*
Y2113D02*
Y2140D01*
Y2169D01*
X1285Y2249D02*
Y2256D01*
Y2178D02*
X1294Y2169D01*
X1319D01*
X1285Y2178D02*
Y2249D01*
X1819Y2364D02*
X1986D01*
X2046Y2051D02*
X2053Y2044D01*
X2017Y2051D02*
X2046D01*
X2136Y2053D02*
Y2080D01*
X2053Y2044D02*
X2127D01*
X2136Y2053D01*
X2757Y2093D02*
X2763D01*
X792Y1742D02*
X799Y1735D01*
X792Y1742D02*
Y1762D01*
X786Y1815D02*
X792Y1809D01*
X755Y1815D02*
X786D01*
X792Y1762D02*
Y1809D01*
X855Y1804D02*
Y1821D01*
X821Y1855D02*
Y1878D01*
Y1855D02*
X855Y1821D01*
X821Y1878D02*
Y1908D01*
X827Y1914D02*
Y1940D01*
X821Y1908D02*
X827Y1914D01*
X1069Y1724D02*
X1072Y1727D01*
X1052Y2084D02*
X1058Y2079D01*
Y2056D02*
X1063Y2050D01*
X1002Y2084D02*
X1052D01*
X1063Y2050D02*
X1097D01*
X1058Y2056D02*
Y2079D01*
X2136Y2080D02*
Y2108D01*
X2142Y2114D01*
Y2150D01*
X2570Y2517D02*
X2598Y2545D01*
X1105Y2188D02*
X1140D01*
X1097Y2196D02*
X1105Y2188D01*
X1097Y2196D02*
Y2234D01*
X1090Y2241D02*
X1097Y2234D01*
X1061Y2241D02*
X1090D01*
X992Y2235D02*
Y2271D01*
X1000Y2279D01*
Y2310D01*
X1227Y2025D02*
X1234Y2018D01*
Y1990D02*
Y2018D01*
X1148Y2025D02*
X1227D01*
X1127Y1909D02*
X1247D01*
X1304Y1852D01*
X1354Y1802D02*
X1404Y1852D01*
X1101Y1725D02*
X1110Y1716D01*
X1124Y1702D01*
X1110Y1716D02*
X1134Y1692D01*
X1216Y1619D02*
X1244Y1591D01*
X1198Y1654D02*
X1216Y1636D01*
Y1619D02*
Y1636D01*
X1354Y1702D02*
X1404Y1752D01*
X1354Y1605D02*
Y1702D01*
X1342Y1593D02*
X1354Y1605D01*
X1241Y1752D02*
X1304D01*
X1134Y1692D02*
X1181D01*
X1241Y1752D01*
X1279Y1593D02*
X1342D01*
X1153Y1852D02*
X1226D01*
X1276Y1802D02*
X1354D01*
X1226Y1852D02*
X1276Y1802D01*
X1023Y1774D02*
X1075D01*
X1247Y1625D02*
X1256Y1616D01*
X1279Y1593D01*
X1241Y1631D02*
X1256Y1616D01*
X1241Y1631D02*
Y1685D01*
X1256Y1700D01*
X1103Y1802D02*
X1239D01*
X1075Y1774D02*
X1103Y1802D01*
X2043Y2206D02*
X2164D01*
X2689Y1993D02*
X2757D01*
X2164Y2206D02*
X2183Y2187D01*
X2599Y2083D02*
X2689Y1993D01*
X2616Y2114D02*
X2637Y2093D01*
X2757D01*
X2330Y2044D02*
X2470D01*
X2162Y2037D02*
X2323D01*
X2127Y2044D02*
X2155D01*
X2162Y2037D01*
X2323D02*
X2330Y2044D01*
X2137Y2081D02*
X2203D01*
X2136Y2080D02*
X2137Y2081D01*
X2727Y1861D02*
X2790D01*
X2183Y2139D02*
Y2187D01*
Y2139D02*
X2199Y2123D01*
X2343D02*
X2383Y2083D01*
X2599D01*
X2199Y2123D02*
X2343D01*
X2380Y2114D02*
X2616D01*
X2233Y2139D02*
X2355D01*
X2210Y2162D02*
X2233Y2139D01*
X2210Y2162D02*
Y2198D01*
X2135Y2273D02*
X2210Y2198D01*
X2077Y2273D02*
X2135D01*
X1986Y2364D02*
X2077Y2273D01*
X2355Y2139D02*
X2380Y2114D01*
X2125Y2315D02*
X2171Y2269D01*
X2125Y2315D02*
Y2376D01*
X2193Y2444D01*
X2171Y2269D02*
X2213D01*
X2293Y2189D01*
X2230Y2494D02*
X2243Y2481D01*
Y2394D02*
Y2481D01*
X2193Y2344D02*
X2243Y2394D01*
X1652Y2494D02*
X2230D01*
X2293Y2344D02*
X2343Y2394D01*
Y2490D01*
X2316Y2517D02*
X2343Y2490D01*
X2270Y2517D02*
X2316D01*
X2570D01*
X2598Y2545D02*
X2636D01*
X567Y722D02*
X642D01*
X325Y1618D02*
X399D01*
X421Y1596D01*
X443D01*
Y1782D02*
X487D01*
X635Y1695D02*
X825D01*
X618Y1712D02*
X635Y1695D01*
X605Y1782D02*
X618Y1769D01*
X550Y1782D02*
X605D01*
X618Y1712D02*
Y1769D01*
X625Y1675D02*
X825D01*
X550Y1712D02*
X588D01*
X625Y1675D01*
X325Y1650D02*
X413D01*
X413Y1650D01*
X486Y1711D02*
X487Y1712D01*
X442D02*
X487D01*
X413Y1741D02*
X442Y1712D01*
D43*
X483Y774D02*
X507Y798D01*
X483Y774D02*
X642D01*
X410D02*
X483D01*
X2060Y834D02*
Y1005D01*
X2038Y812D02*
X2060Y834D01*
X2038Y699D02*
Y812D01*
X1938Y457D02*
X1962D01*
X2002Y663D02*
X2038Y699D01*
X2002Y497D02*
Y663D01*
X1962Y457D02*
X2002Y497D01*
X1749Y457D02*
X1938D01*
X2038Y2096D02*
X2054Y2080D01*
X2079D01*
X884Y1878D02*
X884Y1878D01*
X921D01*
X1032Y1892D02*
Y1940D01*
X753Y1320D02*
X796D01*
X731Y1342D02*
X753Y1320D01*
X731Y1342D02*
Y1380D01*
X1061Y1450D02*
Y1490D01*
X1039Y1428D02*
X1061Y1450D01*
X987Y1428D02*
X1039D01*
X905Y1390D02*
Y1427D01*
X895Y1380D02*
X905Y1390D01*
X731Y1380D02*
X895D01*
X907Y1428D02*
X987D01*
X813Y1496D02*
Y1556D01*
X731Y1380D02*
Y1428D01*
X2112Y530D02*
X2153D01*
X2197D01*
X2217Y510D01*
X2272D01*
Y560D02*
Y610D01*
X2153Y608D02*
X2270D01*
X2053Y608D02*
X2153Y608D01*
X1001Y406D02*
X1085D01*
X1401Y580D02*
X1424Y557D01*
X1401Y580D02*
Y601D01*
X1401Y601D01*
X1713Y728D02*
Y775D01*
X1696Y711D02*
X1713Y728D01*
X1696Y678D02*
Y711D01*
X1708Y498D02*
X1749Y457D01*
X1648Y498D02*
X1708D01*
X1648D02*
Y583D01*
X1630Y601D02*
X1648Y583D01*
X1564Y601D02*
X1630D01*
X1306Y1044D02*
X1375Y1044D01*
X2272Y610D02*
Y660D01*
X2461Y560D02*
Y610D01*
X2272Y560D02*
X2461D01*
X1538Y1044D02*
Y1069D01*
X642Y748D02*
Y774D01*
X410Y748D02*
Y774D01*
X2634Y1533D02*
X2634Y1533D01*
X2719Y1554D02*
X2785D01*
X2818Y1587D01*
X1096Y2334D02*
X1140D01*
X1000Y2385D02*
X1055D01*
X1071Y2334D02*
X1140D01*
X1055Y2350D02*
X1071Y2334D01*
X1055Y2350D02*
Y2385D01*
X1231Y2261D02*
Y2359D01*
X1538Y2461D02*
X1539Y2462D01*
X2079Y2080D02*
Y2150D01*
X1375Y2394D02*
X1403D01*
X1363Y2406D02*
X1375Y2394D01*
X1363Y2406D02*
Y2435D01*
X1419Y2459D02*
X1438Y2478D01*
X1482D01*
X1498Y2462D01*
X1539D01*
X652Y1295D02*
Y1636D01*
X660Y1255D02*
X726Y1189D01*
X785D01*
X612Y1255D02*
X652Y1295D01*
X464Y1255D02*
X612D01*
X660D01*
X2461Y510D02*
X2561D01*
X1375Y1044D02*
X1538D01*
X2515Y2344D02*
Y2399D01*
X2533Y2417D01*
X2612Y2417D01*
X2461Y477D02*
Y510D01*
X2424Y463D02*
X2447D01*
X2461Y477D01*
X1231Y2359D02*
X1243Y2371D01*
X2536Y573D02*
X2572D01*
X2461Y560D02*
X2523D01*
X2536Y573D01*
X2102Y530D02*
X2153D01*
X2087Y545D02*
X2102Y530D01*
X2053Y545D02*
X2087D01*
X1047Y531D02*
X1081Y565D01*
X1137D01*
X1766Y549D02*
X1850D01*
X1766Y549D02*
X1766Y549D01*
X1733Y549D02*
X1766D01*
X1712Y570D02*
X1733Y549D01*
X1687Y570D02*
X1712D01*
X1592Y1044D02*
X1601Y1053D01*
X1538Y1044D02*
X1592D01*
X1601Y1081D02*
X1608Y1088D01*
X1601Y1053D02*
Y1081D01*
X1608Y1088D02*
X1640D01*
X1375Y1095D02*
Y1120D01*
X1389Y1134D01*
X1538Y1095D02*
Y1119D01*
X1547Y1128D01*
X1597D01*
X1617Y1148D01*
Y1185D01*
X2634Y1539D02*
X2666D01*
X2681Y1554D01*
X2719D01*
X2541Y1533D02*
X2595D01*
X2601Y1539D02*
X2634D01*
X2595Y1533D02*
X2601Y1539D01*
X2281Y2086D02*
X2334D01*
X2335Y2087D01*
X507Y798D02*
Y860D01*
X1149Y675D02*
Y700D01*
X1163Y714D01*
X1319D01*
X1355Y678D02*
X1401D01*
X1319Y714D02*
X1355Y678D01*
X1247Y474D02*
X1248Y473D01*
X1331D01*
X1085Y406D02*
X1153Y474D01*
X1247D01*
X1190Y614D02*
X1221D01*
X1184Y608D02*
X1190Y614D01*
X1149Y608D02*
X1156D01*
X1184D01*
X1137Y565D02*
X1149Y577D01*
Y608D01*
X1150Y602D02*
X1156Y608D01*
X1221Y677D02*
X1291D01*
X1291Y677D01*
X1323D01*
X1348Y652D01*
X1401D01*
X1331Y551D02*
Y604D01*
X1321Y614D02*
X1331Y604D01*
X1291Y614D02*
X1321D01*
X1070Y976D02*
Y1287D01*
Y976D02*
X1090Y956D01*
X1121D01*
X1303Y1084D02*
X1318Y1069D01*
X1375D01*
X1220Y1084D02*
X1303D01*
X1389Y1134D02*
X1469D01*
X1485Y1150D02*
Y1185D01*
X1469Y1134D02*
X1485Y1150D01*
X2618Y2286D02*
Y2305D01*
X2612Y2311D02*
X2618Y2305D01*
X2612Y2311D02*
Y2336D01*
X323Y1255D02*
X464Y1255D01*
X584Y599D02*
X630D01*
X650Y619D01*
Y661D01*
X725Y925D02*
X785D01*
X547Y1048D02*
X603D01*
X703Y947D02*
X725Y925D01*
X603Y1048D02*
X703Y947D01*
X547Y1048D02*
Y1194D01*
X1097Y2113D02*
X1145D01*
X405Y664D02*
X410Y669D01*
Y722D01*
X335Y605D02*
Y645D01*
X243Y661D02*
X351D01*
X110Y794D02*
Y1255D01*
Y794D02*
X243Y661D01*
X335Y645D02*
X351Y661D01*
X325Y1681D02*
X429D01*
X451Y1659D02*
X527D01*
X546Y1640D01*
Y1600D02*
Y1640D01*
X429Y1681D02*
X451Y1659D01*
X584Y548D02*
X622D01*
X627Y543D01*
Y519D02*
Y543D01*
Y519D02*
X636Y510D01*
X664D01*
X719Y406D02*
Y459D01*
X727Y467D01*
Y510D01*
X670Y406D02*
X719D01*
X636Y440D02*
X670Y406D01*
X601Y440D02*
X628D01*
X636D01*
X552D02*
X628D01*
X525Y467D02*
X552Y440D01*
X525Y467D02*
Y522D01*
X526Y522D01*
X526D02*
X584Y522D01*
X655Y476D02*
X664Y485D01*
Y510D01*
X456Y1435D02*
X456Y1435D01*
X546D01*
X614Y476D02*
X655D01*
X526Y561D02*
Y641D01*
X351Y661D02*
X546D01*
X587D01*
X526Y641D02*
X546Y661D01*
X484Y151D02*
Y252D01*
X445Y291D02*
X484Y252D01*
X364Y291D02*
X445D01*
X292Y363D02*
X364Y291D01*
X292Y363D02*
Y457D01*
X310Y475D01*
X340D01*
D44*
X1190Y991D02*
X1243Y1044D01*
X1306D01*
X1190Y921D02*
Y991D01*
X1163Y894D02*
X1190Y921D01*
X1023Y894D02*
X1163D01*
X929Y800D02*
X1023Y894D01*
X305Y844D02*
Y980D01*
Y844D02*
X349Y800D01*
X410D01*
X584Y573D02*
X642D01*
Y800D02*
X929D01*
D45*
X2790Y808D02*
X2853D01*
X1260Y903D02*
X1273Y916D01*
X1260Y846D02*
Y903D01*
X325Y1555D02*
X417D01*
X1591Y1298D02*
X1664Y1225D01*
X1591Y1298D02*
Y1465D01*
X1730Y974D02*
Y1025D01*
X1350Y1437D02*
X1383Y1470D01*
X1435D01*
Y1393D02*
Y1470D01*
X1640Y1025D02*
X1730D01*
X2272Y461D02*
Y510D01*
Y461D02*
X2319Y414D01*
Y319D02*
Y414D01*
X2154Y609D02*
Y668D01*
X1331Y551D02*
X1374D01*
X1427Y498D01*
X1491D01*
X1973Y1683D02*
X2023D01*
X1953Y1703D02*
X1973Y1683D01*
X1812Y1703D02*
X1915D01*
X1953D01*
X2023Y1783D02*
X2092D01*
X2023Y1733D02*
X2098D01*
X2908Y1505D02*
X2975Y1505D01*
X2908Y1417D02*
X2975Y1417D01*
X2910Y808D02*
X2977Y808D01*
X2910Y721D02*
X2977Y721D01*
X2467Y1733D02*
X2541D01*
X2277Y910D02*
Y1038D01*
X2276Y1039D02*
Y1170D01*
Y1294D01*
X2847Y721D02*
Y808D01*
X1747Y1703D02*
X1810D01*
X2172Y1038D02*
X2277D01*
X2805Y1505D02*
X2845D01*
X2845Y1417D02*
Y1505D01*
X95Y1443D02*
X311D01*
X95Y1793D02*
X311D01*
X390D01*
X407Y1810D01*
Y1845D01*
X417Y1484D02*
Y1555D01*
X311Y1443D02*
X376D01*
X417Y1484D01*
X1664Y1155D02*
Y1225D01*
X1247Y537D02*
X1275D01*
X1289Y551D02*
X1331D01*
X1275Y537D02*
X1289Y551D01*
X317Y1335D02*
X318Y1334D01*
X487D01*
X1121Y1147D02*
Y1184D01*
X1134Y1197D01*
X1180D01*
X1350Y1372D02*
Y1378D01*
Y1437D01*
X407Y1845D02*
Y1903D01*
X406Y1904D02*
X407Y1903D01*
X406Y1904D02*
Y1982D01*
X642Y573D02*
X755D01*
X810Y518D01*
Y335D02*
Y518D01*
Y335D02*
X870Y275D01*
X1378D01*
X1654D01*
X1929D01*
X2205D01*
X2275D01*
X2480D01*
X2756D01*
X2275D02*
X2319Y319D01*
X1158Y537D02*
X1247D01*
X1110Y489D02*
X1158Y537D01*
X740Y661D02*
X912Y489D01*
X650Y661D02*
X740D01*
X912Y489D02*
X1110D01*
X786Y1190D02*
X890D01*
X785Y1189D02*
X786Y1190D01*
X2467Y1783D02*
X2541D01*
D46*
X403Y475D02*
X473D01*
X397D02*
X403D01*
X1840Y1005D02*
Y1232D01*
X1820Y1252D02*
X1840Y1232D01*
X1771Y1252D02*
X1820D01*
X1730Y1211D02*
X1771Y1252D01*
X1730Y1103D02*
Y1211D01*
X1840Y1232D02*
Y1292D01*
X1000Y2164D02*
X1014Y2178D01*
X1061D01*
X971Y2164D02*
X1000D01*
X1826Y1761D02*
X1856D01*
X1876Y1781D01*
X1915D01*
X1827Y1305D02*
X1840Y1292D01*
X317Y1335D02*
X323Y1335D01*
X1435Y1259D02*
Y1315D01*
X1292Y995D02*
X1315Y1018D01*
X1375D01*
X1401Y627D02*
X1564D01*
Y652D01*
X2598Y1483D02*
X2605Y1476D01*
X2377Y1483D02*
X2598D01*
X2605Y1476D02*
X2634D01*
X2719D01*
X1811Y1704D02*
X1812Y1703D01*
X2858Y919D02*
X2991D01*
X2805Y972D02*
X2858Y919D01*
X2565Y972D02*
X2805D01*
X2553Y960D02*
X2565Y972D01*
X2553Y909D02*
Y960D01*
X2435Y909D02*
X2553D01*
X2434Y1038D02*
X2552D01*
Y1089D01*
X2564Y1101D01*
X2780D01*
X2862Y1019D01*
X2991D01*
X3055Y808D02*
Y905D01*
X3041Y919D02*
X3055Y905D01*
X2991Y919D02*
X3041D01*
X2433Y1170D02*
X2551D01*
Y1218D01*
X2563Y1230D01*
X2800D01*
X2824Y1206D01*
X2991D01*
X2840Y1306D02*
X2991D01*
X2781Y1365D02*
X2840Y1306D01*
X2569Y1365D02*
X2781D01*
X2551Y1347D02*
X2569Y1365D01*
X2551Y1294D02*
Y1347D01*
X2433Y1294D02*
X2551D01*
X2991Y1306D02*
X3043D01*
X3053Y1316D01*
Y1417D01*
X2276Y1039D02*
X2277Y1038D01*
Y910D02*
X2278Y909D01*
X1810Y1703D02*
X1811Y1704D01*
X2852Y1416D02*
X2853Y1417D01*
X2845Y1505D02*
X2853Y1505D01*
X2710Y909D02*
X2795D01*
X2709Y1038D02*
X2793D01*
X2708Y1170D02*
X2795D01*
X2719Y1422D02*
Y1476D01*
X1943Y1482D02*
X2022D01*
X2541Y1883D02*
X2625D01*
X2991Y1019D02*
X3066D01*
X3117Y743D02*
Y968D01*
X3055Y721D02*
X3095D01*
X3117Y743D01*
X3066Y1019D02*
X3117Y968D01*
X3053Y1505D02*
X3090D01*
X3119Y1244D02*
Y1476D01*
X2991Y1206D02*
X3081D01*
X3119Y1244D01*
X3090Y1505D02*
X3119Y1476D01*
X1505Y916D02*
X1515Y926D01*
X1430Y916D02*
X1505D01*
X1515Y926D02*
Y963D01*
Y979D01*
X1538Y1002D02*
Y1018D01*
X1515Y979D02*
X1538Y1002D01*
X2362Y1948D02*
X2377Y1933D01*
X2541Y1883D02*
Y1933D01*
X2377D02*
X2541D01*
X2187D02*
X2202Y1948D01*
X2023Y1933D02*
X2187D01*
X2023Y1883D02*
Y1933D01*
X2187Y1483D02*
X2202Y1468D01*
X2022Y1482D02*
X2023Y1483D01*
X2187D01*
X2362Y1468D02*
X2377Y1483D01*
X1827Y1305D02*
Y1465D01*
X2781Y1294D02*
X2795Y1280D01*
X2708Y1294D02*
X2781D01*
X1915Y1781D02*
Y1820D01*
X1947Y1852D01*
Y1874D01*
X1956Y1883D02*
X2023D01*
X1947Y1874D02*
X1956Y1883D01*
X1564Y627D02*
X1567Y629D01*
X1766Y612D02*
X1797D01*
X1812Y627D02*
X1850D01*
X1797Y612D02*
X1812Y627D01*
X1697Y612D02*
X1766D01*
X1682Y627D02*
X1697Y612D01*
X1564Y627D02*
X1682D01*
X1693Y1103D02*
X1730D01*
X1678Y1088D02*
X1693Y1103D01*
X1640Y1088D02*
X1678D01*
X1350Y1282D02*
Y1315D01*
X1538Y1236D02*
X1554Y1220D01*
Y1185D02*
Y1220D01*
X1412Y1236D02*
X1435Y1259D01*
X1321Y1236D02*
X1412D01*
X1538D01*
X1363Y1185D02*
X1422D01*
X1121Y1019D02*
Y1084D01*
X1220D01*
X1220Y1084D01*
Y1147D02*
X1291D01*
X1300Y1156D01*
Y1185D01*
Y1215D01*
X1321Y1236D01*
X305Y1080D02*
X380D01*
X413Y1046D01*
X59Y1335D02*
X110D01*
X110Y1335D01*
X1321Y1236D02*
Y1253D01*
X1278Y995D02*
X1292D01*
X1321Y1253D02*
X1350Y1282D01*
X1959Y832D02*
X1996Y795D01*
X1856Y832D02*
X1959D01*
X1840Y848D02*
X1856Y832D01*
X1840Y848D02*
Y1005D01*
X1929Y627D02*
X1967Y665D01*
X1850Y627D02*
X1929D01*
X1967Y665D02*
Y720D01*
X1996Y749D01*
Y795D01*
D47*
X825Y1715D02*
X914D01*
X1385Y2232D02*
Y2263D01*
X1351Y2275D02*
X1373D01*
X1385Y2263D01*
X652Y1636D02*
X825D01*
X884Y1878D02*
Y1940D01*
X733Y1738D02*
X759D01*
X782Y1715D01*
X825D01*
X924Y1540D02*
X966D01*
X894Y1570D02*
X924Y1540D01*
X894Y1570D02*
Y1606D01*
X825Y1636D02*
Y1656D01*
X1961Y2253D02*
X2007D01*
X1842Y2144D02*
X1859Y2161D01*
X1893D01*
X1989Y2084D02*
X2007Y2102D01*
Y2253D01*
X1601Y2123D02*
Y2237D01*
X1319Y2232D02*
X1385D01*
X2835Y2545D02*
X2898D01*
X2835Y2545D02*
X2835Y2545D01*
X863Y2460D02*
X935D01*
X757Y2566D02*
X863Y2460D01*
X535Y2566D02*
X757D01*
X807Y2363D02*
X842D01*
X858Y2347D01*
X921D01*
X1487Y2103D02*
X1551D01*
X1621Y1969D02*
Y2033D01*
X1691Y2103D02*
X1755D01*
X1564Y678D02*
X1633D01*
X652Y1801D02*
X670Y1783D01*
Y1738D02*
Y1783D01*
X1621Y1915D02*
Y1969D01*
X1679Y1825D02*
Y1857D01*
X1621Y1915D02*
X1679Y1857D01*
X1958Y2016D02*
Y2084D01*
X1948D02*
X1958D01*
X1989D01*
X1961Y2253D02*
Y2288D01*
X1956Y2293D02*
X1961Y2288D01*
X1956Y2293D02*
Y2330D01*
X1086Y608D02*
Y675D01*
X1086Y675D02*
X1086Y675D01*
X710Y1788D02*
X733Y1765D01*
X710Y1788D02*
Y1854D01*
X733Y1738D02*
Y1765D01*
X719Y1878D02*
X755D01*
X710Y1869D02*
X719Y1878D01*
X992Y2460D02*
Y2507D01*
X981Y2518D02*
X992Y2507D01*
X956Y2518D02*
X981D01*
D48*
X1601Y1896D02*
Y1969D01*
X1063Y1375D02*
X1100Y1412D01*
X950Y1375D02*
X1063D01*
X895Y1320D02*
X950Y1375D01*
X859Y1320D02*
X895D01*
X914Y1577D02*
Y1606D01*
Y1577D02*
X922Y1569D01*
X1871Y2016D02*
X1895D01*
X1862Y2025D02*
X1871Y2016D01*
X1755Y2083D02*
X1835D01*
X1862Y2056D01*
Y2025D02*
Y2056D01*
X1621Y2237D02*
Y2269D01*
X1590Y2300D02*
X1621Y2269D01*
X1582Y2384D02*
X1590Y2376D01*
X1539Y2384D02*
X1582D01*
X1590Y2300D02*
Y2376D01*
X1498Y2384D02*
X1539D01*
X1488Y2394D02*
X1498Y2384D01*
X1115Y1440D02*
X1141D01*
X1100Y1412D02*
Y1455D01*
X1115Y1440D01*
X1460Y2394D02*
X1460Y2394D01*
X1504Y1727D02*
X1530D01*
X1546Y1711D01*
X922Y1569D02*
X999D01*
X1015Y1553D01*
X1061D01*
X1093D02*
X1100Y1546D01*
Y1455D02*
Y1546D01*
X1061Y1553D02*
X1093D01*
X1546Y1711D02*
X1595D01*
X1616Y1732D01*
Y1825D01*
Y1881D01*
X1601Y1896D02*
X1616Y1881D01*
X1895Y1978D02*
Y2016D01*
X1905Y1968D02*
X1924D01*
X1895Y1978D02*
X1905Y1968D01*
X1460Y2394D02*
X1466D01*
X1488D01*
X1460Y2443D02*
Y2445D01*
X1466Y2394D02*
Y2421D01*
X1460Y2427D02*
Y2443D01*
Y2427D02*
X1466Y2421D01*
D49*
X853Y2675D02*
D03*
X953D02*
D03*
X1053D02*
D03*
X1153D02*
D03*
X1753D02*
D03*
X1653D02*
D03*
X1553D02*
D03*
X1453D02*
D03*
X1353D02*
D03*
X1253D02*
D03*
X2113D02*
D03*
X2213D02*
D03*
X2313D02*
D03*
X2413D02*
D03*
X2513D02*
D03*
X2613D02*
D03*
X2013D02*
D03*
X1913D02*
D03*
Y775D02*
D03*
X1813D02*
D03*
X1213D02*
D03*
X1313D02*
D03*
X1413D02*
D03*
X1513D02*
D03*
X1613D02*
D03*
X1713D02*
D03*
X2613D02*
D03*
X2513D02*
D03*
X2413D02*
D03*
X2313D02*
D03*
X2213D02*
D03*
X2113D02*
D03*
X853Y666D02*
D03*
X953D02*
D03*
X970Y1287D02*
D03*
X1070D02*
D03*
X1170D02*
D03*
X2756Y375D02*
D03*
Y275D02*
D03*
Y175D02*
D03*
X2480D02*
D03*
Y275D02*
D03*
Y375D02*
D03*
X2205D02*
D03*
Y275D02*
D03*
Y175D02*
D03*
X1929D02*
D03*
Y275D02*
D03*
Y375D02*
D03*
X1654D02*
D03*
Y275D02*
D03*
Y175D02*
D03*
X1378D02*
D03*
Y275D02*
D03*
Y375D02*
D03*
X1001Y150D02*
D03*
Y406D02*
D03*
X1178Y150D02*
D03*
Y406D02*
D03*
X896D02*
D03*
Y150D02*
D03*
X719Y406D02*
D03*
Y150D02*
D03*
X2991Y1893D02*
D03*
Y1793D02*
D03*
Y1693D02*
D03*
Y1993D02*
D03*
Y2093D02*
D03*
Y1019D02*
D03*
Y919D02*
D03*
Y1306D02*
D03*
Y1206D02*
D03*
X1002Y2084D02*
D03*
X902D02*
D03*
X1153Y1752D02*
D03*
Y1852D02*
D03*
X2393Y2189D02*
D03*
X2293D02*
D03*
X1304Y1852D02*
D03*
Y1752D02*
D03*
Y1652D02*
D03*
X1404Y1852D02*
D03*
Y1752D02*
D03*
Y1652D02*
D03*
X2393Y2444D02*
D03*
X2293D02*
D03*
X2193D02*
D03*
X2393Y2344D02*
D03*
X2293D02*
D03*
X2193D02*
D03*
X305Y980D02*
D03*
Y1080D02*
D03*
D50*
X386Y387D02*
D03*
X484D02*
D03*
X583D02*
D03*
X386Y151D02*
D03*
X484D02*
D03*
X583D02*
D03*
D51*
X177Y177D02*
D03*
Y2657D02*
D03*
X3012D02*
D03*
Y177D02*
D03*
X177Y531D02*
D03*
X3012D02*
D03*
X177Y2303D02*
D03*
X3012D02*
D03*
D52*
X213Y1532D02*
D03*
Y1705D02*
D03*
D53*
X399Y1486D02*
D03*
X351Y1508D02*
D03*
X567Y911D02*
D03*
Y722D02*
D03*
X387Y562D02*
D03*
X473Y475D02*
D03*
X419Y573D02*
D03*
X2590Y2588D02*
D03*
X1502Y2582D02*
D03*
X2342Y2568D02*
D03*
X1237Y2534D02*
D03*
X1434Y2172D02*
D03*
X1416Y2132D02*
D03*
X1503Y1786D02*
D03*
X1537Y1758D02*
D03*
X2727Y1861D02*
D03*
X1799Y1211D02*
D03*
X417Y1555D02*
D03*
X1703Y2389D02*
D03*
X1747Y2383D02*
D03*
X1351Y2275D02*
D03*
X1331Y2361D02*
D03*
X1148Y2113D02*
D03*
X1061Y2280D02*
D03*
X971Y2164D02*
D03*
X2470Y2044D02*
D03*
X2038Y2096D02*
D03*
X2017Y2051D02*
D03*
X2055Y2360D02*
D03*
X1840Y2423D02*
D03*
X2053Y2403D02*
D03*
X2643Y1608D02*
D03*
X2610Y1683D02*
D03*
X1849Y1890D02*
D03*
X1882Y1862D02*
D03*
X1935Y1633D02*
D03*
X1940Y1533D02*
D03*
X1846Y1836D02*
D03*
X1506Y1835D02*
D03*
X1582Y1750D02*
D03*
X1777Y2278D02*
D03*
X1767Y1758D02*
D03*
X1810Y2242D02*
D03*
Y1808D02*
D03*
X407Y1845D02*
D03*
X921Y1878D02*
D03*
X1032Y1892D02*
D03*
X710Y1854D02*
D03*
X652Y1636D02*
D03*
X1361Y1936D02*
D03*
X1074Y1724D02*
D03*
X1181Y1621D02*
D03*
X1208Y1592D02*
D03*
X1244Y1591D02*
D03*
X1140Y1960D02*
D03*
X1175Y1989D02*
D03*
X652Y1801D02*
D03*
X966Y1540D02*
D03*
X813Y1556D02*
D03*
X731Y1380D02*
D03*
X487Y1334D02*
D03*
X1730Y974D02*
D03*
X1435Y1470D02*
D03*
X1515Y963D02*
D03*
X1321Y1236D02*
D03*
X1260Y846D02*
D03*
X2154Y668D02*
D03*
X1715Y853D02*
D03*
X1047Y531D02*
D03*
X1687Y570D02*
D03*
X1424Y557D02*
D03*
X2424Y463D02*
D03*
X2092Y1783D02*
D03*
X2098Y1733D02*
D03*
X2467D02*
D03*
X1747Y1703D02*
D03*
X2172Y1038D02*
D03*
X2790Y808D02*
D03*
X2805Y1505D02*
D03*
X2795Y909D02*
D03*
Y1036D02*
D03*
X2795Y1170D02*
D03*
Y1266D02*
D03*
X2719Y1422D02*
D03*
X1943Y1482D02*
D03*
X1947Y1852D02*
D03*
X2625Y1883D02*
D03*
X1180Y1197D02*
D03*
X1903Y1920D02*
D03*
X1865Y1947D02*
D03*
X1842Y2144D02*
D03*
X2007Y2253D02*
D03*
X1833Y2001D02*
D03*
X1799Y1974D02*
D03*
X1835Y2044D02*
D03*
X2043Y2206D02*
D03*
X2685Y1653D02*
D03*
X2561Y2543D02*
D03*
X1702D02*
D03*
X1626Y2352D02*
D03*
X1148Y2754D02*
D03*
X1563Y2316D02*
D03*
X1452Y2313D02*
D03*
X1487Y2272D02*
D03*
X1403Y2745D02*
D03*
X1296Y2519D02*
D03*
X1660Y2385D02*
D03*
X1786Y1648D02*
D03*
X1385Y2307D02*
D03*
X1127Y2406D02*
D03*
X1278Y2559D02*
D03*
X2013Y2461D02*
D03*
X1600Y2434D02*
D03*
X1776Y2420D02*
D03*
X1148Y2025D02*
D03*
X1494Y1909D02*
D03*
X1463Y1950D02*
D03*
X1347Y1968D02*
D03*
X1306Y2277D02*
D03*
X1408Y2014D02*
D03*
X1368Y2033D02*
D03*
X1777Y1922D02*
D03*
X2708Y2470D02*
D03*
X2757Y2276D02*
D03*
X2912Y2367D02*
D03*
X2654Y2495D02*
D03*
X2618Y2286D02*
D03*
X2898Y2545D02*
D03*
X2818Y1587D02*
D03*
X1055Y2385D02*
D03*
X956Y2518D02*
D03*
X1419Y2459D02*
D03*
X2335Y2087D02*
D03*
X1379Y2551D02*
D03*
X1504Y1727D02*
D03*
X1141Y1440D02*
D03*
X1460Y2445D02*
D03*
X1363Y2435D02*
D03*
X535Y2566D02*
D03*
X807Y2363D02*
D03*
X863Y2235D02*
D03*
X908Y2578D02*
D03*
X1657Y2450D02*
D03*
X1149Y861D02*
D03*
X1058D02*
D03*
X1374Y1996D02*
D03*
X763Y800D02*
D03*
X1924Y1968D02*
D03*
X1551Y2173D02*
D03*
X1621D02*
D03*
X1691D02*
D03*
Y2103D02*
D03*
X1551D02*
D03*
Y2033D02*
D03*
X1691D02*
D03*
X877Y1752D02*
D03*
X924D02*
D03*
X971D02*
D03*
Y1705D02*
D03*
X924D02*
D03*
X877D02*
D03*
Y1658D02*
D03*
X924D02*
D03*
X971D02*
D03*
X1203Y2724D02*
D03*
X1302Y2756D02*
D03*
X1621Y2103D02*
D03*
Y2033D02*
D03*
X2282Y1948D02*
D03*
X2362D02*
D03*
Y1868D02*
D03*
X2282D02*
D03*
X2202D02*
D03*
Y1788D02*
D03*
X2282D02*
D03*
X2362D02*
D03*
Y1708D02*
D03*
X2282D02*
D03*
X2202D02*
D03*
Y1628D02*
D03*
X2282D02*
D03*
X2362D02*
D03*
Y1548D02*
D03*
X2282D02*
D03*
X2202D02*
D03*
Y1468D02*
D03*
X2282D02*
D03*
X2362D02*
D03*
X2202Y1948D02*
D03*
X2515Y2344D02*
D03*
X1245Y2371D02*
D03*
X1664Y1155D02*
D03*
X1256Y1700D02*
D03*
X1239Y1802D02*
D03*
X506Y590D02*
D03*
X546D02*
D03*
X526Y561D02*
D03*
X506Y531D02*
D03*
X547Y1194D02*
D03*
X890Y1190D02*
D03*
X59Y1335D02*
D03*
X443Y1596D02*
D03*
Y1782D02*
D03*
X413Y1650D02*
D03*
Y1741D02*
D03*
X546Y531D02*
D03*
X614Y476D02*
D03*
X456Y1435D02*
D03*
X580Y476D02*
D03*
X435Y1414D02*
D03*
X460Y1388D02*
D03*
X566Y1221D02*
D03*
X494Y1216D02*
D03*
X583Y1170D02*
D03*
X708Y875D02*
D03*
X669Y909D02*
D03*
X638Y950D02*
D03*
X1214Y893D02*
D03*
X1194Y860D02*
D03*
X2177Y949D02*
D03*
X2250Y975D02*
D03*
X1864Y1702D02*
D03*
X2122Y1768D02*
D03*
Y1801D02*
D03*
X2126Y1716D02*
D03*
X2109Y1688D02*
D03*
X2467Y1783D02*
D03*
X2445Y1801D02*
D03*
X2441Y1766D02*
D03*
X2459Y1684D02*
D03*
X2440Y1715D02*
D03*
X1278Y1007D02*
D03*
X1250Y991D02*
D03*
X872Y1239D02*
D03*
X875Y1151D02*
D03*
D54*
X576Y2115D02*
D03*
X674D02*
D03*
M02*
