%FSLAX23Y23*%
%MOIN*%
G70*
G01*
G75*
%ADD10R,0.039X0.037*%
%ADD11R,0.050X0.060*%
%ADD12R,0.060X0.050*%
%ADD13R,0.059X0.039*%
%ADD14R,0.083X0.026*%
%ADD15R,0.256X0.630*%
%ADD16R,0.035X0.031*%
%ADD17R,0.035X0.031*%
%ADD18R,0.028X0.031*%
%ADD19R,0.039X0.059*%
%ADD20R,0.197X0.197*%
%ADD21R,0.035X0.010*%
%ADD22R,0.010X0.035*%
%ADD23R,0.118X0.177*%
%ADD24R,0.079X0.295*%
%ADD25R,0.126X0.059*%
%ADD26R,0.055X0.150*%
%ADD27R,0.050X0.014*%
%ADD28R,0.110X0.020*%
%ADD29R,0.098X0.079*%
%ADD30R,0.087X0.024*%
%ADD31R,0.071X0.016*%
%ADD32R,0.079X0.079*%
%ADD33R,0.047X0.043*%
%ADD34R,0.043X0.047*%
%ADD35R,0.063X0.197*%
%ADD36R,0.010X0.026*%
%ADD37R,0.026X0.010*%
%ADD38R,0.150X0.150*%
%ADD39R,0.037X0.039*%
G04:AMPARAMS|DCode=40|XSize=14mil|YSize=33mil|CornerRadius=1mil|HoleSize=0mil|Usage=FLASHONLY|Rotation=270.000|XOffset=0mil|YOffset=0mil|HoleType=Round|Shape=RoundedRectangle|*
%AMROUNDEDRECTD40*
21,1,0.014,0.031,0,0,270.0*
21,1,0.011,0.033,0,0,270.0*
1,1,0.003,-0.015,-0.006*
1,1,0.003,-0.015,0.006*
1,1,0.003,0.015,0.006*
1,1,0.003,0.015,-0.006*
%
%ADD40ROUNDEDRECTD40*%
%ADD41R,0.063X0.094*%
%ADD42C,0.008*%
%ADD43C,0.015*%
%ADD44C,0.020*%
%ADD45C,0.025*%
%ADD46C,0.018*%
%ADD47C,0.012*%
%ADD48C,0.010*%
%ADD49C,0.075*%
%ADD50C,0.065*%
%ADD51C,0.118*%
%ADD52C,0.035*%
%ADD53C,0.025*%
%ADD54C,0.039*%
G04:AMPARAMS|DCode=55|XSize=197mil|YSize=60mil|CornerRadius=15mil|HoleSize=0mil|Usage=FLASHONLY|Rotation=90.000|XOffset=0mil|YOffset=0mil|HoleType=Round|Shape=RoundedRectangle|*
%AMROUNDEDRECTD55*
21,1,0.197,0.030,0,0,90.0*
21,1,0.167,0.060,0,0,90.0*
1,1,0.030,0.015,0.083*
1,1,0.030,0.015,-0.083*
1,1,0.030,-0.015,-0.083*
1,1,0.030,-0.015,0.083*
%
%ADD55ROUNDEDRECTD55*%
%ADD56C,0.008*%
%ADD57C,0.010*%
%ADD58C,0.024*%
%ADD59C,0.030*%
D42*
X897Y1317D02*
X904D01*
X900D01*
Y1337D01*
X897Y1334D01*
D48*
X415Y831D02*
G03*
X415Y831I-5J0D01*
G01*
X256Y177D02*
G03*
X256Y177I-79J0D01*
G01*
Y2657D02*
G03*
X256Y2657I-79J0D01*
G01*
X3091D02*
G03*
X3091Y2657I-79J0D01*
G01*
Y177D02*
G03*
X3091Y177I-79J0D01*
G01*
X256Y531D02*
G03*
X256Y531I-79J0D01*
G01*
X3091D02*
G03*
X3091Y531I-79J0D01*
G01*
X256Y2303D02*
G03*
X256Y2303I-79J0D01*
G01*
X3091D02*
G03*
X3091Y2303I-79J0D01*
G01*
X2465Y477D02*
G03*
X2465Y477I-5J0D01*
G01*
X1406Y707D02*
G03*
X1406Y707I-5J0D01*
G01*
X1380Y1124D02*
G03*
X1380Y1124I-5J0D01*
G01*
X472Y633D02*
G03*
X472Y633I-4J0D01*
G01*
X319Y435D02*
X650D01*
Y104D02*
Y435D01*
X319Y104D02*
X650D01*
X319D02*
Y435D01*
X3090Y1387D02*
Y1447D01*
Y1475D02*
Y1535D01*
X3092Y778D02*
Y838D01*
Y691D02*
Y751D01*
X907Y2381D02*
Y2399D01*
Y2296D02*
Y2314D01*
Y2296D02*
X966D01*
X907Y2399D02*
X966D01*
X2872Y2387D02*
Y2447D01*
Y2307D02*
Y2367D01*
Y2515D02*
Y2575D01*
X369Y1952D02*
Y2012D01*
Y1874D02*
Y1934D01*
X73Y1305D02*
Y1365D01*
Y1225D02*
Y1285D01*
X2826Y165D02*
X2856D01*
X2826D02*
Y385D01*
X2856D01*
X2626Y425D02*
X2856D01*
X2626Y125D02*
Y425D01*
Y125D02*
X2856D01*
Y425D01*
X2580Y125D02*
Y425D01*
X2350Y125D02*
X2580D01*
X2350D02*
Y425D01*
X2580D01*
X2550Y385D02*
X2580D01*
X2550Y165D02*
Y385D01*
Y165D02*
X2580D01*
X2275D02*
X2305D01*
X2275D02*
Y385D01*
X2305D01*
X2075Y425D02*
X2305D01*
X2075Y125D02*
Y425D01*
Y125D02*
X2305D01*
Y425D01*
X2029Y125D02*
Y425D01*
X1799Y125D02*
X2029D01*
X1799D02*
Y425D01*
X2029D01*
X1999Y385D02*
X2029D01*
X1999Y165D02*
Y385D01*
Y165D02*
X2029D01*
X1724D02*
X1754D01*
X1724D02*
Y385D01*
X1754D01*
X1524Y425D02*
X1754D01*
X1524Y125D02*
Y425D01*
Y125D02*
X1754D01*
Y425D01*
X1478Y125D02*
Y425D01*
X1248Y125D02*
X1478D01*
X1248D02*
Y425D01*
X1478D01*
X1448Y385D02*
X1478D01*
X1448Y165D02*
Y385D01*
Y165D02*
X1478D01*
X971Y190D02*
Y367D01*
X1050Y160D02*
X1129D01*
X1207Y190D02*
Y367D01*
X1050Y396D02*
X1129D01*
X769D02*
X847D01*
X926Y190D02*
Y367D01*
X769Y160D02*
X847D01*
X690Y190D02*
Y367D01*
X3061Y1683D02*
X3091D01*
X3061D02*
Y2103D01*
X3091D01*
X2861Y2143D02*
X3091D01*
X2861Y1643D02*
Y2143D01*
Y1643D02*
X3091D01*
Y2143D01*
X3061Y909D02*
X3091D01*
X3061D02*
Y1029D01*
X3091D01*
X2861Y1069D02*
X3091D01*
X2861Y869D02*
Y1069D01*
Y869D02*
X3091D01*
Y1069D01*
X3061Y1196D02*
X3091D01*
X3061D02*
Y1316D01*
X3091D01*
X2861Y1356D02*
X3091D01*
X2861Y1156D02*
Y1356D01*
Y1156D02*
X3091D01*
Y1356D01*
X1438Y449D02*
Y549D01*
X1220Y867D02*
Y967D01*
X2225Y860D02*
Y960D01*
X2224Y989D02*
Y1089D01*
X2223Y1121D02*
Y1221D01*
Y1245D02*
Y1345D01*
X2500Y860D02*
Y960D01*
X2499Y989D02*
Y1089D01*
X2498Y1121D02*
Y1221D01*
Y1245D02*
Y1345D01*
X1499Y1591D02*
Y1571D01*
Y1581D01*
X1439D01*
Y1591D01*
Y1571D01*
X1489Y1501D02*
X1499Y1511D01*
Y1531D01*
X1489Y1541D01*
X1479D01*
X1469Y1531D01*
Y1511D01*
X1459Y1501D01*
X1449D01*
X1439Y1511D01*
Y1531D01*
X1449Y1541D01*
X1439Y1481D02*
X1499D01*
Y1451D01*
X1489Y1441D01*
X1469D01*
X1459Y1451D01*
Y1481D01*
X2846Y1203D02*
X2786D01*
X2806Y1223D01*
X2786Y1243D01*
X2846D01*
Y1263D02*
Y1283D01*
Y1273D01*
X2786D01*
X2796Y1263D01*
X2846Y922D02*
X2786D01*
X2806Y942D01*
X2786Y962D01*
X2846D01*
X2796Y982D02*
X2786Y992D01*
Y1012D01*
X2796Y1022D01*
X2836D01*
X2846Y1012D01*
Y992D01*
X2836Y982D01*
X2796D01*
X2903Y2210D02*
X2893Y2220D01*
X2873D01*
X2863Y2210D01*
Y2170D01*
X2873Y2160D01*
X2893D01*
X2903Y2170D01*
X2953Y2220D02*
X2933D01*
X2923Y2210D01*
Y2170D01*
X2933Y2160D01*
X2953D01*
X2963Y2170D01*
Y2210D01*
X2953Y2220D01*
X2983Y2160D02*
Y2220D01*
X3003Y2200D01*
X3023Y2220D01*
Y2160D01*
X3043D02*
Y2220D01*
X3063Y2200D01*
X3083Y2220D01*
Y2160D01*
X727Y34D02*
Y94D01*
X757D01*
X767Y84D01*
Y64D01*
X757Y54D01*
X727D01*
X747D02*
X767Y34D01*
X787Y94D02*
Y44D01*
X797Y34D01*
X817D01*
X827Y44D01*
Y94D01*
X847Y34D02*
Y94D01*
X887Y34D01*
Y94D01*
X965Y35D02*
Y95D01*
X995D01*
X1005Y85D01*
Y65D01*
X995Y55D01*
X965D01*
X985D02*
X1005Y35D01*
X1065Y95D02*
X1025D01*
Y35D01*
X1065D01*
X1025Y65D02*
X1045D01*
X1125Y85D02*
X1115Y95D01*
X1095D01*
X1085Y85D01*
Y75D01*
X1095Y65D01*
X1115D01*
X1125Y55D01*
Y45D01*
X1115Y35D01*
X1095D01*
X1085Y45D01*
X1185Y95D02*
X1145D01*
Y35D01*
X1185D01*
X1145Y65D02*
X1165D01*
X1205Y95D02*
X1245D01*
X1225D01*
Y35D01*
X1358Y88D02*
X1348Y98D01*
X1328D01*
X1318Y88D01*
Y78D01*
X1328Y68D01*
X1348D01*
X1358Y58D01*
Y48D01*
X1348Y38D01*
X1328D01*
X1318Y48D01*
X1378Y88D02*
X1388Y98D01*
X1408D01*
X1418Y88D01*
Y48D01*
X1408Y38D01*
X1388D01*
X1378Y48D01*
Y88D01*
X1644Y87D02*
X1634Y97D01*
X1614D01*
X1604Y87D01*
Y77D01*
X1614Y67D01*
X1634D01*
X1644Y57D01*
Y47D01*
X1634Y37D01*
X1614D01*
X1604Y47D01*
X1664Y37D02*
X1684D01*
X1674D01*
Y97D01*
X1664Y87D01*
X1905Y88D02*
X1895Y98D01*
X1875D01*
X1865Y88D01*
Y78D01*
X1875Y68D01*
X1895D01*
X1905Y58D01*
Y48D01*
X1895Y38D01*
X1875D01*
X1865Y48D01*
X1965Y38D02*
X1925D01*
X1965Y78D01*
Y88D01*
X1955Y98D01*
X1935D01*
X1925Y88D01*
X2174Y86D02*
X2164Y96D01*
X2144D01*
X2134Y86D01*
Y76D01*
X2144Y66D01*
X2164D01*
X2174Y56D01*
Y46D01*
X2164Y36D01*
X2144D01*
X2134Y46D01*
X2194Y86D02*
X2204Y96D01*
X2224D01*
X2234Y86D01*
Y76D01*
X2224Y66D01*
X2214D01*
X2224D01*
X2234Y56D01*
Y46D01*
X2224Y36D01*
X2204D01*
X2194Y46D01*
X2459Y91D02*
X2449Y101D01*
X2429D01*
X2419Y91D01*
Y81D01*
X2429Y71D01*
X2449D01*
X2459Y61D01*
Y51D01*
X2449Y41D01*
X2429D01*
X2419Y51D01*
X2509Y41D02*
Y101D01*
X2479Y71D01*
X2519D01*
X2733Y90D02*
X2723Y100D01*
X2703D01*
X2693Y90D01*
Y80D01*
X2703Y70D01*
X2723D01*
X2733Y60D01*
Y50D01*
X2723Y40D01*
X2703D01*
X2693Y50D01*
X2793Y100D02*
X2753D01*
Y70D01*
X2773Y80D01*
X2783D01*
X2793Y70D01*
Y50D01*
X2783Y40D01*
X2763D01*
X2753Y50D01*
X58Y1244D02*
X18D01*
Y1264D01*
X25Y1271D01*
X38D01*
X45Y1264D01*
Y1244D01*
X57Y1321D02*
X17D01*
X30Y1334D01*
X17Y1348D01*
X57D01*
X2074Y2396D02*
Y2413D01*
Y2404D01*
X2124D01*
Y2396D01*
Y2413D01*
X2082Y2471D02*
X2074Y2463D01*
Y2446D01*
X2082Y2438D01*
X2091D01*
X2099Y2446D01*
Y2463D01*
X2107Y2471D01*
X2116D01*
X2124Y2463D01*
Y2446D01*
X2116Y2438D01*
X2124Y2488D02*
X2074D01*
Y2513D01*
X2082Y2521D01*
X2099D01*
X2107Y2513D01*
Y2488D01*
D56*
X713Y2169D02*
G03*
X537Y2169I-88J241D01*
G01*
X647Y2441D02*
G03*
X607Y2441I-20J2D01*
G01*
X673Y2440D02*
G03*
X581Y2441I-46J3D01*
G01*
X760Y1400D02*
Y1508D01*
X702Y1400D02*
Y1507D01*
X703Y1400D02*
X759D01*
X1753Y2625D02*
X1803D01*
Y2725D01*
X1753D02*
X1803D01*
X803D02*
X853D01*
X803Y2625D02*
X853D01*
X803D02*
Y2725D01*
X1863Y2625D02*
Y2725D01*
Y2625D02*
X1913D01*
X1863Y2725D02*
X1913D01*
X2613D02*
X2663D01*
Y2625D02*
Y2725D01*
X2613Y2625D02*
X2663D01*
X1163Y825D02*
X1213D01*
X1163Y725D02*
Y825D01*
Y725D02*
X1213D01*
X1913D02*
X1963D01*
X1913Y825D02*
X1963D01*
Y725D02*
Y825D01*
X2663Y725D02*
Y825D01*
X2613D02*
X2663D01*
X2613Y725D02*
X2663D01*
X2063D02*
X2113D01*
X2063D02*
Y825D01*
X2113D01*
X538Y2080D02*
X711D01*
X538D02*
Y2169D01*
X712Y2080D02*
Y2169D01*
X673Y2195D02*
Y2244D01*
X546Y2219D02*
X595D01*
X571Y2194D02*
Y2243D01*
X570Y2424D02*
X686D01*
X652Y2390D02*
X686Y2424D01*
X604Y2355D02*
Y2390D01*
X570Y2424D02*
X604Y2390D01*
Y2355D02*
X652D01*
Y2390D01*
X1189Y2147D02*
Y2297D01*
X1210D01*
X1189Y2147D02*
X1209D01*
X1253Y2297D02*
X1273D01*
X1252Y2147D02*
X1273D01*
Y2297D01*
X1106Y2156D02*
X1173D01*
X2080Y1393D02*
Y2023D01*
X2484Y1393D02*
Y2023D01*
X2426Y2023D02*
X2483D01*
X2081D02*
X2138D01*
X2081Y1393D02*
X2138D01*
X2426D02*
X2483D01*
X1955Y1685D02*
Y1816D01*
X1875Y1685D02*
Y1816D01*
X1955D01*
X2679Y1441D02*
Y1572D01*
X2759Y1441D02*
Y1572D01*
X2679Y1441D02*
X2759D01*
X803Y616D02*
Y716D01*
Y616D02*
X1003D01*
Y716D01*
X803D02*
X1003D01*
X2055Y2056D02*
Y2104D01*
X908Y1916D02*
Y1964D01*
X1537Y882D02*
Y949D01*
X2756Y1683D02*
X2823D01*
X1067Y1900D02*
Y1980D01*
X936D02*
X1067D01*
X936Y1900D02*
X1067D01*
X1761Y1963D02*
Y1984D01*
X1740Y1963D02*
X1761D01*
X1481D02*
X1502D01*
X1481D02*
Y1984D01*
Y2222D02*
Y2243D01*
X1502D01*
X1740D02*
X1761D01*
Y2222D02*
Y2243D01*
X920Y1237D02*
Y1337D01*
Y1237D02*
X1220D01*
Y1337D01*
X920D02*
X1220D01*
X1020Y1237D02*
Y1337D01*
X1906Y1268D02*
Y1349D01*
X1512Y1268D02*
X1906D01*
X1512Y1268D02*
Y1349D01*
X1906Y1581D02*
Y1662D01*
X1512Y1581D02*
Y1662D01*
X1512Y1662D02*
X1906D01*
X2110Y848D02*
Y922D01*
Y1088D02*
Y1161D01*
X1790Y1162D02*
X2109D01*
X1790Y1088D02*
Y1162D01*
X1792Y848D02*
X2108D01*
X1790D02*
Y922D01*
X471Y1454D02*
Y1587D01*
X625Y1450D02*
Y1583D01*
X1497Y2348D02*
Y2498D01*
X1518D01*
X1497Y2348D02*
X1517D01*
X1561Y2498D02*
X1581D01*
X1560Y2348D02*
X1581D01*
Y2498D01*
X842Y893D02*
X948D01*
X622D02*
X728D01*
X701Y1220D02*
X736D01*
X834Y1221D02*
X869D01*
X870Y1220D02*
X948Y1149D01*
Y894D02*
Y1149D01*
X622D02*
X700Y1220D01*
X622Y894D02*
Y1149D01*
X844Y1157D02*
Y1197D01*
X824Y1177D02*
X864D01*
X844Y933D02*
Y972D01*
X450Y702D02*
X602D01*
X450Y820D02*
X602D01*
Y702D02*
Y820D01*
X450Y702D02*
Y820D01*
X400Y1520D02*
Y1717D01*
X305Y1520D02*
X400D01*
X286Y1500D02*
X305Y1520D01*
X6Y1500D02*
X286D01*
X305Y1717D02*
X400D01*
X286Y1736D02*
X305Y1717D01*
X6Y1736D02*
X286D01*
X6Y1500D02*
Y1736D01*
X2193Y512D02*
Y643D01*
X2113Y512D02*
Y643D01*
X2193D01*
X1395Y1280D02*
X1475D01*
Y1411D01*
X1395Y1280D02*
Y1411D01*
X1690Y990D02*
Y1121D01*
X1770Y990D02*
Y1121D01*
X1690Y990D02*
X1770D01*
X1810Y514D02*
X1890D01*
Y645D01*
X1810Y514D02*
Y645D01*
X1291Y438D02*
Y569D01*
X1371Y438D02*
Y569D01*
X1291Y438D02*
X1371D01*
X2331Y683D02*
X2402D01*
X2331Y487D02*
X2402D01*
X2331D02*
Y683D01*
X2402Y487D02*
Y683D01*
X1452Y577D02*
Y703D01*
X1513Y577D02*
Y703D01*
X1452D02*
X1513D01*
X1452Y577D02*
X1513D01*
X1426Y994D02*
X1487D01*
X1426Y1120D02*
X1487D01*
Y994D02*
Y1120D01*
X1426Y994D02*
Y1120D01*
X939Y1422D02*
Y1500D01*
X820Y1527D02*
X898D01*
X820Y1395D02*
X898D01*
X779Y1422D02*
Y1500D01*
X1888Y2127D02*
X1966D01*
X1993Y2168D02*
Y2246D01*
X1861Y2168D02*
Y2246D01*
X1888Y2287D02*
X1966D01*
X852Y2134D02*
X1052D01*
Y2034D02*
Y2134D01*
X852Y2034D02*
X1052D01*
X852D02*
Y2134D01*
X1203Y1702D02*
Y1902D01*
X1103Y1702D02*
X1203D01*
X1103D02*
Y1902D01*
X1203D01*
X2243Y2239D02*
X2443D01*
Y2139D02*
Y2239D01*
X2243Y2139D02*
X2443D01*
X2243D02*
Y2239D01*
X371Y1155D02*
X590D01*
X371Y939D02*
X589D01*
X371Y1117D02*
Y1155D01*
X589Y939D02*
Y977D01*
X590Y1116D02*
Y1155D01*
X371Y939D02*
Y978D01*
X825Y1607D02*
Y1617D01*
X826Y1607D02*
X836D01*
X826Y1804D02*
X836D01*
X826Y1793D02*
Y1803D01*
X1023Y1794D02*
Y1804D01*
X1012D02*
X1022D01*
X1023Y1607D02*
Y1617D01*
X1013Y1606D02*
X1023D01*
X1798Y1789D02*
X1854D01*
X1855Y1682D02*
Y1789D01*
X1797Y1681D02*
Y1789D01*
X2663Y1448D02*
Y1556D01*
X2605Y1448D02*
Y1555D01*
X2606Y1448D02*
X2662D01*
X1290Y2152D02*
Y2260D01*
X1348Y2153D02*
Y2260D01*
X1291D02*
X1347D01*
X1357D02*
X1413D01*
X1414Y2153D02*
Y2260D01*
X1356Y2152D02*
Y2260D01*
X1375Y2365D02*
X1483D01*
X1375Y2423D02*
X1482D01*
X1375Y2366D02*
Y2422D01*
X1984Y2302D02*
Y2358D01*
X1877Y2301D02*
X1984D01*
X1876Y2359D02*
X1984D01*
X1878Y2113D02*
X1986D01*
X1879Y2055D02*
X1986D01*
Y2056D02*
Y2112D01*
Y1988D02*
Y2044D01*
X1879Y1987D02*
X1986D01*
X1878Y2045D02*
X1986D01*
X1090Y1462D02*
Y1570D01*
X1032Y1462D02*
Y1569D01*
X1033Y1462D02*
X1089D01*
X959Y1400D02*
X1015D01*
X958D02*
Y1507D01*
X1016Y1400D02*
Y1508D01*
X1526Y1157D02*
Y1213D01*
Y1214D02*
X1633D01*
X1526Y1156D02*
X1634D01*
X1616Y707D02*
X1724D01*
X1617Y649D02*
X1724D01*
Y650D02*
Y706D01*
X1272Y1157D02*
Y1213D01*
Y1214D02*
X1379D01*
X1272Y1156D02*
X1380D01*
X1069Y637D02*
X1177D01*
X1070Y579D02*
X1177D01*
Y580D02*
Y636D01*
X559Y633D02*
Y689D01*
Y690D02*
X666D01*
X559Y632D02*
X667D01*
X647Y539D02*
X755D01*
X648Y481D02*
X755D01*
Y482D02*
Y538D01*
X768Y1292D02*
Y1348D01*
Y1349D02*
X875D01*
X768Y1291D02*
X876D01*
X2601Y482D02*
Y590D01*
X2543Y482D02*
Y589D01*
X2544Y482D02*
X2600D01*
X2025Y636D02*
X2081D01*
X2082Y529D02*
Y636D01*
X2024Y528D02*
Y636D01*
X1795Y521D02*
Y629D01*
X1737Y521D02*
Y628D01*
X1738Y521D02*
X1794D01*
X1219Y446D02*
X1275D01*
X1218D02*
Y553D01*
X1276Y446D02*
Y554D01*
X1669Y997D02*
Y1105D01*
X1611Y997D02*
Y1104D01*
X1612Y997D02*
X1668D01*
X1322Y1287D02*
X1378D01*
X1321D02*
Y1394D01*
X1379Y1287D02*
Y1395D01*
X726Y1798D02*
Y1906D01*
X784Y1799D02*
Y1906D01*
X727D02*
X783D01*
X761Y1710D02*
Y1766D01*
X654Y1709D02*
X761D01*
X653Y1767D02*
X761D01*
X1599Y1854D02*
X1707D01*
X1600Y1796D02*
X1707D01*
Y1797D02*
Y1853D01*
X2185Y2041D02*
X2316D01*
X2185Y2121D02*
X2316D01*
Y2041D02*
Y2121D01*
X2936Y1389D02*
Y1445D01*
X2817D02*
X2936D01*
X2817Y1389D02*
X2936D01*
X2817D02*
Y1445D01*
Y1477D02*
Y1533D01*
Y1477D02*
X2936D01*
X2817Y1533D02*
X2936D01*
Y1477D02*
Y1533D01*
X2938Y693D02*
Y749D01*
X2819D02*
X2938D01*
X2819Y693D02*
X2938D01*
X2819D02*
Y749D01*
Y780D02*
Y836D01*
Y780D02*
X2938D01*
X2819Y836D02*
X2938D01*
Y780D02*
Y836D01*
X2584Y2389D02*
Y2445D01*
Y2389D02*
X2703D01*
X2584Y2445D02*
X2703D01*
Y2389D02*
Y2445D01*
Y2308D02*
Y2364D01*
X2584D02*
X2703D01*
X2584Y2308D02*
X2703D01*
X2584D02*
Y2364D01*
X1020Y2432D02*
Y2488D01*
X901D02*
X1020D01*
X901Y2432D02*
X1020D01*
X901D02*
Y2488D01*
Y2207D02*
Y2263D01*
Y2207D02*
X1020D01*
X901Y2263D02*
X1020D01*
Y2207D02*
Y2263D01*
X1033Y2269D02*
X1089D01*
X1033Y2150D02*
Y2269D01*
X1089Y2150D02*
Y2269D01*
X1033Y2150D02*
X1089D01*
X2596Y2517D02*
Y2573D01*
Y2517D02*
X2715D01*
X2596Y2573D02*
X2715D01*
Y2517D02*
Y2573D01*
X2729Y1965D02*
Y2021D01*
Y1965D02*
X2848D01*
X2729Y2021D02*
X2848D01*
Y1965D02*
Y2021D01*
Y2065D02*
Y2121D01*
X2729D02*
X2848D01*
X2729Y2065D02*
X2848D01*
X2729D02*
Y2121D01*
X2170Y2122D02*
Y2178D01*
X2051D02*
X2170D01*
X2051Y2122D02*
X2170D01*
X2051D02*
Y2178D01*
X1069Y2022D02*
X1125D01*
Y2141D01*
X1069Y2022D02*
Y2141D01*
X1125D01*
X525Y1954D02*
Y2010D01*
Y1954D02*
X644D01*
X525Y2010D02*
X644D01*
Y1954D02*
Y2010D01*
Y1876D02*
Y1932D01*
X525D02*
X644D01*
X525Y1876D02*
X644D01*
X525D02*
Y1932D01*
X1299Y1521D02*
Y1577D01*
X1180D02*
X1299D01*
X1180Y1521D02*
X1299D01*
X1180D02*
Y1577D01*
Y1451D02*
Y1507D01*
Y1451D02*
X1299D01*
X1180Y1507D02*
X1299D01*
Y1451D02*
Y1507D01*
X793Y1850D02*
Y1906D01*
Y1850D02*
X912D01*
X793Y1906D02*
X912D01*
Y1850D02*
Y1906D01*
X578Y1684D02*
Y1740D01*
X459D02*
X578D01*
X459Y1684D02*
X578D01*
X459D02*
Y1740D01*
Y1754D02*
Y1810D01*
Y1754D02*
X578D01*
X459Y1810D02*
X578D01*
Y1754D02*
Y1810D01*
X232Y1307D02*
Y1363D01*
Y1307D02*
X351D01*
X232Y1363D02*
X351D01*
Y1307D02*
Y1363D01*
X1093Y928D02*
X1149D01*
Y1047D01*
X1093Y928D02*
Y1047D01*
X1149D01*
X1093Y1175D02*
X1149D01*
X1093Y1056D02*
Y1175D01*
X1149Y1056D02*
Y1175D01*
X1093Y1056D02*
X1149D01*
X1192Y1175D02*
X1248D01*
X1192Y1056D02*
Y1175D01*
X1248Y1056D02*
Y1175D01*
X1192Y1056D02*
X1248D01*
X1513Y1157D02*
Y1213D01*
X1394D02*
X1513D01*
X1394Y1157D02*
X1513D01*
X1394D02*
Y1213D01*
X1263Y705D02*
X1319D01*
X1263Y586D02*
Y705D01*
X1319Y586D02*
Y705D01*
X1263Y586D02*
X1319D01*
X1193Y705D02*
X1249D01*
X1193Y586D02*
Y705D01*
X1249Y586D02*
Y705D01*
X1193Y586D02*
X1249D01*
X1177Y647D02*
Y703D01*
X1058D02*
X1177D01*
X1058Y647D02*
X1177D01*
X1058D02*
Y703D01*
X598Y832D02*
Y888D01*
X479D02*
X598D01*
X479Y832D02*
X598D01*
X479D02*
Y888D01*
X431Y447D02*
Y503D01*
X312D02*
X431D01*
X312Y447D02*
X431D01*
X312D02*
Y503D01*
X307Y633D02*
X363D01*
X307Y514D02*
Y633D01*
X363Y514D02*
Y633D01*
X307Y514D02*
X363D01*
X232Y1227D02*
Y1283D01*
Y1227D02*
X351D01*
X232Y1283D02*
X351D01*
Y1227D02*
Y1283D01*
X1206Y1962D02*
Y2018D01*
Y1962D02*
X1325D01*
X1206Y2018D02*
X1325D01*
Y1962D02*
Y2018D01*
X1354Y1802D02*
Y1902D01*
X1254D02*
X1354D01*
X1254Y1602D02*
Y1902D01*
Y1602D02*
X1354D01*
Y1902D02*
X1454D01*
X1354Y1602D02*
X1454D01*
Y1902D01*
X1254Y1802D02*
X1354D01*
X2243Y2294D02*
Y2394D01*
X2143Y2494D02*
X2443D01*
Y2394D02*
Y2494D01*
X2143Y2394D02*
Y2494D01*
X2443Y2294D02*
Y2394D01*
X2143Y2294D02*
X2443D01*
X2143D02*
Y2394D01*
X2243D01*
X441Y619D02*
X615D01*
X441Y503D02*
Y619D01*
Y503D02*
X615D01*
Y619D01*
X5Y880D02*
X275D01*
X5D02*
Y1180D01*
X275D01*
Y905D02*
X355D01*
Y1155D01*
X275D02*
X355D01*
X275D02*
Y1180D01*
Y880D02*
Y905D01*
X683Y1481D02*
X688Y1486D01*
Y1497D01*
X683Y1502D01*
X662D01*
X657Y1497D01*
Y1486D01*
X662Y1481D01*
X657Y1450D02*
Y1471D01*
X678Y1450D01*
X683D01*
X688Y1455D01*
Y1465D01*
X683Y1471D01*
X688Y1418D02*
X683Y1429D01*
X673Y1439D01*
X662D01*
X657Y1434D01*
Y1423D01*
X662Y1418D01*
X667D01*
X673Y1423D01*
Y1439D01*
X1245Y2028D02*
Y2059D01*
X1261D01*
X1266Y2054D01*
Y2044D01*
X1261Y2038D01*
X1245D01*
X1255D02*
X1266Y2028D01*
X1276Y2054D02*
X1282Y2059D01*
X1292D01*
X1297Y2054D01*
Y2049D01*
X1292Y2044D01*
X1287D01*
X1292D01*
X1297Y2038D01*
Y2033D01*
X1292Y2028D01*
X1282D01*
X1276Y2033D01*
X1324Y2028D02*
Y2059D01*
X1308Y2044D01*
X1329D01*
X1739Y1849D02*
X1734Y1854D01*
X1723D01*
X1718Y1849D01*
Y1828D01*
X1723Y1823D01*
X1734D01*
X1739Y1828D01*
X1749Y1849D02*
X1755Y1854D01*
X1765D01*
X1770Y1849D01*
Y1844D01*
X1765Y1839D01*
X1760D01*
X1765D01*
X1770Y1833D01*
Y1828D01*
X1765Y1823D01*
X1755D01*
X1749Y1828D01*
X1781Y1823D02*
X1791D01*
X1786D01*
Y1854D01*
X1781Y1849D01*
X762Y1602D02*
Y1576D01*
X767Y1571D01*
X778D01*
X783Y1576D01*
Y1602D01*
X793D02*
X814D01*
Y1597D01*
X793Y1576D01*
Y1571D01*
X615Y1718D02*
X610Y1713D01*
Y1702D01*
X615Y1697D01*
X636D01*
X641Y1702D01*
Y1713D01*
X636Y1718D01*
X641Y1749D02*
Y1728D01*
X620Y1749D01*
X615D01*
X610Y1744D01*
Y1734D01*
X615Y1728D01*
X641Y1776D02*
X610D01*
X625Y1760D01*
Y1781D01*
X764Y1983D02*
X769Y1988D01*
Y1999D01*
X764Y2004D01*
X743D01*
X738Y1999D01*
Y1988D01*
X743Y1983D01*
X738Y1952D02*
Y1973D01*
X759Y1952D01*
X764D01*
X769Y1957D01*
Y1967D01*
X764Y1973D01*
X769Y1920D02*
Y1941D01*
X754D01*
X759Y1931D01*
Y1925D01*
X754Y1920D01*
X743D01*
X738Y1925D01*
Y1936D01*
X743Y1941D01*
X2760Y1352D02*
Y1321D01*
X2776D01*
X2781Y1326D01*
Y1347D01*
X2776Y1352D01*
X2760D01*
X2791Y1321D02*
X2802D01*
X2797D01*
Y1352D01*
X2791Y1347D01*
X2839Y1321D02*
X2818D01*
X2839Y1342D01*
Y1347D01*
X2833Y1352D01*
X2823D01*
X2818Y1347D01*
X2764Y1146D02*
Y1115D01*
X2780D01*
X2785Y1120D01*
Y1141D01*
X2780Y1146D01*
X2764D01*
X2795Y1115D02*
X2806D01*
X2801D01*
Y1146D01*
X2795Y1141D01*
X2822Y1115D02*
X2832D01*
X2827D01*
Y1146D01*
X2822Y1141D01*
X2760Y1097D02*
Y1066D01*
X2776D01*
X2781Y1071D01*
Y1092D01*
X2776Y1097D01*
X2760D01*
X2791Y1066D02*
X2802D01*
X2797D01*
Y1097D01*
X2791Y1092D01*
X2818D02*
X2823Y1097D01*
X2833D01*
X2839Y1092D01*
Y1071D01*
X2833Y1066D01*
X2823D01*
X2818Y1071D01*
Y1092D01*
X2764Y883D02*
Y852D01*
X2780D01*
X2785Y857D01*
Y878D01*
X2780Y883D01*
X2764D01*
X2795Y857D02*
X2801Y852D01*
X2811D01*
X2816Y857D01*
Y878D01*
X2811Y883D01*
X2801D01*
X2795Y878D01*
Y873D01*
X2801Y868D01*
X2816D01*
X2175Y1269D02*
X2206D01*
Y1285D01*
X2201Y1290D01*
X2180D01*
X2175Y1285D01*
Y1269D01*
X2180Y1300D02*
X2175Y1306D01*
Y1316D01*
X2180Y1321D01*
X2185D01*
X2190Y1316D01*
X2196Y1321D01*
X2201D01*
X2206Y1316D01*
Y1306D01*
X2201Y1300D01*
X2196D01*
X2190Y1306D01*
X2185Y1300D01*
X2180D01*
X2190Y1306D02*
Y1316D01*
X2175Y1145D02*
X2206D01*
Y1161D01*
X2201Y1166D01*
X2180D01*
X2175Y1161D01*
Y1145D01*
Y1176D02*
Y1197D01*
X2180D01*
X2201Y1176D01*
X2206D01*
X2176Y1013D02*
X2207D01*
Y1029D01*
X2202Y1034D01*
X2181D01*
X2176Y1029D01*
Y1013D01*
Y1065D02*
X2181Y1055D01*
X2191Y1044D01*
X2202D01*
X2207Y1050D01*
Y1060D01*
X2202Y1065D01*
X2197D01*
X2191Y1060D01*
Y1044D01*
X2177Y889D02*
X2208D01*
Y905D01*
X2203Y910D01*
X2182D01*
X2177Y905D01*
Y889D01*
Y941D02*
Y920D01*
X2192D01*
X2187Y931D01*
Y936D01*
X2192Y941D01*
X2203D01*
X2208Y936D01*
Y926D01*
X2203Y920D01*
X373Y1199D02*
Y1168D01*
X394D01*
X404D02*
X415D01*
X410D01*
Y1199D01*
X404Y1194D01*
X1501Y1636D02*
Y1647D01*
Y1641D01*
X1475D01*
X1470Y1647D01*
Y1652D01*
X1475Y1657D01*
X1496Y1626D02*
X1501Y1620D01*
Y1610D01*
X1496Y1605D01*
X1491D01*
X1486Y1610D01*
X1480Y1605D01*
X1475D01*
X1470Y1610D01*
Y1620D01*
X1475Y1626D01*
X1480D01*
X1486Y1620D01*
X1491Y1626D01*
X1496D01*
X1486Y1620D02*
Y1610D01*
X2242Y2280D02*
Y2259D01*
X2252Y2249D01*
X2263Y2259D01*
Y2280D01*
X2273D02*
X2294D01*
X2284D01*
Y2249D01*
X2326Y2275D02*
X2321Y2280D01*
X2310D01*
X2305Y2275D01*
Y2254D01*
X2310Y2249D01*
X2321D01*
X2326Y2254D01*
Y2265D01*
X2315D01*
X2460Y2175D02*
Y2164D01*
Y2170D01*
X2486D01*
X2491Y2164D01*
Y2159D01*
X2486Y2154D01*
X2491Y2185D02*
Y2196D01*
Y2191D01*
X2460D01*
X2465Y2185D01*
Y2212D02*
X2460Y2217D01*
Y2227D01*
X2465Y2233D01*
X2486D01*
X2491Y2227D01*
Y2217D01*
X2486Y2212D01*
X2465D01*
X1058Y1793D02*
X1079D01*
X1089Y1803D01*
X1079Y1814D01*
X1058D01*
Y1824D02*
Y1845D01*
Y1835D01*
X1089D01*
X1063Y1877D02*
X1058Y1872D01*
Y1861D01*
X1063Y1856D01*
X1084D01*
X1089Y1861D01*
Y1872D01*
X1084Y1877D01*
X1073D01*
Y1866D01*
X1171Y1692D02*
X1160D01*
X1166D01*
Y1666D01*
X1160Y1661D01*
X1155D01*
X1150Y1666D01*
X1181D02*
X1187Y1661D01*
X1197D01*
X1202Y1666D01*
Y1687D01*
X1197Y1692D01*
X1187D01*
X1181Y1687D01*
Y1682D01*
X1187Y1677D01*
X1202D01*
X804Y2079D02*
X793D01*
X799D01*
Y2053D01*
X793Y2048D01*
X788D01*
X783Y2053D01*
X814Y2079D02*
X835D01*
Y2074D01*
X814Y2053D01*
Y2048D01*
X1995Y2307D02*
X2016Y2276D01*
Y2307D02*
X1995Y2276D01*
X2047D02*
X2026D01*
X2047Y2297D01*
Y2302D01*
X2042Y2307D01*
X2032D01*
X2026Y2302D01*
X768Y1392D02*
X789Y1361D01*
Y1392D02*
X768Y1361D01*
X799D02*
X810D01*
X805D01*
Y1392D01*
X799Y1387D01*
X1175Y939D02*
X1206D01*
Y955D01*
X1201Y960D01*
X1180D01*
X1175Y955D01*
Y939D01*
X1206Y986D02*
X1175D01*
X1190Y970D01*
Y991D01*
X1698Y452D02*
X1729D01*
Y468D01*
X1724Y473D01*
X1703D01*
X1698Y468D01*
Y452D01*
X1729Y504D02*
Y483D01*
X1708Y504D01*
X1703D01*
X1698Y499D01*
Y489D01*
X1703Y483D01*
X1516Y1146D02*
Y1120D01*
X1521Y1115D01*
X1532D01*
X1537Y1120D01*
Y1146D01*
X1568D02*
X1547D01*
Y1131D01*
X1558Y1136D01*
X1563D01*
X1568Y1131D01*
Y1120D01*
X1563Y1115D01*
X1553D01*
X1547Y1120D01*
X1580Y582D02*
Y559D01*
X1585Y554D01*
X1594D01*
X1598Y559D01*
Y582D01*
X1621Y554D02*
Y582D01*
X1608Y568D01*
X1626D01*
X2345Y473D02*
Y447D01*
X2350Y442D01*
X2361D01*
X2366Y447D01*
Y473D01*
X2376Y468D02*
X2382Y473D01*
X2392D01*
X2397Y468D01*
Y463D01*
X2392Y458D01*
X2387D01*
X2392D01*
X2397Y452D01*
Y447D01*
X2392Y442D01*
X2382D01*
X2376Y447D01*
X1283Y1368D02*
X1278Y1363D01*
Y1352D01*
X1283Y1347D01*
X1304D01*
X1309Y1352D01*
Y1363D01*
X1304Y1368D01*
X1309Y1378D02*
Y1389D01*
Y1384D01*
X1278D01*
X1283Y1378D01*
X1278Y1426D02*
Y1405D01*
X1293D01*
X1288Y1415D01*
Y1420D01*
X1293Y1426D01*
X1304D01*
X1309Y1420D01*
Y1410D01*
X1304Y1405D01*
X1625Y1141D02*
X1620Y1146D01*
X1609D01*
X1604Y1141D01*
Y1120D01*
X1609Y1115D01*
X1620D01*
X1625Y1120D01*
X1635Y1115D02*
X1646D01*
X1641D01*
Y1146D01*
X1635Y1141D01*
X1677Y1115D02*
Y1146D01*
X1662Y1131D01*
X1683D01*
X1181Y475D02*
X1176Y470D01*
Y459D01*
X1181Y454D01*
X1202D01*
X1207Y459D01*
Y470D01*
X1202Y475D01*
Y485D02*
X1207Y491D01*
Y501D01*
X1202Y506D01*
X1181D01*
X1176Y501D01*
Y491D01*
X1181Y485D01*
X1186D01*
X1191Y491D01*
Y506D01*
X1766Y477D02*
X1761Y472D01*
Y461D01*
X1766Y456D01*
X1787D01*
X1792Y461D01*
Y472D01*
X1787Y477D01*
X1766Y487D02*
X1761Y493D01*
Y503D01*
X1766Y508D01*
X1771D01*
X1776Y503D01*
X1782Y508D01*
X1787D01*
X1792Y503D01*
Y493D01*
X1787Y487D01*
X1782D01*
X1776Y493D01*
X1771Y487D01*
X1766D01*
X1776Y493D02*
Y503D01*
X2049Y674D02*
X2044Y679D01*
X2033D01*
X2028Y674D01*
Y653D01*
X2033Y648D01*
X2044D01*
X2049Y653D01*
X2080Y679D02*
X2070Y674D01*
X2059Y664D01*
Y653D01*
X2065Y648D01*
X2075D01*
X2080Y653D01*
Y658D01*
X2075Y664D01*
X2059D01*
X2567Y629D02*
X2562Y634D01*
X2551D01*
X2546Y629D01*
Y608D01*
X2551Y603D01*
X2562D01*
X2567Y608D01*
X2598Y634D02*
X2577D01*
Y619D01*
X2588Y624D01*
X2593D01*
X2598Y619D01*
Y608D01*
X2593Y603D01*
X2583D01*
X2577Y608D01*
X1412Y489D02*
X1417Y494D01*
Y505D01*
X1412Y510D01*
X1391D01*
X1386Y505D01*
Y494D01*
X1391Y489D01*
X1386Y479D02*
Y468D01*
Y473D01*
X1417D01*
X1412Y479D01*
X1386Y452D02*
Y442D01*
Y447D01*
X1417D01*
X1412Y452D01*
X1931Y621D02*
X1936Y626D01*
Y637D01*
X1931Y642D01*
X1910D01*
X1905Y637D01*
Y626D01*
X1910Y621D01*
X1905Y611D02*
Y600D01*
Y605D01*
X1936D01*
X1931Y611D01*
Y584D02*
X1936Y579D01*
Y569D01*
X1931Y563D01*
X1910D01*
X1905Y569D01*
Y579D01*
X1910Y584D01*
X1931D01*
X1716Y1169D02*
X1711Y1174D01*
X1700D01*
X1695Y1169D01*
Y1148D01*
X1700Y1143D01*
X1711D01*
X1716Y1148D01*
X1726Y1143D02*
X1737D01*
X1732D01*
Y1174D01*
X1726Y1169D01*
X1774Y1174D02*
X1763Y1169D01*
X1753Y1159D01*
Y1148D01*
X1758Y1143D01*
X1768D01*
X1774Y1148D01*
Y1153D01*
X1768Y1159D01*
X1753D01*
X1351Y1446D02*
X1346Y1451D01*
X1335D01*
X1330Y1446D01*
Y1425D01*
X1335Y1420D01*
X1346D01*
X1351Y1425D01*
X1361Y1420D02*
X1372D01*
X1367D01*
Y1451D01*
X1361Y1446D01*
X1388Y1451D02*
X1409D01*
Y1446D01*
X1388Y1425D01*
Y1420D01*
X2151Y486D02*
X2146Y491D01*
X2135D01*
X2130Y486D01*
Y465D01*
X2135Y460D01*
X2146D01*
X2151Y465D01*
X2161Y491D02*
X2182D01*
Y486D01*
X2161Y465D01*
Y460D01*
X725Y1328D02*
X720Y1333D01*
X709D01*
X704Y1328D01*
Y1307D01*
X709Y1302D01*
X720D01*
X725Y1307D01*
X751Y1302D02*
Y1333D01*
X735Y1318D01*
X756D01*
X3127Y1340D02*
X3116D01*
X3122D01*
Y1314D01*
X3116Y1309D01*
X3111D01*
X3106Y1314D01*
X3153Y1309D02*
Y1340D01*
X3137Y1325D01*
X3158D01*
X3129Y1066D02*
X3118D01*
X3124D01*
Y1040D01*
X3118Y1035D01*
X3113D01*
X3108Y1040D01*
X3139Y1061D02*
X3145Y1066D01*
X3155D01*
X3160Y1061D01*
Y1056D01*
X3155Y1051D01*
X3150D01*
X3155D01*
X3160Y1045D01*
Y1040D01*
X3155Y1035D01*
X3145D01*
X3139Y1040D01*
X3031Y1625D02*
X3020D01*
X3026D01*
Y1599D01*
X3020Y1594D01*
X3015D01*
X3010Y1599D01*
X3041Y1594D02*
X3052D01*
X3047D01*
Y1625D01*
X3041Y1620D01*
X3089Y1594D02*
X3068D01*
X3089Y1615D01*
Y1620D01*
X3083Y1625D01*
X3073D01*
X3068Y1620D01*
X46Y1881D02*
X35D01*
X41D01*
Y1855D01*
X35Y1850D01*
X30D01*
X25Y1855D01*
X77Y1881D02*
X56D01*
Y1866D01*
X67Y1871D01*
X72D01*
X77Y1866D01*
Y1855D01*
X72Y1850D01*
X62D01*
X56Y1855D01*
X284Y329D02*
X279Y334D01*
X268D01*
X263Y329D01*
Y324D01*
X268Y319D01*
X279D01*
X284Y313D01*
Y308D01*
X279Y303D01*
X268D01*
X263Y308D01*
X294Y303D02*
X305D01*
X300D01*
Y334D01*
X294Y329D01*
X733Y577D02*
X728Y582D01*
X717D01*
X712Y577D01*
Y556D01*
X717Y551D01*
X728D01*
X733Y556D01*
X743Y551D02*
X754D01*
X749D01*
Y582D01*
X743Y577D01*
X702Y670D02*
X697Y675D01*
X686D01*
X681Y670D01*
Y649D01*
X686Y644D01*
X697D01*
X702Y649D01*
X733Y644D02*
X712D01*
X733Y665D01*
Y670D01*
X728Y675D01*
X718D01*
X712Y670D01*
X362Y1281D02*
X393D01*
Y1265D01*
X388Y1260D01*
X378D01*
X372Y1265D01*
Y1281D01*
Y1271D02*
X362Y1260D01*
Y1234D02*
X393D01*
X378Y1250D01*
Y1229D01*
X296Y580D02*
X265D01*
Y596D01*
X270Y601D01*
X280D01*
X286Y596D01*
Y580D01*
Y590D02*
X296Y601D01*
X270Y611D02*
X265Y617D01*
Y627D01*
X270Y632D01*
X275D01*
X280Y627D01*
Y622D01*
Y627D01*
X286Y632D01*
X291D01*
X296Y627D01*
Y617D01*
X291Y611D01*
X300Y449D02*
X269D01*
Y465D01*
X274Y470D01*
X284D01*
X290Y465D01*
Y449D01*
Y459D02*
X300Y470D01*
Y501D02*
Y480D01*
X279Y501D01*
X274D01*
X269Y496D01*
Y486D01*
X274Y480D01*
X640Y835D02*
X609D01*
Y851D01*
X614Y856D01*
X624D01*
X630Y851D01*
Y835D01*
Y845D02*
X640Y856D01*
Y866D02*
Y877D01*
Y872D01*
X609D01*
X614Y866D01*
X806Y439D02*
X801Y444D01*
X790D01*
X785Y439D01*
Y434D01*
X790Y429D01*
X801D01*
X806Y423D01*
Y418D01*
X801Y413D01*
X790D01*
X785Y418D01*
X816Y439D02*
X822Y444D01*
X832D01*
X837Y439D01*
Y434D01*
X832Y429D01*
X827D01*
X832D01*
X837Y423D01*
Y418D01*
X832Y413D01*
X822D01*
X816Y418D01*
X1087Y436D02*
X1082Y441D01*
X1071D01*
X1066Y436D01*
Y431D01*
X1071Y426D01*
X1082D01*
X1087Y420D01*
Y415D01*
X1082Y410D01*
X1071D01*
X1066Y415D01*
X1118Y410D02*
X1097D01*
X1118Y431D01*
Y436D01*
X1113Y441D01*
X1103D01*
X1097Y436D01*
X425Y866D02*
Y840D01*
X430Y835D01*
X441D01*
X446Y840D01*
Y866D01*
X456Y835D02*
X467D01*
X462D01*
Y866D01*
X456Y861D01*
X636Y1239D02*
X631Y1244D01*
X620D01*
X615Y1239D01*
Y1218D01*
X620Y1213D01*
X631D01*
X636Y1218D01*
X646Y1239D02*
X652Y1244D01*
X662D01*
X667Y1239D01*
Y1234D01*
X662Y1229D01*
X657D01*
X662D01*
X667Y1223D01*
Y1218D01*
X662Y1213D01*
X652D01*
X646Y1218D01*
X1496Y2542D02*
Y2511D01*
X1517D01*
X1548D02*
X1527D01*
X1548Y2532D01*
Y2537D01*
X1543Y2542D01*
X1533D01*
X1527Y2537D01*
X669Y1570D02*
Y1591D01*
X654D01*
Y1581D01*
Y1591D01*
X638D01*
Y1560D02*
Y1549D01*
Y1554D01*
X669D01*
X664Y1560D01*
X1453Y50D02*
Y39D01*
Y45D01*
X1479D01*
X1484Y39D01*
Y34D01*
X1479Y29D01*
X1484Y60D02*
Y71D01*
Y66D01*
X1453D01*
X1458Y60D01*
Y87D02*
X1453Y92D01*
Y102D01*
X1458Y108D01*
X1463D01*
X1468Y102D01*
X1474Y108D01*
X1479D01*
X1484Y102D01*
Y92D01*
X1479Y87D01*
X1474D01*
X1468Y92D01*
X1463Y87D01*
X1458D01*
X1468Y92D02*
Y102D01*
X1728Y49D02*
Y38D01*
Y44D01*
X1754D01*
X1759Y38D01*
Y33D01*
X1754Y28D01*
X1759Y59D02*
Y70D01*
Y65D01*
X1728D01*
X1733Y59D01*
X1728Y86D02*
Y107D01*
X1733D01*
X1754Y86D01*
X1759D01*
X2003Y46D02*
Y35D01*
Y41D01*
X2029D01*
X2034Y35D01*
Y30D01*
X2029Y25D01*
X2034Y56D02*
Y67D01*
Y62D01*
X2003D01*
X2008Y56D01*
X2003Y104D02*
X2008Y93D01*
X2018Y83D01*
X2029D01*
X2034Y88D01*
Y98D01*
X2029Y104D01*
X2024D01*
X2018Y98D01*
Y83D01*
X2270Y43D02*
Y32D01*
Y38D01*
X2296D01*
X2301Y32D01*
Y27D01*
X2296Y22D01*
X2301Y53D02*
Y64D01*
Y59D01*
X2270D01*
X2275Y53D01*
X2270Y101D02*
Y80D01*
X2285D01*
X2280Y90D01*
Y95D01*
X2285Y101D01*
X2296D01*
X2301Y95D01*
Y85D01*
X2296Y80D01*
X2557Y52D02*
Y41D01*
Y47D01*
X2583D01*
X2588Y41D01*
Y36D01*
X2583Y31D01*
X2588Y62D02*
Y73D01*
Y68D01*
X2557D01*
X2562Y62D01*
X2588Y104D02*
X2557D01*
X2572Y89D01*
Y110D01*
X2825Y44D02*
Y33D01*
Y38D01*
X2853D01*
X2858Y33D01*
Y27D01*
X2853Y22D01*
X2858Y55D02*
Y66D01*
Y60D01*
X2825D01*
X2831Y55D01*
Y82D02*
X2825Y87D01*
Y98D01*
X2831Y104D01*
X2836D01*
X2842Y98D01*
Y93D01*
Y98D01*
X2847Y104D01*
X2853D01*
X2858Y98D01*
Y87D01*
X2853Y82D01*
X171Y1216D02*
Y1185D01*
X187D01*
X192Y1190D01*
Y1211D01*
X187Y1216D01*
X171D01*
X202Y1185D02*
X213D01*
X208D01*
Y1216D01*
X202Y1211D01*
X1063Y715D02*
Y746D01*
X1079D01*
X1084Y741D01*
Y731D01*
X1079Y725D01*
X1063D01*
X1073D02*
X1084Y715D01*
X1115Y746D02*
X1094D01*
Y731D01*
X1105Y736D01*
X1110D01*
X1115Y731D01*
Y720D01*
X1110Y715D01*
X1100D01*
X1094Y720D01*
X1208Y540D02*
X1186D01*
Y551D01*
X1190Y555D01*
X1197D01*
X1201Y551D01*
Y540D01*
Y547D02*
X1208Y555D01*
X1186Y577D02*
X1190Y569D01*
X1197Y562D01*
X1204D01*
X1208Y566D01*
Y573D01*
X1204Y577D01*
X1201D01*
X1197Y573D01*
Y562D01*
X1352Y596D02*
X1330D01*
Y607D01*
X1334Y611D01*
X1341D01*
X1345Y607D01*
Y596D01*
Y603D02*
X1352Y611D01*
X1330Y618D02*
Y633D01*
X1334D01*
X1348Y618D01*
X1352D01*
X1395Y1225D02*
Y1256D01*
X1411D01*
X1416Y1251D01*
Y1241D01*
X1411Y1235D01*
X1395D01*
X1405D02*
X1416Y1225D01*
X1426Y1230D02*
X1432Y1225D01*
X1442D01*
X1447Y1230D01*
Y1251D01*
X1442Y1256D01*
X1432D01*
X1426Y1251D01*
Y1246D01*
X1432Y1241D01*
X1447D01*
X1170Y1013D02*
Y1044D01*
X1186D01*
X1191Y1039D01*
Y1029D01*
X1186Y1023D01*
X1170D01*
X1180D02*
X1191Y1013D01*
X1201D02*
X1212D01*
X1207D01*
Y1044D01*
X1201Y1039D01*
X1228D02*
X1233Y1044D01*
X1243D01*
X1249Y1039D01*
Y1018D01*
X1243Y1013D01*
X1233D01*
X1228Y1018D01*
Y1039D01*
X1082Y1057D02*
X1051D01*
Y1073D01*
X1056Y1078D01*
X1066D01*
X1072Y1073D01*
Y1057D01*
Y1067D02*
X1082Y1078D01*
Y1088D02*
Y1099D01*
Y1094D01*
X1051D01*
X1056Y1088D01*
X1082Y1115D02*
Y1125D01*
Y1120D01*
X1051D01*
X1056Y1115D01*
X1082Y930D02*
X1051D01*
Y946D01*
X1056Y951D01*
X1066D01*
X1072Y946D01*
Y930D01*
Y940D02*
X1082Y951D01*
Y961D02*
Y972D01*
Y967D01*
X1051D01*
X1056Y961D01*
X1082Y1009D02*
Y988D01*
X1061Y1009D01*
X1056D01*
X1051Y1003D01*
Y993D01*
X1056Y988D01*
X1096Y562D02*
X1091Y567D01*
X1080D01*
X1075Y562D01*
Y541D01*
X1080Y536D01*
X1091D01*
X1096Y541D01*
X1106Y536D02*
X1117D01*
X1112D01*
Y567D01*
X1106Y562D01*
X1154Y536D02*
X1133D01*
X1154Y557D01*
Y562D01*
X1148Y567D01*
X1138D01*
X1133Y562D01*
X1293Y1141D02*
X1288Y1146D01*
X1277D01*
X1272Y1141D01*
Y1120D01*
X1277Y1115D01*
X1288D01*
X1293Y1120D01*
X1303Y1115D02*
X1314D01*
X1309D01*
Y1146D01*
X1303Y1141D01*
X1330D02*
X1335Y1146D01*
X1345D01*
X1351Y1141D01*
Y1136D01*
X1345Y1131D01*
X1351Y1125D01*
Y1120D01*
X1345Y1115D01*
X1335D01*
X1330Y1120D01*
Y1125D01*
X1335Y1131D01*
X1330Y1136D01*
Y1141D01*
X1335Y1131D02*
X1345D01*
X1759Y704D02*
X1754Y709D01*
X1743D01*
X1738Y704D01*
Y683D01*
X1743Y678D01*
X1754D01*
X1759Y683D01*
X1769Y678D02*
X1780D01*
X1775D01*
Y709D01*
X1769Y704D01*
X1796D02*
X1801Y709D01*
X1811D01*
X1817Y704D01*
Y699D01*
X1811Y694D01*
X1806D01*
X1811D01*
X1817Y688D01*
Y683D01*
X1811Y678D01*
X1801D01*
X1796Y683D01*
X1670Y1221D02*
X1665Y1226D01*
X1654D01*
X1649Y1221D01*
Y1200D01*
X1654Y1195D01*
X1665D01*
X1670Y1200D01*
X1680Y1195D02*
X1691D01*
X1686D01*
Y1226D01*
X1680Y1221D01*
X1707Y1200D02*
X1712Y1195D01*
X1722D01*
X1728Y1200D01*
Y1221D01*
X1722Y1226D01*
X1712D01*
X1707Y1221D01*
Y1216D01*
X1712Y1211D01*
X1728D01*
X2058Y1207D02*
Y1176D01*
X2079D01*
X2089Y1202D02*
X2095Y1207D01*
X2105D01*
X2110Y1202D01*
Y1197D01*
X2105Y1192D01*
X2100D01*
X2105D01*
X2110Y1186D01*
Y1181D01*
X2105Y1176D01*
X2095D01*
X2089Y1181D01*
X1515Y1709D02*
Y1678D01*
X1536D01*
X1562D02*
Y1709D01*
X1546Y1694D01*
X1567D01*
X1251Y1335D02*
X1240D01*
X1246D01*
Y1309D01*
X1240Y1304D01*
X1235D01*
X1230Y1309D01*
X1282Y1304D02*
X1261D01*
X1282Y1325D01*
Y1330D01*
X1277Y1335D01*
X1267D01*
X1261Y1330D01*
X169Y1406D02*
Y1375D01*
X185D01*
X190Y1380D01*
Y1401D01*
X185Y1406D01*
X169D01*
X200Y1401D02*
X206Y1406D01*
X216D01*
X221Y1401D01*
Y1396D01*
X216Y1391D01*
X211D01*
X216D01*
X221Y1385D01*
Y1380D01*
X216Y1375D01*
X206D01*
X200Y1380D01*
X364Y1361D02*
X395D01*
Y1345D01*
X390Y1340D01*
X380D01*
X374Y1345D01*
Y1361D01*
Y1351D02*
X364Y1340D01*
X390Y1330D02*
X395Y1324D01*
Y1314D01*
X390Y1309D01*
X385D01*
X380Y1314D01*
X374Y1309D01*
X369D01*
X364Y1314D01*
Y1324D01*
X369Y1330D01*
X374D01*
X380Y1324D01*
X385Y1330D01*
X390D01*
X380Y1324D02*
Y1314D01*
X1685Y2297D02*
Y2271D01*
X1690Y2266D01*
X1701D01*
X1706Y2271D01*
Y2297D01*
X1716Y2292D02*
X1722Y2297D01*
X1732D01*
X1737Y2292D01*
Y2287D01*
X1732Y2282D01*
X1737Y2276D01*
Y2271D01*
X1732Y2266D01*
X1722D01*
X1716Y2271D01*
Y2276D01*
X1722Y2282D01*
X1716Y2287D01*
Y2292D01*
X1722Y2282D02*
X1732D01*
X517Y1820D02*
Y1851D01*
X533D01*
X538Y1846D01*
Y1836D01*
X533Y1830D01*
X517D01*
X527D02*
X538Y1820D01*
X548D02*
X559D01*
X554D01*
Y1851D01*
X548Y1846D01*
X575Y1851D02*
X596D01*
Y1846D01*
X575Y1825D01*
Y1820D01*
X501Y1642D02*
Y1673D01*
X517D01*
X522Y1668D01*
Y1658D01*
X517Y1652D01*
X501D01*
X511D02*
X522Y1642D01*
X532D02*
X543D01*
X538D01*
Y1673D01*
X532Y1668D01*
X559D02*
X564Y1673D01*
X574D01*
X580Y1668D01*
Y1663D01*
X574Y1658D01*
X580Y1652D01*
Y1647D01*
X574Y1642D01*
X564D01*
X559Y1647D01*
Y1652D01*
X564Y1658D01*
X559Y1663D01*
Y1668D01*
X564Y1658D02*
X574D01*
X937Y1851D02*
Y1882D01*
X953D01*
X958Y1877D01*
Y1867D01*
X953Y1861D01*
X937D01*
X947D02*
X958Y1851D01*
X968D02*
X979D01*
X974D01*
Y1882D01*
X968Y1877D01*
X995Y1856D02*
X1000Y1851D01*
X1010D01*
X1016Y1856D01*
Y1877D01*
X1010Y1882D01*
X1000D01*
X995Y1877D01*
Y1872D01*
X1000Y1867D01*
X1016D01*
X1310Y1464D02*
Y1495D01*
X1326D01*
X1331Y1490D01*
Y1480D01*
X1326Y1474D01*
X1310D01*
X1320D02*
X1331Y1464D01*
X1362D02*
X1341D01*
X1362Y1485D01*
Y1490D01*
X1357Y1495D01*
X1347D01*
X1341Y1490D01*
X1373D02*
X1378Y1495D01*
X1389D01*
X1394Y1490D01*
Y1469D01*
X1389Y1464D01*
X1378D01*
X1373Y1469D01*
Y1490D01*
X1310Y1530D02*
Y1561D01*
X1326D01*
X1331Y1556D01*
Y1546D01*
X1326Y1540D01*
X1310D01*
X1320D02*
X1331Y1530D01*
X1362D02*
X1341D01*
X1362Y1551D01*
Y1556D01*
X1357Y1561D01*
X1347D01*
X1341Y1556D01*
X1373Y1530D02*
X1383D01*
X1378D01*
Y1561D01*
X1373Y1556D01*
X689Y1865D02*
X658D01*
Y1881D01*
X663Y1886D01*
X673D01*
X679Y1881D01*
Y1865D01*
Y1875D02*
X689Y1886D01*
Y1917D02*
Y1896D01*
X668Y1917D01*
X663D01*
X658Y1912D01*
Y1902D01*
X663Y1896D01*
X689Y1949D02*
Y1928D01*
X668Y1949D01*
X663D01*
X658Y1944D01*
Y1933D01*
X663Y1928D01*
X545Y2022D02*
Y2053D01*
X561D01*
X566Y2048D01*
Y2038D01*
X561Y2032D01*
X545D01*
X555D02*
X566Y2022D01*
X597D02*
X576D01*
X597Y2043D01*
Y2048D01*
X592Y2053D01*
X582D01*
X576Y2048D01*
X608D02*
X613Y2053D01*
X624D01*
X629Y2048D01*
Y2043D01*
X624Y2038D01*
X618D01*
X624D01*
X629Y2032D01*
Y2027D01*
X624Y2022D01*
X613D01*
X608Y2027D01*
X1136Y2056D02*
Y2087D01*
X1152D01*
X1157Y2082D01*
Y2072D01*
X1152Y2066D01*
X1136D01*
X1146D02*
X1157Y2056D01*
X1188D02*
X1167D01*
X1188Y2077D01*
Y2082D01*
X1183Y2087D01*
X1173D01*
X1167Y2082D01*
X1215Y2056D02*
Y2087D01*
X1199Y2072D01*
X1220D01*
X1049Y1429D02*
X1044Y1434D01*
X1033D01*
X1028Y1429D01*
Y1408D01*
X1033Y1403D01*
X1044D01*
X1049Y1408D01*
X1080Y1403D02*
X1059D01*
X1080Y1424D01*
Y1429D01*
X1075Y1434D01*
X1065D01*
X1059Y1429D01*
X1091Y1434D02*
X1112D01*
Y1429D01*
X1091Y1408D01*
Y1403D01*
X1106Y1503D02*
X1101Y1498D01*
Y1487D01*
X1106Y1482D01*
X1127D01*
X1132Y1487D01*
Y1498D01*
X1127Y1503D01*
X1132Y1534D02*
Y1513D01*
X1111Y1534D01*
X1106D01*
X1101Y1529D01*
Y1519D01*
X1106Y1513D01*
Y1545D02*
X1101Y1550D01*
Y1561D01*
X1106Y1566D01*
X1111D01*
X1116Y1561D01*
X1122Y1566D01*
X1127D01*
X1132Y1561D01*
Y1550D01*
X1127Y1545D01*
X1122D01*
X1116Y1550D01*
X1111Y1545D01*
X1106D01*
X1116Y1550D02*
Y1561D01*
X423Y1860D02*
X444D01*
X433D01*
Y1829D01*
X454Y1860D02*
X475Y1829D01*
Y1860D02*
X454Y1829D01*
X275Y1920D02*
Y1889D01*
X291D01*
X296Y1894D01*
Y1915D01*
X291Y1920D01*
X275D01*
X306Y1889D02*
X317D01*
X312D01*
Y1920D01*
X306Y1915D01*
X333Y1894D02*
X338Y1889D01*
X348D01*
X354Y1894D01*
Y1915D01*
X348Y1920D01*
X338D01*
X333Y1915D01*
Y1910D01*
X338Y1905D01*
X354D01*
X421Y2025D02*
Y2056D01*
X437D01*
X442Y2051D01*
Y2041D01*
X437Y2035D01*
X421D01*
X431D02*
X442Y2025D01*
X452Y2056D02*
X473Y2025D01*
Y2056D02*
X452Y2025D01*
X272Y1999D02*
Y1968D01*
X288D01*
X293Y1973D01*
Y1994D01*
X288Y1999D01*
X272D01*
X324Y1968D02*
X303D01*
X324Y1989D01*
Y1994D01*
X319Y1999D01*
X309D01*
X303Y1994D01*
X335D02*
X340Y1999D01*
X351D01*
X356Y1994D01*
Y1973D01*
X351Y1968D01*
X340D01*
X335Y1973D01*
Y1994D01*
X1087Y1939D02*
X1082Y1934D01*
Y1923D01*
X1087Y1918D01*
X1108D01*
X1113Y1923D01*
Y1934D01*
X1108Y1939D01*
X1087Y1949D02*
X1082Y1955D01*
Y1965D01*
X1087Y1970D01*
X1092D01*
X1097Y1965D01*
Y1960D01*
Y1965D01*
X1103Y1970D01*
X1108D01*
X1113Y1965D01*
Y1955D01*
X1108Y1949D01*
X1087Y1981D02*
X1082Y1986D01*
Y1997D01*
X1087Y2002D01*
X1108D01*
X1113Y1997D01*
Y1986D01*
X1108Y1981D01*
X1087D01*
X2714Y1744D02*
X2745D01*
Y1760D01*
X2740Y1765D01*
X2719D01*
X2714Y1760D01*
Y1744D01*
X2745Y1796D02*
Y1775D01*
X2724Y1796D01*
X2719D01*
X2714Y1791D01*
Y1781D01*
X2719Y1775D01*
X2745Y1828D02*
Y1807D01*
X2724Y1828D01*
X2719D01*
X2714Y1823D01*
Y1812D01*
X2719Y1807D01*
X1488Y875D02*
X1519D01*
Y891D01*
X1514Y896D01*
X1493D01*
X1488Y891D01*
Y875D01*
X1519Y927D02*
Y906D01*
X1498Y927D01*
X1493D01*
X1488Y922D01*
Y912D01*
X1493Y906D01*
X1488Y959D02*
Y938D01*
X1503D01*
X1498Y948D01*
Y954D01*
X1503Y959D01*
X1514D01*
X1519Y954D01*
Y943D01*
X1514Y938D01*
X827Y2004D02*
Y1973D01*
X843D01*
X848Y1978D01*
Y1999D01*
X843Y2004D01*
X827D01*
X858Y1973D02*
X869D01*
X864D01*
Y2004D01*
X858Y1999D01*
X885Y2004D02*
X906D01*
Y1999D01*
X885Y1978D01*
Y1973D01*
X2083Y2223D02*
Y2192D01*
X2099D01*
X2104Y2197D01*
Y2218D01*
X2099Y2223D01*
X2083D01*
X2135Y2192D02*
X2114D01*
X2135Y2213D01*
Y2218D01*
X2130Y2223D01*
X2120D01*
X2114Y2218D01*
X2146Y2192D02*
X2156D01*
X2151D01*
Y2223D01*
X2146Y2218D01*
X798Y566D02*
Y587D01*
X808Y597D01*
X819Y587D01*
Y566D01*
Y582D01*
X798D01*
X829Y597D02*
Y571D01*
X835Y566D01*
X845D01*
X850Y571D01*
Y597D01*
X861D02*
X882D01*
X871D01*
Y566D01*
X908Y597D02*
X898D01*
X892Y592D01*
Y571D01*
X898Y566D01*
X908D01*
X913Y571D01*
Y592D01*
X908Y597D01*
X924Y566D02*
Y597D01*
X940D01*
X945Y592D01*
Y582D01*
X940Y576D01*
X924D01*
X934D02*
X945Y566D01*
X955Y597D02*
Y571D01*
X961Y566D01*
X971D01*
X976Y571D01*
Y597D01*
X987Y566D02*
Y597D01*
X1008Y566D01*
Y597D01*
X819Y762D02*
X808D01*
X814D01*
Y736D01*
X808Y731D01*
X803D01*
X798Y736D01*
X850Y731D02*
X829D01*
X850Y752D01*
Y757D01*
X845Y762D01*
X835D01*
X829Y757D01*
X861D02*
X866Y762D01*
X877D01*
X882Y757D01*
Y736D01*
X877Y731D01*
X866D01*
X861Y736D01*
Y757D01*
X1905Y1957D02*
X1900Y1962D01*
X1889D01*
X1884Y1957D01*
Y1936D01*
X1889Y1931D01*
X1900D01*
X1905Y1936D01*
X1915Y1957D02*
X1921Y1962D01*
X1931D01*
X1936Y1957D01*
Y1952D01*
X1931Y1947D01*
X1926D01*
X1931D01*
X1936Y1941D01*
Y1936D01*
X1931Y1931D01*
X1921D01*
X1915Y1936D01*
X1968Y1931D02*
X1947D01*
X1968Y1952D01*
Y1957D01*
X1963Y1962D01*
X1952D01*
X1947Y1957D01*
X2001Y2087D02*
X1996Y2082D01*
Y2071D01*
X2001Y2066D01*
X2022D01*
X2027Y2071D01*
Y2082D01*
X2022Y2087D01*
X2001Y2097D02*
X1996Y2103D01*
Y2113D01*
X2001Y2118D01*
X2006D01*
X2011Y2113D01*
Y2108D01*
Y2113D01*
X2017Y2118D01*
X2022D01*
X2027Y2113D01*
Y2103D01*
X2022Y2097D01*
X2001Y2129D02*
X1996Y2134D01*
Y2145D01*
X2001Y2150D01*
X2006D01*
X2011Y2145D01*
Y2139D01*
Y2145D01*
X2017Y2150D01*
X2022D01*
X2027Y2145D01*
Y2134D01*
X2022Y2129D01*
X1854Y2349D02*
X1859Y2354D01*
Y2365D01*
X1854Y2370D01*
X1833D01*
X1828Y2365D01*
Y2354D01*
X1833Y2349D01*
X1854Y2339D02*
X1859Y2333D01*
Y2323D01*
X1854Y2318D01*
X1849D01*
X1844Y2323D01*
Y2328D01*
Y2323D01*
X1838Y2318D01*
X1833D01*
X1828Y2323D01*
Y2333D01*
X1833Y2339D01*
X1828Y2291D02*
X1859D01*
X1844Y2307D01*
Y2286D01*
X1298Y2415D02*
X1293Y2420D01*
X1282D01*
X1277Y2415D01*
Y2394D01*
X1282Y2389D01*
X1293D01*
X1298Y2394D01*
X1308Y2415D02*
X1314Y2420D01*
X1324D01*
X1329Y2415D01*
Y2410D01*
X1324Y2405D01*
X1319D01*
X1324D01*
X1329Y2399D01*
Y2394D01*
X1324Y2389D01*
X1314D01*
X1308Y2394D01*
X1361Y2420D02*
X1340D01*
Y2405D01*
X1350Y2410D01*
X1356D01*
X1361Y2405D01*
Y2394D01*
X1356Y2389D01*
X1345D01*
X1340Y2394D01*
X1431Y2233D02*
X1426Y2228D01*
Y2217D01*
X1431Y2212D01*
X1452D01*
X1457Y2217D01*
Y2228D01*
X1452Y2233D01*
X1431Y2243D02*
X1426Y2249D01*
Y2259D01*
X1431Y2264D01*
X1436D01*
X1441Y2259D01*
Y2254D01*
Y2259D01*
X1447Y2264D01*
X1452D01*
X1457Y2259D01*
Y2249D01*
X1452Y2243D01*
X1426Y2296D02*
X1431Y2285D01*
X1441Y2275D01*
X1452D01*
X1457Y2280D01*
Y2291D01*
X1452Y2296D01*
X1447D01*
X1441Y2291D01*
Y2275D01*
X1291Y2129D02*
X1286Y2134D01*
X1275D01*
X1270Y2129D01*
Y2108D01*
X1275Y2103D01*
X1286D01*
X1291Y2108D01*
X1301Y2129D02*
X1307Y2134D01*
X1317D01*
X1322Y2129D01*
Y2124D01*
X1317Y2119D01*
X1312D01*
X1317D01*
X1322Y2113D01*
Y2108D01*
X1317Y2103D01*
X1307D01*
X1301Y2108D01*
X1333Y2134D02*
X1354D01*
Y2129D01*
X1333Y2108D01*
Y2103D01*
X2360Y2057D02*
X2355Y2052D01*
Y2041D01*
X2360Y2036D01*
X2381D01*
X2386Y2041D01*
Y2052D01*
X2381Y2057D01*
X2360Y2067D02*
X2355Y2073D01*
Y2083D01*
X2360Y2088D01*
X2365D01*
X2370Y2083D01*
Y2078D01*
Y2083D01*
X2376Y2088D01*
X2381D01*
X2386Y2083D01*
Y2073D01*
X2381Y2067D01*
X2360Y2099D02*
X2355Y2104D01*
Y2115D01*
X2360Y2120D01*
X2365D01*
X2370Y2115D01*
X2376Y2120D01*
X2381D01*
X2386Y2115D01*
Y2104D01*
X2381Y2099D01*
X2376D01*
X2370Y2104D01*
X2365Y2099D01*
X2360D01*
X2370Y2104D02*
Y2115D01*
X2072Y2239D02*
Y2270D01*
X2088D01*
X2093Y2265D01*
Y2255D01*
X2088Y2249D01*
X2072D01*
X2082D02*
X2093Y2239D01*
X2124D02*
X2103D01*
X2124Y2260D01*
Y2265D01*
X2119Y2270D01*
X2109D01*
X2103Y2265D01*
X2156Y2270D02*
X2135D01*
Y2255D01*
X2145Y2260D01*
X2151D01*
X2156Y2255D01*
Y2244D01*
X2151Y2239D01*
X2140D01*
X2135Y2244D01*
X2740Y2133D02*
Y2164D01*
X2756D01*
X2761Y2159D01*
Y2149D01*
X2756Y2143D01*
X2740D01*
X2750D02*
X2761Y2133D01*
X2792D02*
X2771D01*
X2792Y2154D01*
Y2159D01*
X2787Y2164D01*
X2777D01*
X2771Y2159D01*
X2824Y2164D02*
X2813Y2159D01*
X2803Y2149D01*
Y2138D01*
X2808Y2133D01*
X2819D01*
X2824Y2138D01*
Y2143D01*
X2819Y2149D01*
X2803D01*
X2740Y1918D02*
Y1949D01*
X2756D01*
X2761Y1944D01*
Y1934D01*
X2756Y1928D01*
X2740D01*
X2750D02*
X2761Y1918D01*
X2792D02*
X2771D01*
X2792Y1939D01*
Y1944D01*
X2787Y1949D01*
X2777D01*
X2771Y1944D01*
X2803Y1949D02*
X2824D01*
Y1944D01*
X2803Y1923D01*
Y1918D01*
X2549Y2473D02*
Y2504D01*
X2565D01*
X2570Y2499D01*
Y2489D01*
X2565Y2483D01*
X2549D01*
X2559D02*
X2570Y2473D01*
X2601D02*
X2580D01*
X2601Y2494D01*
Y2499D01*
X2596Y2504D01*
X2586D01*
X2580Y2499D01*
X2612D02*
X2617Y2504D01*
X2628D01*
X2633Y2499D01*
Y2494D01*
X2628Y2489D01*
X2633Y2483D01*
Y2478D01*
X2628Y2473D01*
X2617D01*
X2612Y2478D01*
Y2483D01*
X2617Y2489D01*
X2612Y2494D01*
Y2499D01*
X2617Y2489D02*
X2628D01*
X1073Y2291D02*
X1042D01*
Y2307D01*
X1047Y2312D01*
X1057D01*
X1063Y2307D01*
Y2291D01*
Y2301D02*
X1073Y2312D01*
Y2343D02*
Y2322D01*
X1052Y2343D01*
X1047D01*
X1042Y2338D01*
Y2328D01*
X1047Y2322D01*
X1068Y2354D02*
X1073Y2359D01*
Y2370D01*
X1068Y2375D01*
X1047D01*
X1042Y2370D01*
Y2359D01*
X1047Y2354D01*
X1052D01*
X1057Y2359D01*
Y2375D01*
X866Y2164D02*
Y2195D01*
X882D01*
X887Y2190D01*
Y2180D01*
X882Y2174D01*
X866D01*
X876D02*
X887Y2164D01*
X897Y2190D02*
X903Y2195D01*
X913D01*
X918Y2190D01*
Y2185D01*
X913Y2180D01*
X908D01*
X913D01*
X918Y2174D01*
Y2169D01*
X913Y2164D01*
X903D01*
X897Y2169D01*
X929Y2190D02*
X934Y2195D01*
X945D01*
X950Y2190D01*
Y2169D01*
X945Y2164D01*
X934D01*
X929Y2169D01*
Y2190D01*
X1032Y2432D02*
Y2463D01*
X1048D01*
X1053Y2458D01*
Y2448D01*
X1048Y2442D01*
X1032D01*
X1042D02*
X1053Y2432D01*
X1063Y2458D02*
X1069Y2463D01*
X1079D01*
X1084Y2458D01*
Y2453D01*
X1079Y2448D01*
X1074D01*
X1079D01*
X1084Y2442D01*
Y2437D01*
X1079Y2432D01*
X1069D01*
X1063Y2437D01*
X1095Y2432D02*
X1105D01*
X1100D01*
Y2463D01*
X1095Y2458D01*
X2573Y2279D02*
X2542D01*
Y2295D01*
X2547Y2300D01*
X2557D01*
X2563Y2295D01*
Y2279D01*
Y2289D02*
X2573Y2300D01*
X2547Y2310D02*
X2542Y2316D01*
Y2326D01*
X2547Y2331D01*
X2552D01*
X2557Y2326D01*
Y2321D01*
Y2326D01*
X2563Y2331D01*
X2568D01*
X2573Y2326D01*
Y2316D01*
X2568Y2310D01*
X2573Y2363D02*
Y2342D01*
X2552Y2363D01*
X2547D01*
X2542Y2358D01*
Y2347D01*
X2547Y2342D01*
X2487Y2401D02*
Y2432D01*
X2503D01*
X2508Y2427D01*
Y2417D01*
X2503Y2411D01*
X2487D01*
X2497D02*
X2508Y2401D01*
X2518Y2427D02*
X2524Y2432D01*
X2534D01*
X2539Y2427D01*
Y2422D01*
X2534Y2417D01*
X2529D01*
X2534D01*
X2539Y2411D01*
Y2406D01*
X2534Y2401D01*
X2524D01*
X2518Y2406D01*
X2550Y2427D02*
X2555Y2432D01*
X2566D01*
X2571Y2427D01*
Y2422D01*
X2566Y2417D01*
X2560D01*
X2566D01*
X2571Y2411D01*
Y2406D01*
X2566Y2401D01*
X2555D01*
X2550Y2406D01*
X2752Y2619D02*
Y2588D01*
X2768D01*
X2773Y2593D01*
Y2614D01*
X2768Y2619D01*
X2752D01*
X2804Y2588D02*
X2783D01*
X2804Y2609D01*
Y2614D01*
X2799Y2619D01*
X2789D01*
X2783Y2614D01*
X2815D02*
X2820Y2619D01*
X2831D01*
X2836Y2614D01*
Y2609D01*
X2831Y2604D01*
X2825D01*
X2831D01*
X2836Y2598D01*
Y2593D01*
X2831Y2588D01*
X2820D01*
X2815Y2593D01*
X2782Y2291D02*
Y2260D01*
X2798D01*
X2803Y2265D01*
Y2286D01*
X2798Y2291D01*
X2782D01*
X2834Y2260D02*
X2813D01*
X2834Y2281D01*
Y2286D01*
X2829Y2291D01*
X2819D01*
X2813Y2286D01*
X2866Y2291D02*
X2855Y2286D01*
X2845Y2276D01*
Y2265D01*
X2850Y2260D01*
X2861D01*
X2866Y2265D01*
Y2270D01*
X2861Y2276D01*
X2845D01*
X2786Y2490D02*
Y2459D01*
X2802D01*
X2807Y2464D01*
Y2485D01*
X2802Y2490D01*
X2786D01*
X2838Y2459D02*
X2817D01*
X2838Y2480D01*
Y2485D01*
X2833Y2490D01*
X2823D01*
X2817Y2485D01*
X2849Y2490D02*
X2870D01*
Y2485D01*
X2849Y2464D01*
Y2459D01*
X892Y2287D02*
X874D01*
X869Y2283D01*
Y2274D01*
X874Y2269D01*
X892D01*
X897Y2274D01*
Y2283D01*
X888Y2278D02*
X897Y2287D01*
Y2283D02*
X892Y2287D01*
X897Y2297D02*
Y2306D01*
Y2301D01*
X869D01*
X874Y2297D01*
X2613Y1420D02*
X2608Y1425D01*
X2597D01*
X2592Y1420D01*
Y1399D01*
X2597Y1394D01*
X2608D01*
X2613Y1399D01*
X2644Y1394D02*
X2623D01*
X2644Y1415D01*
Y1420D01*
X2639Y1425D01*
X2629D01*
X2623Y1420D01*
X2655D02*
X2660Y1425D01*
X2671D01*
X2676Y1420D01*
Y1399D01*
X2671Y1394D01*
X2660D01*
X2655Y1399D01*
Y1420D01*
X1721Y1742D02*
X1716Y1747D01*
X1706D01*
X1700Y1742D01*
Y1721D01*
X1706Y1715D01*
X1716D01*
X1721Y1721D01*
X1753Y1715D02*
X1732D01*
X1753Y1736D01*
Y1742D01*
X1748Y1747D01*
X1737D01*
X1732Y1742D01*
X1784Y1715D02*
X1763D01*
X1784Y1736D01*
Y1742D01*
X1779Y1747D01*
X1769D01*
X1763Y1742D01*
X2700Y1616D02*
X2695Y1621D01*
X2684D01*
X2679Y1616D01*
Y1595D01*
X2684Y1590D01*
X2695D01*
X2700Y1595D01*
X2731Y1590D02*
X2710D01*
X2731Y1611D01*
Y1616D01*
X2726Y1621D01*
X2716D01*
X2710Y1616D01*
X2742Y1590D02*
X2752D01*
X2747D01*
Y1621D01*
X2742Y1616D01*
X1906Y1849D02*
X1901Y1844D01*
Y1833D01*
X1906Y1828D01*
X1927D01*
X1932Y1833D01*
Y1844D01*
X1927Y1849D01*
X1932Y1880D02*
Y1859D01*
X1911Y1880D01*
X1906D01*
X1901Y1875D01*
Y1865D01*
X1906Y1859D01*
Y1891D02*
X1901Y1896D01*
Y1907D01*
X1906Y1912D01*
X1911D01*
X1916Y1907D01*
Y1901D01*
Y1907D01*
X1922Y1912D01*
X1927D01*
X1932Y1907D01*
Y1896D01*
X1927Y1891D01*
X2002Y2024D02*
Y1998D01*
X2007Y1993D01*
X2018D01*
X2023Y1998D01*
Y2024D01*
X2054D02*
X2044Y2019D01*
X2033Y2009D01*
Y1998D01*
X2039Y1993D01*
X2049D01*
X2054Y1998D01*
Y2003D01*
X2049Y2009D01*
X2033D01*
X1152Y2367D02*
X1183D01*
Y2383D01*
X1178Y2388D01*
X1157D01*
X1152Y2383D01*
Y2367D01*
X1183Y2419D02*
Y2398D01*
X1162Y2419D01*
X1157D01*
X1152Y2414D01*
Y2404D01*
X1157Y2398D01*
X1183Y2446D02*
X1152D01*
X1167Y2430D01*
Y2451D01*
X1191Y2343D02*
Y2312D01*
X1212D01*
X1243Y2343D02*
X1222D01*
Y2328D01*
X1233Y2333D01*
X1238D01*
X1243Y2328D01*
Y2317D01*
X1238Y2312D01*
X1228D01*
X1222Y2317D01*
X436Y2156D02*
X431Y2161D01*
X420D01*
X415Y2156D01*
Y2151D01*
X420Y2146D01*
X431D01*
X436Y2140D01*
Y2135D01*
X431Y2130D01*
X420D01*
X415Y2135D01*
X446Y2130D02*
Y2161D01*
X462D01*
X467Y2156D01*
Y2146D01*
X462Y2140D01*
X446D01*
X478Y2161D02*
Y2130D01*
Y2140D01*
X499Y2161D01*
X483Y2146D01*
X499Y2130D01*
X509D02*
X520D01*
X515D01*
Y2161D01*
X509Y2156D01*
X2728Y760D02*
Y791D01*
X2744D01*
X2749Y786D01*
Y776D01*
X2744Y770D01*
X2728D01*
X2738D02*
X2749Y760D01*
X2759D02*
X2770D01*
X2765D01*
Y791D01*
X2759Y786D01*
X2786D02*
X2791Y791D01*
X2801D01*
X2807Y786D01*
Y781D01*
X2801Y776D01*
X2796D01*
X2801D01*
X2807Y770D01*
Y765D01*
X2801Y760D01*
X2791D01*
X2786Y765D01*
X2819Y649D02*
Y680D01*
X2835D01*
X2840Y675D01*
Y665D01*
X2835Y659D01*
X2819D01*
X2829D02*
X2840Y649D01*
X2850D02*
X2861D01*
X2856D01*
Y680D01*
X2850Y675D01*
X2892Y649D02*
Y680D01*
X2877Y665D01*
X2898D01*
X2824Y1549D02*
Y1580D01*
X2840D01*
X2845Y1575D01*
Y1565D01*
X2840Y1559D01*
X2824D01*
X2834D02*
X2845Y1549D01*
X2855D02*
X2866D01*
X2861D01*
Y1580D01*
X2855Y1575D01*
X2903Y1580D02*
X2882D01*
Y1565D01*
X2892Y1570D01*
X2897D01*
X2903Y1565D01*
Y1554D01*
X2897Y1549D01*
X2887D01*
X2882Y1554D01*
X2776Y1460D02*
X2807D01*
Y1444D01*
X2802Y1439D01*
X2792D01*
X2786Y1444D01*
Y1460D01*
Y1450D02*
X2776Y1439D01*
Y1429D02*
Y1418D01*
Y1423D01*
X2807D01*
X2802Y1429D01*
X2807Y1381D02*
X2802Y1392D01*
X2792Y1402D01*
X2781D01*
X2776Y1397D01*
Y1387D01*
X2781Y1381D01*
X2786D01*
X2792Y1387D01*
Y1402D01*
X3141Y752D02*
X3110D01*
Y736D01*
X3115Y731D01*
X3136D01*
X3141Y736D01*
Y752D01*
X3110Y721D02*
Y710D01*
Y715D01*
X3141D01*
X3136Y721D01*
X3110Y679D02*
X3141D01*
X3126Y694D01*
Y673D01*
X3141Y855D02*
X3110D01*
Y839D01*
X3115Y834D01*
X3136D01*
X3141Y839D01*
Y855D01*
X3110Y824D02*
Y813D01*
Y818D01*
X3141D01*
X3136Y824D01*
Y797D02*
X3141Y792D01*
Y782D01*
X3136Y776D01*
X3131D01*
X3126Y782D01*
Y787D01*
Y782D01*
X3120Y776D01*
X3115D01*
X3110Y782D01*
Y792D01*
X3115Y797D01*
X3143Y1578D02*
X3112D01*
Y1562D01*
X3117Y1557D01*
X3138D01*
X3143Y1562D01*
Y1578D01*
X3112Y1547D02*
Y1536D01*
Y1541D01*
X3143D01*
X3138Y1547D01*
X3143Y1499D02*
Y1520D01*
X3128D01*
X3133Y1510D01*
Y1505D01*
X3128Y1499D01*
X3117D01*
X3112Y1505D01*
Y1515D01*
X3117Y1520D01*
X3145Y1452D02*
X3114D01*
Y1436D01*
X3119Y1431D01*
X3140D01*
X3145Y1436D01*
Y1452D01*
X3114Y1421D02*
Y1410D01*
Y1415D01*
X3145D01*
X3140Y1421D01*
X3145Y1373D02*
X3140Y1384D01*
X3130Y1394D01*
X3119D01*
X3114Y1389D01*
Y1379D01*
X3119Y1373D01*
X3124D01*
X3130Y1379D01*
Y1394D01*
X2683Y714D02*
Y703D01*
Y709D01*
X2709D01*
X2714Y703D01*
Y698D01*
X2709Y693D01*
X2714Y724D02*
Y735D01*
Y730D01*
X2683D01*
X2688Y724D01*
X2709Y751D02*
X2714Y756D01*
Y766D01*
X2709Y772D01*
X2688D01*
X2683Y766D01*
Y756D01*
X2688Y751D01*
X2693D01*
X2698Y756D01*
Y772D01*
X2714Y782D02*
X2709D01*
Y787D01*
X2714D01*
Y782D01*
Y824D02*
X2683D01*
X2698Y808D01*
Y829D01*
X1034Y823D02*
X1023D01*
X1029D01*
Y797D01*
X1023Y792D01*
X1018D01*
X1013Y797D01*
X1044Y792D02*
X1055D01*
X1050D01*
Y823D01*
X1044Y818D01*
X1071Y797D02*
X1076Y792D01*
X1086D01*
X1092Y797D01*
Y818D01*
X1086Y823D01*
X1076D01*
X1071Y818D01*
Y813D01*
X1076Y808D01*
X1092D01*
X1102Y792D02*
Y797D01*
X1107D01*
Y792D01*
X1102D01*
X1128Y818D02*
X1134Y823D01*
X1144D01*
X1149Y818D01*
Y813D01*
X1144Y808D01*
X1139D01*
X1144D01*
X1149Y802D01*
Y797D01*
X1144Y792D01*
X1134D01*
X1128Y797D01*
X2697Y2722D02*
X2686D01*
X2692D01*
Y2696D01*
X2686Y2691D01*
X2681D01*
X2676Y2696D01*
X2707Y2691D02*
X2718D01*
X2713D01*
Y2722D01*
X2707Y2717D01*
X2734Y2696D02*
X2739Y2691D01*
X2749D01*
X2755Y2696D01*
Y2717D01*
X2749Y2722D01*
X2739D01*
X2734Y2717D01*
Y2712D01*
X2739Y2707D01*
X2755D01*
X2765Y2691D02*
Y2696D01*
X2770D01*
Y2691D01*
X2765D01*
X2812D02*
X2791D01*
X2812Y2712D01*
Y2717D01*
X2807Y2722D01*
X2797D01*
X2791Y2717D01*
X686Y2724D02*
X675D01*
X681D01*
Y2698D01*
X675Y2693D01*
X670D01*
X665Y2698D01*
X696Y2693D02*
X707D01*
X702D01*
Y2724D01*
X696Y2719D01*
X723Y2698D02*
X728Y2693D01*
X738D01*
X744Y2698D01*
Y2719D01*
X738Y2724D01*
X728D01*
X723Y2719D01*
Y2714D01*
X728Y2709D01*
X744D01*
X754Y2693D02*
Y2698D01*
X759D01*
Y2693D01*
X754D01*
X780D02*
X791D01*
X786D01*
Y2724D01*
X780Y2719D01*
X2164Y2540D02*
X2153D01*
X2159D01*
Y2514D01*
X2153Y2509D01*
X2148D01*
X2143Y2514D01*
X2174Y2509D02*
X2185D01*
X2180D01*
Y2540D01*
X2174Y2535D01*
X2201Y2509D02*
X2211D01*
X2206D01*
Y2540D01*
X2201Y2535D01*
X394Y663D02*
Y637D01*
X399Y632D01*
X410D01*
X415Y637D01*
Y663D01*
X446Y632D02*
X425D01*
X446Y653D01*
Y658D01*
X441Y663D01*
X431D01*
X425Y658D01*
X249Y864D02*
X238D01*
X244D01*
Y838D01*
X238Y833D01*
X233D01*
X228Y838D01*
X259Y833D02*
X270D01*
X265D01*
Y864D01*
X259Y859D01*
X1892Y692D02*
Y716D01*
X1908Y692D01*
Y716D01*
X1931Y712D02*
X1927Y716D01*
X1920D01*
X1916Y712D01*
Y696D01*
X1920Y692D01*
X1927D01*
X1931Y696D01*
X1738Y851D02*
X1734Y855D01*
X1726D01*
X1722Y851D01*
Y835D01*
X1726Y831D01*
X1734D01*
X1738Y835D01*
Y843D01*
X1730D01*
X1746Y831D02*
Y855D01*
X1761Y831D01*
Y855D01*
X1769D02*
Y831D01*
X1781D01*
X1785Y835D01*
Y851D01*
X1781Y855D01*
X1769D01*
X1581Y843D02*
X1597D01*
X1589Y851D02*
Y835D01*
X1620Y855D02*
X1605D01*
Y843D01*
X1612Y847D01*
X1616D01*
X1620Y843D01*
Y835D01*
X1616Y831D01*
X1609D01*
X1605Y835D01*
X1628Y855D02*
Y839D01*
X1636Y831D01*
X1644Y839D01*
Y855D01*
X1487Y851D02*
X1491Y855D01*
X1499D01*
X1503Y851D01*
Y847D01*
X1499Y843D01*
X1495D01*
X1499D01*
X1503Y839D01*
Y835D01*
X1499Y831D01*
X1491D01*
X1487Y835D01*
X1511Y847D02*
X1518Y831D01*
X1526Y847D01*
X1534Y851D02*
X1538Y855D01*
X1546D01*
X1550Y851D01*
Y847D01*
X1546Y843D01*
X1542D01*
X1546D01*
X1550Y839D01*
Y835D01*
X1546Y831D01*
X1538D01*
X1534Y835D01*
X1384Y831D02*
Y855D01*
X1396D01*
X1400Y851D01*
Y843D01*
X1396Y839D01*
X1384D01*
X1392D02*
X1400Y831D01*
X1423Y851D02*
X1419Y855D01*
X1412D01*
X1408Y851D01*
Y847D01*
X1412Y843D01*
X1419D01*
X1423Y839D01*
Y835D01*
X1419Y831D01*
X1412D01*
X1408Y835D01*
X1431Y855D02*
X1447D01*
X1439D01*
Y831D01*
X1281Y855D02*
X1289D01*
X1285D01*
Y831D01*
X1281D01*
X1289D01*
X1312Y855D02*
X1305D01*
X1301Y851D01*
Y835D01*
X1305Y831D01*
X1312D01*
X1316Y835D01*
Y851D01*
X1312Y855D01*
X1324Y831D02*
Y855D01*
X1336D01*
X1340Y851D01*
Y843D01*
X1336Y839D01*
X1324D01*
X1332D02*
X1340Y831D01*
X1198D02*
Y855D01*
X1214Y831D01*
Y855D01*
X1237Y851D02*
X1233Y855D01*
X1226D01*
X1222Y851D01*
Y835D01*
X1226Y831D01*
X1233D01*
X1237Y835D01*
X2595Y721D02*
Y700D01*
X2610D01*
X2605Y710D01*
Y716D01*
X2610Y721D01*
X2621D01*
X2626Y716D01*
Y705D01*
X2621Y700D01*
X2530Y716D02*
X2499D01*
X2514Y700D01*
Y721D01*
X2405Y700D02*
X2400Y705D01*
Y716D01*
X2405Y721D01*
X2410D01*
X2415Y716D01*
Y710D01*
Y716D01*
X2421Y721D01*
X2426D01*
X2431Y716D01*
Y705D01*
X2426Y700D01*
X2326Y721D02*
Y700D01*
X2305Y721D01*
X2300D01*
X2295Y716D01*
Y705D01*
X2300Y700D01*
X2226Y710D02*
Y721D01*
Y716D01*
X2195D01*
X2200Y710D01*
X2101Y700D02*
X2096Y705D01*
Y716D01*
X2101Y721D01*
X2122D01*
X2127Y716D01*
Y705D01*
X2122Y700D01*
X2101D01*
X1008Y1223D02*
X997Y1218D01*
X987Y1208D01*
Y1197D01*
X992Y1192D01*
X1003D01*
X1008Y1197D01*
Y1202D01*
X1003Y1208D01*
X987D01*
X1018Y1223D02*
Y1202D01*
X1029Y1192D01*
X1039Y1202D01*
Y1223D01*
X1050Y1208D02*
X1071D01*
X1081Y1192D02*
X1092D01*
X1087D01*
Y1223D01*
X1081Y1218D01*
X1129Y1192D02*
X1108D01*
X1129Y1213D01*
Y1218D01*
X1123Y1223D01*
X1113D01*
X1108Y1218D01*
X1139Y1223D02*
Y1202D01*
X1150Y1192D01*
X1160Y1202D01*
Y1223D01*
X1141Y1347D02*
X1151D01*
X1146D01*
Y1378D01*
X1141Y1373D01*
X1188Y1347D02*
X1167D01*
X1188Y1368D01*
Y1373D01*
X1183Y1378D01*
X1172D01*
X1167Y1373D01*
X1199Y1378D02*
Y1357D01*
X1209Y1347D01*
X1220Y1357D01*
Y1378D01*
X965D02*
X954Y1373D01*
X944Y1363D01*
Y1352D01*
X949Y1347D01*
X960D01*
X965Y1352D01*
Y1357D01*
X960Y1363D01*
X944D01*
X975Y1378D02*
Y1357D01*
X986Y1347D01*
X996Y1357D01*
Y1378D01*
X3117Y1664D02*
X3112Y1659D01*
Y1648D01*
X3117Y1643D01*
X3138D01*
X3143Y1648D01*
Y1659D01*
X3138Y1664D01*
X3127D01*
Y1653D01*
X3143Y1674D02*
X3112D01*
X3143Y1695D01*
X3112D01*
Y1706D02*
X3143D01*
Y1722D01*
X3138Y1727D01*
X3117D01*
X3112Y1722D01*
Y1706D01*
X3143Y1751D02*
X3112D01*
Y1766D01*
X3117Y1772D01*
X3127D01*
X3133Y1766D01*
Y1751D01*
Y1761D02*
X3143Y1772D01*
X3117Y1803D02*
X3112Y1798D01*
Y1787D01*
X3117Y1782D01*
X3122D01*
X3127Y1787D01*
Y1798D01*
X3133Y1803D01*
X3138D01*
X3143Y1798D01*
Y1787D01*
X3138Y1782D01*
X3112Y1814D02*
Y1835D01*
Y1824D01*
X3143D01*
X3112Y1888D02*
Y1867D01*
X3127D01*
X3122Y1878D01*
Y1883D01*
X3127Y1888D01*
X3138D01*
X3143Y1883D01*
Y1873D01*
X3138Y1867D01*
X3112Y1899D02*
X3133D01*
X3143Y1909D01*
X3133Y1920D01*
X3112D01*
Y1966D02*
Y1987D01*
Y1977D01*
X3143D01*
X3112Y1998D02*
X3143Y2019D01*
X3112D02*
X3143Y1998D01*
Y2072D02*
X3112D01*
Y2088D01*
X3117Y2093D01*
X3127D01*
X3133Y2088D01*
Y2072D01*
Y2082D02*
X3143Y2093D01*
X3112Y2103D02*
X3143Y2124D01*
X3112D02*
X3143Y2103D01*
X333Y874D02*
Y895D01*
X323Y884D02*
X344D01*
X2598Y2595D02*
X2593Y2600D01*
Y2611D01*
X2598Y2616D01*
X2619D01*
X2624Y2611D01*
Y2600D01*
X2619Y2595D01*
X2598D01*
X2524Y2605D02*
Y2616D01*
Y2611D01*
X2493D01*
X2498Y2605D01*
X2425Y2616D02*
Y2595D01*
X2404Y2616D01*
X2399D01*
X2393Y2611D01*
Y2600D01*
X2399Y2595D01*
X2299D02*
X2294Y2600D01*
Y2611D01*
X2299Y2616D01*
X2304D01*
X2310Y2611D01*
Y2605D01*
Y2611D01*
X2315Y2616D01*
X2320D01*
X2325Y2611D01*
Y2600D01*
X2320Y2595D01*
X2226Y2611D02*
X2194D01*
X2210Y2595D01*
Y2616D01*
X2095D02*
Y2595D01*
X2110D01*
X2105Y2605D01*
Y2611D01*
X2110Y2616D01*
X2121D01*
X2126Y2611D01*
Y2600D01*
X2121Y2595D01*
X1995Y2616D02*
X2000Y2605D01*
X2011Y2595D01*
X2021D01*
X2027Y2600D01*
Y2611D01*
X2021Y2616D01*
X2016D01*
X2011Y2611D01*
Y2595D01*
X1896D02*
Y2616D01*
X1901D01*
X1922Y2595D01*
X1927D01*
X1742Y2594D02*
X1737Y2600D01*
Y2610D01*
X1742Y2615D01*
X1747D01*
X1752Y2610D01*
X1758Y2615D01*
X1763D01*
X1768Y2610D01*
Y2600D01*
X1763Y2594D01*
X1758D01*
X1752Y2600D01*
X1747Y2594D01*
X1742D01*
X1752Y2600D02*
Y2610D01*
X1663Y2594D02*
X1668Y2600D01*
Y2610D01*
X1663Y2615D01*
X1642D01*
X1636Y2610D01*
Y2600D01*
X1642Y2594D01*
X1647D01*
X1652Y2600D01*
Y2615D01*
X1568Y2568D02*
Y2579D01*
Y2573D01*
X1536D01*
X1541Y2568D01*
Y2594D02*
X1536Y2600D01*
Y2610D01*
X1541Y2615D01*
X1562D01*
X1568Y2610D01*
Y2600D01*
X1562Y2594D01*
X1541D01*
X1467Y2579D02*
Y2589D01*
Y2584D01*
X1436D01*
X1441Y2579D01*
X1467Y2605D02*
Y2615D01*
Y2610D01*
X1436D01*
X1441Y2605D01*
X1367Y2568D02*
Y2579D01*
Y2573D01*
X1336D01*
X1341Y2568D01*
X1367Y2615D02*
Y2594D01*
X1346Y2615D01*
X1341D01*
X1336Y2610D01*
Y2600D01*
X1341Y2594D01*
X1267Y2568D02*
Y2579D01*
Y2573D01*
X1235D01*
X1241Y2568D01*
Y2594D02*
X1235Y2600D01*
Y2610D01*
X1241Y2615D01*
X1246D01*
X1251Y2610D01*
Y2605D01*
Y2610D01*
X1256Y2615D01*
X1262D01*
X1267Y2610D01*
Y2600D01*
X1262Y2594D01*
X1140Y2552D02*
X1135Y2547D01*
Y2537D01*
X1140Y2531D01*
X1161D01*
X1167Y2537D01*
Y2547D01*
X1161Y2552D01*
X1151D01*
Y2542D01*
X1167Y2563D02*
X1135D01*
X1167Y2584D01*
X1135D01*
Y2594D02*
X1167D01*
Y2610D01*
X1161Y2615D01*
X1140D01*
X1135Y2610D01*
Y2594D01*
X1066Y2500D02*
X1045D01*
X1035Y2510D01*
X1045Y2521D01*
X1066D01*
X1051D01*
Y2500D01*
X1066Y2531D02*
X1035D01*
Y2547D01*
X1040Y2552D01*
X1051D01*
X1056Y2547D01*
Y2531D01*
Y2542D02*
X1066Y2552D01*
X1035Y2584D02*
Y2563D01*
X1066D01*
Y2584D01*
X1051Y2563D02*
Y2573D01*
X1035Y2615D02*
Y2594D01*
X1051D01*
Y2605D01*
Y2594D01*
X1066D01*
X940Y2552D02*
X935Y2547D01*
Y2537D01*
X940Y2531D01*
X945D01*
X950Y2537D01*
Y2547D01*
X956Y2552D01*
X961D01*
X966Y2547D01*
Y2537D01*
X961Y2531D01*
X935Y2563D02*
X966D01*
Y2579D01*
X961Y2584D01*
X940D01*
X935Y2579D01*
Y2563D01*
X966Y2594D02*
X945D01*
X935Y2605D01*
X945Y2615D01*
X966D01*
X950D01*
Y2594D01*
X840Y2552D02*
X835Y2547D01*
Y2537D01*
X840Y2531D01*
X845D01*
X850Y2537D01*
Y2547D01*
X856Y2552D01*
X861D01*
X866Y2547D01*
Y2537D01*
X861Y2531D01*
X840Y2584D02*
X835Y2579D01*
Y2568D01*
X840Y2563D01*
X861D01*
X866Y2568D01*
Y2579D01*
X861Y2584D01*
X835Y2594D02*
X866D01*
Y2615D01*
X780Y696D02*
X787D01*
X783D01*
Y716D01*
X780Y713D01*
X829Y2114D02*
X836D01*
X832D01*
Y2134D01*
X829Y2131D01*
X1183Y1925D02*
Y1918D01*
Y1922D01*
X1203D01*
X1200Y1925D01*
X2220Y2219D02*
X2227D01*
X2223D01*
Y2239D01*
X2220Y2236D01*
X1254Y1927D02*
Y1914D01*
Y1920D01*
X1293D01*
X1287Y1927D01*
X2118Y2294D02*
X2131D01*
X2125D01*
Y2333D01*
X2118Y2327D01*
D57*
X2028Y1967D02*
G03*
X2028Y1967I-5J0D01*
G01*
X1799Y2005D02*
G03*
X1799Y2005I-5J0D01*
G01*
X860Y1571D02*
G03*
X860Y1571I-5J0D01*
G01*
D58*
X2131Y1984D02*
G03*
X2131Y1984I-12J0D01*
G01*
D59*
X482Y792D02*
G03*
X482Y792I-4J0D01*
G01*
X2381Y512D02*
G03*
X2381Y512I-4J0D01*
G01*
X1481Y679D02*
G03*
X1481Y679I-4J0D01*
G01*
X1455Y1096D02*
G03*
X1455Y1096I-4J0D01*
G01*
M02*
