%FSLAX23Y23*%
%MOIN*%
G70*
G01*
G75*
%ADD10R,0.039X0.037*%
%ADD11R,0.050X0.060*%
%ADD12R,0.060X0.050*%
%ADD13R,0.059X0.039*%
%ADD14R,0.083X0.026*%
%ADD15R,0.256X0.630*%
%ADD16R,0.035X0.031*%
%ADD17R,0.035X0.031*%
%ADD18R,0.028X0.031*%
%ADD19R,0.039X0.059*%
%ADD20R,0.197X0.197*%
%ADD21R,0.035X0.010*%
%ADD22R,0.010X0.035*%
%ADD23R,0.118X0.177*%
%ADD24R,0.079X0.295*%
%ADD25R,0.126X0.059*%
%ADD26R,0.055X0.150*%
%ADD27R,0.050X0.014*%
%ADD28R,0.110X0.020*%
%ADD29R,0.098X0.079*%
%ADD30R,0.087X0.024*%
%ADD31R,0.071X0.016*%
%ADD32R,0.079X0.079*%
%ADD33R,0.047X0.043*%
%ADD34R,0.043X0.047*%
%ADD35R,0.063X0.197*%
%ADD36R,0.010X0.026*%
%ADD37R,0.026X0.010*%
%ADD38R,0.150X0.150*%
%ADD39R,0.037X0.039*%
G04:AMPARAMS|DCode=40|XSize=14mil|YSize=33mil|CornerRadius=1mil|HoleSize=0mil|Usage=FLASHONLY|Rotation=270.000|XOffset=0mil|YOffset=0mil|HoleType=Round|Shape=RoundedRectangle|*
%AMROUNDEDRECTD40*
21,1,0.014,0.031,0,0,270.0*
21,1,0.011,0.033,0,0,270.0*
1,1,0.003,-0.015,-0.006*
1,1,0.003,-0.015,0.006*
1,1,0.003,0.015,0.006*
1,1,0.003,0.015,-0.006*
%
%ADD40ROUNDEDRECTD40*%
%ADD41R,0.063X0.094*%
%ADD42C,0.008*%
%ADD43C,0.015*%
%ADD44C,0.020*%
%ADD45C,0.025*%
%ADD46C,0.018*%
%ADD47C,0.012*%
%ADD48C,0.010*%
%ADD49C,0.075*%
%ADD50C,0.065*%
%ADD51C,0.118*%
%ADD52C,0.035*%
%ADD53C,0.025*%
%ADD54C,0.039*%
G04:AMPARAMS|DCode=55|XSize=197mil|YSize=60mil|CornerRadius=15mil|HoleSize=0mil|Usage=FLASHONLY|Rotation=90.000|XOffset=0mil|YOffset=0mil|HoleType=Round|Shape=RoundedRectangle|*
%AMROUNDEDRECTD55*
21,1,0.197,0.030,0,0,90.0*
21,1,0.167,0.060,0,0,90.0*
1,1,0.030,0.015,0.083*
1,1,0.030,0.015,-0.083*
1,1,0.030,-0.015,-0.083*
1,1,0.030,-0.015,0.083*
%
%ADD55ROUNDEDRECTD55*%
D10*
X731Y1491D02*
D03*
Y1428D02*
D03*
X1826Y1761D02*
D03*
Y1698D02*
D03*
X2634Y1539D02*
D03*
Y1476D02*
D03*
X1319Y2169D02*
D03*
Y2232D02*
D03*
X1385D02*
D03*
Y2169D02*
D03*
X1061Y1553D02*
D03*
Y1490D02*
D03*
X987Y1428D02*
D03*
Y1491D02*
D03*
X2572Y573D02*
D03*
Y510D02*
D03*
X2053Y608D02*
D03*
Y545D02*
D03*
X1766Y612D02*
D03*
Y549D02*
D03*
X1247Y474D02*
D03*
Y537D02*
D03*
X1640Y1088D02*
D03*
Y1025D02*
D03*
X1350Y1315D02*
D03*
Y1378D02*
D03*
X755Y1815D02*
D03*
Y1878D02*
D03*
X1061Y2178D02*
D03*
Y2241D02*
D03*
X1097Y2113D02*
D03*
Y2050D02*
D03*
X1121Y1019D02*
D03*
Y956D02*
D03*
Y1084D02*
D03*
Y1147D02*
D03*
X1220Y1084D02*
D03*
Y1147D02*
D03*
X1291Y614D02*
D03*
Y677D02*
D03*
X1221Y614D02*
D03*
Y677D02*
D03*
X335Y542D02*
D03*
Y605D02*
D03*
D11*
X3053Y1417D02*
D03*
X2975D02*
D03*
X3053Y1505D02*
D03*
X2975D02*
D03*
X2977Y808D02*
D03*
X3055D02*
D03*
X2977Y721D02*
D03*
X3055D02*
D03*
X2835Y2417D02*
D03*
X2757D02*
D03*
X2835Y2337D02*
D03*
X2757D02*
D03*
Y2545D02*
D03*
X2835D02*
D03*
X954Y1940D02*
D03*
X1032D02*
D03*
X484Y1982D02*
D03*
X406D02*
D03*
X484Y1904D02*
D03*
X406D02*
D03*
X110Y1335D02*
D03*
X188D02*
D03*
X110Y1255D02*
D03*
X188D02*
D03*
X2281Y2081D02*
D03*
X2203D02*
D03*
D12*
X1231Y2183D02*
D03*
Y2261D02*
D03*
X1915Y1781D02*
D03*
Y1703D02*
D03*
X2719Y1476D02*
D03*
Y1554D02*
D03*
X1539Y2384D02*
D03*
Y2462D02*
D03*
X2153Y608D02*
D03*
Y530D02*
D03*
X1435Y1393D02*
D03*
Y1315D02*
D03*
X1730Y1025D02*
D03*
Y1103D02*
D03*
X1850Y627D02*
D03*
Y549D02*
D03*
X1331Y473D02*
D03*
Y551D02*
D03*
D13*
X1140Y2334D02*
D03*
Y2188D02*
D03*
X2790Y1861D02*
D03*
Y1715D02*
D03*
D14*
X2023Y1933D02*
D03*
Y1883D02*
D03*
Y1833D02*
D03*
Y1783D02*
D03*
Y1733D02*
D03*
Y1683D02*
D03*
Y1633D02*
D03*
Y1583D02*
D03*
Y1533D02*
D03*
Y1483D02*
D03*
X2541Y1933D02*
D03*
Y1883D02*
D03*
Y1833D02*
D03*
Y1783D02*
D03*
Y1733D02*
D03*
Y1683D02*
D03*
Y1633D02*
D03*
Y1583D02*
D03*
Y1533D02*
D03*
Y1483D02*
D03*
D15*
X2282Y1708D02*
D03*
D16*
X1000Y2310D02*
D03*
D17*
Y2385D02*
D03*
X921Y2347D02*
D03*
D18*
X2079Y2080D02*
D03*
X2136D02*
D03*
X884Y1940D02*
D03*
X827D02*
D03*
D19*
X1569Y915D02*
D03*
X1715D02*
D03*
D20*
X1621Y2103D02*
D03*
D21*
X1755Y2005D02*
D03*
Y2024D02*
D03*
Y2044D02*
D03*
Y2064D02*
D03*
Y2083D02*
D03*
Y2103D02*
D03*
Y2123D02*
D03*
Y2142D02*
D03*
Y2162D02*
D03*
Y2182D02*
D03*
Y2201D02*
D03*
X1487D02*
D03*
Y2182D02*
D03*
Y2162D02*
D03*
Y2142D02*
D03*
Y2123D02*
D03*
Y2103D02*
D03*
Y2083D02*
D03*
Y2064D02*
D03*
Y2044D02*
D03*
Y2024D02*
D03*
Y2005D02*
D03*
D22*
X1719Y2237D02*
D03*
X1700D02*
D03*
X1680D02*
D03*
X1660D02*
D03*
X1641D02*
D03*
X1621D02*
D03*
X1601D02*
D03*
X1582D02*
D03*
X1562D02*
D03*
X1542D02*
D03*
X1523D02*
D03*
Y1969D02*
D03*
X1542D02*
D03*
X1562D02*
D03*
X1582D02*
D03*
X1601D02*
D03*
X1621D02*
D03*
X1641D02*
D03*
X1660D02*
D03*
X1680D02*
D03*
X1700D02*
D03*
X1719D02*
D03*
D23*
X1591Y1465D02*
D03*
X1827D02*
D03*
D24*
X1840Y1005D02*
D03*
X2060D02*
D03*
D25*
X546Y1435D02*
D03*
Y1600D02*
D03*
D26*
X785Y925D02*
D03*
Y1189D02*
D03*
D27*
X410Y800D02*
D03*
Y774D02*
D03*
Y748D02*
D03*
Y722D02*
D03*
X642Y800D02*
D03*
Y774D02*
D03*
Y748D02*
D03*
Y722D02*
D03*
D28*
X325Y1681D02*
D03*
Y1650D02*
D03*
Y1618D02*
D03*
Y1587D02*
D03*
Y1555D02*
D03*
D29*
X311Y1443D02*
D03*
X95D02*
D03*
X311Y1793D02*
D03*
X95D02*
D03*
D30*
X2272Y660D02*
D03*
Y610D02*
D03*
Y560D02*
D03*
Y510D02*
D03*
X2461Y660D02*
D03*
Y610D02*
D03*
Y560D02*
D03*
Y510D02*
D03*
D31*
X1401Y678D02*
D03*
Y652D02*
D03*
Y627D02*
D03*
Y601D02*
D03*
X1564Y678D02*
D03*
Y652D02*
D03*
Y627D02*
D03*
Y601D02*
D03*
X1538Y1018D02*
D03*
Y1044D02*
D03*
Y1069D02*
D03*
Y1095D02*
D03*
X1375Y1018D02*
D03*
Y1044D02*
D03*
Y1069D02*
D03*
Y1095D02*
D03*
D32*
X1648Y498D02*
D03*
X1491D02*
D03*
X1273Y916D02*
D03*
X1430D02*
D03*
X2435Y909D02*
D03*
X2278D02*
D03*
X2277Y1038D02*
D03*
X2434D02*
D03*
X2433Y1170D02*
D03*
X2276D02*
D03*
Y1294D02*
D03*
X2433D02*
D03*
X2710Y909D02*
D03*
X2553D02*
D03*
X2552Y1038D02*
D03*
X2709D02*
D03*
X2708Y1170D02*
D03*
X2551D02*
D03*
Y1294D02*
D03*
X2708D02*
D03*
D33*
X905Y1427D02*
D03*
X813D02*
D03*
X905Y1495D02*
D03*
X813D02*
D03*
D34*
X1893Y2161D02*
D03*
Y2253D02*
D03*
X1961Y2161D02*
D03*
Y2253D02*
D03*
D35*
X547Y1048D02*
D03*
X413Y1046D02*
D03*
D36*
X855Y1606D02*
D03*
X875D02*
D03*
X894D02*
D03*
X914D02*
D03*
X934D02*
D03*
X954D02*
D03*
X973D02*
D03*
X993D02*
D03*
Y1804D02*
D03*
X973D02*
D03*
X954D02*
D03*
X934D02*
D03*
X914D02*
D03*
X894D02*
D03*
X875D02*
D03*
X855D02*
D03*
D37*
X1023Y1636D02*
D03*
Y1656D02*
D03*
Y1675D02*
D03*
Y1695D02*
D03*
Y1715D02*
D03*
Y1735D02*
D03*
Y1754D02*
D03*
Y1774D02*
D03*
X825D02*
D03*
Y1754D02*
D03*
Y1735D02*
D03*
Y1715D02*
D03*
Y1695D02*
D03*
Y1675D02*
D03*
Y1656D02*
D03*
Y1636D02*
D03*
D38*
X924Y1705D02*
D03*
D39*
X1466Y2394D02*
D03*
X1403D02*
D03*
X1956Y2330D02*
D03*
X1893D02*
D03*
X1895Y2084D02*
D03*
X1958D02*
D03*
Y2016D02*
D03*
X1895D02*
D03*
X1554Y1185D02*
D03*
X1617D02*
D03*
X1633Y678D02*
D03*
X1696D02*
D03*
X1300Y1185D02*
D03*
X1363D02*
D03*
X1086Y608D02*
D03*
X1149D02*
D03*
X587Y661D02*
D03*
X650D02*
D03*
X664Y510D02*
D03*
X727D02*
D03*
X796Y1320D02*
D03*
X859D02*
D03*
X733Y1738D02*
D03*
X670D02*
D03*
X1616Y1825D02*
D03*
X1679D02*
D03*
X2845Y1417D02*
D03*
X2908D02*
D03*
Y1505D02*
D03*
X2845D02*
D03*
X2847Y721D02*
D03*
X2910D02*
D03*
Y808D02*
D03*
X2847D02*
D03*
X2675Y2417D02*
D03*
X2612D02*
D03*
Y2336D02*
D03*
X2675D02*
D03*
X929Y2460D02*
D03*
X992D02*
D03*
Y2235D02*
D03*
X929D02*
D03*
X2687Y2545D02*
D03*
X2624D02*
D03*
X2820Y1993D02*
D03*
X2757D02*
D03*
Y2093D02*
D03*
X2820D02*
D03*
X2079Y2150D02*
D03*
X2142D02*
D03*
X616Y1982D02*
D03*
X553D02*
D03*
Y1904D02*
D03*
X616D02*
D03*
X1208Y1549D02*
D03*
X1271D02*
D03*
Y1479D02*
D03*
X1208D02*
D03*
X884Y1878D02*
D03*
X821D02*
D03*
X487Y1712D02*
D03*
X550D02*
D03*
Y1782D02*
D03*
X487D02*
D03*
X323Y1335D02*
D03*
X260D02*
D03*
X1422Y1185D02*
D03*
X1485D02*
D03*
X1086Y675D02*
D03*
X1149D02*
D03*
X507Y860D02*
D03*
X570D02*
D03*
X340Y475D02*
D03*
X403D02*
D03*
X323Y1255D02*
D03*
X260D02*
D03*
X1297Y1990D02*
D03*
X1234D02*
D03*
D40*
X468Y522D02*
D03*
Y548D02*
D03*
Y573D02*
D03*
Y599D02*
D03*
X584Y522D02*
D03*
Y548D02*
D03*
Y573D02*
D03*
Y599D02*
D03*
D41*
X526Y561D02*
D03*
D49*
X853Y2675D02*
D03*
X953D02*
D03*
X1053D02*
D03*
X1153D02*
D03*
X1753D02*
D03*
X1653D02*
D03*
X1553D02*
D03*
X1453D02*
D03*
X1353D02*
D03*
X1253D02*
D03*
X2113D02*
D03*
X2213D02*
D03*
X2313D02*
D03*
X2413D02*
D03*
X2513D02*
D03*
X2613D02*
D03*
X2013D02*
D03*
X1913D02*
D03*
Y775D02*
D03*
X1813D02*
D03*
X1213D02*
D03*
X1313D02*
D03*
X1413D02*
D03*
X1513D02*
D03*
X1613D02*
D03*
X1713D02*
D03*
X2613D02*
D03*
X2513D02*
D03*
X2413D02*
D03*
X2313D02*
D03*
X2213D02*
D03*
X2113D02*
D03*
X853Y666D02*
D03*
X953D02*
D03*
X970Y1287D02*
D03*
X1070D02*
D03*
X1170D02*
D03*
X2756Y375D02*
D03*
Y275D02*
D03*
Y175D02*
D03*
X2480D02*
D03*
Y275D02*
D03*
Y375D02*
D03*
X2205D02*
D03*
Y275D02*
D03*
Y175D02*
D03*
X1929D02*
D03*
Y275D02*
D03*
Y375D02*
D03*
X1654D02*
D03*
Y275D02*
D03*
Y175D02*
D03*
X1378D02*
D03*
Y275D02*
D03*
Y375D02*
D03*
X1001Y150D02*
D03*
Y406D02*
D03*
X1178Y150D02*
D03*
Y406D02*
D03*
X896D02*
D03*
Y150D02*
D03*
X719Y406D02*
D03*
Y150D02*
D03*
X2991Y1893D02*
D03*
Y1793D02*
D03*
Y1693D02*
D03*
Y1993D02*
D03*
Y2093D02*
D03*
Y1019D02*
D03*
Y919D02*
D03*
Y1306D02*
D03*
Y1206D02*
D03*
X1002Y2084D02*
D03*
X902D02*
D03*
X1153Y1752D02*
D03*
Y1852D02*
D03*
X2393Y2189D02*
D03*
X2293D02*
D03*
X1304Y1852D02*
D03*
Y1752D02*
D03*
Y1652D02*
D03*
X1404Y1852D02*
D03*
Y1752D02*
D03*
Y1652D02*
D03*
X2393Y2444D02*
D03*
X2293D02*
D03*
X2193D02*
D03*
X2393Y2344D02*
D03*
X2293D02*
D03*
X2193D02*
D03*
X305Y980D02*
D03*
Y1080D02*
D03*
D50*
X386Y387D02*
D03*
X484D02*
D03*
X583D02*
D03*
X386Y151D02*
D03*
X484D02*
D03*
X583D02*
D03*
D51*
X177Y177D02*
D03*
Y2657D02*
D03*
X3012D02*
D03*
Y177D02*
D03*
X177Y531D02*
D03*
X3012D02*
D03*
X177Y2303D02*
D03*
X3012D02*
D03*
D52*
X213Y1532D02*
D03*
Y1705D02*
D03*
M02*
