%FSLAX23Y23*%
%MOIN*%
G70*
G01*
G75*
G04 Layer_Physical_Order=4*
G04 Layer_Color=16711680*
%ADD10R,0.039X0.037*%
%ADD11R,0.050X0.060*%
%ADD12R,0.060X0.050*%
%ADD13R,0.059X0.039*%
%ADD14R,0.083X0.026*%
%ADD15R,0.256X0.630*%
%ADD16R,0.035X0.031*%
%ADD17R,0.035X0.031*%
%ADD18R,0.028X0.031*%
%ADD19R,0.039X0.059*%
%ADD20R,0.197X0.197*%
%ADD21R,0.035X0.010*%
%ADD22R,0.010X0.035*%
%ADD23R,0.118X0.177*%
%ADD24R,0.079X0.295*%
%ADD25R,0.126X0.059*%
%ADD26R,0.055X0.150*%
%ADD27R,0.050X0.014*%
%ADD28R,0.110X0.020*%
%ADD29R,0.098X0.079*%
%ADD30R,0.087X0.024*%
%ADD31R,0.071X0.016*%
%ADD32R,0.079X0.079*%
%ADD33R,0.047X0.043*%
%ADD34R,0.043X0.047*%
%ADD35R,0.063X0.197*%
%ADD36R,0.010X0.026*%
%ADD37R,0.026X0.010*%
%ADD38R,0.150X0.150*%
%ADD39R,0.037X0.039*%
G04:AMPARAMS|DCode=40|XSize=14mil|YSize=33mil|CornerRadius=1mil|HoleSize=0mil|Usage=FLASHONLY|Rotation=270.000|XOffset=0mil|YOffset=0mil|HoleType=Round|Shape=RoundedRectangle|*
%AMROUNDEDRECTD40*
21,1,0.014,0.031,0,0,270.0*
21,1,0.011,0.033,0,0,270.0*
1,1,0.003,-0.015,-0.006*
1,1,0.003,-0.015,0.006*
1,1,0.003,0.015,0.006*
1,1,0.003,0.015,-0.006*
%
%ADD40ROUNDEDRECTD40*%
%ADD41R,0.063X0.094*%
%ADD42C,0.008*%
%ADD43C,0.015*%
%ADD44C,0.020*%
%ADD45C,0.025*%
%ADD46C,0.018*%
%ADD47C,0.012*%
%ADD48C,0.010*%
%ADD49C,0.075*%
%ADD50C,0.065*%
%ADD51C,0.118*%
%ADD52C,0.035*%
%ADD53C,0.025*%
%ADD54C,0.039*%
G04:AMPARAMS|DCode=55|XSize=197mil|YSize=60mil|CornerRadius=15mil|HoleSize=0mil|Usage=FLASHONLY|Rotation=90.000|XOffset=0mil|YOffset=0mil|HoleType=Round|Shape=RoundedRectangle|*
%AMROUNDEDRECTD55*
21,1,0.197,0.030,0,0,90.0*
21,1,0.167,0.060,0,0,90.0*
1,1,0.030,0.015,0.083*
1,1,0.030,0.015,-0.083*
1,1,0.030,-0.015,-0.083*
1,1,0.030,-0.015,0.083*
%
%ADD55ROUNDEDRECTD55*%
G36*
X2575Y1855D02*
X2573Y1850D01*
X2392D01*
X2389Y1855D01*
X2392Y1860D01*
X2393Y1868D01*
X2392Y1876D01*
X2389Y1883D01*
X2391Y1888D01*
X2543D01*
X2575Y1855D01*
D02*
G37*
G36*
X1346Y2066D02*
Y2054D01*
X1341Y2048D01*
X1338Y2041D01*
X1337Y2033D01*
X1338Y2025D01*
X1341Y2018D01*
X1346Y2011D01*
X1346Y2011D01*
X1343Y2006D01*
X1341Y2006D01*
X1285Y2061D01*
Y2120D01*
X1290Y2121D01*
X1346Y2066D01*
D02*
G37*
G36*
X2007Y1888D02*
X2173D01*
X2175Y1883D01*
X2172Y1876D01*
X2171Y1868D01*
X2172Y1860D01*
X2175Y1855D01*
X2172Y1850D01*
X2033D01*
X2000Y1884D01*
X2002Y1889D01*
X2007Y1888D01*
D02*
G37*
G36*
X2290Y856D02*
Y826D01*
X2285Y824D01*
X2273Y815D01*
X2265Y804D01*
X2260D01*
X2252Y815D01*
X2241Y824D01*
X2235Y826D01*
Y858D01*
X2233Y867D01*
X2228Y874D01*
X2185Y918D01*
X2185Y919D01*
X2192Y922D01*
X2199Y927D01*
X2204Y934D01*
X2205Y936D01*
X2209Y937D01*
X2290Y856D01*
D02*
G37*
G36*
X2190Y849D02*
Y826D01*
X2185Y824D01*
X2173Y815D01*
X2165Y804D01*
X2160D01*
X2152Y815D01*
X2141Y824D01*
X2135Y826D01*
Y834D01*
X2133Y843D01*
X2128Y850D01*
X2076Y903D01*
X2069Y908D01*
X2070Y913D01*
X2127D01*
X2190Y849D01*
D02*
G37*
G36*
X2083Y2158D02*
Y2059D01*
X2056Y2033D01*
X2047D01*
X2044Y2037D01*
X2047Y2043D01*
X2048Y2051D01*
X2047Y2059D01*
X2045Y2064D01*
X2046Y2066D01*
X2053Y2069D01*
X2060Y2074D01*
X2065Y2081D01*
X2068Y2088D01*
X2069Y2096D01*
X2068Y2104D01*
X2065Y2111D01*
X2060Y2118D01*
X2053Y2123D01*
X2046Y2126D01*
X2045Y2128D01*
X2078Y2160D01*
X2083Y2158D01*
D02*
G37*
G36*
X1473Y736D02*
X1485Y727D01*
X1498Y721D01*
X1513Y719D01*
X1527Y721D01*
X1541Y727D01*
X1552Y736D01*
X1560Y746D01*
X1565D01*
X1573Y736D01*
X1585Y727D01*
X1598Y721D01*
X1611Y719D01*
X1613Y715D01*
X1387Y488D01*
X1304D01*
X1295Y487D01*
X1288Y482D01*
X1235Y429D01*
X1229D01*
X1226Y434D01*
X1218Y446D01*
X1206Y455D01*
X1200Y457D01*
Y690D01*
X1199Y699D01*
X1194Y706D01*
X1171Y728D01*
Y731D01*
X1176Y733D01*
X1185Y727D01*
X1198Y721D01*
X1213Y719D01*
X1227Y721D01*
X1241Y727D01*
X1252Y736D01*
X1260Y746D01*
X1265D01*
X1273Y736D01*
X1285Y727D01*
X1298Y721D01*
X1313Y719D01*
X1327Y721D01*
X1341Y727D01*
X1352Y736D01*
X1360Y746D01*
X1365D01*
X1373Y736D01*
X1385Y727D01*
X1398Y721D01*
X1413Y719D01*
X1427Y721D01*
X1441Y727D01*
X1452Y736D01*
X1460Y746D01*
X1465D01*
X1473Y736D01*
D02*
G37*
G36*
X1370Y2280D02*
X1377Y2277D01*
X1385Y2276D01*
X1393Y2277D01*
X1395Y2278D01*
X1400Y2276D01*
Y2260D01*
X1364Y2225D01*
X1359Y2218D01*
X1358Y2209D01*
Y2124D01*
X1353Y2122D01*
X1328Y2146D01*
Y2256D01*
X1333Y2262D01*
X1336Y2269D01*
X1337Y2277D01*
X1336Y2281D01*
X1340Y2285D01*
X1364D01*
X1370Y2280D01*
D02*
G37*
G36*
X2273Y736D02*
X2285Y727D01*
X2290Y724D01*
Y671D01*
X2017Y398D01*
X1980D01*
X1978Y403D01*
X1969Y415D01*
X1957Y424D01*
X1944Y429D01*
X1929Y431D01*
X1915Y429D01*
X1901Y424D01*
X1896Y419D01*
X1892Y423D01*
X2193Y723D01*
X2198Y721D01*
X2213Y719D01*
X2227Y721D01*
X2241Y727D01*
X2252Y736D01*
X2260Y746D01*
X2265D01*
X2273Y736D01*
D02*
G37*
G36*
X2008Y2101D02*
X2007Y2096D01*
X2008Y2088D01*
X2010Y2085D01*
X2008Y2080D01*
X2002Y2078D01*
X1996Y2073D01*
X1982D01*
X1973Y2072D01*
X1966Y2067D01*
X1966Y2066D01*
X1856D01*
X1850Y2071D01*
X1848Y2072D01*
X1847Y2076D01*
X1875Y2105D01*
X2005D01*
X2008Y2101D01*
D02*
G37*
G36*
X2022Y2405D02*
X2022Y2403D01*
X2023Y2395D01*
X2026Y2388D01*
X2031Y2381D01*
X2031Y2379D01*
X2028Y2375D01*
X2025Y2368D01*
X2024Y2360D01*
X2025Y2352D01*
X2028Y2345D01*
X2033Y2339D01*
Y2303D01*
X2027Y2298D01*
X2022Y2291D01*
X2021Y2282D01*
Y2227D01*
X2016Y2221D01*
X2013Y2214D01*
X2012Y2206D01*
X2013Y2198D01*
X2016Y2191D01*
X2021Y2184D01*
X2028Y2179D01*
X2028Y2179D01*
X2029Y2174D01*
X2004Y2149D01*
X1866D01*
X1857Y2148D01*
X1850Y2143D01*
X1774Y2067D01*
X1769Y2069D01*
Y2170D01*
X1811Y2211D01*
X1818Y2212D01*
X1825Y2215D01*
X1832Y2220D01*
X1837Y2227D01*
X1840Y2234D01*
X1841Y2241D01*
X2008Y2409D01*
X2019D01*
X2022Y2405D01*
D02*
G37*
G36*
X1559Y1730D02*
Y933D01*
X1561Y925D01*
X1566Y918D01*
X1566Y918D01*
X1566Y918D01*
X1612Y871D01*
X1612Y871D01*
X1612D01*
X1612Y871D01*
X1612D01*
X1612Y871D01*
Y871D01*
Y871D01*
D01*
D01*
X1612D01*
Y871D01*
X1619Y866D01*
X1628Y865D01*
X1657D01*
X1659Y860D01*
X1647Y848D01*
X1642Y841D01*
X1641Y832D01*
Y828D01*
X1636Y825D01*
X1627Y829D01*
X1613Y831D01*
X1598Y829D01*
X1585Y824D01*
X1573Y815D01*
X1565Y804D01*
X1560D01*
X1552Y815D01*
X1541Y824D01*
X1527Y829D01*
X1513Y831D01*
X1498Y829D01*
X1485Y824D01*
X1473Y815D01*
X1465Y804D01*
X1460D01*
X1452Y815D01*
X1441Y824D01*
X1427Y829D01*
X1413Y831D01*
X1398Y829D01*
X1385Y824D01*
X1373Y815D01*
X1365Y804D01*
X1360D01*
X1352Y815D01*
X1341Y824D01*
X1327Y829D01*
X1313Y831D01*
X1298Y829D01*
X1289Y825D01*
X1286Y829D01*
X1287Y831D01*
X1290Y838D01*
X1291Y846D01*
X1290Y854D01*
X1287Y861D01*
X1282Y868D01*
X1275Y873D01*
X1268Y876D01*
X1260Y877D01*
X1252Y876D01*
X1245Y873D01*
X1241Y870D01*
X1237Y873D01*
X1241Y878D01*
X1244Y885D01*
X1245Y893D01*
X1244Y901D01*
X1241Y908D01*
X1236Y915D01*
X1229Y920D01*
X1222Y923D01*
X1214Y924D01*
X1206Y923D01*
X1199Y920D01*
X1192Y915D01*
X1187Y908D01*
X1184Y901D01*
X1183Y893D01*
X1184Y889D01*
X1179Y887D01*
X1172Y882D01*
X1171Y883D01*
X1171Y883D01*
X1164Y888D01*
X1157Y891D01*
X1149Y892D01*
X1141Y891D01*
X1139Y890D01*
X1134Y892D01*
Y960D01*
X1494Y1319D01*
X1499Y1326D01*
X1500Y1335D01*
X1500Y1335D01*
X1500Y1335D01*
Y1335D01*
Y1693D01*
X1504Y1696D01*
X1512Y1697D01*
X1519Y1700D01*
X1526Y1705D01*
X1531Y1712D01*
X1534Y1719D01*
X1535Y1727D01*
D01*
X1537Y1727D01*
X1537D01*
X1545Y1728D01*
X1552Y1731D01*
X1556Y1734D01*
X1559Y1730D01*
D02*
G37*
G36*
X1781Y973D02*
X1781D01*
X1781Y973D01*
X1781D01*
X1781Y973D01*
Y973D01*
X1781Y973D01*
Y973D01*
X1788Y968D01*
X1797Y967D01*
X2147D01*
X2150Y962D01*
X2147Y957D01*
X2147Y957D01*
X2145Y956D01*
X2136Y957D01*
X1761D01*
X1758Y962D01*
X1760Y966D01*
X1761Y974D01*
X1760Y982D01*
X1757Y989D01*
X1757Y991D01*
X1764D01*
X1781Y973D01*
D02*
G37*
G36*
X2829Y1292D02*
X2836Y1285D01*
Y1245D01*
Y900D01*
X2837Y899D01*
X2822Y884D01*
X2784D01*
X2783Y885D01*
X2761Y907D01*
Y1061D01*
Y1289D01*
X2774Y1302D01*
X2819D01*
X2829Y1292D01*
D02*
G37*
G36*
X2116Y1086D02*
X2104Y1074D01*
X1816D01*
X1804Y1086D01*
X1806Y1091D01*
X2114D01*
X2116Y1086D01*
D02*
G37*
G36*
X1456Y1403D02*
Y1344D01*
X1355Y1244D01*
X1350Y1245D01*
X1348Y1251D01*
X1343Y1258D01*
X1336Y1263D01*
X1329Y1266D01*
X1321Y1267D01*
X1319Y1266D01*
X1317Y1271D01*
X1451Y1405D01*
X1456Y1403D01*
D02*
G37*
G36*
X1791Y1035D02*
X1798Y1031D01*
X1807Y1029D01*
X2113D01*
X2122Y1031D01*
X2129Y1035D01*
X2137Y1044D01*
X2142Y1042D01*
X2141Y1038D01*
X2142Y1030D01*
X2145Y1023D01*
X2150Y1016D01*
X2150Y1016D01*
X2149Y1011D01*
X1806D01*
X1789Y1029D01*
X1782Y1034D01*
X1773Y1035D01*
X1690D01*
X1659Y1066D01*
Y1121D01*
X1663Y1124D01*
X1664Y1124D01*
X1672Y1125D01*
X1679Y1128D01*
X1686Y1133D01*
X1687Y1135D01*
X1692Y1135D01*
X1791Y1035D01*
D02*
G37*
G36*
X2008Y1812D02*
X2008D01*
X2008Y1812D01*
X2008D01*
X2008Y1812D01*
Y1812D01*
X2008Y1812D01*
Y1812D01*
X2015Y1807D01*
X2024Y1806D01*
X2065D01*
X2067Y1801D01*
X2065Y1798D01*
X2062Y1791D01*
X2061Y1783D01*
X2062Y1775D01*
X2065Y1768D01*
X2070Y1761D01*
X2073Y1759D01*
X2076Y1755D01*
X2071Y1748D01*
X2068Y1741D01*
X2067Y1733D01*
X2068Y1725D01*
X2071Y1718D01*
X2076Y1711D01*
X2083Y1706D01*
X2083Y1704D01*
X2082Y1703D01*
X2079Y1696D01*
X2078Y1688D01*
X2079Y1680D01*
X2082Y1673D01*
X2087Y1666D01*
X2094Y1661D01*
X2101Y1658D01*
X2109Y1657D01*
X2117Y1658D01*
X2124Y1661D01*
X2131Y1666D01*
X2136Y1673D01*
X2139Y1680D01*
X2140Y1688D01*
X2140Y1689D01*
X2141Y1689D01*
X2148Y1694D01*
X2153Y1701D01*
X2156Y1708D01*
X2157Y1716D01*
X2156Y1724D01*
X2153Y1731D01*
X2148Y1738D01*
X2141Y1743D01*
X2141Y1744D01*
X2144Y1746D01*
X2149Y1753D01*
X2152Y1760D01*
X2153Y1768D01*
X2152Y1776D01*
X2149Y1783D01*
X2148Y1785D01*
X2149Y1786D01*
X2152Y1793D01*
X2153Y1801D01*
X2153Y1802D01*
X2156Y1806D01*
X2172D01*
X2175Y1801D01*
X2172Y1796D01*
X2171Y1788D01*
X2172Y1780D01*
X2175Y1773D01*
X2180Y1766D01*
X2187Y1761D01*
X2194Y1758D01*
X2202Y1757D01*
X2210Y1758D01*
X2217Y1761D01*
X2224Y1766D01*
X2229Y1773D01*
X2232Y1780D01*
X2233Y1788D01*
X2232Y1796D01*
X2229Y1803D01*
X2230Y1806D01*
X2252D01*
X2255Y1801D01*
X2252Y1796D01*
X2251Y1788D01*
X2252Y1780D01*
X2255Y1773D01*
X2260Y1766D01*
X2267Y1761D01*
X2274Y1758D01*
X2282Y1757D01*
X2290Y1758D01*
X2297Y1761D01*
X2304Y1766D01*
X2309Y1773D01*
X2312Y1780D01*
X2313Y1788D01*
X2312Y1796D01*
X2309Y1803D01*
X2310Y1806D01*
X2332D01*
X2335Y1801D01*
X2332Y1796D01*
X2331Y1788D01*
X2332Y1780D01*
X2335Y1773D01*
X2340Y1766D01*
X2347Y1761D01*
X2354Y1758D01*
X2362Y1757D01*
X2370Y1758D01*
X2377Y1761D01*
X2384Y1766D01*
X2389Y1773D01*
X2392Y1780D01*
X2393Y1788D01*
X2392Y1796D01*
X2389Y1803D01*
X2390Y1806D01*
X2411D01*
X2414Y1802D01*
X2414Y1801D01*
X2415Y1793D01*
X2418Y1786D01*
X2414Y1781D01*
X2411Y1774D01*
X2410Y1766D01*
X2411Y1758D01*
X2414Y1751D01*
X2419Y1744D01*
X2420Y1743D01*
Y1738D01*
X2418Y1737D01*
X2413Y1730D01*
X2410Y1723D01*
X2409Y1715D01*
X2410Y1707D01*
X2413Y1700D01*
X2418Y1693D01*
X2425Y1688D01*
X2429Y1687D01*
X2428Y1684D01*
X2429Y1676D01*
X2432Y1669D01*
X2437Y1662D01*
X2444Y1657D01*
X2451Y1654D01*
X2459Y1653D01*
X2467Y1654D01*
X2474Y1657D01*
X2481Y1662D01*
X2486Y1669D01*
X2489Y1676D01*
X2490Y1684D01*
X2489Y1692D01*
X2486Y1699D01*
X2482Y1704D01*
X2482Y1706D01*
X2489Y1711D01*
X2494Y1718D01*
X2497Y1725D01*
X2498Y1733D01*
X2497Y1741D01*
X2494Y1748D01*
X2489Y1755D01*
X2488Y1755D01*
Y1760D01*
X2489Y1761D01*
X2494Y1768D01*
X2497Y1775D01*
X2498Y1783D01*
X2497Y1791D01*
X2494Y1798D01*
X2489Y1805D01*
X2489Y1806D01*
X2571D01*
X2588Y1789D01*
Y1704D01*
X2583Y1698D01*
X2580Y1691D01*
X2579Y1683D01*
X2580Y1675D01*
X2583Y1668D01*
X2588Y1661D01*
X2595Y1656D01*
X2602Y1653D01*
X2610Y1652D01*
X2617Y1653D01*
X2621Y1650D01*
Y1629D01*
X2616Y1623D01*
X2613Y1616D01*
X2612Y1608D01*
X2613Y1600D01*
X2616Y1593D01*
X2621Y1586D01*
X2628Y1581D01*
X2635Y1578D01*
X2643Y1577D01*
X2651Y1578D01*
X2658Y1581D01*
X2665Y1586D01*
X2670Y1593D01*
X2673Y1600D01*
X2674Y1608D01*
X2673Y1616D01*
X2671Y1621D01*
X2674Y1624D01*
X2677Y1623D01*
X2685Y1622D01*
X2693Y1623D01*
X2700Y1626D01*
X2707Y1631D01*
X2710Y1636D01*
X2715Y1636D01*
X2732Y1620D01*
Y1454D01*
X2727Y1452D01*
X2727Y1452D01*
X2719Y1453D01*
X2711Y1452D01*
X2704Y1449D01*
X2697Y1444D01*
X2692Y1437D01*
X2689Y1430D01*
X2688Y1422D01*
X2689Y1414D01*
X2692Y1407D01*
X2697Y1400D01*
X2704Y1395D01*
X2711Y1392D01*
X2719Y1391D01*
X2727Y1392D01*
X2727Y1392D01*
X2732Y1390D01*
Y1355D01*
X2610Y1233D01*
X1820D01*
X1814Y1238D01*
X1807Y1241D01*
X1799Y1242D01*
X1791Y1241D01*
X1784Y1238D01*
X1777Y1233D01*
X1772Y1226D01*
X1770Y1220D01*
X1765Y1219D01*
X1737Y1246D01*
Y1670D01*
X1741Y1673D01*
X1747Y1672D01*
X1755Y1673D01*
X1759Y1675D01*
X1762Y1673D01*
X1763Y1668D01*
X1759Y1663D01*
X1756Y1656D01*
X1755Y1648D01*
X1756Y1640D01*
X1759Y1633D01*
X1764Y1626D01*
X1771Y1621D01*
X1778Y1618D01*
X1786Y1617D01*
X1794Y1618D01*
X1796Y1619D01*
X1801Y1617D01*
Y1583D01*
X1802Y1574D01*
X1807Y1567D01*
X1807Y1567D01*
X1807Y1567D01*
X1857Y1517D01*
X1857Y1517D01*
X1857D01*
X1857Y1517D01*
X1857D01*
X1857Y1517D01*
Y1517D01*
Y1517D01*
D01*
D01*
X1857D01*
Y1517D01*
X1864Y1512D01*
X1873Y1511D01*
X1919D01*
X1921Y1509D01*
Y1504D01*
X1921Y1504D01*
X1916Y1497D01*
X1913Y1490D01*
X1912Y1482D01*
X1913Y1474D01*
X1916Y1467D01*
X1921Y1460D01*
X1928Y1455D01*
X1935Y1452D01*
X1943Y1451D01*
X1951Y1452D01*
X1958Y1455D01*
X1965Y1460D01*
X1970Y1467D01*
X1973Y1474D01*
X1974Y1482D01*
X1973Y1490D01*
X1970Y1497D01*
X1965Y1504D01*
X1958Y1509D01*
X1958Y1509D01*
X1962Y1511D01*
X1967Y1518D01*
X1970Y1525D01*
X1971Y1533D01*
X1970Y1541D01*
X1967Y1548D01*
X1962Y1555D01*
X1955Y1560D01*
X1948Y1563D01*
X1940Y1564D01*
X1932Y1563D01*
X1925Y1560D01*
X1919Y1555D01*
X1882D01*
X1845Y1592D01*
Y1672D01*
X1850Y1675D01*
X1856Y1672D01*
X1864Y1671D01*
X1872Y1672D01*
X1879Y1675D01*
X1886Y1680D01*
X1891Y1687D01*
X1894Y1694D01*
X1895Y1702D01*
X1894Y1710D01*
X1891Y1717D01*
X1886Y1724D01*
X1879Y1729D01*
X1872Y1732D01*
X1864Y1733D01*
X1856Y1732D01*
X1850Y1729D01*
X1845Y1732D01*
Y1763D01*
X1862Y1779D01*
X1867Y1786D01*
X1868Y1795D01*
Y1815D01*
X1873Y1821D01*
X1876Y1828D01*
X1876Y1832D01*
X1881Y1831D01*
X1913Y1800D01*
Y1654D01*
X1908Y1648D01*
X1905Y1641D01*
X1904Y1633D01*
X1905Y1625D01*
X1908Y1618D01*
X1913Y1611D01*
X1920Y1606D01*
X1927Y1603D01*
X1935Y1602D01*
X1943Y1603D01*
X1950Y1606D01*
X1957Y1611D01*
X1962Y1618D01*
X1965Y1625D01*
X1966Y1633D01*
X1965Y1641D01*
X1962Y1648D01*
X1957Y1654D01*
Y1809D01*
X1956Y1818D01*
X1954Y1820D01*
X1955Y1822D01*
X1962Y1825D01*
X1969Y1830D01*
X1974Y1837D01*
X1975Y1840D01*
X1980Y1841D01*
X2008Y1812D01*
D02*
G37*
G36*
X2390Y866D02*
Y826D01*
X2385Y824D01*
X2373Y815D01*
X2365Y804D01*
X2360D01*
X2352Y815D01*
X2341Y824D01*
X2335Y826D01*
Y865D01*
X2333Y874D01*
X2328Y881D01*
X2265Y945D01*
X2265Y948D01*
X2272Y953D01*
X2277Y960D01*
X2280Y967D01*
X2280Y970D01*
X2285Y971D01*
X2390Y866D01*
D02*
G37*
G36*
X1186Y1701D02*
Y1655D01*
X1182Y1652D01*
X1181Y1652D01*
X1173Y1651D01*
X1166Y1648D01*
X1160Y1643D01*
X1142D01*
X1122Y1663D01*
Y1700D01*
X1127Y1703D01*
X1139Y1698D01*
X1153Y1696D01*
X1167Y1698D01*
X1181Y1704D01*
X1181Y1704D01*
X1186Y1701D01*
D02*
G37*
G36*
X2490Y858D02*
Y826D01*
X2485Y824D01*
X2473Y815D01*
X2465Y804D01*
X2460D01*
X2452Y815D01*
X2441Y824D01*
X2435Y826D01*
Y875D01*
X2433Y884D01*
X2428Y891D01*
X2234Y1086D01*
X2236Y1091D01*
X2258D01*
X2490Y858D01*
D02*
G37*
G36*
X1306Y1209D02*
X1312Y1207D01*
X1313Y1202D01*
X1096Y985D01*
X1091Y978D01*
X1090Y969D01*
Y877D01*
X1085Y876D01*
X1085Y876D01*
X1080Y882D01*
Y991D01*
X1289Y1199D01*
X1294Y1207D01*
X1295Y1211D01*
X1298Y1213D01*
X1300Y1214D01*
X1306Y1209D01*
D02*
G37*
G36*
X2590Y831D02*
Y826D01*
X2585Y824D01*
X2573Y815D01*
X2565Y804D01*
X2560D01*
X2552Y815D01*
X2541Y824D01*
X2535Y826D01*
Y867D01*
X2533Y876D01*
X2528Y883D01*
X2283Y1129D01*
X2276Y1134D01*
X2267Y1135D01*
Y1136D01*
X2271Y1140D01*
X2282D01*
X2590Y831D01*
D02*
G37*
G36*
X1636Y2321D02*
X1638Y2319D01*
X1637Y2311D01*
Y1929D01*
X1632Y1927D01*
X1593Y1966D01*
X1586Y1971D01*
X1577Y1972D01*
X1484D01*
X1478Y1977D01*
X1471Y1980D01*
X1463Y1981D01*
X1463Y1981D01*
X1463Y1985D01*
Y2071D01*
X1462Y2080D01*
X1457Y2087D01*
X1438Y2105D01*
Y2111D01*
X1443Y2117D01*
X1446Y2124D01*
X1447Y2132D01*
X1446Y2140D01*
X1444Y2143D01*
X1449Y2145D01*
X1456Y2150D01*
X1461Y2157D01*
X1464Y2164D01*
X1465Y2172D01*
X1464Y2180D01*
X1461Y2187D01*
X1456Y2193D01*
Y2199D01*
X1458Y2201D01*
X1562D01*
X1571Y2202D01*
X1578Y2207D01*
X1578Y2207D01*
X1578Y2207D01*
X1616Y2245D01*
X1621Y2252D01*
X1622Y2261D01*
Y2318D01*
X1626Y2321D01*
X1634Y2322D01*
X1634Y2322D01*
X1636Y2321D01*
D02*
G37*
G36*
X2073Y2636D02*
X2085Y2627D01*
X2096Y2622D01*
X2097Y2617D01*
X2079Y2600D01*
X2074Y2593D01*
X2073Y2584D01*
Y2502D01*
X2045Y2474D01*
X2040Y2475D01*
X2039Y2477D01*
X2035Y2482D01*
Y2624D01*
X2041Y2627D01*
X2052Y2636D01*
X2060Y2646D01*
X2065D01*
X2073Y2636D01*
D02*
G37*
G36*
X2559Y2589D02*
X2559Y2588D01*
X2560Y2580D01*
X2561Y2578D01*
X2559Y2573D01*
X2553Y2573D01*
X2546Y2570D01*
X2539Y2565D01*
X2534Y2558D01*
X2531Y2551D01*
X2530Y2543D01*
X2531Y2535D01*
X2534Y2528D01*
X2539Y2522D01*
Y2169D01*
X2540Y2160D01*
X2545Y2153D01*
X2545Y2153D01*
X2545Y2153D01*
X2663Y2036D01*
Y1838D01*
X2658Y1836D01*
X2640Y1854D01*
X2640Y1856D01*
X2647Y1861D01*
X2652Y1868D01*
X2655Y1875D01*
X2656Y1883D01*
X2655Y1891D01*
X2652Y1898D01*
X2647Y1905D01*
X2640Y1910D01*
X2633Y1913D01*
X2625Y1914D01*
X2617Y1913D01*
X2610Y1910D01*
X2603Y1905D01*
X2599Y1900D01*
X2594Y1899D01*
X2568Y1926D01*
X2561Y1931D01*
X2552Y1932D01*
X2393D01*
X2390Y1937D01*
X2392Y1940D01*
X2393Y1948D01*
X2392Y1956D01*
X2389Y1963D01*
X2384Y1970D01*
X2377Y1975D01*
X2370Y1978D01*
X2362Y1979D01*
X2354Y1978D01*
X2347Y1975D01*
X2340Y1970D01*
X2335Y1963D01*
X2332Y1956D01*
X2331Y1948D01*
X2332Y1940D01*
X2334Y1937D01*
X2331Y1932D01*
X2313D01*
X2310Y1937D01*
X2312Y1940D01*
X2313Y1948D01*
X2312Y1956D01*
X2309Y1963D01*
X2304Y1970D01*
X2297Y1975D01*
X2290Y1978D01*
X2282Y1979D01*
X2274Y1978D01*
X2267Y1975D01*
X2260Y1970D01*
X2255Y1963D01*
X2252Y1956D01*
X2251Y1948D01*
X2252Y1940D01*
X2254Y1937D01*
X2251Y1932D01*
X2233D01*
X2230Y1937D01*
X2232Y1940D01*
X2233Y1948D01*
X2232Y1956D01*
X2229Y1963D01*
X2224Y1970D01*
X2217Y1975D01*
X2210Y1978D01*
X2202Y1979D01*
X2198Y1978D01*
X2195Y1983D01*
X2241Y2028D01*
X2241Y2028D01*
X2241Y2028D01*
X2246Y2035D01*
X2247Y2044D01*
Y2149D01*
X2252Y2151D01*
X2253Y2149D01*
X2265Y2141D01*
X2279Y2135D01*
X2293Y2133D01*
X2307Y2135D01*
X2321Y2141D01*
X2333Y2149D01*
X2341Y2160D01*
X2345D01*
X2353Y2149D01*
X2365Y2141D01*
X2379Y2135D01*
X2393Y2133D01*
X2407Y2135D01*
X2421Y2141D01*
X2433Y2149D01*
X2441Y2161D01*
X2443Y2164D01*
X2448Y2163D01*
Y2065D01*
X2443Y2059D01*
X2440Y2052D01*
X2439Y2044D01*
X2440Y2036D01*
X2443Y2029D01*
X2448Y2022D01*
X2455Y2017D01*
X2462Y2014D01*
X2470Y2013D01*
X2478Y2014D01*
X2485Y2017D01*
X2492Y2022D01*
X2497Y2029D01*
X2500Y2036D01*
X2501Y2044D01*
X2500Y2052D01*
X2497Y2059D01*
X2492Y2065D01*
Y2322D01*
X2491Y2331D01*
X2486Y2338D01*
X2464Y2360D01*
X2457Y2365D01*
X2448Y2366D01*
X2444D01*
X2441Y2372D01*
X2433Y2384D01*
X2421Y2392D01*
X2407Y2398D01*
X2393Y2400D01*
X2379Y2398D01*
X2369Y2394D01*
X2365Y2397D01*
X2364Y2403D01*
X2359Y2410D01*
X2345Y2424D01*
X2347Y2430D01*
X2349Y2444D01*
X2347Y2458D01*
X2345Y2464D01*
X2359Y2478D01*
X2359Y2478D01*
X2359Y2478D01*
X2364Y2485D01*
X2365Y2494D01*
Y2548D01*
X2369Y2553D01*
X2372Y2560D01*
X2373Y2568D01*
X2372Y2576D01*
X2369Y2583D01*
X2364Y2590D01*
X2365Y2593D01*
X2556D01*
X2559Y2589D01*
D02*
G37*
G36*
X1818Y2695D02*
Y2444D01*
X1813Y2438D01*
X1810Y2431D01*
X1810Y2430D01*
X1805Y2429D01*
X1803Y2435D01*
X1798Y2441D01*
Y2557D01*
X1797Y2566D01*
X1792Y2573D01*
X1775Y2590D01*
Y2624D01*
X1781Y2627D01*
X1792Y2636D01*
X1801Y2647D01*
X1807Y2661D01*
X1809Y2675D01*
X1807Y2690D01*
X1801Y2703D01*
X1798Y2707D01*
X1802Y2711D01*
X1818Y2695D01*
D02*
G37*
G36*
X1013Y2636D02*
X1025Y2627D01*
X1030Y2624D01*
Y2592D01*
X1032Y2584D01*
X1037Y2577D01*
X1037Y2577D01*
X1037Y2577D01*
X1153Y2461D01*
Y2447D01*
X1148Y2446D01*
X1143Y2453D01*
X975Y2621D01*
Y2624D01*
X981Y2627D01*
X992Y2636D01*
X1000Y2646D01*
X1005D01*
X1013Y2636D01*
D02*
G37*
G36*
X1613D02*
X1625Y2627D01*
X1630Y2624D01*
Y2525D01*
X1632Y2517D01*
X1637Y2510D01*
X1637Y2510D01*
X1637Y2510D01*
X1661Y2485D01*
X1659Y2481D01*
X1659Y2481D01*
X1657Y2481D01*
X1649Y2480D01*
X1642Y2477D01*
X1635Y2472D01*
X1630Y2465D01*
X1627Y2458D01*
X1627Y2456D01*
X1622Y2455D01*
X1622Y2456D01*
X1615Y2461D01*
X1608Y2464D01*
X1600Y2465D01*
X1592Y2464D01*
X1590Y2463D01*
X1585Y2465D01*
Y2570D01*
X1584Y2579D01*
X1579Y2586D01*
X1550Y2615D01*
X1552Y2619D01*
X1553Y2619D01*
X1567Y2621D01*
X1581Y2627D01*
X1592Y2636D01*
X1600Y2646D01*
X1605D01*
X1613Y2636D01*
D02*
G37*
G36*
X1713D02*
X1725Y2627D01*
X1730Y2624D01*
Y2580D01*
X1732Y2572D01*
X1737Y2565D01*
X1737Y2565D01*
X1737Y2565D01*
X1754Y2548D01*
Y2530D01*
X1749Y2528D01*
X1733Y2544D01*
X1732Y2551D01*
X1729Y2558D01*
X1724Y2565D01*
X1717Y2570D01*
X1710Y2573D01*
X1702Y2574D01*
X1694Y2573D01*
X1687Y2570D01*
X1680Y2565D01*
X1680Y2564D01*
X1675Y2566D01*
Y2624D01*
X1681Y2627D01*
X1692Y2636D01*
X1700Y2646D01*
X1705D01*
X1713Y2636D01*
D02*
G37*
G36*
X1541Y2561D02*
Y2337D01*
X1536Y2331D01*
X1533Y2324D01*
X1532Y2316D01*
X1533Y2308D01*
X1536Y2301D01*
X1541Y2294D01*
X1548Y2289D01*
X1555Y2286D01*
X1563Y2285D01*
X1571Y2286D01*
X1573Y2287D01*
X1578Y2285D01*
Y2270D01*
X1553Y2245D01*
X1510D01*
X1509Y2250D01*
X1509Y2250D01*
X1514Y2257D01*
X1517Y2264D01*
X1518Y2272D01*
X1517Y2280D01*
X1514Y2287D01*
X1509Y2293D01*
Y2502D01*
X1508Y2511D01*
X1503Y2518D01*
X1465Y2556D01*
X1467Y2560D01*
X1472Y2560D01*
X1481D01*
X1487Y2555D01*
X1494Y2552D01*
X1502Y2551D01*
X1510Y2552D01*
X1517Y2555D01*
X1524Y2560D01*
X1529Y2567D01*
X1529Y2567D01*
X1534Y2568D01*
X1541Y2561D01*
D02*
G37*
G36*
X2319Y2588D02*
X2315Y2583D01*
X2312Y2576D01*
X2311Y2568D01*
X2312Y2560D01*
X2315Y2553D01*
X2320Y2546D01*
X2321Y2546D01*
Y2503D01*
X2313Y2496D01*
X2307Y2498D01*
X2293Y2500D01*
X2279Y2498D01*
X2265Y2492D01*
X2253Y2484D01*
X2246Y2473D01*
X2240D01*
X2233Y2484D01*
X2221Y2492D01*
X2207Y2498D01*
X2193Y2500D01*
X2179Y2498D01*
X2165Y2492D01*
X2153Y2484D01*
X2145Y2472D01*
X2139Y2458D01*
X2137Y2444D01*
X2139Y2430D01*
X2143Y2420D01*
X2140Y2416D01*
X2135Y2415D01*
X2128Y2410D01*
X2105Y2386D01*
X2100Y2387D01*
X2098Y2390D01*
X2084Y2404D01*
X2083Y2411D01*
X2080Y2418D01*
X2075Y2425D01*
X2068Y2430D01*
X2068Y2434D01*
X2111Y2477D01*
X2116Y2484D01*
X2117Y2493D01*
X2117Y2493D01*
X2117Y2493D01*
Y2493D01*
Y2575D01*
X2135Y2593D01*
X2317D01*
X2319Y2588D01*
D02*
G37*
G36*
X1133Y2727D02*
X1140Y2724D01*
X1148Y2723D01*
X1156Y2724D01*
X1163Y2727D01*
X1169Y2731D01*
X1171Y2730D01*
X1173Y2728D01*
X1172Y2724D01*
X1173Y2716D01*
X1176Y2709D01*
X1181Y2703D01*
Y2503D01*
X1176Y2501D01*
X1075Y2602D01*
Y2624D01*
X1081Y2627D01*
X1092Y2636D01*
X1101Y2647D01*
X1107Y2661D01*
X1109Y2675D01*
X1107Y2690D01*
X1101Y2703D01*
X1092Y2715D01*
X1081Y2724D01*
X1067Y2729D01*
X1053Y2731D01*
X1053Y2732D01*
X1127D01*
X1133Y2727D01*
D02*
G37*
G36*
X1873Y2636D02*
X1885Y2627D01*
X1898Y2621D01*
X1913Y2619D01*
X1927Y2621D01*
X1936Y2625D01*
X1941Y2622D01*
Y2475D01*
X1918Y2453D01*
X1871Y2406D01*
X1867Y2409D01*
X1870Y2415D01*
X1871Y2423D01*
X1870Y2431D01*
X1867Y2438D01*
X1862Y2444D01*
Y2642D01*
X1867Y2643D01*
X1873Y2636D01*
D02*
G37*
G36*
X2253Y2305D02*
X2251Y2300D01*
X2247D01*
X2238Y2299D01*
X2231Y2294D01*
X2209Y2272D01*
X2204Y2265D01*
X2203Y2256D01*
Y2053D01*
X2119Y1969D01*
X2114D01*
X2112Y1974D01*
X2146Y2008D01*
X2146Y2008D01*
X2146Y2008D01*
X2151Y2015D01*
X2152Y2024D01*
Y2300D01*
X2157Y2302D01*
X2165Y2296D01*
X2179Y2290D01*
X2193Y2288D01*
X2207Y2290D01*
X2221Y2296D01*
X2233Y2304D01*
X2240Y2315D01*
X2246D01*
X2253Y2305D01*
D02*
G37*
G36*
X2448Y2311D02*
Y2215D01*
X2443Y2214D01*
X2441Y2217D01*
X2433Y2229D01*
X2421Y2237D01*
X2407Y2243D01*
X2393Y2245D01*
X2379Y2243D01*
X2365Y2237D01*
X2353Y2229D01*
X2345Y2218D01*
X2341D01*
X2333Y2229D01*
X2321Y2237D01*
X2307Y2243D01*
X2293Y2245D01*
X2279Y2243D01*
X2265Y2237D01*
X2253Y2229D01*
X2252Y2227D01*
X2247Y2229D01*
Y2247D01*
X2256Y2256D01*
X2318D01*
X2327Y2257D01*
X2334Y2262D01*
X2359Y2287D01*
X2364Y2294D01*
X2371Y2293D01*
X2379Y2290D01*
X2393Y2288D01*
X2407Y2290D01*
X2421Y2296D01*
X2433Y2304D01*
X2440Y2315D01*
X2444Y2315D01*
X2448Y2311D01*
D02*
G37*
G36*
X3115Y2708D02*
X3119Y2704D01*
Y2283D01*
Y150D01*
X3029Y60D01*
X3024Y55D01*
X154D01*
X47Y162D01*
X41Y168D01*
Y324D01*
Y1305D01*
X45Y1308D01*
X51Y1305D01*
X59Y1304D01*
X67Y1305D01*
X74Y1308D01*
X81Y1313D01*
X86Y1320D01*
X89Y1327D01*
X90Y1335D01*
X89Y1343D01*
X86Y1350D01*
X81Y1357D01*
X74Y1362D01*
X67Y1365D01*
X59Y1366D01*
X51Y1365D01*
X45Y1362D01*
X41Y1365D01*
Y2724D01*
X66Y2749D01*
X123Y2806D01*
X1236D01*
X1238Y2801D01*
X1237Y2801D01*
X1213Y2776D01*
X1169D01*
X1163Y2781D01*
X1156Y2784D01*
X1148Y2785D01*
X1140Y2784D01*
X1133Y2781D01*
X1127Y2776D01*
X931D01*
X923Y2775D01*
X916Y2770D01*
X873Y2727D01*
X867Y2729D01*
X853Y2731D01*
X838Y2729D01*
X825Y2724D01*
X813Y2715D01*
X804Y2703D01*
X799Y2690D01*
X797Y2675D01*
X799Y2661D01*
X804Y2647D01*
X813Y2636D01*
X825Y2627D01*
X838Y2621D01*
X853Y2619D01*
X867Y2621D01*
X881Y2627D01*
X892Y2636D01*
X900Y2646D01*
X905D01*
X913Y2636D01*
X925Y2627D01*
X930Y2624D01*
Y2611D01*
X932Y2604D01*
X927Y2602D01*
X923Y2605D01*
X916Y2608D01*
X908Y2609D01*
X900Y2608D01*
X893Y2605D01*
X886Y2600D01*
X881Y2593D01*
X878Y2586D01*
X877Y2579D01*
X847Y2549D01*
X842Y2542D01*
X841Y2533D01*
Y2374D01*
X836Y2373D01*
X833Y2378D01*
X829Y2385D01*
X822Y2389D01*
X815Y2392D01*
X807Y2394D01*
X799Y2392D01*
X791Y2389D01*
X789Y2387D01*
X762D01*
Y2446D01*
X761Y2455D01*
X758Y2463D01*
X753Y2470D01*
X746Y2475D01*
X738Y2478D01*
X729Y2479D01*
X699D01*
X691Y2478D01*
X683Y2475D01*
X676Y2470D01*
X670Y2463D01*
X667Y2455D01*
X666Y2446D01*
Y2279D01*
X667Y2271D01*
X670Y2263D01*
X676Y2256D01*
X683Y2251D01*
X691Y2247D01*
X699Y2246D01*
X729D01*
X738Y2247D01*
X746Y2251D01*
X753Y2256D01*
X758Y2263D01*
X761Y2271D01*
X762Y2279D01*
Y2338D01*
X789D01*
X791Y2336D01*
X799Y2333D01*
X807Y2332D01*
X815Y2333D01*
X822Y2336D01*
X829Y2341D01*
X833Y2347D01*
X836Y2353D01*
X841Y2352D01*
Y2256D01*
X836Y2250D01*
X833Y2243D01*
X832Y2235D01*
X833Y2227D01*
X836Y2220D01*
X841Y2213D01*
X848Y2208D01*
X855Y2205D01*
X863Y2204D01*
X871Y2205D01*
X878Y2208D01*
X885Y2213D01*
X890Y2220D01*
X893Y2227D01*
X894Y2235D01*
X893Y2243D01*
X890Y2250D01*
X885Y2256D01*
Y2524D01*
X909Y2547D01*
X916Y2548D01*
X923Y2551D01*
X930Y2556D01*
X935Y2563D01*
X938Y2570D01*
X939Y2578D01*
X938Y2586D01*
X937Y2589D01*
X941Y2592D01*
X1105Y2428D01*
Y2427D01*
X1100Y2421D01*
X1097Y2414D01*
X1096Y2406D01*
X1097Y2398D01*
X1100Y2391D01*
X1105Y2384D01*
X1112Y2379D01*
X1119Y2376D01*
X1127Y2375D01*
X1135Y2376D01*
X1142Y2379D01*
X1148Y2384D01*
X1153Y2382D01*
Y2359D01*
X1154Y2350D01*
X1159Y2343D01*
X1241Y2261D01*
X1248Y2256D01*
X1257Y2255D01*
X1284D01*
Y2188D01*
X1279Y2187D01*
X1170Y2296D01*
X1163Y2301D01*
X1154Y2302D01*
X1082D01*
X1076Y2307D01*
X1069Y2310D01*
X1061Y2311D01*
X1053Y2310D01*
X1046Y2307D01*
X1039Y2302D01*
X1034Y2295D01*
X1031Y2288D01*
X1030Y2280D01*
X1031Y2272D01*
X1034Y2265D01*
X1039Y2258D01*
X1046Y2253D01*
X1053Y2250D01*
X1061Y2249D01*
X1069Y2250D01*
X1076Y2253D01*
X1082Y2258D01*
X1145D01*
X1241Y2162D01*
Y2052D01*
X1242Y2043D01*
X1247Y2036D01*
X1247Y2036D01*
X1247Y2036D01*
X1316Y1967D01*
X1317Y1960D01*
X1320Y1953D01*
X1325Y1946D01*
X1331Y1942D01*
X1330Y1936D01*
X1331Y1928D01*
X1334Y1921D01*
X1337Y1918D01*
X1333Y1913D01*
X1332Y1905D01*
X1327Y1902D01*
X1318Y1906D01*
X1304Y1908D01*
X1290Y1906D01*
X1276Y1900D01*
X1264Y1892D01*
X1256Y1880D01*
X1251Y1870D01*
X1246Y1871D01*
Y1993D01*
X1245Y2002D01*
X1240Y2009D01*
X1208Y2041D01*
X1201Y2046D01*
X1192Y2047D01*
X1169D01*
X1163Y2052D01*
X1156Y2055D01*
X1148Y2056D01*
X1140Y2055D01*
X1133Y2052D01*
X1126Y2047D01*
X1121Y2040D01*
X1118Y2033D01*
X1117Y2025D01*
X1118Y2017D01*
X1121Y2010D01*
X1126Y2003D01*
X1133Y1998D01*
X1139Y1996D01*
X1139Y1991D01*
X1132Y1990D01*
X1125Y1987D01*
X1118Y1982D01*
X1113Y1975D01*
X1110Y1968D01*
X1109Y1961D01*
X1087Y1939D01*
X1082Y1941D01*
Y2026D01*
X1081Y2035D01*
X1076Y2042D01*
X1054Y2064D01*
X1056Y2070D01*
X1058Y2084D01*
X1056Y2098D01*
X1050Y2112D01*
X1042Y2124D01*
X1030Y2132D01*
X1016Y2138D01*
X1002Y2140D01*
X996Y2139D01*
X994Y2144D01*
X998Y2149D01*
X1001Y2156D01*
X1002Y2164D01*
X1001Y2172D01*
X998Y2179D01*
X993Y2186D01*
X986Y2191D01*
X979Y2194D01*
X971Y2195D01*
X963Y2194D01*
X957Y2191D01*
X852D01*
X845Y2190D01*
X838Y2188D01*
X833Y2183D01*
X526Y1876D01*
X521Y1871D01*
X519Y1864D01*
X518Y1857D01*
Y1352D01*
X513Y1350D01*
X509Y1356D01*
X502Y1361D01*
X495Y1364D01*
X487Y1365D01*
X486Y1365D01*
X484Y1369D01*
X487Y1373D01*
X490Y1380D01*
X491Y1388D01*
X490Y1396D01*
X487Y1403D01*
X482Y1410D01*
X478Y1413D01*
Y1413D01*
X483Y1420D01*
X486Y1427D01*
X487Y1435D01*
X486Y1443D01*
X483Y1450D01*
X478Y1457D01*
X471Y1462D01*
X464Y1465D01*
X456Y1466D01*
X448Y1465D01*
X441Y1462D01*
X434Y1457D01*
X429Y1450D01*
X427Y1443D01*
X420Y1441D01*
X413Y1436D01*
X408Y1429D01*
X405Y1422D01*
X404Y1414D01*
X405Y1406D01*
X408Y1399D01*
X413Y1392D01*
X420Y1387D01*
X427Y1384D01*
X430Y1384D01*
X430Y1380D01*
X433Y1373D01*
X438Y1366D01*
X445Y1361D01*
X452Y1358D01*
X460Y1357D01*
X461Y1357D01*
X463Y1353D01*
X460Y1349D01*
X457Y1342D01*
X456Y1334D01*
X457Y1326D01*
X460Y1319D01*
X465Y1312D01*
X472Y1307D01*
X479Y1304D01*
X487Y1303D01*
X495Y1304D01*
X502Y1307D01*
X509Y1312D01*
X513Y1318D01*
X518Y1316D01*
Y1297D01*
X519Y1290D01*
X519Y1290D01*
X519Y1290D01*
X521Y1283D01*
X526Y1278D01*
X736Y1068D01*
Y814D01*
X733Y808D01*
X732Y800D01*
X733Y792D01*
X736Y786D01*
Y718D01*
X715Y697D01*
X592D01*
X590Y702D01*
X594Y707D01*
X597Y714D01*
X598Y722D01*
X597Y730D01*
X594Y737D01*
X589Y743D01*
Y890D01*
X594Y896D01*
X597Y903D01*
X598Y911D01*
X597Y919D01*
X594Y926D01*
X589Y933D01*
X582Y938D01*
X575Y941D01*
X567Y942D01*
X559Y941D01*
X552Y938D01*
X545Y933D01*
X540Y926D01*
X537Y919D01*
X536Y911D01*
X537Y903D01*
X540Y896D01*
X545Y890D01*
Y744D01*
X443D01*
X434Y743D01*
X427Y738D01*
X403Y714D01*
X398Y707D01*
X397Y698D01*
Y595D01*
X393Y592D01*
X387Y593D01*
X379Y592D01*
X372Y589D01*
X365Y584D01*
X360Y577D01*
X357Y570D01*
X356Y562D01*
X357Y554D01*
X360Y547D01*
X365Y541D01*
Y433D01*
X360Y432D01*
X350Y423D01*
X342Y413D01*
X337Y401D01*
X335Y387D01*
X337Y374D01*
X342Y362D01*
X350Y351D01*
X360Y343D01*
X373Y338D01*
X386Y336D01*
X399Y338D01*
X407Y342D01*
X412Y339D01*
Y300D01*
X413Y291D01*
X418Y284D01*
X418Y284D01*
X418Y284D01*
X535Y167D01*
X533Y164D01*
X532Y151D01*
X533Y138D01*
X539Y126D01*
X547Y115D01*
X557Y107D01*
X569Y102D01*
X583Y100D01*
X596Y102D01*
X608Y107D01*
X619Y115D01*
X627Y126D01*
X632Y138D01*
X634Y151D01*
X632Y164D01*
X627Y177D01*
X619Y187D01*
X608Y195D01*
X596Y200D01*
X583Y202D01*
X569Y200D01*
X566Y199D01*
X456Y309D01*
Y340D01*
X461Y343D01*
X471Y338D01*
X484Y336D01*
X497Y338D01*
X510Y343D01*
X520Y351D01*
X528Y362D01*
X531Y368D01*
X536D01*
X539Y362D01*
X547Y351D01*
X557Y343D01*
X569Y338D01*
X583Y336D01*
X596Y338D01*
X608Y343D01*
X619Y351D01*
X627Y362D01*
X632Y374D01*
X634Y387D01*
X632Y401D01*
X627Y413D01*
X619Y423D01*
X608Y432D01*
X596Y437D01*
X583Y438D01*
X569Y437D01*
X557Y432D01*
X547Y423D01*
X539Y413D01*
X536Y407D01*
X531D01*
X528Y413D01*
X520Y423D01*
X511Y430D01*
Y442D01*
X511Y448D01*
X511Y449D01*
X508Y455D01*
X504Y461D01*
X501Y463D01*
X503Y467D01*
X504Y475D01*
X503Y483D01*
X500Y489D01*
Y502D01*
X499Y509D01*
X497Y516D01*
X492Y521D01*
X488Y525D01*
Y560D01*
Y634D01*
X497Y643D01*
X726D01*
X733Y644D01*
X740Y646D01*
X745Y651D01*
X745Y651D01*
X745Y651D01*
X782Y688D01*
X787Y693D01*
X789Y700D01*
X789Y700D01*
X789Y700D01*
X790Y707D01*
Y786D01*
X793Y792D01*
X794Y800D01*
X793Y808D01*
X790Y814D01*
Y1079D01*
X789Y1086D01*
X787Y1093D01*
X782Y1098D01*
X572Y1308D01*
Y1846D01*
X863Y2137D01*
X957D01*
X963Y2134D01*
X968Y2134D01*
X969Y2129D01*
X962Y2124D01*
X954Y2112D01*
X948Y2098D01*
X946Y2084D01*
X948Y2070D01*
X954Y2056D01*
X962Y2044D01*
X974Y2036D01*
X988Y2030D01*
X1002Y2028D01*
X1016Y2030D01*
X1022Y2032D01*
X1038Y2017D01*
Y1771D01*
X1039Y1762D01*
X1044Y1755D01*
X1052Y1748D01*
Y1745D01*
X1047Y1739D01*
X1044Y1732D01*
X1043Y1724D01*
X1044Y1716D01*
X1047Y1709D01*
X1052Y1702D01*
X1059Y1697D01*
X1066Y1694D01*
X1074Y1693D01*
X1078Y1690D01*
Y1654D01*
X1079Y1645D01*
X1084Y1638D01*
X1084Y1638D01*
X1084Y1638D01*
X1117Y1605D01*
X1117Y1605D01*
X1117D01*
X1117Y1605D01*
X1117D01*
X1117Y1605D01*
Y1605D01*
Y1605D01*
D01*
D01*
X1117D01*
Y1605D01*
X1124Y1600D01*
X1133Y1599D01*
X1160D01*
X1166Y1594D01*
X1173Y1591D01*
X1177Y1591D01*
X1178Y1584D01*
X1181Y1577D01*
X1186Y1570D01*
X1193Y1565D01*
X1200Y1562D01*
X1208Y1561D01*
X1216Y1562D01*
X1223Y1565D01*
X1225Y1567D01*
X1229Y1564D01*
X1236Y1561D01*
X1244Y1560D01*
X1252Y1561D01*
X1259Y1564D01*
X1266Y1569D01*
X1271Y1576D01*
X1274Y1583D01*
X1275Y1591D01*
X1274Y1599D01*
X1273Y1600D01*
X1277Y1603D01*
X1290Y1598D01*
X1304Y1596D01*
X1318Y1598D01*
X1332Y1604D01*
X1344Y1612D01*
X1352Y1624D01*
X1358Y1638D01*
X1360Y1652D01*
X1358Y1666D01*
X1356Y1672D01*
X1370Y1686D01*
X1370Y1686D01*
X1370Y1686D01*
X1375Y1693D01*
X1376Y1699D01*
X1380Y1702D01*
X1390Y1698D01*
X1404Y1696D01*
X1418Y1698D01*
X1432Y1704D01*
X1433Y1704D01*
X1438Y1702D01*
Y1503D01*
X1435Y1501D01*
X1427Y1500D01*
X1420Y1497D01*
X1413Y1492D01*
X1408Y1485D01*
X1405Y1478D01*
X1404Y1470D01*
X1405Y1462D01*
X1408Y1455D01*
X1413Y1448D01*
X1420Y1443D01*
X1420Y1443D01*
X1421Y1438D01*
X1257Y1275D01*
X1253Y1268D01*
X1251Y1259D01*
Y1225D01*
X1214Y1188D01*
X1210Y1190D01*
X1211Y1197D01*
X1210Y1205D01*
X1207Y1212D01*
X1202Y1219D01*
X1195Y1224D01*
X1188Y1227D01*
X1180Y1228D01*
X1179Y1232D01*
X1184Y1233D01*
X1198Y1239D01*
X1210Y1247D01*
X1218Y1259D01*
X1224Y1273D01*
X1226Y1287D01*
X1224Y1301D01*
X1218Y1315D01*
X1210Y1327D01*
X1198Y1335D01*
X1184Y1341D01*
X1170Y1343D01*
X1156Y1341D01*
X1142Y1335D01*
X1130Y1327D01*
X1122Y1316D01*
X1117D01*
X1110Y1327D01*
X1098Y1335D01*
X1084Y1341D01*
X1070Y1343D01*
X1056Y1341D01*
X1042Y1335D01*
X1030Y1327D01*
X1023Y1316D01*
X1018D01*
X1010Y1327D01*
X998Y1335D01*
X984Y1341D01*
X970Y1343D01*
X956Y1341D01*
X942Y1335D01*
X930Y1327D01*
X922Y1315D01*
X916Y1301D01*
X914Y1287D01*
X916Y1273D01*
X922Y1259D01*
X930Y1247D01*
X942Y1239D01*
X956Y1233D01*
X970Y1231D01*
X984Y1233D01*
X998Y1239D01*
X1010Y1247D01*
X1018Y1258D01*
X1023D01*
X1030Y1247D01*
X1042Y1239D01*
X1056Y1233D01*
X1070Y1231D01*
X1084Y1233D01*
X1098Y1239D01*
X1110Y1247D01*
X1117Y1258D01*
X1122D01*
X1130Y1247D01*
X1142Y1239D01*
X1156Y1233D01*
X1170Y1231D01*
X1171Y1226D01*
X1165Y1224D01*
X1158Y1219D01*
X1153Y1212D01*
X1150Y1205D01*
X1149Y1197D01*
X1150Y1189D01*
X1153Y1182D01*
X1158Y1175D01*
X1165Y1170D01*
X1172Y1167D01*
X1180Y1166D01*
X1187Y1167D01*
X1189Y1163D01*
X1042Y1016D01*
X1037Y1009D01*
X1036Y1000D01*
Y882D01*
X1031Y876D01*
X1028Y869D01*
X1027Y861D01*
X1028Y853D01*
X1031Y846D01*
X1036Y839D01*
X1043Y834D01*
X1050Y831D01*
X1056Y831D01*
X1057Y826D01*
X1001Y769D01*
X976D01*
X967Y768D01*
X960Y763D01*
X937Y740D01*
X932Y733D01*
X931Y724D01*
Y717D01*
X925Y714D01*
X913Y706D01*
X905Y694D01*
X899Y680D01*
X897Y666D01*
X899Y652D01*
X905Y638D01*
X913Y626D01*
X925Y618D01*
X931Y615D01*
Y558D01*
X881Y508D01*
X876Y501D01*
X874Y492D01*
Y457D01*
X868Y455D01*
X857Y446D01*
X848Y434D01*
X842Y421D01*
X840Y406D01*
X842Y392D01*
X848Y378D01*
X857Y367D01*
X868Y358D01*
X874Y356D01*
Y201D01*
X868Y199D01*
X857Y190D01*
X848Y178D01*
X842Y165D01*
X840Y150D01*
X842Y136D01*
X848Y122D01*
X857Y111D01*
X868Y102D01*
X882Y96D01*
X896Y94D01*
X911Y96D01*
X924Y102D01*
X936Y111D01*
X945Y122D01*
X951Y136D01*
X952Y150D01*
X951Y165D01*
X945Y178D01*
X936Y190D01*
X924Y199D01*
X919Y201D01*
Y356D01*
X924Y358D01*
X936Y367D01*
X945Y378D01*
X951Y392D01*
X952Y406D01*
X951Y421D01*
X945Y434D01*
X936Y446D01*
X924Y455D01*
X919Y457D01*
Y483D01*
X969Y533D01*
X974Y540D01*
X975Y549D01*
X975Y549D01*
X975Y549D01*
Y549D01*
Y615D01*
X981Y618D01*
X993Y626D01*
X1001Y638D01*
X1007Y652D01*
X1009Y666D01*
X1007Y680D01*
X1001Y694D01*
X993Y706D01*
X981Y714D01*
X980Y719D01*
X985Y725D01*
X1010D01*
X1019Y726D01*
X1026Y731D01*
X1026Y731D01*
X1026Y731D01*
X1122Y827D01*
X1127Y825D01*
Y719D01*
X1128Y710D01*
X1133Y703D01*
X1156Y681D01*
Y457D01*
X1150Y455D01*
X1138Y446D01*
X1129Y434D01*
X1124Y421D01*
X1122Y406D01*
X1124Y392D01*
X1129Y378D01*
X1138Y367D01*
X1150Y358D01*
X1156Y356D01*
Y201D01*
X1150Y199D01*
X1138Y190D01*
X1129Y178D01*
X1124Y165D01*
X1122Y150D01*
X1124Y136D01*
X1129Y122D01*
X1138Y111D01*
X1150Y102D01*
X1163Y96D01*
X1178Y94D01*
X1192Y96D01*
X1206Y102D01*
X1218Y111D01*
X1226Y122D01*
X1232Y136D01*
X1234Y150D01*
X1232Y165D01*
X1226Y178D01*
X1218Y190D01*
X1206Y199D01*
X1200Y201D01*
Y356D01*
X1206Y358D01*
X1218Y367D01*
X1226Y378D01*
X1229Y384D01*
X1244D01*
X1253Y386D01*
X1260Y390D01*
X1260Y390D01*
X1260Y390D01*
X1313Y444D01*
X1396D01*
X1405Y445D01*
X1412Y450D01*
X1412Y450D01*
X1412Y450D01*
X1679Y717D01*
X1679Y717D01*
X1679Y717D01*
X1684Y724D01*
X1685Y733D01*
Y823D01*
X1693Y831D01*
X1694D01*
X1700Y826D01*
X1707Y823D01*
X1715Y822D01*
X1723Y823D01*
X1730Y826D01*
X1737Y831D01*
X1742Y838D01*
X1745Y845D01*
X1746Y853D01*
X1745Y861D01*
X1747Y865D01*
X2051D01*
X2086Y829D01*
X2085Y824D01*
X2085Y824D01*
X2073Y815D01*
X2064Y803D01*
X2059Y790D01*
X2057Y775D01*
X2059Y761D01*
X2061Y755D01*
X1836Y530D01*
X1653D01*
X1644Y529D01*
X1637Y524D01*
X1511Y398D01*
X1429D01*
X1426Y403D01*
X1418Y415D01*
X1406Y424D01*
X1392Y429D01*
X1378Y431D01*
X1363Y429D01*
X1350Y424D01*
X1338Y415D01*
X1329Y403D01*
X1324Y390D01*
X1322Y375D01*
X1324Y361D01*
X1329Y347D01*
X1338Y336D01*
X1349Y328D01*
Y323D01*
X1338Y315D01*
X1329Y303D01*
X1324Y290D01*
X1322Y275D01*
X1324Y261D01*
X1329Y247D01*
X1338Y236D01*
X1350Y227D01*
X1363Y221D01*
X1378Y219D01*
X1392Y221D01*
X1406Y227D01*
X1418Y236D01*
X1426Y247D01*
X1432Y261D01*
X1434Y275D01*
X1432Y290D01*
X1426Y303D01*
X1418Y315D01*
X1406Y324D01*
Y327D01*
X1418Y336D01*
X1426Y347D01*
X1429Y353D01*
X1520D01*
X1529Y354D01*
X1536Y359D01*
X1536Y359D01*
X1536Y359D01*
X1662Y486D01*
X1845D01*
X1854Y487D01*
X1861Y492D01*
X1861Y492D01*
X1861Y492D01*
X2093Y723D01*
X2098Y721D01*
X2113Y719D01*
X2119Y720D01*
X2121Y716D01*
X1803Y398D01*
X1704D01*
X1702Y403D01*
X1693Y415D01*
X1682Y424D01*
X1668Y429D01*
X1654Y431D01*
X1639Y429D01*
X1626Y424D01*
X1614Y415D01*
X1605Y403D01*
X1599Y390D01*
X1598Y375D01*
X1599Y361D01*
X1605Y347D01*
X1614Y336D01*
X1624Y328D01*
Y323D01*
X1614Y315D01*
X1605Y303D01*
X1599Y290D01*
X1598Y275D01*
X1599Y261D01*
X1605Y247D01*
X1614Y236D01*
X1626Y227D01*
X1639Y221D01*
X1654Y219D01*
X1668Y221D01*
X1682Y227D01*
X1693Y236D01*
X1702Y247D01*
X1708Y261D01*
X1710Y275D01*
X1708Y290D01*
X1702Y303D01*
X1693Y315D01*
X1682Y324D01*
Y327D01*
X1693Y336D01*
X1702Y347D01*
X1704Y353D01*
X1813D01*
X1821Y354D01*
X1828Y359D01*
X1828Y359D01*
X1828Y359D01*
X1881Y412D01*
X1885Y409D01*
X1881Y403D01*
X1875Y390D01*
X1873Y375D01*
X1875Y361D01*
X1881Y347D01*
X1890Y336D01*
X1900Y328D01*
Y323D01*
X1890Y315D01*
X1881Y303D01*
X1875Y290D01*
X1873Y275D01*
X1875Y261D01*
X1881Y247D01*
X1890Y236D01*
X1901Y227D01*
X1915Y221D01*
X1929Y219D01*
X1944Y221D01*
X1957Y227D01*
X1969Y236D01*
X1978Y247D01*
X1983Y261D01*
X1985Y275D01*
X1983Y290D01*
X1978Y303D01*
X1969Y315D01*
X1957Y324D01*
Y327D01*
X1969Y336D01*
X1978Y347D01*
X1980Y353D01*
X2026D01*
X2034Y354D01*
X2042Y359D01*
X2042Y359D01*
X2042Y359D01*
X2328Y646D01*
X2328Y646D01*
X2328Y646D01*
X2333Y653D01*
X2335Y662D01*
Y724D01*
X2341Y727D01*
X2352Y736D01*
X2360Y746D01*
X2365D01*
X2373Y736D01*
X2385Y727D01*
X2390Y724D01*
Y592D01*
X2225Y427D01*
X2219Y429D01*
X2205Y431D01*
X2190Y429D01*
X2177Y424D01*
X2165Y415D01*
X2156Y403D01*
X2151Y390D01*
X2149Y375D01*
X2151Y361D01*
X2156Y347D01*
X2165Y336D01*
X2175Y328D01*
Y323D01*
X2165Y315D01*
X2156Y303D01*
X2151Y290D01*
X2149Y275D01*
X2151Y261D01*
X2156Y247D01*
X2165Y236D01*
X2177Y227D01*
X2190Y221D01*
X2205Y219D01*
X2219Y221D01*
X2233Y227D01*
X2244Y236D01*
X2253Y247D01*
X2259Y261D01*
X2261Y275D01*
X2259Y290D01*
X2253Y303D01*
X2244Y315D01*
X2233Y324D01*
Y327D01*
X2244Y336D01*
X2253Y347D01*
X2259Y361D01*
X2261Y375D01*
X2259Y390D01*
X2256Y395D01*
X2428Y567D01*
X2428Y567D01*
X2428Y567D01*
X2433Y574D01*
X2435Y583D01*
Y724D01*
X2441Y727D01*
X2452Y736D01*
X2460Y746D01*
X2465D01*
X2473Y736D01*
X2485Y727D01*
X2490Y724D01*
Y601D01*
X2464Y576D01*
X2460Y568D01*
X2458Y560D01*
Y474D01*
X2453Y473D01*
X2451Y478D01*
X2446Y485D01*
X2439Y490D01*
X2432Y493D01*
X2424Y494D01*
X2416Y493D01*
X2409Y490D01*
X2402Y485D01*
X2397Y478D01*
X2394Y471D01*
X2393Y463D01*
X2394Y455D01*
X2397Y448D01*
X2402Y441D01*
X2409Y436D01*
X2416Y433D01*
X2424Y432D01*
X2432Y433D01*
X2439Y436D01*
X2446Y441D01*
X2451Y448D01*
X2453Y453D01*
X2458Y452D01*
Y426D01*
X2452Y424D01*
X2441Y415D01*
X2432Y403D01*
X2426Y390D01*
X2424Y375D01*
X2426Y361D01*
X2432Y347D01*
X2441Y336D01*
X2451Y328D01*
Y323D01*
X2441Y315D01*
X2432Y303D01*
X2426Y290D01*
X2424Y275D01*
X2426Y261D01*
X2432Y247D01*
X2441Y236D01*
X2452Y227D01*
X2466Y221D01*
X2480Y219D01*
X2495Y221D01*
X2508Y227D01*
X2520Y236D01*
X2529Y247D01*
X2534Y261D01*
X2536Y275D01*
X2534Y290D01*
X2529Y303D01*
X2520Y315D01*
X2508Y324D01*
Y327D01*
X2520Y336D01*
X2529Y347D01*
X2534Y361D01*
X2536Y375D01*
X2534Y390D01*
X2529Y403D01*
X2520Y415D01*
X2508Y424D01*
X2503Y426D01*
Y550D01*
X2528Y576D01*
X2533Y583D01*
X2535Y592D01*
X2535Y592D01*
X2535Y592D01*
Y592D01*
Y724D01*
X2541Y727D01*
X2552Y736D01*
X2560Y746D01*
X2565D01*
X2573Y736D01*
X2585Y727D01*
X2590Y724D01*
Y646D01*
X2592Y638D01*
X2597Y631D01*
X2597Y631D01*
X2597Y631D01*
X2733Y494D01*
Y426D01*
X2728Y424D01*
X2716Y415D01*
X2707Y403D01*
X2702Y390D01*
X2700Y375D01*
X2702Y361D01*
X2707Y347D01*
X2716Y336D01*
X2727Y328D01*
Y323D01*
X2716Y315D01*
X2707Y303D01*
X2702Y290D01*
X2700Y275D01*
X2702Y261D01*
X2707Y247D01*
X2716Y236D01*
X2728Y227D01*
X2741Y221D01*
X2756Y219D01*
X2770Y221D01*
X2784Y227D01*
X2795Y236D01*
X2804Y247D01*
X2810Y261D01*
X2812Y275D01*
X2810Y290D01*
X2804Y303D01*
X2795Y315D01*
X2784Y324D01*
Y327D01*
X2795Y336D01*
X2804Y347D01*
X2810Y361D01*
X2812Y375D01*
X2810Y390D01*
X2804Y403D01*
X2795Y415D01*
X2784Y424D01*
X2778Y426D01*
Y503D01*
X2777Y512D01*
X2772Y519D01*
X2635Y656D01*
Y724D01*
X2641Y727D01*
X2652Y736D01*
X2661Y747D01*
X2667Y761D01*
X2669Y775D01*
X2667Y790D01*
X2661Y803D01*
X2652Y815D01*
X2641Y824D01*
X2635Y826D01*
Y840D01*
X2635Y840D01*
X2635Y840D01*
Y840D01*
X2635D01*
X2635Y840D01*
X2633Y849D01*
X2628Y856D01*
X2307Y1178D01*
X2300Y1183D01*
X2291Y1184D01*
Y1185D01*
X2295Y1189D01*
X2619D01*
X2628Y1190D01*
X2635Y1195D01*
X2635Y1195D01*
X2635Y1195D01*
X2743Y1303D01*
X2747Y1300D01*
X2744Y1296D01*
X2744Y1295D01*
X2743Y1289D01*
Y1061D01*
Y907D01*
X2744Y901D01*
X2744Y900D01*
X2748Y894D01*
X2770Y872D01*
X2770Y872D01*
X2771Y871D01*
X2777Y867D01*
X2778Y867D01*
X2784Y866D01*
X2822D01*
X2828Y867D01*
X2829Y867D01*
X2835Y871D01*
X2850Y886D01*
X2854Y892D01*
X2855Y899D01*
X2854Y904D01*
Y1245D01*
Y1285D01*
X2853Y1291D01*
X2853Y1292D01*
X2849Y1298D01*
X2842Y1305D01*
X2842Y1305D01*
X2832Y1315D01*
X2826Y1319D01*
X2825Y1319D01*
X2819Y1320D01*
X2774D01*
X2768Y1319D01*
X2767Y1319D01*
X2763Y1316D01*
X2760Y1320D01*
X2770Y1330D01*
X2770Y1330D01*
X2770Y1330D01*
X2775Y1337D01*
X2776Y1346D01*
Y1484D01*
X2781Y1486D01*
X2783Y1483D01*
X2790Y1478D01*
X2797Y1475D01*
X2805Y1474D01*
X2813Y1475D01*
X2820Y1478D01*
X2827Y1483D01*
X2832Y1490D01*
X2835Y1497D01*
X2836Y1505D01*
X2835Y1513D01*
X2832Y1520D01*
X2827Y1527D01*
X2820Y1532D01*
X2813Y1535D01*
X2805Y1536D01*
X2797Y1535D01*
X2790Y1532D01*
X2783Y1527D01*
X2781Y1524D01*
X2776Y1526D01*
Y1629D01*
X2776Y1629D01*
X2776Y1629D01*
Y1629D01*
X2776D01*
X2776Y1629D01*
X2775Y1638D01*
X2770Y1645D01*
X2749Y1665D01*
Y1840D01*
X2754Y1846D01*
X2757Y1853D01*
X2758Y1861D01*
X2757Y1869D01*
X2754Y1876D01*
X2749Y1883D01*
X2742Y1888D01*
X2735Y1891D01*
X2727Y1892D01*
X2719Y1891D01*
X2712Y1888D01*
X2707Y1890D01*
Y2045D01*
X2706Y2054D01*
X2701Y2061D01*
X2583Y2178D01*
Y2277D01*
X2588Y2278D01*
X2591Y2271D01*
X2596Y2264D01*
X2603Y2259D01*
X2610Y2256D01*
X2618Y2255D01*
X2626Y2256D01*
X2633Y2259D01*
X2640Y2264D01*
X2645Y2271D01*
X2648Y2278D01*
X2649Y2286D01*
X2648Y2294D01*
X2645Y2301D01*
X2640Y2308D01*
X2633Y2313D01*
X2626Y2316D01*
X2618Y2317D01*
X2610Y2316D01*
X2603Y2313D01*
X2596Y2308D01*
X2591Y2301D01*
X2588Y2294D01*
X2583Y2295D01*
Y2522D01*
X2588Y2528D01*
X2591Y2535D01*
X2592Y2543D01*
X2591Y2549D01*
X2596Y2551D01*
X2601Y2546D01*
Y2471D01*
X2602Y2462D01*
X2607Y2455D01*
X2615Y2447D01*
X2615Y2447D01*
X2615D01*
X2615Y2447D01*
X2615D01*
X2615Y2447D01*
Y2447D01*
Y2447D01*
D01*
D01*
X2615D01*
Y2447D01*
X2622Y2442D01*
X2631Y2441D01*
X2672D01*
X2681Y2442D01*
X2681Y2443D01*
X2686Y2440D01*
Y2289D01*
X2687Y2280D01*
X2692Y2273D01*
X2692Y2273D01*
X2692Y2273D01*
X2705Y2260D01*
X2705Y2260D01*
X2705D01*
X2705Y2260D01*
X2705D01*
X2705Y2260D01*
Y2260D01*
Y2260D01*
D01*
D01*
X2705D01*
Y2260D01*
X2712Y2255D01*
X2721Y2254D01*
X2736D01*
X2742Y2249D01*
X2749Y2246D01*
X2757Y2245D01*
X2765Y2246D01*
X2772Y2249D01*
X2779Y2254D01*
X2784Y2261D01*
X2787Y2268D01*
X2788Y2276D01*
X2787Y2284D01*
X2784Y2291D01*
X2779Y2298D01*
X2772Y2303D01*
X2765Y2306D01*
X2757Y2307D01*
X2749Y2306D01*
X2742Y2303D01*
X2736Y2298D01*
X2730D01*
Y2449D01*
X2735Y2455D01*
X2738Y2462D01*
X2739Y2470D01*
X2738Y2478D01*
X2735Y2485D01*
X2734Y2486D01*
X2736Y2491D01*
X2839D01*
X2890Y2440D01*
Y2388D01*
X2885Y2382D01*
X2882Y2375D01*
X2881Y2367D01*
X2882Y2359D01*
X2885Y2352D01*
X2890Y2345D01*
X2897Y2340D01*
X2904Y2337D01*
X2912Y2336D01*
X2920Y2337D01*
X2927Y2340D01*
X2934Y2345D01*
X2939Y2352D01*
X2942Y2359D01*
X2943Y2367D01*
X2942Y2375D01*
X2939Y2382D01*
X2934Y2388D01*
Y2449D01*
X2934Y2449D01*
X2934Y2449D01*
Y2449D01*
X2934D01*
X2934Y2449D01*
X2933Y2458D01*
X2928Y2465D01*
X2864Y2529D01*
X2857Y2534D01*
X2848Y2535D01*
X2702D01*
X2693Y2534D01*
X2686Y2529D01*
X2675Y2518D01*
X2669Y2522D01*
X2662Y2525D01*
X2654Y2526D01*
X2649Y2525D01*
X2645Y2528D01*
Y2555D01*
X2644Y2564D01*
X2639Y2571D01*
X2621Y2589D01*
X2620Y2596D01*
X2617Y2603D01*
X2616Y2604D01*
X2628Y2616D01*
X2628Y2616D01*
X2628Y2616D01*
X2633Y2623D01*
X2633Y2624D01*
X2641Y2627D01*
X2652Y2636D01*
X2661Y2647D01*
X2667Y2661D01*
X2669Y2675D01*
X2667Y2690D01*
X2661Y2703D01*
X2652Y2715D01*
X2641Y2724D01*
X2627Y2729D01*
X2613Y2731D01*
X2598Y2729D01*
X2585Y2724D01*
X2573Y2715D01*
X2565Y2704D01*
X2560D01*
X2552Y2715D01*
X2541Y2724D01*
X2527Y2729D01*
X2513Y2731D01*
X2498Y2729D01*
X2493Y2727D01*
X2454Y2766D01*
X2446Y2771D01*
X2438Y2772D01*
X1989D01*
X1980Y2771D01*
X1973Y2766D01*
X1947Y2740D01*
X1942Y2733D01*
X1941Y2728D01*
X1937Y2725D01*
X1927Y2729D01*
X1913Y2731D01*
X1898Y2729D01*
X1885Y2724D01*
X1873Y2715D01*
X1867Y2706D01*
X1862Y2708D01*
X1861Y2713D01*
X1856Y2720D01*
X1786Y2790D01*
X1779Y2795D01*
X1770Y2796D01*
X1576D01*
X1567Y2795D01*
X1560Y2790D01*
X1537Y2766D01*
X1532Y2759D01*
X1530Y2751D01*
Y2732D01*
X1525Y2731D01*
X1524Y2739D01*
X1519Y2746D01*
X1464Y2801D01*
X1457Y2806D01*
X1457Y2806D01*
X1457D01*
Y2806D01*
X1457Y2806D01*
X3017D01*
X3115Y2708D01*
D02*
G37*
G36*
X1788Y2724D02*
X1785Y2721D01*
X1781Y2724D01*
X1767Y2729D01*
X1753Y2731D01*
X1738Y2729D01*
X1725Y2724D01*
X1713Y2715D01*
X1705Y2704D01*
X1700D01*
X1692Y2715D01*
X1681Y2724D01*
X1667Y2729D01*
X1653Y2731D01*
X1638Y2729D01*
X1625Y2724D01*
X1613Y2715D01*
X1605Y2704D01*
X1600D01*
X1592Y2715D01*
X1581Y2724D01*
X1575Y2726D01*
Y2741D01*
X1585Y2752D01*
X1761D01*
X1788Y2724D01*
D02*
G37*
G36*
X1266Y2514D02*
X1266Y2511D01*
X1269Y2504D01*
X1274Y2497D01*
X1281Y2492D01*
X1288Y2489D01*
X1295Y2488D01*
X1309Y2475D01*
Y2400D01*
X1304Y2399D01*
X1299Y2406D01*
X1259Y2445D01*
Y2512D01*
X1263Y2515D01*
X1266Y2514D01*
D02*
G37*
G36*
X1813Y2408D02*
X1818Y2401D01*
X1825Y2396D01*
X1832Y2393D01*
X1840Y2392D01*
X1848Y2393D01*
X1854Y2396D01*
X1857Y2392D01*
X1774Y2308D01*
X1769Y2308D01*
X1762Y2305D01*
X1755Y2300D01*
X1750Y2293D01*
X1747Y2286D01*
X1746Y2279D01*
X1705Y2238D01*
X1700Y2231D01*
X1699Y2222D01*
Y1917D01*
X1694Y1915D01*
X1681Y1927D01*
Y2302D01*
X1719Y2339D01*
X1724Y2346D01*
X1725Y2355D01*
Y2355D01*
X1730Y2358D01*
X1732Y2356D01*
X1739Y2353D01*
X1747Y2352D01*
X1755Y2353D01*
X1762Y2356D01*
X1769Y2361D01*
X1774Y2368D01*
X1777Y2375D01*
X1778Y2383D01*
X1777Y2389D01*
X1784Y2390D01*
X1791Y2393D01*
X1798Y2398D01*
X1803Y2405D01*
X1806Y2412D01*
X1806Y2413D01*
X1811Y2414D01*
X1813Y2408D01*
D02*
G37*
G36*
X1366Y2492D02*
Y2425D01*
X1367Y2416D01*
X1372Y2409D01*
X1372Y2409D01*
X1372Y2409D01*
X1430Y2352D01*
Y2343D01*
X1425Y2341D01*
X1417Y2349D01*
X1410Y2354D01*
X1401Y2355D01*
X1365D01*
X1362Y2359D01*
X1362Y2361D01*
X1361Y2369D01*
X1358Y2376D01*
X1353Y2382D01*
Y2484D01*
X1352Y2493D01*
X1347Y2500D01*
X1327Y2520D01*
X1326Y2525D01*
X1331Y2527D01*
X1366Y2492D01*
D02*
G37*
%LPC*%
G36*
X1141Y1471D02*
X1133Y1470D01*
X1126Y1467D01*
X1119Y1462D01*
X1114Y1455D01*
X1111Y1448D01*
X1110Y1440D01*
X1111Y1432D01*
X1114Y1425D01*
X1119Y1418D01*
X1126Y1413D01*
X1133Y1410D01*
X1141Y1409D01*
X1149Y1410D01*
X1156Y1413D01*
X1163Y1418D01*
X1168Y1425D01*
X1171Y1432D01*
X1172Y1440D01*
X1171Y1448D01*
X1168Y1455D01*
X1163Y1462D01*
X1156Y1467D01*
X1149Y1470D01*
X1141Y1471D01*
D02*
G37*
G36*
X177Y255D02*
X162Y253D01*
X148Y249D01*
X134Y242D01*
X122Y232D01*
X113Y220D01*
X106Y207D01*
X101Y192D01*
X100Y177D01*
X101Y162D01*
X106Y148D01*
X113Y134D01*
X122Y122D01*
X134Y113D01*
X148Y106D01*
X162Y101D01*
X177Y100D01*
X192Y101D01*
X207Y106D01*
X220Y113D01*
X232Y122D01*
X242Y134D01*
X249Y148D01*
X253Y162D01*
X255Y177D01*
X253Y192D01*
X249Y207D01*
X242Y220D01*
X232Y232D01*
X220Y242D01*
X207Y249D01*
X192Y253D01*
X177Y255D01*
D02*
G37*
G36*
X1515Y994D02*
X1507Y993D01*
X1500Y990D01*
X1493Y985D01*
X1488Y978D01*
X1485Y971D01*
X1484Y963D01*
X1485Y955D01*
X1488Y948D01*
X1493Y941D01*
X1500Y936D01*
X1507Y933D01*
X1515Y932D01*
X1523Y933D01*
X1530Y936D01*
X1537Y941D01*
X1542Y948D01*
X1545Y955D01*
X1546Y963D01*
X1545Y971D01*
X1542Y978D01*
X1537Y985D01*
X1530Y990D01*
X1523Y993D01*
X1515Y994D01*
D02*
G37*
G36*
X2991Y1362D02*
X2976Y1360D01*
X2963Y1355D01*
X2951Y1346D01*
X2942Y1334D01*
X2936Y1321D01*
X2935Y1306D01*
X2936Y1292D01*
X2942Y1278D01*
X2951Y1267D01*
X2961Y1259D01*
Y1254D01*
X2951Y1246D01*
X2942Y1234D01*
X2936Y1221D01*
X2935Y1206D01*
X2936Y1192D01*
X2942Y1178D01*
X2951Y1167D01*
X2963Y1158D01*
X2976Y1152D01*
X2991Y1150D01*
X3005Y1152D01*
X3019Y1158D01*
X3030Y1167D01*
X3039Y1178D01*
X3045Y1192D01*
X3047Y1206D01*
X3045Y1221D01*
X3039Y1234D01*
X3030Y1246D01*
X3019Y1255D01*
Y1258D01*
X3030Y1267D01*
X3039Y1278D01*
X3045Y1292D01*
X3047Y1306D01*
X3045Y1321D01*
X3039Y1334D01*
X3030Y1346D01*
X3019Y1355D01*
X3005Y1360D01*
X2991Y1362D01*
D02*
G37*
G36*
X1278Y1038D02*
X1270Y1037D01*
X1263Y1034D01*
X1256Y1029D01*
X1251Y1022D01*
X1251Y1022D01*
X1250Y1022D01*
X1242Y1021D01*
X1235Y1018D01*
X1228Y1013D01*
X1223Y1006D01*
X1220Y999D01*
X1219Y991D01*
X1220Y983D01*
X1223Y976D01*
X1228Y969D01*
X1235Y964D01*
X1242Y961D01*
X1250Y960D01*
X1258Y961D01*
X1265Y964D01*
X1272Y969D01*
X1277Y976D01*
X1277Y976D01*
X1278Y976D01*
X1286Y977D01*
X1293Y980D01*
X1300Y985D01*
X1305Y992D01*
X1308Y999D01*
X1309Y1007D01*
X1308Y1015D01*
X1305Y1022D01*
X1300Y1029D01*
X1293Y1034D01*
X1286Y1037D01*
X1278Y1038D01*
D02*
G37*
G36*
X872Y1270D02*
X864Y1269D01*
X857Y1266D01*
X850Y1261D01*
X845Y1254D01*
X842Y1247D01*
X841Y1239D01*
X842Y1231D01*
X845Y1224D01*
X850Y1217D01*
X857Y1212D01*
X864Y1209D01*
X864Y1209D01*
X863Y1205D01*
X863Y1205D01*
D01*
X860Y1198D01*
X859Y1190D01*
X860Y1182D01*
X861Y1181D01*
X860Y1178D01*
X853Y1173D01*
X848Y1166D01*
X845Y1159D01*
X844Y1151D01*
X845Y1143D01*
X848Y1136D01*
X853Y1129D01*
X860Y1124D01*
X867Y1121D01*
X875Y1120D01*
X883Y1121D01*
X890Y1124D01*
X897Y1129D01*
X902Y1136D01*
X905Y1143D01*
X906Y1151D01*
X905Y1159D01*
X903Y1162D01*
X905Y1163D01*
X912Y1168D01*
X917Y1175D01*
X920Y1182D01*
X921Y1190D01*
X920Y1198D01*
X917Y1205D01*
X912Y1212D01*
X905Y1217D01*
X898Y1220D01*
X897Y1222D01*
X899Y1224D01*
X902Y1231D01*
X903Y1239D01*
X902Y1247D01*
X899Y1254D01*
X894Y1261D01*
X887Y1266D01*
X880Y1269D01*
X872Y1270D01*
D02*
G37*
G36*
X1913Y831D02*
X1898Y829D01*
X1885Y824D01*
X1873Y815D01*
X1864Y803D01*
X1859Y790D01*
X1857Y775D01*
X1859Y761D01*
X1864Y747D01*
X1873Y736D01*
X1885Y727D01*
X1898Y721D01*
X1913Y719D01*
X1927Y721D01*
X1941Y727D01*
X1952Y736D01*
X1961Y747D01*
X1967Y761D01*
X1969Y775D01*
X1967Y790D01*
X1961Y803D01*
X1952Y815D01*
X1941Y824D01*
X1927Y829D01*
X1913Y831D01*
D02*
G37*
G36*
X177Y609D02*
X162Y607D01*
X148Y603D01*
X134Y596D01*
X122Y586D01*
X113Y575D01*
X106Y561D01*
X101Y547D01*
X100Y531D01*
X101Y516D01*
X106Y502D01*
X113Y488D01*
X122Y477D01*
X134Y467D01*
X148Y460D01*
X162Y456D01*
X177Y454D01*
X192Y456D01*
X207Y460D01*
X220Y467D01*
X232Y477D01*
X242Y488D01*
X249Y502D01*
X253Y516D01*
X255Y531D01*
X253Y547D01*
X249Y561D01*
X242Y575D01*
X232Y586D01*
X220Y596D01*
X207Y603D01*
X192Y607D01*
X177Y609D01*
D02*
G37*
G36*
X614Y507D02*
X606Y506D01*
X599Y503D01*
X597Y501D01*
X595Y503D01*
X588Y506D01*
X580Y507D01*
X572Y506D01*
X565Y503D01*
X558Y498D01*
X553Y491D01*
X550Y484D01*
X549Y476D01*
X550Y468D01*
X553Y461D01*
X558Y454D01*
X565Y449D01*
X572Y446D01*
X580Y445D01*
X588Y446D01*
X595Y449D01*
X597Y451D01*
X599Y449D01*
X606Y446D01*
X614Y445D01*
X622Y446D01*
X629Y449D01*
X636Y454D01*
X641Y461D01*
X644Y468D01*
X645Y476D01*
X644Y484D01*
X641Y491D01*
X636Y498D01*
X629Y503D01*
X622Y506D01*
X614Y507D01*
D02*
G37*
G36*
X3012Y609D02*
X2997Y607D01*
X2982Y603D01*
X2969Y596D01*
X2957Y586D01*
X2947Y575D01*
X2940Y561D01*
X2936Y547D01*
X2934Y531D01*
X2936Y516D01*
X2940Y502D01*
X2947Y488D01*
X2957Y477D01*
X2969Y467D01*
X2982Y460D01*
X2997Y456D01*
X3012Y454D01*
X3027Y456D01*
X3041Y460D01*
X3055Y467D01*
X3067Y477D01*
X3076Y488D01*
X3083Y502D01*
X3088Y516D01*
X3089Y531D01*
X3088Y547D01*
X3083Y561D01*
X3076Y575D01*
X3067Y586D01*
X3055Y596D01*
X3041Y603D01*
X3027Y607D01*
X3012Y609D01*
D02*
G37*
G36*
X2790Y839D02*
X2782Y838D01*
X2775Y835D01*
X2768Y830D01*
X2763Y823D01*
X2760Y816D01*
X2759Y808D01*
X2760Y800D01*
X2763Y793D01*
X2768Y786D01*
X2775Y781D01*
X2782Y778D01*
X2790Y777D01*
X2798Y778D01*
X2805Y781D01*
X2812Y786D01*
X2817Y793D01*
X2820Y800D01*
X2821Y808D01*
X2820Y816D01*
X2817Y823D01*
X2812Y830D01*
X2805Y835D01*
X2798Y838D01*
X2790Y839D01*
D02*
G37*
G36*
X3012Y255D02*
X2997Y253D01*
X2982Y249D01*
X2969Y242D01*
X2957Y232D01*
X2947Y220D01*
X2940Y207D01*
X2936Y192D01*
X2934Y177D01*
X2936Y162D01*
X2940Y148D01*
X2947Y134D01*
X2957Y122D01*
X2969Y113D01*
X2982Y106D01*
X2997Y101D01*
X3012Y100D01*
X3027Y101D01*
X3041Y106D01*
X3055Y113D01*
X3067Y122D01*
X3076Y134D01*
X3083Y148D01*
X3088Y162D01*
X3089Y177D01*
X3088Y192D01*
X3083Y207D01*
X3076Y220D01*
X3067Y232D01*
X3055Y242D01*
X3041Y249D01*
X3027Y253D01*
X3012Y255D01*
D02*
G37*
G36*
X305Y1136D02*
X291Y1134D01*
X277Y1128D01*
X265Y1120D01*
X257Y1108D01*
X251Y1094D01*
X249Y1080D01*
X251Y1066D01*
X257Y1052D01*
X265Y1040D01*
X276Y1033D01*
Y1028D01*
X265Y1020D01*
X257Y1008D01*
X251Y994D01*
X249Y980D01*
X251Y966D01*
X257Y952D01*
X265Y940D01*
X277Y932D01*
X291Y926D01*
X305Y924D01*
X319Y926D01*
X333Y932D01*
X345Y940D01*
X353Y952D01*
X359Y966D01*
X361Y980D01*
X359Y994D01*
X353Y1008D01*
X345Y1020D01*
X333Y1028D01*
Y1032D01*
X345Y1040D01*
X353Y1052D01*
X359Y1066D01*
X361Y1080D01*
X359Y1094D01*
X353Y1108D01*
X345Y1120D01*
X333Y1128D01*
X319Y1134D01*
X305Y1136D01*
D02*
G37*
G36*
X386Y202D02*
X373Y200D01*
X360Y195D01*
X350Y187D01*
X342Y177D01*
X337Y164D01*
X335Y151D01*
X337Y138D01*
X342Y126D01*
X350Y115D01*
X360Y107D01*
X373Y102D01*
X386Y100D01*
X399Y102D01*
X411Y107D01*
X422Y115D01*
X430Y126D01*
X435Y138D01*
X437Y151D01*
X435Y164D01*
X430Y177D01*
X422Y187D01*
X411Y195D01*
X399Y200D01*
X386Y202D01*
D02*
G37*
G36*
X2991Y1075D02*
X2976Y1073D01*
X2963Y1067D01*
X2951Y1058D01*
X2942Y1047D01*
X2936Y1033D01*
X2935Y1019D01*
X2936Y1004D01*
X2942Y991D01*
X2951Y979D01*
X2961Y971D01*
Y966D01*
X2951Y958D01*
X2942Y947D01*
X2936Y933D01*
X2935Y919D01*
X2936Y904D01*
X2942Y891D01*
X2951Y879D01*
X2963Y870D01*
X2976Y865D01*
X2991Y863D01*
X3005Y865D01*
X3019Y870D01*
X3030Y879D01*
X3039Y891D01*
X3045Y904D01*
X3047Y919D01*
X3045Y933D01*
X3039Y947D01*
X3030Y958D01*
X3019Y967D01*
Y970D01*
X3030Y979D01*
X3039Y991D01*
X3045Y1004D01*
X3047Y1019D01*
X3045Y1033D01*
X3039Y1047D01*
X3030Y1058D01*
X3019Y1067D01*
X3005Y1073D01*
X2991Y1075D01*
D02*
G37*
G36*
X2202Y1499D02*
X2194Y1498D01*
X2187Y1495D01*
X2180Y1490D01*
X2175Y1483D01*
X2172Y1476D01*
X2171Y1468D01*
X2172Y1460D01*
X2175Y1453D01*
X2180Y1446D01*
X2187Y1441D01*
X2194Y1438D01*
X2202Y1437D01*
X2210Y1438D01*
X2217Y1441D01*
X2224Y1446D01*
X2229Y1453D01*
X2232Y1460D01*
X2233Y1468D01*
X2232Y1476D01*
X2229Y1483D01*
X2224Y1490D01*
X2217Y1495D01*
X2210Y1498D01*
X2202Y1499D01*
D02*
G37*
G36*
X921Y1909D02*
X913Y1908D01*
X906Y1905D01*
X899Y1900D01*
X894Y1893D01*
X891Y1886D01*
X890Y1878D01*
X891Y1870D01*
X894Y1863D01*
X899Y1856D01*
X906Y1851D01*
X913Y1848D01*
X921Y1847D01*
X929Y1848D01*
X936Y1851D01*
X943Y1856D01*
X948Y1863D01*
X951Y1870D01*
X952Y1878D01*
X951Y1886D01*
X948Y1893D01*
X943Y1900D01*
X936Y1905D01*
X929Y1908D01*
X921Y1909D01*
D02*
G37*
G36*
X576Y2153D02*
X566Y2151D01*
X557Y2148D01*
X549Y2142D01*
X543Y2134D01*
X539Y2125D01*
X538Y2115D01*
X539Y2105D01*
X543Y2096D01*
X549Y2088D01*
X557Y2082D01*
X566Y2078D01*
X576Y2077D01*
X586Y2078D01*
X595Y2082D01*
X603Y2088D01*
X609Y2096D01*
X613Y2105D01*
X614Y2115D01*
X613Y2125D01*
X609Y2134D01*
X603Y2142D01*
X595Y2148D01*
X586Y2151D01*
X576Y2153D01*
D02*
G37*
G36*
X674D02*
X664Y2151D01*
X655Y2148D01*
X647Y2142D01*
X641Y2134D01*
X637Y2125D01*
X636Y2115D01*
X637Y2105D01*
X641Y2096D01*
X647Y2088D01*
X655Y2082D01*
X664Y2078D01*
X674Y2077D01*
X684Y2078D01*
X693Y2082D01*
X701Y2088D01*
X707Y2096D01*
X711Y2105D01*
X712Y2115D01*
X711Y2125D01*
X707Y2134D01*
X701Y2142D01*
X693Y2148D01*
X684Y2151D01*
X674Y2153D01*
D02*
G37*
G36*
X652Y1832D02*
X644Y1831D01*
X637Y1828D01*
X630Y1823D01*
X625Y1816D01*
X622Y1809D01*
X621Y1801D01*
X622Y1793D01*
X625Y1786D01*
X630Y1779D01*
X637Y1774D01*
X644Y1771D01*
X652Y1770D01*
X660Y1771D01*
X667Y1774D01*
X674Y1779D01*
X679Y1786D01*
X682Y1793D01*
X683Y1801D01*
X682Y1809D01*
X679Y1816D01*
X674Y1823D01*
X667Y1828D01*
X660Y1831D01*
X652Y1832D01*
D02*
G37*
G36*
X2282Y1739D02*
X2274Y1738D01*
X2267Y1735D01*
X2260Y1730D01*
X2255Y1723D01*
X2252Y1716D01*
X2251Y1708D01*
X2252Y1700D01*
X2255Y1693D01*
X2260Y1686D01*
X2267Y1681D01*
X2274Y1678D01*
X2282Y1677D01*
X2290Y1678D01*
X2297Y1681D01*
X2304Y1686D01*
X2309Y1693D01*
X2312Y1700D01*
X2313Y1708D01*
X2312Y1716D01*
X2309Y1723D01*
X2304Y1730D01*
X2297Y1735D01*
X2290Y1738D01*
X2282Y1739D01*
D02*
G37*
G36*
X2362D02*
X2354Y1738D01*
X2347Y1735D01*
X2340Y1730D01*
X2335Y1723D01*
X2332Y1716D01*
X2331Y1708D01*
X2332Y1700D01*
X2335Y1693D01*
X2340Y1686D01*
X2347Y1681D01*
X2354Y1678D01*
X2362Y1677D01*
X2370Y1678D01*
X2377Y1681D01*
X2384Y1686D01*
X2389Y1693D01*
X2392Y1700D01*
X2393Y1708D01*
X2392Y1716D01*
X2389Y1723D01*
X2384Y1730D01*
X2377Y1735D01*
X2370Y1738D01*
X2362Y1739D01*
D02*
G37*
G36*
X2991Y2149D02*
X2976Y2147D01*
X2963Y2141D01*
X2951Y2132D01*
X2942Y2121D01*
X2936Y2107D01*
X2935Y2093D01*
X2936Y2078D01*
X2942Y2065D01*
X2951Y2053D01*
X2961Y2045D01*
Y2040D01*
X2951Y2032D01*
X2942Y2021D01*
X2936Y2007D01*
X2935Y1993D01*
X2936Y1978D01*
X2942Y1965D01*
X2951Y1953D01*
X2961Y1945D01*
Y1940D01*
X2951Y1932D01*
X2942Y1921D01*
X2936Y1907D01*
X2935Y1893D01*
X2936Y1878D01*
X2942Y1865D01*
X2951Y1853D01*
X2961Y1845D01*
Y1840D01*
X2951Y1832D01*
X2942Y1821D01*
X2936Y1807D01*
X2935Y1793D01*
X2936Y1778D01*
X2942Y1765D01*
X2951Y1753D01*
X2963Y1744D01*
X2976Y1739D01*
X2991Y1737D01*
X3005Y1739D01*
X3019Y1744D01*
X3030Y1753D01*
X3039Y1765D01*
X3045Y1778D01*
X3047Y1793D01*
X3045Y1807D01*
X3039Y1821D01*
X3030Y1832D01*
X3019Y1841D01*
Y1844D01*
X3030Y1853D01*
X3039Y1865D01*
X3045Y1878D01*
X3047Y1893D01*
X3045Y1907D01*
X3039Y1921D01*
X3030Y1932D01*
X3019Y1941D01*
Y1944D01*
X3030Y1953D01*
X3039Y1965D01*
X3045Y1978D01*
X3047Y1993D01*
X3045Y2007D01*
X3039Y2021D01*
X3030Y2032D01*
X3019Y2041D01*
Y2044D01*
X3030Y2053D01*
X3039Y2065D01*
X3045Y2078D01*
X3047Y2093D01*
X3045Y2107D01*
X3039Y2121D01*
X3030Y2132D01*
X3019Y2141D01*
X3005Y2147D01*
X2991Y2149D01*
D02*
G37*
G36*
X956Y2549D02*
X948Y2548D01*
X941Y2545D01*
X934Y2540D01*
X929Y2533D01*
X926Y2526D01*
X925Y2518D01*
X926Y2510D01*
X929Y2503D01*
X934Y2496D01*
X941Y2491D01*
X948Y2488D01*
X956Y2487D01*
X964Y2488D01*
X971Y2491D01*
X978Y2496D01*
X983Y2503D01*
X986Y2510D01*
X987Y2518D01*
X986Y2526D01*
X983Y2533D01*
X978Y2540D01*
X971Y2545D01*
X964Y2548D01*
X956Y2549D01*
D02*
G37*
G36*
X177Y2735D02*
X162Y2733D01*
X148Y2729D01*
X134Y2722D01*
X122Y2712D01*
X113Y2700D01*
X106Y2687D01*
X101Y2673D01*
X100Y2657D01*
X101Y2642D01*
X106Y2628D01*
X113Y2614D01*
X122Y2603D01*
X134Y2593D01*
X148Y2586D01*
X162Y2582D01*
X177Y2580D01*
X192Y2582D01*
X207Y2586D01*
X220Y2593D01*
X232Y2603D01*
X242Y2614D01*
X249Y2628D01*
X253Y2642D01*
X255Y2657D01*
X253Y2673D01*
X249Y2687D01*
X242Y2700D01*
X232Y2712D01*
X220Y2722D01*
X207Y2729D01*
X192Y2733D01*
X177Y2735D01*
D02*
G37*
G36*
X3012D02*
X2997Y2733D01*
X2982Y2729D01*
X2969Y2722D01*
X2957Y2712D01*
X2947Y2700D01*
X2940Y2687D01*
X2936Y2673D01*
X2934Y2657D01*
X2936Y2642D01*
X2940Y2628D01*
X2947Y2614D01*
X2957Y2603D01*
X2969Y2593D01*
X2982Y2586D01*
X2997Y2582D01*
X3012Y2580D01*
X3027Y2582D01*
X3041Y2586D01*
X3055Y2593D01*
X3067Y2603D01*
X3076Y2614D01*
X3083Y2628D01*
X3088Y2642D01*
X3089Y2657D01*
X3088Y2673D01*
X3083Y2687D01*
X3076Y2700D01*
X3067Y2712D01*
X3055Y2722D01*
X3041Y2729D01*
X3027Y2733D01*
X3012Y2735D01*
D02*
G37*
G36*
X535Y2597D02*
X527Y2596D01*
X520Y2593D01*
X513Y2588D01*
X508Y2581D01*
X505Y2574D01*
X504Y2566D01*
X505Y2558D01*
X508Y2551D01*
X511Y2548D01*
Y2478D01*
X504Y2475D01*
X497Y2470D01*
X492Y2463D01*
X489Y2455D01*
X488Y2446D01*
Y2279D01*
X489Y2271D01*
X492Y2263D01*
X497Y2256D01*
X504Y2251D01*
X512Y2247D01*
X521Y2246D01*
X551D01*
X559Y2247D01*
X567Y2251D01*
X574Y2256D01*
X580Y2263D01*
X583Y2271D01*
X584Y2279D01*
Y2446D01*
X583Y2455D01*
X580Y2463D01*
X574Y2470D01*
X567Y2475D01*
X559Y2478D01*
Y2548D01*
X562Y2551D01*
X565Y2558D01*
X566Y2566D01*
X565Y2574D01*
X562Y2581D01*
X557Y2588D01*
X550Y2593D01*
X543Y2596D01*
X535Y2597D01*
D02*
G37*
G36*
X1148Y2144D02*
X1140Y2143D01*
X1133Y2140D01*
X1126Y2135D01*
X1121Y2128D01*
X1118Y2121D01*
X1117Y2113D01*
X1118Y2105D01*
X1121Y2098D01*
X1126Y2091D01*
X1133Y2086D01*
X1140Y2083D01*
X1148Y2082D01*
X1156Y2083D01*
X1163Y2086D01*
X1170Y2091D01*
X1175Y2098D01*
X1178Y2105D01*
X1179Y2113D01*
X1178Y2121D01*
X1175Y2128D01*
X1170Y2135D01*
X1163Y2140D01*
X1156Y2143D01*
X1148Y2144D01*
D02*
G37*
G36*
X177Y2381D02*
X162Y2379D01*
X148Y2375D01*
X134Y2368D01*
X122Y2358D01*
X113Y2346D01*
X106Y2333D01*
X101Y2318D01*
X100Y2303D01*
X101Y2288D01*
X106Y2274D01*
X113Y2260D01*
X122Y2248D01*
X134Y2239D01*
X148Y2232D01*
X162Y2227D01*
X177Y2226D01*
X192Y2227D01*
X207Y2232D01*
X220Y2239D01*
X232Y2248D01*
X242Y2260D01*
X249Y2274D01*
X253Y2288D01*
X255Y2303D01*
X253Y2318D01*
X249Y2333D01*
X242Y2346D01*
X232Y2358D01*
X220Y2368D01*
X207Y2375D01*
X192Y2379D01*
X177Y2381D01*
D02*
G37*
G36*
X3012D02*
X2997Y2379D01*
X2982Y2375D01*
X2969Y2368D01*
X2957Y2358D01*
X2947Y2346D01*
X2940Y2333D01*
X2936Y2318D01*
X2934Y2303D01*
X2936Y2288D01*
X2940Y2274D01*
X2947Y2260D01*
X2957Y2248D01*
X2969Y2239D01*
X2982Y2232D01*
X2997Y2227D01*
X3012Y2226D01*
X3027Y2227D01*
X3041Y2232D01*
X3055Y2239D01*
X3067Y2248D01*
X3076Y2260D01*
X3083Y2274D01*
X3088Y2288D01*
X3089Y2303D01*
X3088Y2318D01*
X3083Y2333D01*
X3076Y2346D01*
X3067Y2358D01*
X3055Y2368D01*
X3041Y2375D01*
X3027Y2379D01*
X3012Y2381D01*
D02*
G37*
G36*
X2282Y1579D02*
X2274Y1578D01*
X2267Y1575D01*
X2260Y1570D01*
X2255Y1563D01*
X2252Y1556D01*
X2251Y1548D01*
X2252Y1540D01*
X2255Y1533D01*
X2260Y1526D01*
X2267Y1521D01*
X2274Y1518D01*
X2282Y1517D01*
X2290Y1518D01*
X2297Y1521D01*
X2304Y1526D01*
X2309Y1533D01*
X2312Y1540D01*
X2313Y1548D01*
X2312Y1556D01*
X2309Y1563D01*
X2304Y1570D01*
X2297Y1575D01*
X2290Y1578D01*
X2282Y1579D01*
D02*
G37*
G36*
X2362D02*
X2354Y1578D01*
X2347Y1575D01*
X2340Y1570D01*
X2335Y1563D01*
X2332Y1556D01*
X2331Y1548D01*
X2332Y1540D01*
X2335Y1533D01*
X2340Y1526D01*
X2347Y1521D01*
X2354Y1518D01*
X2362Y1517D01*
X2370Y1518D01*
X2377Y1521D01*
X2384Y1526D01*
X2389Y1533D01*
X2392Y1540D01*
X2393Y1548D01*
X2392Y1556D01*
X2389Y1563D01*
X2384Y1570D01*
X2377Y1575D01*
X2370Y1578D01*
X2362Y1579D01*
D02*
G37*
G36*
X2818Y1618D02*
X2810Y1617D01*
X2803Y1614D01*
X2796Y1609D01*
X2791Y1602D01*
X2788Y1595D01*
X2787Y1587D01*
X2788Y1579D01*
X2791Y1572D01*
X2796Y1565D01*
X2803Y1560D01*
X2810Y1557D01*
X2818Y1556D01*
X2826Y1557D01*
X2833Y1560D01*
X2840Y1565D01*
X2845Y1572D01*
X2848Y1579D01*
X2849Y1587D01*
X2848Y1595D01*
X2845Y1602D01*
X2840Y1609D01*
X2833Y1614D01*
X2826Y1617D01*
X2818Y1618D01*
D02*
G37*
G36*
X2202Y1579D02*
X2194Y1578D01*
X2187Y1575D01*
X2180Y1570D01*
X2175Y1563D01*
X2172Y1556D01*
X2171Y1548D01*
X2172Y1540D01*
X2175Y1533D01*
X2180Y1526D01*
X2187Y1521D01*
X2194Y1518D01*
X2202Y1517D01*
X2210Y1518D01*
X2217Y1521D01*
X2224Y1526D01*
X2229Y1533D01*
X2232Y1540D01*
X2233Y1548D01*
X2232Y1556D01*
X2229Y1563D01*
X2224Y1570D01*
X2217Y1575D01*
X2210Y1578D01*
X2202Y1579D01*
D02*
G37*
G36*
X2282Y1499D02*
X2274Y1498D01*
X2267Y1495D01*
X2260Y1490D01*
X2255Y1483D01*
X2252Y1476D01*
X2251Y1468D01*
X2252Y1460D01*
X2255Y1453D01*
X2260Y1446D01*
X2267Y1441D01*
X2274Y1438D01*
X2282Y1437D01*
X2290Y1438D01*
X2297Y1441D01*
X2304Y1446D01*
X2309Y1453D01*
X2312Y1460D01*
X2313Y1468D01*
X2312Y1476D01*
X2309Y1483D01*
X2304Y1490D01*
X2297Y1495D01*
X2290Y1498D01*
X2282Y1499D01*
D02*
G37*
G36*
X2362D02*
X2354Y1498D01*
X2347Y1495D01*
X2340Y1490D01*
X2335Y1483D01*
X2332Y1476D01*
X2331Y1468D01*
X2332Y1460D01*
X2335Y1453D01*
X2340Y1446D01*
X2347Y1441D01*
X2354Y1438D01*
X2362Y1437D01*
X2370Y1438D01*
X2377Y1441D01*
X2384Y1446D01*
X2389Y1453D01*
X2392Y1460D01*
X2393Y1468D01*
X2392Y1476D01*
X2389Y1483D01*
X2384Y1490D01*
X2377Y1495D01*
X2370Y1498D01*
X2362Y1499D01*
D02*
G37*
G36*
X213Y1568D02*
X204Y1566D01*
X195Y1563D01*
X187Y1557D01*
X182Y1550D01*
X178Y1541D01*
X177Y1532D01*
X178Y1522D01*
X182Y1514D01*
X187Y1506D01*
X195Y1500D01*
X204Y1497D01*
X213Y1496D01*
X222Y1497D01*
X231Y1500D01*
X238Y1506D01*
X244Y1514D01*
X248Y1522D01*
X249Y1532D01*
X248Y1541D01*
X244Y1550D01*
X238Y1557D01*
X231Y1563D01*
X222Y1566D01*
X213Y1568D01*
D02*
G37*
G36*
X652Y1667D02*
X644Y1666D01*
X637Y1663D01*
X630Y1658D01*
X625Y1651D01*
X622Y1644D01*
X621Y1636D01*
X622Y1628D01*
X625Y1621D01*
X630Y1614D01*
X637Y1609D01*
X644Y1606D01*
X652Y1605D01*
X660Y1606D01*
X667Y1609D01*
X674Y1614D01*
X679Y1621D01*
X682Y1628D01*
X683Y1636D01*
X682Y1644D01*
X679Y1651D01*
X674Y1658D01*
X667Y1663D01*
X660Y1666D01*
X652Y1667D01*
D02*
G37*
G36*
X213Y1741D02*
X204Y1740D01*
X195Y1736D01*
X187Y1730D01*
X182Y1723D01*
X178Y1714D01*
X177Y1705D01*
X178Y1695D01*
X182Y1687D01*
X187Y1679D01*
X195Y1674D01*
X204Y1670D01*
X213Y1669D01*
X222Y1670D01*
X231Y1674D01*
X238Y1679D01*
X244Y1687D01*
X248Y1695D01*
X249Y1705D01*
X248Y1714D01*
X244Y1723D01*
X238Y1730D01*
X231Y1736D01*
X222Y1740D01*
X213Y1741D01*
D02*
G37*
G36*
X2202Y1739D02*
X2194Y1738D01*
X2187Y1735D01*
X2180Y1730D01*
X2175Y1723D01*
X2172Y1716D01*
X2171Y1708D01*
X2172Y1700D01*
X2175Y1693D01*
X2180Y1686D01*
X2187Y1681D01*
X2194Y1678D01*
X2202Y1677D01*
X2210Y1678D01*
X2217Y1681D01*
X2224Y1686D01*
X2229Y1693D01*
X2232Y1700D01*
X2233Y1708D01*
X2232Y1716D01*
X2229Y1723D01*
X2224Y1730D01*
X2217Y1735D01*
X2210Y1738D01*
X2202Y1739D01*
D02*
G37*
G36*
X2362Y1659D02*
X2354Y1658D01*
X2347Y1655D01*
X2340Y1650D01*
X2335Y1643D01*
X2332Y1636D01*
X2331Y1628D01*
X2332Y1620D01*
X2335Y1613D01*
X2340Y1606D01*
X2347Y1601D01*
X2354Y1598D01*
X2362Y1597D01*
X2370Y1598D01*
X2377Y1601D01*
X2384Y1606D01*
X2389Y1613D01*
X2392Y1620D01*
X2393Y1628D01*
X2392Y1636D01*
X2389Y1643D01*
X2384Y1650D01*
X2377Y1655D01*
X2370Y1658D01*
X2362Y1659D01*
D02*
G37*
G36*
X443Y1813D02*
X435Y1812D01*
X428Y1809D01*
X421Y1804D01*
X416Y1797D01*
X413Y1790D01*
X412Y1782D01*
X413Y1774D01*
X405Y1771D01*
X405Y1771D01*
X398Y1768D01*
X391Y1763D01*
X386Y1756D01*
X383Y1749D01*
X382Y1741D01*
X383Y1733D01*
X386Y1726D01*
X391Y1720D01*
Y1711D01*
Y1671D01*
X386Y1665D01*
X383Y1658D01*
X382Y1650D01*
X383Y1642D01*
X386Y1635D01*
X391Y1628D01*
X398Y1623D01*
X405Y1620D01*
X413Y1619D01*
X417Y1620D01*
X419Y1615D01*
X416Y1611D01*
X413Y1604D01*
X412Y1596D01*
X413Y1588D01*
X416Y1581D01*
X421Y1574D01*
X428Y1569D01*
X435Y1566D01*
X443Y1565D01*
X451Y1566D01*
X458Y1569D01*
X465Y1574D01*
X470Y1581D01*
X473Y1588D01*
X474Y1596D01*
X473Y1604D01*
X470Y1611D01*
X465Y1617D01*
Y1761D01*
X470Y1767D01*
X473Y1774D01*
X474Y1782D01*
X473Y1790D01*
X470Y1797D01*
X465Y1804D01*
X458Y1809D01*
X451Y1812D01*
X443Y1813D01*
D02*
G37*
G36*
X2202Y1659D02*
X2194Y1658D01*
X2187Y1655D01*
X2180Y1650D01*
X2175Y1643D01*
X2172Y1636D01*
X2171Y1628D01*
X2172Y1620D01*
X2175Y1613D01*
X2180Y1606D01*
X2187Y1601D01*
X2194Y1598D01*
X2202Y1597D01*
X2210Y1598D01*
X2217Y1601D01*
X2224Y1606D01*
X2229Y1613D01*
X2232Y1620D01*
X2233Y1628D01*
X2232Y1636D01*
X2229Y1643D01*
X2224Y1650D01*
X2217Y1655D01*
X2210Y1658D01*
X2202Y1659D01*
D02*
G37*
G36*
X2282D02*
X2274Y1658D01*
X2267Y1655D01*
X2260Y1650D01*
X2255Y1643D01*
X2252Y1636D01*
X2251Y1628D01*
X2252Y1620D01*
X2255Y1613D01*
X2260Y1606D01*
X2267Y1601D01*
X2274Y1598D01*
X2282Y1597D01*
X2290Y1598D01*
X2297Y1601D01*
X2304Y1606D01*
X2309Y1613D01*
X2312Y1620D01*
X2313Y1628D01*
X2312Y1636D01*
X2309Y1643D01*
X2304Y1650D01*
X2297Y1655D01*
X2290Y1658D01*
X2282Y1659D01*
D02*
G37*
%LPD*%
D42*
X386Y387D02*
X387Y389D01*
Y562D01*
X419Y438D02*
Y573D01*
Y438D02*
X434Y423D01*
Y300D02*
Y423D01*
Y300D02*
X583Y151D01*
X1203Y2486D02*
Y2724D01*
X1194Y2477D02*
X1203Y2486D01*
X1194Y2417D02*
Y2477D01*
Y2417D02*
Y2470D01*
Y2373D02*
Y2417D01*
X1303Y2586D02*
Y2755D01*
X1302Y2756D02*
X1303Y2755D01*
Y2586D02*
X1388Y2501D01*
X1403Y2745D02*
X1406Y2738D01*
X1403Y2586D02*
Y2745D01*
Y2586D02*
X1428Y2561D01*
X1487Y2502D01*
X1406Y2583D02*
X1428Y2561D01*
X1448Y2785D02*
X1503Y2730D01*
Y2630D02*
X1563Y2570D01*
X1503Y2630D02*
Y2730D01*
X1253Y2785D02*
X1448D01*
X1963Y2466D02*
Y2724D01*
X1989Y2750D01*
X1934Y2437D02*
X1963Y2466D01*
X1934Y2437D02*
X1957Y2460D01*
X1777Y2280D02*
X1934Y2437D01*
X1396Y466D02*
X1663Y733D01*
Y832D01*
X1684Y853D01*
X1715D01*
X2590Y2588D02*
X2623Y2555D01*
Y2471D02*
Y2555D01*
X1380Y2090D02*
X1408Y2062D01*
X1380Y2090D02*
Y2209D01*
X1422Y2251D01*
X1408Y2014D02*
Y2062D01*
X2623Y2471D02*
X2631Y2463D01*
X2672D01*
X2679Y2470D01*
X2708D01*
X1306Y2137D02*
Y2277D01*
X1253Y2626D02*
X1278Y2601D01*
X1253Y2626D02*
Y2675D01*
X1278Y2559D02*
Y2601D01*
X2654Y2495D02*
Y2499D01*
X1422Y2251D02*
Y2312D01*
X1401Y2333D02*
X1422Y2312D01*
X1434Y2208D02*
X1449Y2223D01*
X1434Y2172D02*
Y2208D01*
X1416Y2096D02*
X1441Y2071D01*
X1416Y2096D02*
Y2132D01*
X1441Y1985D02*
Y2071D01*
X1614Y1835D02*
X1661Y1788D01*
X1506Y1835D02*
X1614D01*
X1606Y1807D02*
X1637Y1776D01*
X1503Y1786D02*
X1524Y1807D01*
X1606D01*
X1537Y1758D02*
X1555Y1776D01*
X1596D01*
X2727Y1656D02*
Y1861D01*
Y1656D02*
X2754Y1629D01*
Y1346D02*
Y1629D01*
X2619Y1211D02*
X2754Y1346D01*
X1799Y1211D02*
X2619D01*
X1703Y2355D02*
Y2389D01*
X1659Y2311D02*
X1703Y2355D01*
X1702Y2543D02*
X1747Y2498D01*
Y2383D02*
Y2498D01*
X1296Y2519D02*
X1331Y2484D01*
Y2361D02*
Y2484D01*
X1982Y2051D02*
X2017D01*
X1975Y2044D02*
X1982Y2051D01*
X2613Y2632D02*
Y2675D01*
X2596Y2615D02*
X2613Y2632D01*
X2126Y2615D02*
X2596D01*
X2095Y2584D02*
X2126Y2615D01*
X2095Y2493D02*
Y2584D01*
X2033Y2431D02*
X2095Y2493D01*
X1999Y2431D02*
X2033D01*
X1810Y2242D02*
X1999Y2431D01*
X2438Y2750D02*
X2513Y2675D01*
X1989Y2750D02*
X2438D01*
X1777Y2278D02*
Y2280D01*
X2043Y2206D02*
Y2282D01*
X2055Y2294D01*
Y2360D01*
X1840Y2423D02*
Y2704D01*
X2082Y2196D02*
Y2374D01*
X1770Y2774D02*
X1840Y2704D01*
X2053Y2403D02*
X2082Y2374D01*
X2480Y560D02*
X2513Y592D01*
X2480Y375D02*
Y560D01*
X2513Y592D02*
Y775D01*
X2026Y375D02*
X2313Y662D01*
Y775D01*
X1929Y375D02*
X2026D01*
X2552Y1910D02*
X2643Y1819D01*
Y1608D02*
Y1819D01*
X2610Y1683D02*
Y1798D01*
X1715Y1237D02*
X1790Y1162D01*
X2291D01*
X2613Y840D01*
Y775D02*
Y840D01*
X2413Y775D02*
Y875D01*
X2313Y775D02*
Y865D01*
X1596Y1776D02*
X1613Y1759D01*
X2213Y775D02*
Y858D01*
X2113Y775D02*
Y834D01*
X1140Y1959D02*
Y1960D01*
X1813Y375D02*
X2213Y775D01*
X1654Y375D02*
X1813D01*
X2413Y583D02*
Y775D01*
X2205Y375D02*
X2413Y583D01*
X2756Y375D02*
Y503D01*
X2613Y646D02*
X2756Y503D01*
X2613Y646D02*
Y775D01*
X1721Y2222D02*
X1777Y2278D01*
X1747Y2179D02*
X1810Y2242D01*
X2580Y1828D02*
X2610Y1798D01*
X2128Y1947D02*
X2225Y2044D01*
X1563Y2316D02*
Y2570D01*
X2012Y2675D02*
X2013Y2675D01*
X1737Y1742D02*
X1748Y1731D01*
X1770D01*
X1786Y1715D01*
Y1648D02*
Y1715D01*
X2013Y2461D02*
Y2675D01*
X1776Y2420D02*
Y2557D01*
X1753Y2580D02*
X1776Y2557D01*
X1753Y2580D02*
Y2675D01*
X1361Y1911D02*
Y1936D01*
X1354Y1904D02*
X1361Y1911D01*
X1449Y2223D02*
X1562D01*
X1576Y2774D02*
X1770D01*
X1553Y2751D02*
X1576Y2774D01*
X1553Y2675D02*
Y2751D01*
X2013Y2127D02*
X2082Y2196D01*
X1866Y2127D02*
X2013D01*
X2708Y2289D02*
Y2470D01*
Y2289D02*
X2721Y2276D01*
X2757D01*
X2912Y2367D02*
Y2449D01*
X1835Y2044D02*
X1975D01*
X1379Y2551D02*
Y2597D01*
X1353Y2623D02*
X1379Y2597D01*
X1353Y2623D02*
Y2675D01*
X1053Y2592D02*
Y2675D01*
X863Y2235D02*
Y2533D01*
X908Y2578D01*
X1660Y2385D02*
Y2408D01*
X1626Y2352D02*
Y2419D01*
X1657Y2450D01*
X1472Y2582D02*
X1502D01*
X1453Y2601D02*
Y2675D01*
Y2601D02*
X1472Y2582D01*
X1149Y719D02*
X1178Y690D01*
X1149Y719D02*
Y861D01*
X1178Y406D02*
Y690D01*
X1426Y1970D02*
X1441Y1985D01*
X1426Y1936D02*
Y1970D01*
Y1936D02*
X1478Y1884D01*
Y1335D02*
Y1884D01*
X1368Y2033D02*
Y2075D01*
X1306Y2137D02*
X1368Y2075D01*
X1388Y1944D02*
Y1982D01*
X1374Y1996D02*
X1388Y1982D01*
Y1944D02*
X1460Y1872D01*
X853Y2675D02*
X931Y2754D01*
X1148D01*
X1222D01*
X1253Y2785D01*
X1257Y2277D02*
X1306D01*
X1175Y2359D02*
X1257Y2277D01*
X1053Y2592D02*
X1175Y2470D01*
Y2359D02*
Y2470D01*
X1562Y2223D02*
X1600Y2261D01*
Y2434D01*
X1653Y2525D02*
X1685Y2493D01*
X1660Y2408D02*
X1685Y2433D01*
X1653Y2525D02*
Y2675D01*
X1685Y2433D02*
Y2493D01*
X2654Y2495D02*
X2684D01*
X2702Y2513D02*
X2848D01*
X2684Y2495D02*
X2702Y2513D01*
X2848D02*
X2912Y2449D01*
X2685Y1653D02*
Y2045D01*
X2561Y2169D02*
X2685Y2045D01*
X2561Y2169D02*
Y2543D01*
X1582Y933D02*
Y1750D01*
Y933D02*
X1628Y887D01*
X2060D02*
X2113Y834D01*
X1628Y887D02*
X2060D01*
X1637Y1057D02*
Y1776D01*
X2189Y989D02*
X2313Y865D01*
X1613Y1000D02*
Y1759D01*
Y1000D02*
X1678Y935D01*
X2136D02*
X2213Y858D01*
X1678Y935D02*
X2136D01*
X2267Y1113D02*
X2513Y867D01*
Y775D02*
Y867D01*
X1715Y1237D02*
Y1812D01*
X1577Y1950D02*
X1715Y1812D01*
X1463Y1950D02*
X1577D01*
X1579Y1909D02*
X1686Y1802D01*
X1494Y1909D02*
X1579D01*
X1686Y1748D02*
Y1802D01*
X1089Y1909D02*
X1140Y1960D01*
X1089Y1789D02*
Y1909D01*
Y1789D02*
X1100Y1778D01*
Y1654D02*
Y1778D01*
Y1654D02*
X1133Y1621D01*
X1181D01*
X1175Y1926D02*
Y1989D01*
X1263Y2052D02*
X1347Y1968D01*
X1263Y2052D02*
Y2171D01*
X1154Y2280D02*
X1263Y2171D01*
X1061Y2280D02*
X1154D01*
X1487Y2272D02*
Y2502D01*
X1112Y969D02*
X1478Y1335D01*
X1058Y861D02*
Y1000D01*
X2080Y1974D02*
X2130Y2024D01*
X2024Y1828D02*
X2580D01*
X1903Y1920D02*
X1997D01*
X2007Y1910D02*
X2552D01*
X1997Y1920D02*
X2007Y1910D01*
X1112Y849D02*
Y969D01*
X1010Y747D02*
X1112Y849D01*
X976Y747D02*
X1010D01*
X953Y724D02*
X976Y747D01*
X953Y666D02*
Y724D01*
X1074Y1724D02*
Y1757D01*
X1060Y1771D02*
X1074Y1757D01*
X1178Y406D02*
X1244D01*
X1304Y466D01*
X1396D01*
X1810Y1808D02*
Y1845D01*
X1747Y1908D02*
Y2179D01*
Y1908D02*
X1810Y1845D01*
X1721Y1896D02*
X1767Y1850D01*
X1721Y1896D02*
Y2222D01*
X1767Y1758D02*
Y1850D01*
X1659Y1918D02*
Y2311D01*
Y1918D02*
X1737Y1840D01*
Y1742D02*
Y1840D01*
X1777Y1922D02*
Y1949D01*
X1766Y1960D02*
Y2027D01*
Y1960D02*
X1777Y1949D01*
X1766Y2027D02*
X1866Y2127D01*
X1127Y2406D02*
Y2437D01*
X953Y2611D02*
Y2675D01*
Y2611D02*
X1127Y2437D01*
X1175Y1926D02*
X1208Y1893D01*
X1985Y1974D02*
X2080D01*
X1833Y2001D02*
X1878D01*
X1888Y2010D01*
X2066D01*
X2105Y2050D01*
X1799Y1974D02*
X1881D01*
X1901Y1994D02*
X1965D01*
X1881Y1974D02*
X1901Y1994D01*
X1965D02*
X1985Y1974D01*
X1865Y1947D02*
X1911D01*
X1919Y1939D02*
X1979D01*
X1987Y1947D02*
X2128D01*
X1911D02*
X1919Y1939D01*
X1979D02*
X1987Y1947D01*
X1926Y1904D02*
X1948D01*
X1849Y1890D02*
X1912D01*
X1926Y1904D01*
X1948D02*
X2024Y1828D01*
X1194Y2373D02*
X1260Y2307D01*
X1385D01*
X1315Y2333D02*
X1401D01*
X1283Y2365D02*
X1315Y2333D01*
X1237Y2436D02*
Y2534D01*
Y2436D02*
X1283Y2390D01*
Y2365D02*
Y2390D01*
X1452Y2313D02*
Y2361D01*
X1388Y2425D02*
Y2501D01*
Y2425D02*
X1452Y2361D01*
X1378Y375D02*
X1520D01*
X1653Y508D01*
X1718D01*
X1840D01*
X1718D02*
X1845D01*
X2113Y775D01*
X1797Y989D02*
X2189D01*
X1637Y1057D02*
X1681Y1013D01*
X1773D01*
X1797Y989D01*
X2137Y1075D02*
X2213D01*
X2413Y875D01*
X2113Y1051D02*
X2137Y1075D01*
X1058Y1000D02*
X1273Y1215D01*
Y1259D01*
X1460Y1446D01*
Y1872D01*
X1787Y1113D02*
X2267D01*
X1686Y1214D02*
Y1748D01*
Y1214D02*
X1787Y1113D01*
X1807Y1051D02*
X2113D01*
X1661Y1197D02*
Y1788D01*
Y1197D02*
X1807Y1051D01*
X1002Y2084D02*
X1060Y2026D01*
Y1771D02*
Y2026D01*
X1148Y2025D02*
X1192D01*
X1304Y1652D02*
X1354Y1702D01*
Y1904D01*
X1224Y1611D02*
X1244Y1591D01*
X1192Y2025D02*
X1224Y1993D01*
X1208Y1830D02*
Y1893D01*
X1195Y1817D02*
X1208Y1830D01*
X1212Y1811D02*
X1224Y1823D01*
Y1993D01*
X1208Y1592D02*
Y1769D01*
X1195Y1782D02*
X1208Y1769D01*
X1195Y1782D02*
Y1817D01*
X1224Y1611D02*
Y1776D01*
X1212Y1788D02*
X1224Y1776D01*
X1212Y1788D02*
Y1811D01*
X1239Y1783D02*
X1243Y1779D01*
Y1713D02*
X1256Y1700D01*
X1239Y1800D02*
X1241Y1798D01*
X1239Y1783D02*
Y1800D01*
Y1802D01*
X1243Y1713D02*
Y1779D01*
X2393Y2344D02*
X2448D01*
X2470Y2322D01*
Y2044D02*
Y2322D01*
X2293Y2444D02*
X2343Y2494D01*
Y2567D01*
X2130Y2024D02*
Y2331D01*
X2143Y2344D02*
X2193D01*
X2130Y2331D02*
X2143Y2344D01*
X2243Y2394D02*
X2293Y2344D01*
X2144Y2394D02*
X2243D01*
X2105Y2050D02*
Y2355D01*
X2144Y2394D01*
X2225Y2044D02*
Y2256D01*
X2247Y2278D02*
X2318D01*
X2343Y2303D01*
Y2394D01*
X2293Y2444D02*
X2343Y2394D01*
X2225Y2256D02*
X2247Y2278D01*
X896Y406D02*
Y492D01*
X953Y549D01*
Y666D01*
X567Y722D02*
Y911D01*
X419Y698D02*
X443Y722D01*
X419Y573D02*
Y698D01*
X443Y722D02*
X567D01*
X896Y150D02*
Y406D01*
X1178Y150D02*
Y406D01*
X443Y1596D02*
Y1782D01*
X413Y1650D02*
Y1711D01*
Y1650D02*
Y1741D01*
X1935Y1633D02*
Y1809D01*
X1882Y1862D02*
X1935Y1809D01*
X1873Y1533D02*
X1940D01*
X1823Y1583D02*
X1873Y1533D01*
X1823Y1583D02*
Y1772D01*
X1846Y1795D02*
Y1836D01*
X1823Y1772D02*
X1846Y1795D01*
D46*
X484Y387D02*
Y442D01*
X473Y453D02*
X484Y442D01*
X473Y453D02*
Y475D01*
X545Y1857D02*
X852Y2164D01*
X971D01*
X763Y800D02*
Y1079D01*
X545Y1297D02*
Y1857D01*
Y1297D02*
X763Y1079D01*
X473Y475D02*
Y502D01*
X461Y514D02*
X473Y502D01*
X461Y645D02*
X486Y670D01*
X726D01*
X763Y707D01*
Y800D01*
X461Y514D02*
Y560D01*
Y645D01*
D47*
X535Y2364D02*
Y2566D01*
Y2364D02*
X536Y2363D01*
X714D02*
X807D01*
D49*
X853Y2675D02*
D03*
X953D02*
D03*
X1053D02*
D03*
X1153D02*
D03*
X1753D02*
D03*
X1653D02*
D03*
X1553D02*
D03*
X1453D02*
D03*
X1353D02*
D03*
X1253D02*
D03*
X2113D02*
D03*
X2213D02*
D03*
X2313D02*
D03*
X2413D02*
D03*
X2513D02*
D03*
X2613D02*
D03*
X2013D02*
D03*
X1913D02*
D03*
Y775D02*
D03*
X1813D02*
D03*
X1213D02*
D03*
X1313D02*
D03*
X1413D02*
D03*
X1513D02*
D03*
X1613D02*
D03*
X1713D02*
D03*
X2613D02*
D03*
X2513D02*
D03*
X2413D02*
D03*
X2313D02*
D03*
X2213D02*
D03*
X2113D02*
D03*
X853Y666D02*
D03*
X953D02*
D03*
X970Y1287D02*
D03*
X1070D02*
D03*
X1170D02*
D03*
X2756Y375D02*
D03*
Y275D02*
D03*
Y175D02*
D03*
X2480D02*
D03*
Y275D02*
D03*
Y375D02*
D03*
X2205D02*
D03*
Y275D02*
D03*
Y175D02*
D03*
X1929D02*
D03*
Y275D02*
D03*
Y375D02*
D03*
X1654D02*
D03*
Y275D02*
D03*
Y175D02*
D03*
X1378D02*
D03*
Y275D02*
D03*
Y375D02*
D03*
X1001Y150D02*
D03*
Y406D02*
D03*
X1178Y150D02*
D03*
Y406D02*
D03*
X896D02*
D03*
Y150D02*
D03*
X719Y406D02*
D03*
Y150D02*
D03*
X2991Y1893D02*
D03*
Y1793D02*
D03*
Y1693D02*
D03*
Y1993D02*
D03*
Y2093D02*
D03*
Y1019D02*
D03*
Y919D02*
D03*
Y1306D02*
D03*
Y1206D02*
D03*
X1002Y2084D02*
D03*
X902D02*
D03*
X1153Y1752D02*
D03*
Y1852D02*
D03*
X2393Y2189D02*
D03*
X2293D02*
D03*
X1304Y1852D02*
D03*
Y1752D02*
D03*
Y1652D02*
D03*
X1404Y1852D02*
D03*
Y1752D02*
D03*
Y1652D02*
D03*
X2393Y2444D02*
D03*
X2293D02*
D03*
X2193D02*
D03*
X2393Y2344D02*
D03*
X2293D02*
D03*
X2193D02*
D03*
X305Y980D02*
D03*
Y1080D02*
D03*
D50*
X386Y387D02*
D03*
X484D02*
D03*
X583D02*
D03*
X386Y151D02*
D03*
X484D02*
D03*
X583D02*
D03*
D51*
X177Y177D02*
D03*
Y2657D02*
D03*
X3012D02*
D03*
Y177D02*
D03*
X177Y531D02*
D03*
X3012D02*
D03*
X177Y2303D02*
D03*
X3012D02*
D03*
D52*
X213Y1532D02*
D03*
Y1705D02*
D03*
D53*
X399Y1486D02*
D03*
X351Y1508D02*
D03*
X567Y911D02*
D03*
Y722D02*
D03*
X387Y562D02*
D03*
X473Y475D02*
D03*
X419Y573D02*
D03*
X2590Y2588D02*
D03*
X1502Y2582D02*
D03*
X2342Y2568D02*
D03*
X1237Y2534D02*
D03*
X1434Y2172D02*
D03*
X1416Y2132D02*
D03*
X1503Y1786D02*
D03*
X1537Y1758D02*
D03*
X2727Y1861D02*
D03*
X1799Y1211D02*
D03*
X417Y1555D02*
D03*
X1703Y2389D02*
D03*
X1747Y2383D02*
D03*
X1351Y2275D02*
D03*
X1331Y2361D02*
D03*
X1148Y2113D02*
D03*
X1061Y2280D02*
D03*
X971Y2164D02*
D03*
X2470Y2044D02*
D03*
X2038Y2096D02*
D03*
X2017Y2051D02*
D03*
X2055Y2360D02*
D03*
X1840Y2423D02*
D03*
X2053Y2403D02*
D03*
X2643Y1608D02*
D03*
X2610Y1683D02*
D03*
X1849Y1890D02*
D03*
X1882Y1862D02*
D03*
X1935Y1633D02*
D03*
X1940Y1533D02*
D03*
X1846Y1836D02*
D03*
X1506Y1835D02*
D03*
X1582Y1750D02*
D03*
X1777Y2278D02*
D03*
X1767Y1758D02*
D03*
X1810Y2242D02*
D03*
Y1808D02*
D03*
X407Y1845D02*
D03*
X921Y1878D02*
D03*
X1032Y1892D02*
D03*
X710Y1854D02*
D03*
X652Y1636D02*
D03*
X1361Y1936D02*
D03*
X1074Y1724D02*
D03*
X1181Y1621D02*
D03*
X1208Y1592D02*
D03*
X1244Y1591D02*
D03*
X1140Y1960D02*
D03*
X1175Y1989D02*
D03*
X652Y1801D02*
D03*
X966Y1540D02*
D03*
X813Y1556D02*
D03*
X731Y1380D02*
D03*
X487Y1334D02*
D03*
X1730Y974D02*
D03*
X1435Y1470D02*
D03*
X1515Y963D02*
D03*
X1321Y1236D02*
D03*
X1260Y846D02*
D03*
X2154Y668D02*
D03*
X1715Y853D02*
D03*
X1047Y531D02*
D03*
X1687Y570D02*
D03*
X1424Y557D02*
D03*
X2424Y463D02*
D03*
X2092Y1783D02*
D03*
X2098Y1733D02*
D03*
X2467D02*
D03*
X1747Y1703D02*
D03*
X2172Y1038D02*
D03*
X2790Y808D02*
D03*
X2805Y1505D02*
D03*
X2795Y909D02*
D03*
Y1036D02*
D03*
X2795Y1170D02*
D03*
Y1266D02*
D03*
X2719Y1422D02*
D03*
X1943Y1482D02*
D03*
X1947Y1852D02*
D03*
X2625Y1883D02*
D03*
X1180Y1197D02*
D03*
X1903Y1920D02*
D03*
X1865Y1947D02*
D03*
X1842Y2144D02*
D03*
X2007Y2253D02*
D03*
X1833Y2001D02*
D03*
X1799Y1974D02*
D03*
X1835Y2044D02*
D03*
X2043Y2206D02*
D03*
X2685Y1653D02*
D03*
X2561Y2543D02*
D03*
X1702D02*
D03*
X1626Y2352D02*
D03*
X1148Y2754D02*
D03*
X1563Y2316D02*
D03*
X1452Y2313D02*
D03*
X1487Y2272D02*
D03*
X1403Y2745D02*
D03*
X1296Y2519D02*
D03*
X1660Y2385D02*
D03*
X1786Y1648D02*
D03*
X1385Y2307D02*
D03*
X1127Y2406D02*
D03*
X1278Y2559D02*
D03*
X2013Y2461D02*
D03*
X1600Y2434D02*
D03*
X1776Y2420D02*
D03*
X1148Y2025D02*
D03*
X1494Y1909D02*
D03*
X1463Y1950D02*
D03*
X1347Y1968D02*
D03*
X1306Y2277D02*
D03*
X1408Y2014D02*
D03*
X1368Y2033D02*
D03*
X1777Y1922D02*
D03*
X2708Y2470D02*
D03*
X2757Y2276D02*
D03*
X2912Y2367D02*
D03*
X2654Y2495D02*
D03*
X2618Y2286D02*
D03*
X2898Y2545D02*
D03*
X2818Y1587D02*
D03*
X1055Y2385D02*
D03*
X956Y2518D02*
D03*
X1419Y2459D02*
D03*
X2335Y2087D02*
D03*
X1379Y2551D02*
D03*
X1504Y1727D02*
D03*
X1141Y1440D02*
D03*
X1460Y2445D02*
D03*
X1363Y2435D02*
D03*
X535Y2566D02*
D03*
X807Y2363D02*
D03*
X863Y2235D02*
D03*
X908Y2578D02*
D03*
X1657Y2450D02*
D03*
X1149Y861D02*
D03*
X1058D02*
D03*
X1374Y1996D02*
D03*
X763Y800D02*
D03*
X1924Y1968D02*
D03*
X1551Y2173D02*
D03*
X1621D02*
D03*
X1691D02*
D03*
Y2103D02*
D03*
X1551D02*
D03*
Y2033D02*
D03*
X1691D02*
D03*
X877Y1752D02*
D03*
X924D02*
D03*
X971D02*
D03*
Y1705D02*
D03*
X924D02*
D03*
X877D02*
D03*
Y1658D02*
D03*
X924D02*
D03*
X971D02*
D03*
X1203Y2724D02*
D03*
X1302Y2756D02*
D03*
X1621Y2103D02*
D03*
Y2033D02*
D03*
X2282Y1948D02*
D03*
X2362D02*
D03*
Y1868D02*
D03*
X2282D02*
D03*
X2202D02*
D03*
Y1788D02*
D03*
X2282D02*
D03*
X2362D02*
D03*
Y1708D02*
D03*
X2282D02*
D03*
X2202D02*
D03*
Y1628D02*
D03*
X2282D02*
D03*
X2362D02*
D03*
Y1548D02*
D03*
X2282D02*
D03*
X2202D02*
D03*
Y1468D02*
D03*
X2282D02*
D03*
X2362D02*
D03*
X2202Y1948D02*
D03*
X2515Y2344D02*
D03*
X1245Y2371D02*
D03*
X1664Y1155D02*
D03*
X1256Y1700D02*
D03*
X1239Y1802D02*
D03*
X506Y590D02*
D03*
X546D02*
D03*
X526Y561D02*
D03*
X506Y531D02*
D03*
X547Y1194D02*
D03*
X890Y1190D02*
D03*
X59Y1335D02*
D03*
X443Y1596D02*
D03*
Y1782D02*
D03*
X413Y1650D02*
D03*
Y1741D02*
D03*
X546Y531D02*
D03*
X614Y476D02*
D03*
X456Y1435D02*
D03*
X580Y476D02*
D03*
X435Y1414D02*
D03*
X460Y1388D02*
D03*
X566Y1221D02*
D03*
X494Y1216D02*
D03*
X583Y1170D02*
D03*
X708Y875D02*
D03*
X669Y909D02*
D03*
X638Y950D02*
D03*
X1214Y893D02*
D03*
X1194Y860D02*
D03*
X2177Y949D02*
D03*
X2250Y975D02*
D03*
X1864Y1702D02*
D03*
X2122Y1768D02*
D03*
Y1801D02*
D03*
X2126Y1716D02*
D03*
X2109Y1688D02*
D03*
X2467Y1783D02*
D03*
X2445Y1801D02*
D03*
X2441Y1766D02*
D03*
X2459Y1684D02*
D03*
X2440Y1715D02*
D03*
X1278Y1007D02*
D03*
X1250Y991D02*
D03*
X872Y1239D02*
D03*
X875Y1151D02*
D03*
D54*
X576Y2115D02*
D03*
X674D02*
D03*
D55*
X536Y2363D02*
D03*
X714D02*
D03*
M02*
