G04 CAM350 V5.0 Date:  Thu Jan 12 17:07:54 2012 *
G04 Database: \\servidor\f\okg\19500\a19864.okg *
G04 Layer 9: BotSilk *
%FSLAX44Y44*%
%MOIN*%
%SFA1.000B1.000*%

%MIA0B0*%
%IPPOS*%
%ADD10C,0.01000*%
%ADD28C,0.00800*%
%ADD29C,0.00700*%
%LNBotSilk*%
%SRX1Y1I0J0*%
G54D10*
%LPD*%
G36*
X4759Y3413D02*
G01Y130D01*
X3786*
Y3413*
X4759*
G37*
G54D10*
Y130D02*
G01Y3413D01*
X192*
Y130*
X4759*
G54D28*
X3152Y1520D02*
G01Y1138D01*
Y1138D02*
G01X3176Y1066D01*
Y1066D02*
G01X3200Y1042D01*
Y1042D02*
G01X3248Y1018D01*
Y1018D02*
G01X3296D01*
Y1018D02*
G01X3343Y1042D01*
Y1042D02*
G01X3367Y1066D01*
Y1066D02*
G01X3391Y1138D01*
Y1138D02*
G01Y1185D01*
X2998Y1424D02*
G01X2950Y1448D01*
Y1448D02*
G01X2878Y1520D01*
Y1520D02*
G01Y1018D01*
X10773Y3412D02*
G01Y3197D01*
Y3197D02*
G01X10749Y3125D01*
Y3125D02*
G01X10725Y3101D01*
Y3101D02*
G01X10677Y3077D01*
Y3077D02*
G01X10629D01*
Y3077D02*
G01X10582Y3101D01*
Y3101D02*
G01X10557Y3125D01*
Y3125D02*
G01X10534Y3197D01*
Y3197D02*
G01Y3412D01*
Y3412D02*
G01X11036D01*
X10773Y3245D02*
G01X11036Y3077D01*
X10654Y2898D02*
G01X10630D01*
Y2898D02*
G01X10582Y2875D01*
Y2875D02*
G01X10558Y2851D01*
Y2851D02*
G01X10534Y2803D01*
Y2803D02*
G01Y2707D01*
Y2707D02*
G01X10558Y2660D01*
Y2660D02*
G01X10582Y2636D01*
Y2636D02*
G01X10630Y2612D01*
Y2612D02*
G01X10677D01*
Y2612D02*
G01X10725Y2636D01*
Y2636D02*
G01X10797Y2683D01*
Y2683D02*
G01X11036Y2923D01*
Y2923D02*
G01Y2588D01*
G54D29*
X8277Y221D02*
G01Y393D01*
Y393D02*
G01X8296Y450D01*
Y450D02*
G01X8315Y469D01*
Y469D02*
G01X8353Y488D01*
Y488D02*
G01X8392D01*
Y488D02*
G01X8430Y469D01*
Y469D02*
G01X8449Y450D01*
Y450D02*
G01X8468Y393D01*
Y393D02*
G01Y221D01*
Y221D02*
G01X8066D01*
X8277Y354D02*
G01X8066Y488D01*
X8391Y612D02*
G01X8411Y650D01*
Y650D02*
G01X8468Y708D01*
Y708D02*
G01X8066D01*
X8270Y2726D02*
G01Y2898D01*
Y2898D02*
G01X8289Y2955D01*
Y2955D02*
G01X8308Y2975D01*
Y2975D02*
G01X8346Y2994D01*
Y2994D02*
G01X8385D01*
Y2994D02*
G01X8423Y2975D01*
Y2975D02*
G01X8442Y2955D01*
Y2955D02*
G01X8461Y2898D01*
Y2898D02*
G01Y2726D01*
Y2726D02*
G01X8060D01*
X8270Y2860D02*
G01X8060Y2994D01*
X8461Y3156D02*
G01Y3366D01*
Y3366D02*
G01X8308Y3251D01*
Y3251D02*
G01Y3309D01*
Y3309D02*
G01X8289Y3347D01*
Y3347D02*
G01X8270Y3366D01*
Y3366D02*
G01X8212Y3385D01*
Y3385D02*
G01X8174D01*
Y3385D02*
G01X8117Y3366D01*
Y3366D02*
G01X8079Y3328D01*
Y3328D02*
G01X8060Y3270D01*
Y3270D02*
G01Y3213D01*
Y3213D02*
G01X8079Y3156D01*
Y3156D02*
G01X8098Y3137D01*
Y3137D02*
G01X8136Y3117D01*
G54D10*
X428Y1890D02*
G01Y1653D01*
Y890D02*
G01Y654D01*
Y2890D02*
G01Y2654D01*
Y1890D02*
G01X4915D01*
X428Y1653D02*
G01X4914D01*
X428Y890D02*
G01X4900D01*
X428Y654D02*
G01X4900D01*
X428Y2890D02*
G01X4915D01*
X428Y2654D02*
G01X4914D01*
M02*
