G04 CAM350 V5.0 Date:  Thu Jan 12 17:07:54 2012 *
G04 Database: \\servidor\f\okg\19500\a19864.okg *
G04 Layer 14: Referencia. *
%FSLAX44Y44*%
%MOIN*%
%SFA1.000B1.000*%

%MIA0B0*%
%IPPOS*%
%ADD72C,0.01000*%
%ADD73C,0.02400*%
%LNReferencia.*%
%SRX1Y1I0J0*%
G54D72*
%LPD*%
G54D73*
X0Y0D02*
G01X14170D01*
Y3540*
X0*
Y0*
G54D72*
G01X8871Y2038D02*
X9260Y1438D01*
X8871Y2038D02*
X8803Y1438D01*
X9121Y1638D02*
X8835D01*
X8473Y1924D02*
X8408Y1953D01*
X8300Y2038D01*
X8460Y1438D01*
X7639Y1838D02*
X7691Y1753D01*
X7763Y1696D01*
X7857Y1667D01*
X7885D01*
X7963Y1696D01*
X8005Y1753D01*
X8011Y1838D01*
X8003Y1867D01*
X7951Y1953D01*
X7879Y2010D01*
X7786Y2038D01*
X7757D01*
X7679Y2010D01*
X7637Y1953D01*
X7639Y1838D01*
X7678Y1696D01*
X7744Y1553D01*
X7824Y1467D01*
X7918Y1438D01*
X7975D01*
X8053Y1467D01*
X8066Y1524D01*
X7243Y2038D02*
X7336Y2010D01*
X7380Y1953D01*
X7395Y1895D01*
X7382Y1838D01*
X7333Y1810D01*
X7226Y1781D01*
X7148Y1753D01*
X7106Y1696D01*
X7093Y1638D01*
X7116Y1553D01*
X7160Y1496D01*
X7196Y1467D01*
X7289Y1438D01*
X7404D01*
X7482Y1467D01*
X7503Y1496D01*
X7516Y1553D01*
X7493Y1638D01*
X7449Y1696D01*
X7377Y1753D01*
X7283Y1781D01*
X7161Y1810D01*
X7097Y1838D01*
X7053Y1895D01*
X7037Y1953D01*
X7051Y2010D01*
X7129Y2038D01*
X7243D01*
X6466Y1953D02*
X6479Y2010D01*
X6557Y2038D01*
X6615D01*
X6708Y2010D01*
X6788Y1924D01*
X6855Y1781D01*
X6893Y1638D01*
X6895Y1524D01*
X6853Y1467D01*
X6775Y1438D01*
X6747D01*
X6653Y1467D01*
X6581Y1524D01*
X6529Y1610D01*
X6522Y1638D01*
X6527Y1724D01*
X6569Y1781D01*
X6647Y1810D01*
X6676D01*
X6769Y1781D01*
X6842Y1724D01*
X6893Y1638D01*
X5958Y2038D02*
X6350Y1638D01*
X5922D01*
X5958Y2038D02*
X6118Y1438D01*
G01X4163Y2153D02*
X4608Y1239D01*
X3992Y2153D02*
X4436Y1239D01*
X4462Y1781D02*
X4062D01*
X4537Y1610D02*
X4137D01*
X3794Y2038D02*
X3954Y1438D01*
X3794Y2038D02*
X3422D01*
X3870Y1753D02*
X3642D01*
X3049Y2153D02*
X3494Y1239D01*
X2878Y2153D02*
X3322Y1239D01*
X3348Y1781D02*
X2949D01*
X3423Y1610D02*
X3023D01*
M02*
