G04 CAM350 V5.0 Date:  Thu Jan 12 17:07:54 2012 *
G04 Database: \\servidor\f\okg\19500\a19864.okg *
G04 Layer 3: TopSilk *
%FSLAX44Y44*%
%MOIN*%
%SFA1.000B1.000*%

%MIA0B0*%
%IPPOS*%
%ADD10C,0.01000*%
%ADD14C,0.00500*%
%ADD29C,0.00700*%
%LNTopSilk*%
%SRX1Y1I0J0*%
G54D10*
%LPD*%
G54D10*
X10518Y3150D02*
G01Y394D01*
X7369*
Y3150*
X10518*
X7765Y394D02*
G01Y3150D01*
X10521Y394D02*
G01X7765D01*
X10521Y3150D02*
G01X7765D01*
X10521Y394D02*
G01Y3150D01*
X7793Y1322D02*
G01X8043D01*
X7793Y2222D02*
G01X8043D01*
Y1322D02*
G01Y2222D01*
X10236Y1322D02*
G01X10486D01*
X10265Y2222D02*
G01X10515D01*
X10225Y1322D02*
G01Y2222D01*
G54D29*
X3757Y2812D02*
G01Y3080D01*
Y2889D02*
G01X3700Y2831D01*
Y2831D02*
G01X3661Y2812D01*
Y2812D02*
G01X3604D01*
Y2812D02*
G01X3566Y2831D01*
Y2831D02*
G01X3547Y2889D01*
Y2889D02*
G01Y3080D01*
Y2889D02*
G01X3489Y2831D01*
Y2831D02*
G01X3451Y2812D01*
Y2812D02*
G01X3394D01*
Y2812D02*
G01X3355Y2831D01*
Y2831D02*
G01X3336Y2889D01*
Y2889D02*
G01Y3080D01*
X3212Y2812D02*
G01Y3004D01*
Y3004D02*
G01X3193Y3061D01*
Y3061D02*
G01X3155Y3080D01*
Y3080D02*
G01X3097D01*
Y3080D02*
G01X3059Y3061D01*
Y3061D02*
G01X3002Y3004D01*
Y2812D02*
G01Y3080D01*
X2878Y2678D02*
G01Y3080D01*
X2697Y2678D02*
G01Y3004D01*
Y3004D02*
G01X2678Y3061D01*
Y3061D02*
G01X2640Y3080D01*
Y3080D02*
G01X2602D01*
X2755Y2812D02*
G01X2621D01*
X2478Y2678D02*
G01X2459Y2697D01*
Y2697D02*
G01X2440Y2678D01*
Y2678D02*
G01X2459Y2659D01*
Y2659D02*
G01X2478Y2678D01*
X2459Y2812D02*
G01Y3080D01*
X2316Y2812D02*
G01Y3214D01*
Y2870D02*
G01X2278Y2832D01*
Y2832D02*
G01X2240Y2812D01*
Y2812D02*
G01X2182D01*
Y2812D02*
G01X2144Y2832D01*
Y2832D02*
G01X2106Y2870D01*
Y2870D02*
G01X2086Y2927D01*
Y2927D02*
G01Y2966D01*
Y2966D02*
G01X2106Y3023D01*
Y3023D02*
G01X2144Y3061D01*
Y3061D02*
G01X2182Y3080D01*
Y3080D02*
G01X2240D01*
Y3080D02*
G01X2278Y3061D01*
Y3061D02*
G01X2316Y3023D01*
X1963Y2678D02*
G01Y3080D01*
X1744Y2812D02*
G01X1782Y2831D01*
Y2831D02*
G01X1820Y2870D01*
Y2870D02*
G01X1839Y2927D01*
Y2927D02*
G01Y2965D01*
Y2965D02*
G01X1820Y3023D01*
Y3023D02*
G01X1782Y3061D01*
Y3061D02*
G01X1744Y3080D01*
Y3080D02*
G01X1686D01*
Y3080D02*
G01X1648Y3061D01*
Y3061D02*
G01X1610Y3023D01*
Y3023D02*
G01X1590Y2965D01*
Y2965D02*
G01Y2927D01*
Y2927D02*
G01X1610Y2870D01*
Y2870D02*
G01X1648Y2831D01*
Y2831D02*
G01X1686Y2812D01*
Y2812D02*
G01X1744D01*
X1448Y3042D02*
G01X1467Y3061D01*
Y3061D02*
G01X1448Y3080D01*
Y3080D02*
G01X1428Y3061D01*
Y3061D02*
G01X1448Y3042D01*
X1209Y2812D02*
G01X1247Y2831D01*
Y2831D02*
G01X1286Y2870D01*
Y2870D02*
G01X1305Y2927D01*
Y2927D02*
G01Y2965D01*
Y2965D02*
G01X1286Y3023D01*
Y3023D02*
G01X1247Y3061D01*
Y3061D02*
G01X1209Y3080D01*
Y3080D02*
G01X1152D01*
Y3080D02*
G01X1113Y3061D01*
Y3061D02*
G01X1075Y3023D01*
Y3023D02*
G01X1056Y2965D01*
Y2965D02*
G01Y2927D01*
Y2927D02*
G01X1075Y2870D01*
Y2870D02*
G01X1113Y2831D01*
Y2831D02*
G01X1152Y2812D01*
Y2812D02*
G01X1209D01*
X932D02*
G01Y3080D01*
Y2927D02*
G01X913Y2870D01*
Y2870D02*
G01X875Y2831D01*
Y2831D02*
G01X836Y2812D01*
Y2812D02*
G01X779D01*
X426Y2831D02*
G01Y3138D01*
Y3138D02*
G01X445Y3195D01*
Y3195D02*
G01X464Y3214D01*
Y3214D02*
G01X502Y3233D01*
Y3233D02*
G01X560D01*
Y3233D02*
G01X598Y3214D01*
X426Y2889D02*
G01X464Y2851D01*
Y2851D02*
G01X502Y2831D01*
Y2831D02*
G01X560D01*
Y2831D02*
G01X598Y2851D01*
Y2851D02*
G01X636Y2889D01*
Y2889D02*
G01X655Y2946D01*
Y2946D02*
G01Y2985D01*
Y2985D02*
G01X636Y3042D01*
Y3042D02*
G01X598Y3080D01*
Y3080D02*
G01X560Y3099D01*
Y3099D02*
G01X502D01*
Y3099D02*
G01X464Y3080D01*
Y3080D02*
G01X426Y3042D01*
X2973Y1854D02*
G01X3012Y1892D01*
Y1892D02*
G01X3050Y1949D01*
Y1949D02*
G01X3088Y2026D01*
Y2026D02*
G01X3107Y2122D01*
Y2122D02*
G01Y2198D01*
Y2198D02*
G01X3088Y2294D01*
Y2294D02*
G01X3050Y2370D01*
Y2370D02*
G01X3012Y2428D01*
Y2428D02*
G01X2973Y2466D01*
X2563Y2054D02*
G01X2582Y2016D01*
Y2016D02*
G01X2620Y1978D01*
Y1978D02*
G01X2658Y1959D01*
Y1959D02*
G01X2735D01*
Y1959D02*
G01X2773Y1978D01*
Y1978D02*
G01X2811Y2016D01*
Y2016D02*
G01X2831Y2054D01*
Y2054D02*
G01X2850Y2112D01*
Y2112D02*
G01Y2207D01*
Y2207D02*
G01X2831Y2265D01*
Y2265D02*
G01X2811Y2303D01*
Y2303D02*
G01X2773Y2341D01*
Y2341D02*
G01X2735Y2360D01*
Y2360D02*
G01X2658D01*
Y2360D02*
G01X2620Y2341D01*
Y2341D02*
G01X2582Y2303D01*
Y2303D02*
G01X2563Y2265D01*
X2439Y1854D02*
G01X2401Y1892D01*
Y1892D02*
G01X2363Y1949D01*
Y1949D02*
G01X2324Y2026D01*
Y2026D02*
G01X2305Y2122D01*
Y2122D02*
G01Y2198D01*
Y2198D02*
G01X2324Y2294D01*
Y2294D02*
G01X2363Y2370D01*
Y2370D02*
G01X2401Y2428D01*
Y2428D02*
G01X2439Y2466D01*
X1773Y2055D02*
G01Y2035D01*
Y2035D02*
G01X1754Y1997D01*
Y1997D02*
G01X1735Y1978D01*
Y1978D02*
G01X1697Y1959D01*
Y1959D02*
G01X1620D01*
Y1959D02*
G01X1582Y1978D01*
Y1978D02*
G01X1563Y1997D01*
Y1997D02*
G01X1544Y2035D01*
Y2035D02*
G01Y2074D01*
Y2074D02*
G01X1563Y2112D01*
Y2112D02*
G01X1601Y2169D01*
Y2169D02*
G01X1793Y2360D01*
Y2360D02*
G01X1525D01*
X1286Y1959D02*
G01X1344Y1978D01*
Y1978D02*
G01X1382Y2035D01*
Y2035D02*
G01X1401Y2131D01*
Y2131D02*
G01Y2188D01*
Y2188D02*
G01X1382Y2284D01*
Y2284D02*
G01X1344Y2341D01*
Y2341D02*
G01X1286Y2360D01*
Y2360D02*
G01X1248D01*
Y2360D02*
G01X1191Y2341D01*
Y2341D02*
G01X1153Y2284D01*
Y2284D02*
G01X1133Y2188D01*
Y2188D02*
G01Y2131D01*
Y2131D02*
G01X1153Y2035D01*
Y2035D02*
G01X1191Y1978D01*
Y1978D02*
G01X1248Y1959D01*
Y1959D02*
G01X1286D01*
X1153Y2035D02*
G01X1382Y2284D01*
X895Y1959D02*
G01X952Y1978D01*
Y1978D02*
G01X991Y2035D01*
Y2035D02*
G01X1010Y2131D01*
Y2131D02*
G01Y2188D01*
Y2188D02*
G01X991Y2284D01*
Y2284D02*
G01X952Y2341D01*
Y2341D02*
G01X895Y2360D01*
Y2360D02*
G01X857D01*
Y2360D02*
G01X799Y2341D01*
Y2341D02*
G01X761Y2284D01*
Y2284D02*
G01X742Y2188D01*
Y2188D02*
G01Y2131D01*
Y2131D02*
G01X761Y2035D01*
Y2035D02*
G01X799Y1978D01*
Y1978D02*
G01X857Y1959D01*
Y1959D02*
G01X895D01*
X761Y2035D02*
G01X991Y2284D01*
X370Y2093D02*
G01X389Y2150D01*
Y2150D02*
G01X427Y2188D01*
Y2188D02*
G01X485Y2207D01*
Y2207D02*
G01X504D01*
Y2207D02*
G01X561Y2188D01*
Y2188D02*
G01X599Y2150D01*
Y2150D02*
G01X618Y2093D01*
Y2093D02*
G01Y2074D01*
Y2074D02*
G01X599Y2016D01*
Y2016D02*
G01X561Y1978D01*
Y1978D02*
G01X504Y1959D01*
Y1959D02*
G01X485D01*
Y1959D02*
G01X427Y1978D01*
Y1978D02*
G01X389Y2016D01*
Y2016D02*
G01X370Y2093D01*
Y2093D02*
G01Y2188D01*
Y2188D02*
G01X389Y2284D01*
Y2284D02*
G01X427Y2341D01*
Y2341D02*
G01X485Y2360D01*
Y2360D02*
G01X523D01*
Y2360D02*
G01X580Y2341D01*
Y2341D02*
G01X599Y2303D01*
X3681Y490D02*
G01X3509D01*
Y490D02*
G01X3452Y470D01*
Y470D02*
G01X3432Y451D01*
Y451D02*
G01X3413Y413D01*
Y413D02*
G01Y375D01*
Y375D02*
G01X3432Y337D01*
Y337D02*
G01X3452Y317D01*
Y317D02*
G01X3509Y298D01*
Y298D02*
G01X3681D01*
Y298D02*
G01Y700D01*
X3547Y490D02*
G01X3413Y700D01*
X3194Y432D02*
G01X3232Y451D01*
Y451D02*
G01X3271Y490D01*
Y490D02*
G01X3290Y547D01*
Y547D02*
G01Y585D01*
Y585D02*
G01X3271Y643D01*
Y643D02*
G01X3232Y681D01*
Y681D02*
G01X3194Y700D01*
Y700D02*
G01X3137D01*
Y700D02*
G01X3098Y681D01*
Y681D02*
G01X3060Y643D01*
Y643D02*
G01X3041Y585D01*
Y585D02*
G01Y547D01*
Y547D02*
G01X3060Y490D01*
Y490D02*
G01X3098Y451D01*
Y451D02*
G01X3137Y432D01*
Y432D02*
G01X3194D01*
X2917Y298D02*
G01Y700D01*
Y490D02*
G01X2879Y451D01*
Y451D02*
G01X2841Y432D01*
Y432D02*
G01X2783D01*
Y432D02*
G01X2745Y451D01*
Y451D02*
G01X2707Y490D01*
Y490D02*
G01X2688Y547D01*
Y547D02*
G01Y585D01*
Y585D02*
G01X2707Y643D01*
Y643D02*
G01X2745Y681D01*
Y681D02*
G01X2783Y700D01*
Y700D02*
G01X2841D01*
Y700D02*
G01X2879Y681D01*
Y681D02*
G01X2917Y643D01*
X2469Y432D02*
G01X2507Y451D01*
Y451D02*
G01X2545Y490D01*
Y490D02*
G01X2564Y547D01*
Y547D02*
G01Y585D01*
Y585D02*
G01X2545Y643D01*
Y643D02*
G01X2507Y681D01*
Y681D02*
G01X2469Y700D01*
Y700D02*
G01X2411D01*
Y700D02*
G01X2373Y681D01*
Y681D02*
G01X2335Y643D01*
Y643D02*
G01X2316Y585D01*
Y585D02*
G01Y547D01*
Y547D02*
G01X2335Y490D01*
Y490D02*
G01X2373Y451D01*
Y451D02*
G01X2411Y432D01*
Y432D02*
G01X2469D01*
X2135Y298D02*
G01Y624D01*
Y624D02*
G01X2116Y681D01*
Y681D02*
G01X2077Y700D01*
Y700D02*
G01X2039D01*
X2192Y432D02*
G01X2058D01*
X1629Y394D02*
G01X1648Y356D01*
Y356D02*
G01X1686Y317D01*
Y317D02*
G01X1724Y298D01*
Y298D02*
G01X1801D01*
Y298D02*
G01X1839Y317D01*
Y317D02*
G01X1877Y356D01*
Y356D02*
G01X1897Y394D01*
Y394D02*
G01X1916Y451D01*
Y451D02*
G01Y547D01*
Y547D02*
G01X1897Y604D01*
Y604D02*
G01X1877Y643D01*
Y643D02*
G01X1839Y681D01*
Y681D02*
G01X1801Y700D01*
Y700D02*
G01X1724D01*
Y700D02*
G01X1686Y681D01*
Y681D02*
G01X1648Y643D01*
Y643D02*
G01X1629Y604D01*
Y604D02*
G01Y547D01*
Y547D02*
G01X1724D01*
X1505Y432D02*
G01Y700D01*
Y547D02*
G01X1486Y490D01*
Y490D02*
G01X1448Y451D01*
Y451D02*
G01X1409Y432D01*
Y432D02*
G01X1352D01*
X1133D02*
G01X1171Y451D01*
Y451D02*
G01X1209Y490D01*
Y490D02*
G01X1228Y547D01*
Y547D02*
G01Y585D01*
Y585D02*
G01X1209Y643D01*
Y643D02*
G01X1171Y681D01*
Y681D02*
G01X1133Y700D01*
Y700D02*
G01X1075D01*
Y700D02*
G01X1037Y681D01*
Y681D02*
G01X999Y643D01*
Y643D02*
G01X979Y585D01*
Y585D02*
G01Y547D01*
Y547D02*
G01X999Y490D01*
Y490D02*
G01X1037Y451D01*
Y451D02*
G01X1075Y432D01*
Y432D02*
G01X1133D01*
X856D02*
G01Y624D01*
Y624D02*
G01X837Y681D01*
Y681D02*
G01X798Y700D01*
Y700D02*
G01X741D01*
Y700D02*
G01X703Y681D01*
Y681D02*
G01X645Y624D01*
Y432D02*
G01Y700D01*
X522Y432D02*
G01Y834D01*
Y490D02*
G01X483Y452D01*
Y452D02*
G01X445Y432D01*
Y432D02*
G01X388D01*
Y432D02*
G01X349Y452D01*
Y452D02*
G01X311Y490D01*
Y490D02*
G01X292Y547D01*
Y547D02*
G01Y586D01*
Y586D02*
G01X311Y643D01*
Y643D02*
G01X349Y681D01*
Y681D02*
G01X388Y700D01*
Y700D02*
G01X445D01*
Y700D02*
G01X483Y681D01*
Y681D02*
G01X522Y643D01*
X4613Y475D02*
G01X4575Y456D01*
Y456D02*
G01X4536Y418D01*
Y418D02*
G01X4517Y380D01*
Y380D02*
G01Y303D01*
Y303D02*
G01X4536Y265D01*
Y265D02*
G01X4575Y227D01*
Y227D02*
G01X4613Y207D01*
Y207D02*
G01X4670Y188D01*
Y188D02*
G01X4766D01*
Y188D02*
G01X4823Y207D01*
Y207D02*
G01X4862Y227D01*
Y227D02*
G01X4900Y265D01*
Y265D02*
G01X4919Y303D01*
Y303D02*
G01Y380D01*
Y380D02*
G01X4900Y418D01*
Y418D02*
G01X4862Y456D01*
Y456D02*
G01X4823Y475D01*
Y475D02*
G01X4766D01*
Y475D02*
G01Y380D01*
X4517Y867D02*
G01X4919D01*
Y867D02*
G01X4517Y599D01*
Y599D02*
G01X4919D01*
X4517Y990D02*
G01X4919D01*
Y990D02*
G01Y1124D01*
Y1124D02*
G01X4900Y1182D01*
Y1182D02*
G01X4862Y1220D01*
Y1220D02*
G01X4823Y1239D01*
Y1239D02*
G01X4766Y1258D01*
Y1258D02*
G01X4670D01*
Y1258D02*
G01X4613Y1239D01*
Y1239D02*
G01X4575Y1220D01*
Y1220D02*
G01X4536Y1182D01*
Y1182D02*
G01X4517Y1124D01*
Y1124D02*
G01Y990D01*
X4487Y2188D02*
G01X4889D01*
Y2188D02*
G01Y2322D01*
Y2322D02*
G01X4870Y2380D01*
Y2380D02*
G01X4832Y2418D01*
Y2418D02*
G01X4793Y2437D01*
Y2437D02*
G01X4736Y2456D01*
Y2456D02*
G01X4640D01*
Y2456D02*
G01X4583Y2437D01*
Y2437D02*
G01X4545Y2418D01*
Y2418D02*
G01X4506Y2380D01*
Y2380D02*
G01X4487Y2322D01*
Y2322D02*
G01Y2188D01*
X4621Y2809D02*
G01X4889D01*
X4679D02*
G01X4640Y2771D01*
Y2771D02*
G01X4621Y2733D01*
Y2733D02*
G01Y2676D01*
Y2676D02*
G01X4640Y2637D01*
Y2637D02*
G01X4679Y2599D01*
Y2599D02*
G01X4736Y2580D01*
Y2580D02*
G01X4774D01*
Y2580D02*
G01X4832Y2599D01*
Y2599D02*
G01X4870Y2637D01*
Y2637D02*
G01X4889Y2676D01*
Y2676D02*
G01Y2733D01*
Y2733D02*
G01X4870Y2771D01*
Y2771D02*
G01X4832Y2809D01*
X4487Y2990D02*
G01X4813D01*
Y2990D02*
G01X4870Y3009D01*
Y3009D02*
G01X4889Y3048D01*
Y3048D02*
G01Y3086D01*
X4621Y2933D02*
G01Y3067D01*
Y3439D02*
G01X4889D01*
X4679D02*
G01X4640Y3401D01*
Y3401D02*
G01X4621Y3362D01*
Y3362D02*
G01Y3305D01*
Y3305D02*
G01X4640Y3267D01*
Y3267D02*
G01X4679Y3229D01*
Y3229D02*
G01X4736Y3209D01*
Y3209D02*
G01X4774D01*
Y3209D02*
G01X4832Y3229D01*
Y3229D02*
G01X4870Y3267D01*
Y3267D02*
G01X4889Y3305D01*
Y3305D02*
G01Y3362D01*
Y3362D02*
G01X4870Y3401D01*
Y3401D02*
G01X4832Y3439D01*
X4847Y1538D02*
G01X4694Y1940D01*
Y1940D02*
G01X4541Y1538D01*
X4188Y1730D02*
G01X4226Y1691D01*
Y1691D02*
G01X4265Y1672D01*
Y1672D02*
G01X4322D01*
Y1672D02*
G01X4360Y1691D01*
Y1691D02*
G01X4398Y1730D01*
Y1730D02*
G01X4418Y1787D01*
Y1787D02*
G01Y1825D01*
Y1825D02*
G01X4398Y1883D01*
Y1883D02*
G01X4360Y1921D01*
Y1921D02*
G01X4322Y1940D01*
Y1940D02*
G01X4265D01*
Y1940D02*
G01X4226Y1921D01*
Y1921D02*
G01X4188Y1883D01*
X3835Y1730D02*
G01X3873Y1691D01*
Y1691D02*
G01X3911Y1672D01*
Y1672D02*
G01X3969D01*
Y1672D02*
G01X4007Y1691D01*
Y1691D02*
G01X4045Y1730D01*
Y1730D02*
G01X4064Y1787D01*
Y1787D02*
G01Y1825D01*
Y1825D02*
G01X4045Y1883D01*
Y1883D02*
G01X4007Y1921D01*
Y1921D02*
G01X3969Y1940D01*
Y1940D02*
G01X3911D01*
Y1940D02*
G01X3873Y1921D01*
Y1921D02*
G01X3835Y1883D01*
G54D14*
X14069Y1771D02*
G01X14075D01*
X14050Y2063*
X13974Y2345*
X13850Y2611*
X13682Y2850*
X13475Y3057*
X13236Y3225*
X12970Y3349*
X12688Y3425*
X12396Y3450*
X12104Y3425*
X11822Y3349*
X11556Y3225*
X11317Y3057*
X11110Y2850*
X10942Y2611*
X10818Y2345*
X10742Y2063*
X10717Y1771*
X10742Y1479*
X10818Y1197*
X10942Y931*
X11110Y692*
X11317Y485*
X11556Y317*
X11822Y193*
X12104Y117*
X12396Y92*
X12688Y117*
X12970Y193*
X13236Y317*
X13475Y485*
X13682Y692*
X13850Y931*
X13974Y1197*
X14050Y1479*
X14075Y1771*
X14069*
G54D10*
X10124D02*
G01X10127D01*
X10115Y1908*
X10079Y2041*
X10021Y2166*
X9942Y2279*
X9474Y2549D02*
G01X9337Y2561D01*
X9200Y2549*
X9067Y2513*
X8942Y2455*
X8559Y1908D02*
G01X8547Y1771D01*
X8559Y1634*
X8942Y1087D02*
G01X9067Y1029D01*
X9200Y993*
X9337Y981*
X9474Y993*
X9607Y1029*
X9942Y1263D02*
G01X10021Y1376D01*
X10079Y1501*
X10115Y1634*
X10127Y1771*
X10124*
X9877Y2344D02*
G01X9942Y2279D01*
X9474Y2549D02*
G01X9605Y2514D01*
X8855Y2394D02*
G01X8942Y2455D01*
X8559Y1908D02*
G01X8592Y2032D01*
X8559Y1634D02*
G01X8592Y1512D01*
X8854Y1148D02*
G01X8942Y1087D01*
X9607Y1029D02*
G01X9609D01*
X9876Y1197D02*
G01X9942Y1263D01*
M02*
