M48
INCH
T01C0.0191
T02C0.0236
T03C0.0295
T04C0.0335
T05C0.035
T06C0.0354
T07C0.038
T08C0.0394
T09C0.126
T10C0.128
%
T01
X+024753Y-013501
X+024753Y-014001
X+025378Y-013501
X+026003Y-013501
X+026565Y-013501
X+026628Y-014627
X+026128Y-014627
X+026128Y-015377
X+026628Y-015377
X+026628Y-016127
X+026128Y-016127
X+026128Y-016877
X+026628Y-016877
X+026628Y-017627
X+026128Y-017627
X+024690Y-017814
X+024690Y-018189
X+023815Y-017689
X+023377Y-017189
X+023377Y-016564
X+023815Y-016189
X+023315Y-015252
X+023252Y-014564
X+023815Y-014001
X+022190Y-012939
X+020315Y-012939
X+018502Y-012376
X+018502Y-011751
X+018752Y-009876
X+017002Y-009376
X+016377Y-009501
X+016439Y-010189
X+016064Y-010564
X+016064Y-011251
X+015752Y-011689
X+016627Y-011314
X+014189Y-011751
X+013689Y-011376
X+013439Y-011814
X+014001Y-012501
X+013439Y-014001
X+012876Y-013876
X+011501Y-013376
X+011501Y-012814
X+011501Y-012126
X+010939Y-011876
X+009376Y-012814
X+009376Y-013626
X+008751Y-015002
X+009126Y-015433
X+009939Y-016939
X+010501Y-018064
X+011439Y-016939
X+012376Y-017876
X+014251Y-016939
X+014877Y-016939
X+018377Y-015877
X+019690Y-016877
X+022002Y-010422
X+022002Y-008126
X+022690Y-008126
X+022565Y-006689
X+024565Y-006063
X+027315Y-003938
X+026815Y-001813
X+020377Y-003813
X+020440Y-004813
X+019315Y-004188
X+018315Y-004500
X+015752Y-003438
X+014752Y-004500
X+015435Y-007997
X+014752Y-008313
X+014752Y-008876
X+016377Y-007751
X+016877Y-007751
X+020565Y-008251
X+013814Y-010751
X+013251Y-010751
X+011439Y-009876
X+011439Y-007813
X+009188Y-007126
X+007751Y-007876
X+006001Y-005626
X+004438Y-004813
X+004438Y-004438
X+004438Y-004063
X+004000Y-007688
X+004688Y-008313
X+004375Y-008751
X+003065Y-013316
X+004500Y-015877
X+004500Y-016314
X+004500Y-016564
X+005751Y-015877
X+007938Y-019627
X+008313Y-019627
X+011126Y-021565
X+011001Y-023565
X+010626Y-005188
X+009814Y-004938
X+010876Y-003500
X+010376Y-003188
X+031128Y-012501
X+030753Y-013874
T02
X+015687Y-007126
X+017609Y-007126
T03
X+025786Y-005000
X+023227Y-005000
T04
X+003688Y-020565
X+003688Y-019580
T05
X+025315Y-001625
X+024315Y-001625
X+023315Y-001625
X+022315Y-001625
X+021315Y-001625
X+020315Y-001625
X+019315Y-001625
X+018315Y-001625
X+016715Y-001625
X+015715Y-001625
X+014715Y-001625
X+013715Y-001625
X+012715Y-001625
X+011715Y-001625
X+010715Y-001625
X+009715Y-001625
X+013315Y-020625
X+014315Y-020625
X+015315Y-020625
X+016315Y-020625
X+017315Y-020625
X+018315Y-020625
X+020315Y-020625
X+021315Y-020625
X+022315Y-020625
X+023315Y-020625
X+024315Y-020625
X+025315Y-020625
T06
X+003563Y-011686
X+002563Y-011686
X+001563Y-011686
X+002487Y-009365
X+002487Y-007633
X+013876Y-024628
X+013876Y-025628
X+013876Y-026628
X+016626Y-026628
X+016626Y-025628
X+016626Y-024628
X+019376Y-024628
X+019376Y-025628
X+019376Y-026628
X+022126Y-026628
X+022126Y-025628
X+022126Y-024628
X+024375Y-023187
X+025375Y-023187
X+024876Y-024628
X+024876Y-025628
X+024876Y-026628
X+027626Y-026628
X+027626Y-025628
X+027626Y-024628
X+029941Y-019189
X+029941Y-018189
X+029941Y-016314
X+029941Y-015314
X+029941Y-011439
X+029941Y-010439
X+029941Y-009439
X+029941Y-008439
X+029941Y-007439
X+026442Y-010314
X+026442Y-011314
X+026442Y-012314
X+024565Y-011876
X+024565Y-010876
X+024565Y-009876
X+023565Y-009876
X+023565Y-010876
X+023565Y-011876
T07
X+008751Y-023002
X+007751Y-023002
T08
X+004876Y-024503
X+003891Y-024503
X+005860Y-024503
X+007229Y-024315
X+009001Y-024315
X+010042Y-024315
X+011814Y-024315
X+011814Y-026874
X+010042Y-026874
X+009001Y-026874
X+007229Y-026874
X+005860Y-026865
X+004876Y-026865
X+003891Y-026865
T09
X+001772Y-026575
X+001772Y-023031
X+001772Y-005315
X+001772Y-001772
X+030118Y-001772
X+030118Y-005315
X+030118Y-023031
X+030118Y-026575
T10
X+006315Y-001625
X+026315Y-007625
X+026315Y-018625
T00
M30
